%TF.GenerationSoftware,KiCad,Pcbnew,7.0.7*%
%TF.CreationDate,2023-10-01T20:36:35+02:00*%
%TF.ProjectId,goose_reversible_pcb_routed,676f6f73-655f-4726-9576-65727369626c,v1.0.0*%
%TF.SameCoordinates,Original*%
%TF.FileFunction,Profile,NP*%
%FSLAX46Y46*%
G04 Gerber Fmt 4.6, Leading zero omitted, Abs format (unit mm)*
G04 Created by KiCad (PCBNEW 7.0.7) date 2023-10-01 20:36:35*
%MOMM*%
%LPD*%
G01*
G04 APERTURE LIST*
%TA.AperFunction,Profile*%
%ADD10C,0.150000*%
%TD*%
G04 APERTURE END LIST*
D10*
X268273672Y-111293696D02*
G75*
G03*
X266291152Y-109276328I-1999972J17396D01*
G01*
X169221087Y-181022095D02*
X188012386Y-178213718D01*
X247151765Y-106269891D02*
G75*
G03*
X245134357Y-104287434I-1999965J-17509D01*
G01*
X265203040Y-191923709D02*
X283752674Y-196036069D01*
X225151218Y-104461815D02*
X225122239Y-103798174D01*
X188012384Y-178213708D02*
G75*
G03*
X189694800Y-175940068I-295584J1978008D01*
G01*
X290250499Y-175966731D02*
G75*
G03*
X290297892Y-175526550I-1952199J432831D01*
G01*
X188869464Y-170417625D02*
X204953717Y-169151765D01*
X247176528Y-109109521D02*
X247151746Y-106269891D01*
X162734857Y-151152721D02*
X162660965Y-150658229D01*
X264641387Y-191746900D02*
G75*
G03*
X264731880Y-191755133I226413J1987200D01*
G01*
X245763528Y-189596036D02*
X264641387Y-191746900D01*
X182555385Y-109725972D02*
G75*
G03*
X180718470Y-111876686I156915J-1993828D01*
G01*
X182555381Y-109725927D02*
X202291324Y-108172673D01*
X225151218Y-104461815D02*
X245134357Y-104287434D01*
X223036901Y-101887323D02*
X204054994Y-102716079D01*
X268249632Y-114043602D02*
X268273624Y-111293696D01*
X264731884Y-191755123D02*
G75*
G03*
X265203040Y-191923709I904016J1783823D01*
G01*
X202144132Y-104801429D02*
X202291324Y-108172673D01*
X268249632Y-114043602D02*
X288098874Y-114216821D01*
X162808768Y-151647235D02*
X162734860Y-151152724D01*
X290081441Y-116209449D02*
G75*
G03*
X288098874Y-114216821I-2000041J-7351D01*
G01*
X158522296Y-122965783D02*
X162660965Y-150658229D01*
X286138136Y-194516353D02*
X290250493Y-175966730D01*
X204054996Y-102716131D02*
G75*
G03*
X202144132Y-104801429I87204J-1998069D01*
G01*
X244288951Y-184870864D02*
X244002786Y-187382483D01*
X247176528Y-109109521D02*
X266291152Y-109276328D01*
X204953717Y-169151765D02*
X205505012Y-181778082D01*
X225122280Y-103798172D02*
G75*
G03*
X223036901Y-101887323I-1998080J-87228D01*
G01*
X207590345Y-183688949D02*
X225002761Y-182928702D01*
X225003743Y-183039091D02*
G75*
G03*
X227021111Y-185021557I1999957J17491D01*
G01*
X160204715Y-120692124D02*
X181165724Y-117559484D01*
X160204726Y-120692195D02*
G75*
G03*
X158522296Y-122965781I295574J-1978005D01*
G01*
X244002769Y-187382481D02*
G75*
G03*
X245763526Y-189596036I1987131J-226419D01*
G01*
X225002761Y-182928702D02*
X225003723Y-183039091D01*
X290081418Y-116209449D02*
X290297893Y-175526550D01*
X189694801Y-175940068D02*
X188869464Y-170417625D01*
X180718470Y-111876686D02*
X181165724Y-117559484D01*
X227021111Y-185021558D02*
X244288951Y-184870864D01*
X205505049Y-181778080D02*
G75*
G03*
X207590345Y-183688948I1998051J87180D01*
G01*
X162808770Y-151647237D02*
X166947444Y-179339685D01*
X166947505Y-179339676D02*
G75*
G03*
X169221084Y-181022093I1977995J295576D01*
G01*
X283752659Y-196036138D02*
G75*
G03*
X286138136Y-194516353I432841J1952638D01*
G01*
M02*
