%TF.GenerationSoftware,KiCad,Pcbnew,7.0.8*%
%TF.CreationDate,2023-11-06T14:18:33+01:00*%
%TF.ProjectId,goose_choc_routing,676f6f73-655f-4636-986f-635f726f7574,v1.0.0*%
%TF.SameCoordinates,Original*%
%TF.FileFunction,Soldermask,Top*%
%TF.FilePolarity,Negative*%
%FSLAX46Y46*%
G04 Gerber Fmt 4.6, Leading zero omitted, Abs format (unit mm)*
G04 Created by KiCad (PCBNEW 7.0.8) date 2023-11-06 14:18:33*
%MOMM*%
%LPD*%
G01*
G04 APERTURE LIST*
G04 Aperture macros list*
%AMRoundRect*
0 Rectangle with rounded corners*
0 $1 Rounding radius*
0 $2 $3 $4 $5 $6 $7 $8 $9 X,Y pos of 4 corners*
0 Add a 4 corners polygon primitive as box body*
4,1,4,$2,$3,$4,$5,$6,$7,$8,$9,$2,$3,0*
0 Add four circle primitives for the rounded corners*
1,1,$1+$1,$2,$3*
1,1,$1+$1,$4,$5*
1,1,$1+$1,$6,$7*
1,1,$1+$1,$8,$9*
0 Add four rect primitives between the rounded corners*
20,1,$1+$1,$2,$3,$4,$5,0*
20,1,$1+$1,$4,$5,$6,$7,0*
20,1,$1+$1,$6,$7,$8,$9,0*
20,1,$1+$1,$8,$9,$2,$3,0*%
%AMHorizOval*
0 Thick line with rounded ends*
0 $1 width*
0 $2 $3 position (X,Y) of the first rounded end (center of the circle)*
0 $4 $5 position (X,Y) of the second rounded end (center of the circle)*
0 Add line between two ends*
20,1,$1,$2,$3,$4,$5,0*
0 Add two circle primitives to create the rounded ends*
1,1,$1,$2,$3*
1,1,$1,$4,$5*%
G04 Aperture macros list end*
%ADD10C,0.700000*%
%ADD11RoundRect,0.050000X0.475743X0.579800X-0.423400X0.619058X-0.475743X-0.579800X0.423400X-0.619058X0*%
%ADD12RoundRect,0.050000X0.465552X0.588015X-0.434140X0.611574X-0.465552X-0.588015X0.434140X-0.611574X0*%
%ADD13RoundRect,0.050000X0.423400X0.619058X-0.475743X0.579800X-0.423400X-0.619058X0.475743X-0.579800X0*%
%ADD14RoundRect,0.050000X0.379185X0.647085X-0.515029X0.545202X-0.379185X-0.647085X0.515029X-0.545202X0*%
%ADD15RoundRect,0.050000X0.542857X0.517500X-0.344800X0.666043X-0.542857X-0.517500X0.344800X-0.666043X0*%
%ADD16RoundRect,0.050000X0.488380X-0.569197X0.683175X0.309469X-0.488380X0.569197X-0.683175X-0.309469X0*%
%ADD17RoundRect,0.050000X0.444747X0.603904X-0.455219X0.596050X-0.444747X-0.603904X0.455219X-0.596050X0*%
%ADD18RoundRect,0.050000X0.367834X0.653604X-0.524466X0.536130X-0.367834X-0.653604X0.524466X-0.536130X0*%
%ADD19RoundRect,0.050000X-0.678929X-1.221548X0.569881X-1.276072X0.678929X1.221548X-0.569881X1.276072X0*%
%ADD20C,3.900000*%
%ADD21RoundRect,0.050000X-0.918458X1.075376X-1.075376X-0.918458X0.918458X-1.075376X1.075376X0.918458X0*%
%ADD22C,2.100000*%
%ADD23RoundRect,0.050000X-1.128458X1.593450X-1.363835X-1.397302X1.128458X-1.593450X1.363835X1.397302X0*%
%ADD24C,1.801800*%
%ADD25C,3.529000*%
%ADD26C,2.132000*%
%ADD27HorizOval,1.900000X0.474548X-0.020719X-0.474548X0.020719X0*%
%ADD28HorizOval,1.900000X-0.474548X0.020719X0.474548X-0.020719X0*%
%ADD29C,1.497000*%
G04 APERTURE END LIST*
D10*
%TO.C,Di31*%
X254283098Y-148383113D03*
D11*
X253833527Y-148363484D03*
X250536667Y-148219540D03*
D10*
X250087096Y-148199911D03*
%TD*%
%TO.C,Di30*%
X236390284Y-108865226D03*
D12*
X235940439Y-108853446D03*
X232641569Y-108767062D03*
D10*
X232191724Y-108755282D03*
%TD*%
%TO.C,Di22*%
X198023794Y-145694188D03*
D13*
X197574223Y-145713817D03*
X194277363Y-145857761D03*
D10*
X193827792Y-145877390D03*
%TD*%
%TO.C,Di19*%
X180239972Y-154629280D03*
D14*
X179792865Y-154680222D03*
X176514077Y-155053792D03*
D10*
X176066970Y-155104734D03*
%TD*%
%TO.C,Di34*%
X227461149Y-161324439D03*
D12*
X227011304Y-161312659D03*
X223712434Y-161226275D03*
D10*
X223262589Y-161214495D03*
%TD*%
%TO.C,Di33*%
X255766171Y-114415477D03*
D11*
X255316600Y-114395848D03*
X252019740Y-114251904D03*
D10*
X251570169Y-114232275D03*
%TD*%
%TO.C,Di32*%
X255024642Y-131399287D03*
D11*
X254575071Y-131379658D03*
X251278211Y-131235714D03*
D10*
X250828640Y-131216085D03*
%TD*%
%TO.C,Di35*%
X248681783Y-167128759D03*
D15*
X248237954Y-167054488D03*
X244983212Y-166509830D03*
D10*
X244539383Y-166435559D03*
%TD*%
%TO.C,Di36*%
X263810160Y-166896652D03*
D16*
X263907558Y-166457318D03*
X264621808Y-163235542D03*
D10*
X264719206Y-162796208D03*
%TD*%
%TO.C,Di23*%
X197282275Y-128710374D03*
D13*
X196832704Y-128730003D03*
X193535844Y-128873947D03*
D10*
X193086273Y-128893576D03*
%TD*%
%TO.C,Di21*%
X176391075Y-120847842D03*
D14*
X175943968Y-120898784D03*
X172665180Y-121272354D03*
D10*
X172218073Y-121323296D03*
%TD*%
%TO.C,Di24*%
X196540740Y-111726550D03*
D13*
X196091169Y-111746179D03*
X192794309Y-111890123D03*
D10*
X192344738Y-111909752D03*
%TD*%
%TO.C,Di26*%
X216484159Y-122948224D03*
D17*
X216034176Y-122952151D03*
X212734302Y-122980949D03*
D10*
X212284319Y-122984876D03*
%TD*%
%TO.C,Di28*%
X235500274Y-142853570D03*
D12*
X235050429Y-142841790D03*
X231751559Y-142755406D03*
D10*
X231301714Y-142743626D03*
%TD*%
%TO.C,Di25*%
X216632519Y-139947561D03*
D17*
X216182536Y-139951488D03*
X212882662Y-139980286D03*
D10*
X212432679Y-139984213D03*
%TD*%
%TO.C,Di29*%
X235945277Y-125859408D03*
D12*
X235495432Y-125847628D03*
X232196562Y-125761244D03*
D10*
X231746717Y-125749464D03*
%TD*%
%TO.C,Di27*%
X216335810Y-105948862D03*
D17*
X215885827Y-105952789D03*
X212585953Y-105981587D03*
D10*
X212135970Y-105985514D03*
%TD*%
%TO.C,Di20*%
X178311063Y-137702187D03*
D18*
X177864913Y-137760924D03*
X174593145Y-138191660D03*
D10*
X174146995Y-138250397D03*
%TD*%
D19*
%TO.C,PAD1*%
X265374349Y-127046601D03*
X267871969Y-127155649D03*
%TD*%
D20*
%TO.C,H4*%
X224018782Y-146883593D03*
%TD*%
%TO.C,H5*%
X259186608Y-155738052D03*
%TD*%
%TO.C,H3*%
X224276538Y-105889461D03*
%TD*%
%TO.C,H2*%
X186020288Y-137374369D03*
%TD*%
%TO.C,H1*%
X184451928Y-117446353D03*
%TD*%
D21*
%TO.C,ROT1*%
X276359424Y-137517152D03*
D22*
X271374837Y-137124857D03*
X273867131Y-137321004D03*
D23*
X278861425Y-145237255D03*
X267695950Y-144358513D03*
%TD*%
D24*
%TO.C,S10*%
X228020666Y-138156173D03*
D25*
X233518781Y-138300146D03*
D24*
X239016896Y-138444119D03*
D26*
X228619967Y-134370563D03*
X238616540Y-134632333D03*
X233673225Y-132402168D03*
%TD*%
D24*
%TO.C,S17*%
X241928727Y-161436115D03*
D25*
X247353298Y-162343877D03*
D24*
X252777869Y-163251639D03*
D26*
X243049051Y-157770754D03*
X252911907Y-159421230D03*
X248327079Y-156524792D03*
%TD*%
D24*
%TO.C,S4*%
X190234741Y-141529975D03*
D25*
X195729506Y-141290068D03*
D24*
X201224271Y-141050161D03*
D26*
X190568511Y-137711782D03*
X200558993Y-137275588D03*
X195472152Y-135395683D03*
%TD*%
D24*
%TO.C,S18*%
X269848447Y-160450782D03*
D25*
X268658029Y-165820410D03*
D24*
X267467611Y-171190038D03*
D26*
X273450152Y-161761400D03*
X271285756Y-171524361D03*
X274418175Y-167097404D03*
%TD*%
D24*
%TO.C,S11*%
X228465674Y-121161997D03*
D25*
X233963789Y-121305970D03*
D24*
X239461904Y-121449943D03*
D26*
X229064975Y-117376387D03*
X239061548Y-117638157D03*
X234118233Y-115407992D03*
%TD*%
D24*
%TO.C,S3*%
X168330516Y-117237113D03*
D25*
X173795161Y-116614495D03*
D24*
X179259806Y-115991877D03*
D26*
X168397130Y-113404938D03*
X178332848Y-112272906D03*
X173127262Y-110752421D03*
%TD*%
D24*
%TO.C,S5*%
X189493223Y-124546166D03*
D25*
X194987988Y-124306259D03*
D24*
X200482753Y-124066352D03*
D26*
X189826993Y-120727973D03*
X199817475Y-120291779D03*
X194730634Y-118411874D03*
%TD*%
D24*
%TO.C,S8*%
X208845185Y-118514710D03*
D25*
X214344976Y-118466714D03*
D24*
X219844767Y-118418718D03*
D26*
X209312006Y-114710491D03*
X219311625Y-114623226D03*
X214293489Y-112566939D03*
%TD*%
D24*
%TO.C,S16*%
X219981556Y-156627032D03*
D25*
X225479671Y-156771005D03*
D24*
X230977786Y-156914978D03*
D26*
X220580857Y-152841422D03*
X230577430Y-153103192D03*
X225634115Y-150873027D03*
%TD*%
D24*
%TO.C,S7*%
X208993537Y-135514062D03*
D25*
X214493328Y-135466066D03*
D24*
X219993119Y-135418070D03*
D26*
X209460358Y-131709843D03*
X219459977Y-131622578D03*
X214441841Y-129566291D03*
%TD*%
D24*
%TO.C,S12*%
X228910691Y-104167817D03*
D25*
X234408806Y-104311790D03*
D24*
X239906921Y-104455763D03*
D26*
X229509992Y-100382207D03*
X239506565Y-100643977D03*
X234563250Y-98413812D03*
%TD*%
D24*
%TO.C,S6*%
X188751685Y-107562350D03*
D25*
X194246450Y-107322443D03*
D24*
X199741215Y-107082536D03*
D26*
X189085455Y-103744157D03*
X199075937Y-103307963D03*
X193989096Y-101428058D03*
%TD*%
D24*
%TO.C,S9*%
X208696837Y-101515354D03*
D25*
X214196628Y-101467358D03*
D24*
X219696419Y-101419362D03*
D26*
X209163658Y-97711135D03*
X219163277Y-97623870D03*
X214145141Y-95567583D03*
%TD*%
D24*
%TO.C,S1*%
X172179428Y-151018552D03*
D25*
X177644073Y-150395934D03*
D24*
X183108718Y-149773316D03*
D26*
X172246042Y-147186377D03*
X182181760Y-146054345D03*
X176976174Y-144533860D03*
%TD*%
D24*
%TO.C,S2*%
X170254967Y-134127836D03*
D25*
X175719612Y-133505218D03*
D24*
X181184257Y-132882600D03*
D26*
X170321581Y-130295661D03*
X180257299Y-129163629D03*
X175051713Y-127643144D03*
%TD*%
D24*
%TO.C,S13*%
X246886626Y-143555885D03*
D25*
X252381391Y-143795792D03*
D24*
X257876156Y-144035699D03*
D26*
X247551904Y-139781312D03*
X257542386Y-140217506D03*
X252638745Y-137901407D03*
%TD*%
D24*
%TO.C,S15*%
X248369685Y-109588255D03*
D25*
X253864450Y-109828162D03*
D24*
X259359215Y-110068069D03*
D26*
X249034963Y-105813682D03*
X259025445Y-106249876D03*
X254121804Y-103933777D03*
%TD*%
D24*
%TO.C,S14*%
X247628154Y-126572072D03*
D25*
X253122919Y-126811979D03*
D24*
X258617684Y-127051886D03*
D26*
X248293432Y-122797499D03*
X258283914Y-123233693D03*
X253380273Y-120917594D03*
%TD*%
D27*
%TO.C,MCU1*%
X266404644Y-107002461D03*
X266293851Y-109540043D03*
X266183058Y-112077626D03*
X266072265Y-114615208D03*
X265961471Y-117152791D03*
X265850678Y-119690373D03*
X265739885Y-122227956D03*
D28*
X281914476Y-122934153D03*
X282025269Y-120396571D03*
X282136062Y-117858988D03*
X282246855Y-115321406D03*
X282357649Y-112783823D03*
X282468442Y-110246241D03*
X282579235Y-107708658D03*
D29*
X269732618Y-114457721D03*
X278609863Y-114845309D03*
%TD*%
M02*
