%TF.GenerationSoftware,KiCad,Pcbnew,7.0.8*%
%TF.CreationDate,2023-11-06T14:18:33+01:00*%
%TF.ProjectId,goose_choc_routing,676f6f73-655f-4636-986f-635f726f7574,v1.0.0*%
%TF.SameCoordinates,Original*%
%TF.FileFunction,Paste,Top*%
%TF.FilePolarity,Positive*%
%FSLAX46Y46*%
G04 Gerber Fmt 4.6, Leading zero omitted, Abs format (unit mm)*
G04 Created by KiCad (PCBNEW 7.0.8) date 2023-11-06 14:18:33*
%MOMM*%
%LPD*%
G01*
G04 APERTURE LIST*
G04 Aperture macros list*
%AMHorizOval*
0 Thick line with rounded ends*
0 $1 width*
0 $2 $3 position (X,Y) of the first rounded end (center of the circle)*
0 $4 $5 position (X,Y) of the second rounded end (center of the circle)*
0 Add line between two ends*
20,1,$1,$2,$3,$4,$5,0*
0 Add two circle primitives to create the rounded ends*
1,1,$1,$2,$3*
1,1,$1,$4,$5*%
%AMRotRect*
0 Rectangle, with rotation*
0 The origin of the aperture is its center*
0 $1 length*
0 $2 width*
0 $3 Rotation angle, in degrees counterclockwise*
0 Add horizontal line*
21,1,$1,$2,0,0,$3*%
G04 Aperture macros list end*
%ADD10RotRect,0.900000X1.200000X177.500000*%
%ADD11RotRect,0.900000X1.200000X178.500000*%
%ADD12RotRect,0.900000X1.200000X182.500000*%
%ADD13RotRect,0.900000X1.200000X186.500000*%
%ADD14RotRect,0.900000X1.200000X170.500000*%
%ADD15RotRect,0.900000X1.200000X77.500000*%
%ADD16RotRect,0.900000X1.200000X180.500000*%
%ADD17RotRect,0.900000X1.200000X187.500000*%
%ADD18RotRect,1.250000X2.500000X357.500000*%
%ADD19HorizOval,1.800000X0.474548X-0.020719X-0.474548X0.020719X0*%
%ADD20HorizOval,1.800000X-0.474548X0.020719X0.474548X-0.020719X0*%
G04 APERTURE END LIST*
D10*
%TO.C,Di31*%
X253833527Y-148363484D03*
X250536667Y-148219540D03*
%TD*%
D11*
%TO.C,Di30*%
X235940439Y-108853446D03*
X232641569Y-108767062D03*
%TD*%
D12*
%TO.C,Di22*%
X197574223Y-145713817D03*
X194277363Y-145857761D03*
%TD*%
D13*
%TO.C,Di19*%
X179792865Y-154680222D03*
X176514077Y-155053792D03*
%TD*%
D11*
%TO.C,Di34*%
X227011304Y-161312659D03*
X223712434Y-161226275D03*
%TD*%
D10*
%TO.C,Di33*%
X255316600Y-114395848D03*
X252019740Y-114251904D03*
%TD*%
%TO.C,Di32*%
X254575071Y-131379658D03*
X251278211Y-131235714D03*
%TD*%
D14*
%TO.C,Di35*%
X248237954Y-167054488D03*
X244983212Y-166509830D03*
%TD*%
D15*
%TO.C,Di36*%
X263907558Y-166457318D03*
X264621808Y-163235542D03*
%TD*%
D12*
%TO.C,Di23*%
X196832704Y-128730003D03*
X193535844Y-128873947D03*
%TD*%
D13*
%TO.C,Di21*%
X175943968Y-120898784D03*
X172665180Y-121272354D03*
%TD*%
D12*
%TO.C,Di24*%
X196091169Y-111746179D03*
X192794309Y-111890123D03*
%TD*%
D16*
%TO.C,Di26*%
X216034176Y-122952151D03*
X212734302Y-122980949D03*
%TD*%
D11*
%TO.C,Di28*%
X235050429Y-142841790D03*
X231751559Y-142755406D03*
%TD*%
D16*
%TO.C,Di25*%
X216182536Y-139951488D03*
X212882662Y-139980286D03*
%TD*%
D11*
%TO.C,Di29*%
X235495432Y-125847628D03*
X232196562Y-125761244D03*
%TD*%
D16*
%TO.C,Di27*%
X215885827Y-105952789D03*
X212585953Y-105981587D03*
%TD*%
D17*
%TO.C,Di20*%
X177864913Y-137760924D03*
X174593145Y-138191660D03*
%TD*%
D18*
%TO.C,PAD1*%
X265374349Y-127046601D03*
X267871969Y-127155649D03*
%TD*%
D19*
%TO.C,MCU1*%
X266404644Y-107002461D03*
X266293851Y-109540043D03*
X266183058Y-112077626D03*
X266072265Y-114615208D03*
X265961471Y-117152791D03*
X265850678Y-119690373D03*
X265739885Y-122227956D03*
D20*
X281914476Y-122934153D03*
X282025269Y-120396571D03*
X282136062Y-117858988D03*
X282246855Y-115321406D03*
X282357649Y-112783823D03*
X282468442Y-110246241D03*
X282579235Y-107708658D03*
%TD*%
M02*
