%TF.GenerationSoftware,KiCad,Pcbnew,7.0.8*%
%TF.CreationDate,2023-11-06T14:20:59+01:00*%
%TF.ProjectId,bottom_choc,626f7474-6f6d-45f6-9368-6f632e6b6963,v1.0.0*%
%TF.SameCoordinates,Original*%
%TF.FileFunction,Profile,NP*%
%FSLAX46Y46*%
G04 Gerber Fmt 4.6, Leading zero omitted, Abs format (unit mm)*
G04 Created by KiCad (PCBNEW 7.0.8) date 2023-11-06 14:20:59*
%MOMM*%
%LPD*%
G01*
G04 APERTURE LIST*
%TA.AperFunction,Profile*%
%ADD10C,0.150000*%
%TD*%
G04 APERTURE END LIST*
D10*
X170349327Y-161252463D02*
X188233620Y-159214805D01*
X188233620Y-159214805D02*
G75*
G03*
X189994358Y-157001255I-226406J1987144D01*
G01*
X189994358Y-157001255D02*
X189489312Y-152568528D01*
X190439265Y-151456276D02*
X205637720Y-150792697D01*
X205637720Y-150792696D02*
G75*
G03*
X207548577Y-148707363I-87238J1998095D01*
G01*
X207548578Y-148707362D02*
X207450982Y-146472056D01*
X208441304Y-145428474D02*
X214182165Y-145378375D01*
X215164712Y-147391161D02*
X215190548Y-146404514D01*
X215164712Y-147391161D02*
X214942208Y-155888248D01*
X214942208Y-155888248D02*
X214719704Y-164385335D01*
X214719704Y-164385335D02*
G75*
G03*
X216666665Y-166437004I1999315J-52354D01*
G01*
X216666665Y-166437004D02*
X234640848Y-166907674D01*
X235600957Y-168072379D02*
X235560027Y-168316965D01*
X235560028Y-168316965D02*
G75*
G03*
X237202503Y-170619630I1972570J-330095D01*
G01*
X237202503Y-170619631D02*
X259295215Y-174316684D01*
X259346607Y-174326673D02*
X266735957Y-175964853D01*
X266735957Y-175964852D02*
X276010769Y-178021029D01*
X276010769Y-178021028D02*
G75*
G03*
X278396239Y-176501316I432879J1952591D01*
G01*
X278396240Y-176501316D02*
X282231088Y-159203435D01*
X282231087Y-159203435D02*
G75*
G03*
X282353752Y-158645409I-1872000J703997D01*
G01*
X286175002Y-106428859D02*
X282353753Y-158645409D01*
X286175001Y-106428859D02*
G75*
G03*
X284267574Y-104284793I-1994665J145971D01*
G01*
X266584422Y-103512728D02*
X284267575Y-104284791D01*
X265628993Y-102470060D02*
X265683517Y-101221250D01*
X265683516Y-101221250D02*
G75*
G03*
X263772660Y-99135916I-1998095J87239D01*
G01*
X246993373Y-98403315D02*
X263772659Y-99135915D01*
X246037335Y-97378090D02*
X246086293Y-95508480D01*
X246086309Y-95507847D02*
G75*
G03*
X244139348Y-93456180I-1999314J52353D01*
G01*
X225586857Y-92970365D02*
X244139348Y-93456179D01*
X225586857Y-92970365D02*
X225580806Y-92276882D01*
X225580806Y-92276882D02*
G75*
G03*
X223563429Y-90294411I-1999924J-17453D01*
G01*
X223563429Y-90294412D02*
X205564114Y-90451489D01*
X205564114Y-90451489D02*
G75*
G03*
X203581643Y-92468866I17453J-1999924D01*
G01*
X203581643Y-92468866D02*
X203602538Y-94863137D01*
X185255786Y-96630194D02*
X202646195Y-95870912D01*
X185255786Y-96630195D02*
G75*
G03*
X183344930Y-98715529I87239J-1998095D01*
G01*
X183344929Y-98715529D02*
X183551907Y-103456122D01*
X164123150Y-106606011D02*
X182666062Y-104493313D01*
X164123150Y-106606011D02*
G75*
G03*
X162362413Y-108819562I226407J-1987144D01*
G01*
X162362413Y-108819561D02*
X168135777Y-159491726D01*
X168135777Y-159491726D02*
G75*
G03*
X170349328Y-161252463I1987144J226407D01*
G01*
X190439265Y-151456276D02*
G75*
G03*
X189489312Y-152568527I43619J-999048D01*
G01*
X208441304Y-145428475D02*
G75*
G03*
X207450984Y-146472056I8727J-999961D01*
G01*
X215190548Y-146404514D02*
G75*
G03*
X214182165Y-145378375I-999657J26177D01*
G01*
X235600957Y-168072379D02*
G75*
G03*
X234640847Y-166907675I-986286J165047D01*
G01*
X259346607Y-174326673D02*
G75*
G03*
X259295215Y-174316683I-216439J-976296D01*
G01*
X265628994Y-102470060D02*
G75*
G03*
X266584421Y-103512727I999047J-43620D01*
G01*
X246037336Y-97378090D02*
G75*
G03*
X246993373Y-98403314I999656J-26177D01*
G01*
X202646195Y-95870912D02*
G75*
G03*
X203602538Y-94863138I-43619J999048D01*
G01*
X182666062Y-104493312D02*
G75*
G03*
X183551906Y-103456122I-113203J993571D01*
G01*
M02*
