%TF.GenerationSoftware,KiCad,Pcbnew,7.0.7*%
%TF.CreationDate,2023-10-01T20:22:27+02:00*%
%TF.ProjectId,goose_bottom,676f6f73-655f-4626-9f74-746f6d2e6b69,v1.0.0*%
%TF.SameCoordinates,Original*%
%TF.FileFunction,Profile,NP*%
%FSLAX46Y46*%
G04 Gerber Fmt 4.6, Leading zero omitted, Abs format (unit mm)*
G04 Created by KiCad (PCBNEW 7.0.7) date 2023-10-01 20:22:27*
%MOMM*%
%LPD*%
G01*
G04 APERTURE LIST*
%TA.AperFunction,Profile*%
%ADD10C,0.150000*%
%TD*%
G04 APERTURE END LIST*
D10*
X171720394Y-177703000D02*
X190598259Y-175552139D01*
X190598259Y-175552139D02*
G75*
G03*
X192358997Y-173338589I-226406J1987144D01*
G01*
X192358997Y-173338589D02*
X191726895Y-167790704D01*
X191726895Y-167790704D02*
X207845545Y-167086949D01*
X207845545Y-167086949D02*
X207955834Y-179724821D01*
X207955834Y-179724821D02*
G75*
G03*
X209973211Y-181707292I1999924J17453D01*
G01*
X209973211Y-181707292D02*
X227401555Y-181555197D01*
X227401555Y-181555197D02*
X227398666Y-181665545D01*
X227398666Y-181665545D02*
G75*
G03*
X229345627Y-183717214I1999315J-52354D01*
G01*
X229345627Y-183717214D02*
X246608221Y-184169251D01*
X246608221Y-184169251D02*
X246234576Y-186669364D01*
X246234576Y-186669364D02*
G75*
G03*
X247916989Y-188943015I1978032J-295619D01*
G01*
X247916989Y-188943014D02*
X266708291Y-191751393D01*
X266708291Y-191751392D02*
G75*
G03*
X266798427Y-191762776I295618J1978031D01*
G01*
X266798427Y-191762777D02*
G75*
G03*
X267263425Y-191947698I965758J1751374D01*
G01*
X267263425Y-191947699D02*
X285658230Y-196704919D01*
X285658230Y-196704918D02*
G75*
G03*
X288095284Y-195269384I500760J1936294D01*
G01*
X288095285Y-195269384D02*
X292852505Y-176874578D01*
X292852504Y-176874578D02*
G75*
G03*
X292915232Y-176436322I-1936294J500760D01*
G01*
X294769025Y-117147795D02*
X292915233Y-176436322D01*
X294769024Y-117147795D02*
G75*
G03*
X292857241Y-115087196I-1999022J62504D01*
G01*
X273026134Y-114221350D02*
X292857241Y-115087194D01*
X273026134Y-114221350D02*
X273146087Y-111473967D01*
X273146086Y-111473967D02*
G75*
G03*
X271235229Y-109388632I-1998096J87239D01*
G01*
X252138064Y-108554832D02*
X271235229Y-109388632D01*
X252138064Y-108554832D02*
X252212400Y-105716077D01*
X252212400Y-105716077D02*
G75*
G03*
X250265439Y-103664408I-1999315J52354D01*
G01*
X230288375Y-103141290D02*
X250265439Y-103664408D01*
X230288375Y-103141290D02*
X230282579Y-102477045D01*
X230282579Y-102477045D02*
G75*
G03*
X228265202Y-100494574I-1999924J-17453D01*
G01*
X228265202Y-100494574D02*
X209265925Y-100660378D01*
X209265925Y-100660378D02*
G75*
G03*
X207283454Y-102677755I17453J-1999924D01*
G01*
X207283454Y-102677755D02*
X207312902Y-106052091D01*
X187534780Y-106915622D02*
X207312902Y-106052091D01*
X187534780Y-106915623D02*
G75*
G03*
X185623922Y-109000957I87238J-1998096D01*
G01*
X185623922Y-109000958D02*
X185872569Y-114695910D01*
X164814998Y-117095117D02*
X185872569Y-114695910D01*
X164814998Y-117095117D02*
G75*
G03*
X163054261Y-119308668I226407J-1987144D01*
G01*
X163054261Y-119308667D02*
X166223951Y-147128679D01*
X166280553Y-147625465D02*
X166223951Y-147128679D01*
X166337154Y-148122250D02*
X166280552Y-147625464D01*
X166337154Y-148122251D02*
X169506844Y-175942263D01*
X169506844Y-175942263D02*
G75*
G03*
X171720395Y-177703000I1987144J226407D01*
G01*
M02*
