<svg width="123.63mm" height="90.715mm" viewBox="0 0 123.63 90.715" xmlns="http://www.w3.org/2000/svg"><g id="svgGroup" stroke-linecap="round" fill-rule="evenodd" font-size="9pt" stroke="#000" stroke-width="0.25mm" fill="none" style="stroke:#000;stroke-width:0.25mm;fill:none"><path d="M 81.997 64.994 L 91.936 65.428 L 91.894 66.616 L 82.711 65.244 L 80.903 77.335 L 81.352 60.216 L 62.358 59.719 L 62.105 69.382 L 61.998 57.048 L 42.998 57.214 L 43.164 76.213 L 61.931 76.049 L 61.861 78.713 L 80.624 79.204 L 79.902 84.035 L 98.693 86.844 L 100.449 75.1 L 100.565 75.314 L 101.101 75.489 L 98.774 86.927 L 117.393 90.715 L 120.846 73.741 L 123.63 74.241 L 120.549 9.623 L 84.483 8.049 L 83.655 27.031 L 81.997 64.994 Z M 6.453 73.058 L 25.33 70.907 L 24.465 63.315 L 42.807 62.514 L 41.149 24.551 L 40.321 5.569 L 21.339 6.397 L 22.167 25.379 L 23.425 54.184 L 18.878 14.274 L 0 16.424 L 6.453 73.058 Z M 42.998 57.164 L 61.997 56.998 L 61.5 0 L 42.5 0.166 L 42.998 57.164 Z M 62.695 59.655 L 81.688 60.152 L 83.18 3.171 L 64.187 2.674 L 62.695 59.655 Z" vector-effect="non-scaling-stroke"/></g></svg>