0
SECTION
2
HEADER
9
$INSUNITS
70
4
0
ENDSEC
0
SECTION
2
TABLES
0
TABLE
2
LTYPE
0
LTYPE
72
65
70
64
2
CONTINUOUS
3
______
73
0
40
0
0
ENDTAB
0
TABLE
2
LAYER
0
ENDTAB
0
ENDSEC
0
SECTION
2
ENTITIES
0
LINE
8
0
10
171.4939877
20
-175.7158564
11
190.371853
21
-173.5649953
0
LINE
8
0
10
190.371853
20
-173.5649953
11
189.5068551
21
-165.9730067
0
LINE
8
0
10
183.9192698
20
-116.9313995
11
188.4664451
21
-156.8414454
0
LINE
8
0
10
165.0414045
20
-119.0822606
11
171.4939877
21
-175.7158564
0
LINE
8
0
10
183.9192698
20
-116.9313995
11
165.0414045
21
-119.0822606
0
LINE
8
0
10
189.5068551
20
-165.9730067
11
207.8482749
21
-165.172203
0
LINE
8
0
10
206.1907381
20
-127.2083706
11
207.8482749
21
-165.172203
0
LINE
8
0
10
187.2088219
20
-128.037139
11
188.4664451
21
-156.8414454
0
LINE
8
0
10
206.1907382
20
-127.2083705
11
205.3619698
21
-108.2264543
0
LINE
8
0
10
205.3619698
20
-108.2264543
11
186.3800536
21
-109.0552227
0
LINE
8
0
10
186.3800536
20
-109.0552227
11
187.208822
21
-128.0371389
0
LINE
8
0
10
208.0393019
20
-159.8214455
11
227.0385785
21
-159.6556413
0
LINE
8
0
10
226.5411659
20
-102.6578116
11
227.0385785
21
-159.6556413
0
LINE
8
0
10
207.5418893
20
-102.8236158
11
208.0393019
21
-159.8214455
0
LINE
8
0
10
226.5411659
20
-102.6578116
11
207.5418893
21
-102.8236158
0
LINE
8
0
10
227.7360304
20
-162.3123237
11
246.7295196
21
-162.8096857
0
LINE
8
0
10
246.7295196
20
-162.8096857
11
248.2216056
21
-105.8292182
0
LINE
8
0
10
227.7360304
20
-162.3123237
11
229.2281164
21
-105.3318562
0
LINE
8
0
10
248.2216056
20
-105.8292182
11
229.2281164
21
-105.3318562
0
LINE
8
0
10
247.0385126
20
-167.6521889
11
256.9776094
21
-168.0861393
0
LINE
8
0
10
247.0385126
20
-167.6521889
11
248.6960493
21
-129.6883565
0
LINE
8
0
10
249.5248177
20
-110.7064402
11
285.5904585
21
-112.2811001
0
LINE
8
0
10
249.5248177
20
-110.7064402
11
248.6960493
21
-129.6883564
0
LINE
8
0
10
208.2055424
20
-178.8707201
11
226.9720521
21
-178.7069472
0
LINE
8
0
10
227.1466494
20
-172.039344
11
227.0390148
21
-159.7056393
0
LINE
8
0
10
227.0390148
20
-159.7056393
11
208.0397382
21
-159.8714435
0
LINE
8
0
10
208.0397382
20
-159.8714435
11
208.2055424
21
-178.8707201
0
LINE
8
0
10
226.9023091
20
-181.3703249
11
245.6655904
21
-181.8616587
0
LINE
8
0
10
245.9448941
20
-179.9927938
11
246.3931603
21
-162.8741977
0
LINE
8
0
10
246.3931603
20
-162.8741977
11
227.3996711
21
-162.3768357
0
LINE
8
0
10
227.3996711
20
-162.3768357
11
227.1466494
21
-172.039344
0
LINE
8
0
10
226.9720521
20
-178.7069472
11
226.9023091
21
-181.3703249
0
LINE
8
0
10
244.9435432
20
-186.6929892
11
263.7348446
21
-189.501368
0
LINE
8
0
10
263.7348446
20
-189.501368
11
265.4899395
21
-177.7577535
0
LINE
8
0
10
256.9351045
20
-169.2741236
11
247.751922
21
-167.9016878
0
LINE
8
0
10
247.751922
20
-167.9016878
11
245.9448941
21
-179.9927938
0
LINE
8
0
10
245.6655904
20
-181.8616587
11
244.9435432
21
-186.6929892
0
LINE
8
0
10
263.8157089
20
-189.5845831
11
282.4342783
21
-193.3725739
0
LINE
8
0
10
282.4342783
20
-193.3725739
11
285.8876547
21
-176.3986867
0
LINE
8
0
10
266.1428026
20
-178.1465524
11
263.8157089
21
-189.5845831
0
LINE
8
0
10
265.6060446
20
-177.9719154
11
266.1428026
21
-178.1465524
0
LINE
8
0
10
265.4899395
20
-177.7577535
11
265.6060446
21
-177.9719154
0
LINE
8
0
10
285.8876547
20
-176.3986867
11
288.6715283
21
-176.8988164
0
LINE
8
0
10
288.6715283
20
-176.8988164
11
285.5904585
21
-112.2811001
0
LINE
8
0
10
256.9776094
20
-168.0861393
11
256.9351045
21
-169.2741236
0
ENDSEC
0
EOF