0
SECTION
2
HEADER
9
$INSUNITS
70
4
0
ENDSEC
0
SECTION
2
TABLES
0
TABLE
2
LTYPE
0
LTYPE
72
65
70
64
2
CONTINUOUS
3
______
73
0
40
0
0
ENDTAB
0
TABLE
2
LAYER
0
ENDTAB
0
ENDSEC
0
SECTION
2
ENTITIES
0
LINE
8
0
10
171.8335973
20
-178.696572
11
190.7114626
21
-176.5457109
0
ARC
8
0
10
190.371853
20
-173.5649953
40
3
50
276.5000001
51
366.4999993
0
LINE
8
0
10
193.3525686
20
-173.2253857
11
192.8517575
21
-168.8298231
0
LINE
8
0
10
192.8517575
20
-168.8298231
11
205.1131307
21
-168.29448
0
LINE
8
0
10
205.1131308
20
-168.29448
11
205.2056567
21
-178.8968998
0
ARC
8
0
10
208.2055424
20
-178.8707201
40
3
50
180.5000008
51
270.5000001
0
LINE
8
0
10
208.231722
20
-181.8706058
11
223.9243922
21
-181.7336579
0
ARC
8
0
10
226.9023091
20
-181.3703249
40
3
50
186.9562259
51
268.4895389
0
LINE
8
0
10
226.8237783
20
-184.3692969
11
242.1973383
21
-184.7718677
0
LINE
8
0
10
242.1973383
20
-184.7718676
11
241.9764956
21
-186.2495609
0
ARC
8
0
10
244.9435432
20
-186.6929892
40
3
50
171.5000004
51
261.5
0
LINE
8
0
10
244.500115
20
-189.6600368
11
262.7439073
21
-192.3865898
0
ARC
8
0
10
263.8157089
20
-189.5845831
40
3
50
249.0675403
51
258.4999999
0
LINE
8
0
10
263.2176051
20
-192.5243572
11
281.8361745
21
-196.312348
0
ARC
8
0
10
282.4342783
20
-193.3725739
40
3
50
258.4999999
51
348.4999991
0
LINE
8
0
10
285.3740524
20
-193.9706777
11
288.2432564
21
-179.8680896
0
ARC
8
0
10
288.6715283
20
-176.8988164
40
3
50
261.7925692
51
362.7298815
0
LINE
8
0
10
291.6680936
20
-176.7553025
11
288.5870539
21
-112.1382179
0
ARC
8
0
10
285.5904585
20
-112.2811001
40
3
50
2.7298818
51
87.5
0
LINE
8
0
10
251.1716691
20
-107.7754853
11
285.7213167
21
-109.2839555
0
LINE
8
0
10
251.1716691
20
-107.7754853
11
251.2205775
21
-105.9077491
0
ARC
8
0
10
248.2216056
20
-105.8292182
40
3
50
358.5000001
51
448.4895389
0
LINE
8
0
10
248.3001364
20
-102.8302462
11
229.5241327
21
-102.3385792
0
ARC
8
0
10
226.5411659
20
-102.6578116
40
3
50
6.1084548
51
90.5000008
0
LINE
8
0
10
226.5149863
20
-99.6579259
11
207.5157097
21
-99.8237301
0
ARC
8
0
10
207.5418893
20
-102.8236158
40
3
50
90.5000008
51
180.5000001
0
LINE
8
0
10
204.5420036
20
-102.8497954
11
204.5630239
21
-105.258479
0
LINE
8
0
10
204.5630239
20
-105.258479
11
186.2491954
21
-106.0580781
0
ARC
8
0
10
186.3800536
20
-109.0552227
40
3
50
92.5000001
51
182.5000008
0
LINE
8
0
10
183.382909
20
-109.1860809
11
183.5908812
21
-113.9494268
0
ARC
8
0
10
183.9192698
20
-116.9313995
40
3
50
96.284353
51
96.4999993
0
LINE
8
0
10
183.5796602
20
-113.9506839
11
164.7017949
21
-116.101545
0
ARC
8
0
10
165.0414045
20
-119.0822606
40
3
50
96.4999993
51
186.5
0
LINE
8
0
10
162.0606889
20
-119.4218702
11
168.5132721
21
-176.055466
0
ARC
8
0
10
171.4939877
20
-175.7158564
40
3
50
186.4999993
51
276.5000001
0
ENDSEC
0
EOF