<svg width="129.63mm" height="96.715mm" viewBox="0 0 129.63 96.715" xmlns="http://www.w3.org/2000/svg"><g id="svgGroup" stroke-linecap="round" fill-rule="evenodd" font-size="9pt" stroke="#000" stroke-width="0.25mm" fill="none" style="stroke:#000;stroke-width:0.25mm;fill:none"><path d="M 9.792 79.039 L 28.67 76.888 A 3 3 0 0 0 31.311 73.568 L 30.81 69.172 L 43.072 68.637 L 43.164 79.239 A 3 3 0 0 0 46.19 82.213 L 61.883 82.076 A 3 3 0 0 0 64.782 84.711 L 80.156 85.114 L 79.935 86.592 A 3 3 0 0 0 82.459 90.002 L 100.703 92.729 A 3 3 0 0 0 101.176 92.867 L 119.795 96.655 A 3 3 0 0 0 123.333 94.313 L 126.202 80.21 A 3 3 0 0 0 129.627 77.098 L 126.546 12.48 A 3 3 0 0 0 123.68 9.626 L 89.13 8.118 L 89.179 6.25 A 3 3 0 0 0 86.259 3.172 L 67.483 2.681 A 3 3 0 0 0 64.474 0 L 45.474 0.166 A 3 3 0 0 0 42.501 3.192 L 42.522 5.601 L 24.208 6.4 A 3 3 0 0 0 21.342 9.528 L 21.549 14.292 A 3 3 0 0 0 21.538 14.293 L 2.66 16.444 A 3 3 0 0 0 0.019 19.764 L 6.472 76.398 A 3 3 0 0 0 9.792 79.039 Z" vector-effect="non-scaling-stroke"/></g></svg>