<svg width="115.466mm" height="85.245mm" viewBox="0 0 115.466 85.245" xmlns="http://www.w3.org/2000/svg"><g id="svgGroup" stroke-linecap="round" fill-rule="evenodd" font-size="9pt" stroke="#000" stroke-width="0.25mm" fill="none" style="stroke:#000;stroke-width:0.25mm;fill:none"><path d="M 98.956 82.454 L 112.675 85.245 L 115.466 71.526 L 101.747 68.735 L 98.956 82.454 Z M 1.585 30.014 L 15.495 28.429 L 13.91 14.519 L 0 16.104 L 1.585 30.014 Z M 5.887 67.769 L 19.797 66.185 L 18.212 52.275 L 4.302 53.859 L 5.887 67.769 Z M 3.736 48.892 L 17.646 47.307 L 16.061 33.397 L 2.151 34.982 L 3.736 48.892 Z M 79.977 79.41 L 93.823 81.48 L 95.893 67.634 L 82.047 65.564 L 79.977 79.41 Z M 83.494 22.12 L 97.481 22.731 L 98.092 8.744 L 84.105 8.134 L 83.494 22.12 Z M 21.789 20.251 L 35.776 19.64 L 35.165 5.654 L 21.178 6.264 L 21.789 20.251 Z M 81.837 60.084 L 95.824 60.695 L 96.434 46.708 L 82.448 46.097 L 81.837 60.084 Z M 82.666 41.102 L 96.652 41.713 L 97.263 27.726 L 83.276 27.115 L 82.666 41.102 Z M 23.447 58.215 L 37.433 57.604 L 36.823 43.617 L 22.836 44.228 L 23.447 58.215 Z M 22.618 39.233 L 36.604 38.622 L 35.994 24.636 L 22.007 25.246 L 22.618 39.233 Z M 42.377 14.122 L 56.377 13.999 L 56.255 0 L 42.255 0.122 L 42.377 14.122 Z M 42.543 33.121 L 56.543 32.999 L 56.421 18.999 L 42.421 19.121 L 42.543 33.121 Z M 42.709 52.12 L 56.709 51.998 L 56.586 37.999 L 42.587 38.121 L 42.709 52.12 Z M 42.875 71.169 L 56.875 71.047 L 56.753 57.048 L 42.753 57.17 L 42.875 71.169 Z M 62.492 54.699 L 76.487 55.066 L 76.854 41.07 L 62.859 40.704 L 62.492 54.699 Z M 61.659 73.757 L 75.654 74.124 L 76.02 60.128 L 62.025 59.762 L 61.659 73.757 Z M 62.99 35.706 L 76.985 36.072 L 77.351 22.077 L 63.356 21.71 L 62.99 35.706 Z M 63.487 16.712 L 77.482 17.079 L 77.849 3.083 L 63.853 2.717 L 63.487 16.712 Z" vector-effect="non-scaling-stroke"/></g></svg>