0
SECTION
2
HEADER
9
$INSUNITS
70
4
0
ENDSEC
0
SECTION
2
TABLES
0
TABLE
2
LTYPE
0
LTYPE
72
65
70
64
2
CONTINUOUS
3
______
73
0
40
0
0
ENDTAB
0
TABLE
2
LAYER
0
ENDTAB
0
ENDSEC
0
SECTION
2
ENTITIES
0
LINE
8
0
10
173.6949093
20
-172.9489187
11
187.6049153
21
-171.3640737
0
LINE
8
0
10
187.6049153
20
-171.3640737
11
186.0200703
21
-157.4540677
0
LINE
8
0
10
186.0200703
20
-157.4540677
11
172.1100643
21
-159.0389127
0
LINE
8
0
10
172.1100643
20
-159.0389127
11
173.6949093
21
-172.9489187
0
LINE
8
0
10
171.5440483
20
-154.0710534
11
185.4540543
21
-152.4862084
0
LINE
8
0
10
185.4540543
20
-152.4862084
11
183.8692093
21
-138.5762024
0
LINE
8
0
10
183.8692093
20
-138.5762024
11
169.9592033
21
-140.1610474
0
LINE
8
0
10
169.9592033
20
-140.1610474
11
171.5440483
21
-154.0710534
0
LINE
8
0
10
169.3931872
20
-135.1931882
11
183.3031932
21
-133.6083432
0
LINE
8
0
10
183.3031932
20
-133.6083432
11
181.7183482
21
-119.6983372
0
LINE
8
0
10
181.7183482
20
-119.6983372
11
167.8083422
21
-121.2831822
0
LINE
8
0
10
167.8083422
20
-121.2831822
11
169.3931872
21
-135.1931882
0
LINE
8
0
10
191.2549308
20
-163.3943024
11
205.2416059
21
-162.7836309
0
LINE
8
0
10
205.2416059
20
-162.7836309
11
204.6309344
21
-148.7969558
0
LINE
8
0
10
204.6309344
20
-148.7969558
11
190.6442593
21
-149.4076273
0
LINE
8
0
10
190.6442593
20
-149.4076273
11
191.2549308
21
-163.3943024
0
LINE
8
0
10
190.4261624
20
-144.4123862
11
204.4128375
21
-143.8017147
0
LINE
8
0
10
204.4128375
20
-143.8017147
11
203.802166
21
-129.8150396
0
LINE
8
0
10
203.802166
20
-129.8150396
11
189.8154909
21
-130.4257111
0
LINE
8
0
10
189.8154909
20
-130.4257111
11
190.4261624
21
-144.4123862
0
LINE
8
0
10
189.5973941
20
-125.4304699
11
203.5840692
21
-124.8197984
0
LINE
8
0
10
203.5840692
20
-124.8197984
11
202.9733977
21
-110.8331233
0
LINE
8
0
10
202.9733977
20
-110.8331233
11
188.9867226
21
-111.4437948
0
LINE
8
0
10
188.9867226
20
-111.4437948
11
189.5973941
21
-125.4304699
0
LINE
8
0
10
210.5173904
20
-157.2997243
11
224.5168573
21
-157.1775528
0
LINE
8
0
10
224.5168573
20
-157.1775528
11
224.3946858
21
-143.1780859
0
LINE
8
0
10
224.3946858
20
-143.1780859
11
210.3952189
21
-143.3002574
0
LINE
8
0
10
210.3952189
20
-143.3002574
11
210.5173904
21
-157.2997243
0
LINE
8
0
10
210.3515862
20
-138.3004478
11
224.3510531
21
-138.1782763
0
LINE
8
0
10
224.3510531
20
-138.1782763
11
224.2288816
21
-124.1788094
0
LINE
8
0
10
224.2288816
20
-124.1788094
11
210.2294147
21
-124.3009809
0
LINE
8
0
10
210.2294147
20
-124.3009809
11
210.3515862
21
-138.3004478
0
LINE
8
0
10
210.185782
20
-119.3011712
11
224.1852489
21
-119.1789997
0
LINE
8
0
10
224.1852489
20
-119.1789997
11
224.0630774
21
-105.1795328
0
LINE
8
0
10
224.0630774
20
-105.1795328
11
210.0636105
21
-105.3017043
0
LINE
8
0
10
210.0636105
20
-105.3017043
11
210.185782
21
-119.3011712
0
LINE
8
0
10
230.3006161
20
-159.8786227
11
244.2958186
21
-160.2451
0
LINE
8
0
10
244.2958186
20
-160.2451
11
244.6622959
21
-146.2498975
0
LINE
8
0
10
244.6622959
20
-146.2498975
11
230.6670934
21
-145.8834202
0
LINE
8
0
10
230.6670934
20
-145.8834202
11
230.3006161
21
-159.8786227
0
LINE
8
0
10
230.7979781
20
-140.8851336
11
244.7931806
21
-141.2516109
0
LINE
8
0
10
244.7931806
20
-141.2516109
11
245.1596579
21
-127.2564084
0
LINE
8
0
10
245.1596579
20
-127.2564084
11
231.1644554
21
-126.8899311
0
LINE
8
0
10
231.1644554
20
-126.8899311
11
230.7979781
21
-140.8851336
0
LINE
8
0
10
231.2953401
20
-121.8916444
11
245.2905426
21
-122.2581217
0
LINE
8
0
10
245.2905426
20
-122.2581217
11
245.6570199
21
-108.2629192
0
LINE
8
0
10
245.6570199
20
-108.2629192
11
231.6618174
21
-107.8964419
0
LINE
8
0
10
231.6618174
20
-107.8964419
11
231.2953401
21
-121.8916444
0
LINE
8
0
10
249.6451816
20
-165.2636168
11
263.6318567
21
-165.8742883
0
LINE
8
0
10
263.6318567
20
-165.8742883
11
264.2425282
21
-151.8876132
0
LINE
8
0
10
264.2425282
20
-151.8876132
11
250.2558531
21
-151.2769417
0
LINE
8
0
10
250.2558531
20
-151.2769417
11
249.6451816
21
-165.2636168
0
LINE
8
0
10
250.4739499
20
-146.2817006
11
264.460625
21
-146.8923721
0
LINE
8
0
10
264.460625
20
-146.8923721
11
265.0712965
21
-132.905697
0
LINE
8
0
10
265.0712965
20
-132.905697
11
251.0846214
21
-132.2950255
0
LINE
8
0
10
251.0846214
20
-132.2950255
11
250.4739499
21
-146.2817006
0
LINE
8
0
10
251.3027183
20
-127.2997843
11
265.2893934
21
-127.9104558
0
LINE
8
0
10
265.2893934
20
-127.9104558
11
265.9000649
21
-113.9237807
0
LINE
8
0
10
265.9000649
20
-113.9237807
11
251.9133898
21
-113.3131092
0
LINE
8
0
10
251.9133898
20
-113.3131092
11
251.3027183
21
-127.2997843
0
LINE
8
0
10
210.6836309
20
-176.3489989
11
224.6830978
21
-176.2268274
0
LINE
8
0
10
224.6830978
20
-176.2268274
11
224.5609263
21
-162.2273605
0
LINE
8
0
10
224.5609263
20
-162.2273605
11
210.5614594
21
-162.349532
0
LINE
8
0
10
210.5614594
20
-162.349532
11
210.6836309
21
-176.3489989
0
LINE
8
0
10
229.4668948
20
-178.9366239
11
243.4620973
21
-179.3031012
0
LINE
8
0
10
243.4620973
20
-179.3031012
11
243.8285746
21
-165.3078987
0
LINE
8
0
10
243.8285746
20
-165.3078987
11
229.8333721
21
-164.9414214
0
LINE
8
0
10
229.8333721
20
-164.9414214
11
229.4668948
21
-178.9366239
0
LINE
8
0
10
247.7856064
20
-184.5899731
11
261.6318285
21
-186.6593048
0
LINE
8
0
10
261.6318285
20
-186.6593048
11
263.7011602
21
-172.8130827
0
LINE
8
0
10
263.7011602
20
-172.8130827
11
249.8549381
21
-170.743751
0
LINE
8
0
10
249.8549381
20
-170.743751
11
247.7856064
21
-184.5899731
0
LINE
8
0
10
266.7639405
20
-187.6331912
11
280.4828864
21
-190.4243423
0
LINE
8
0
10
280.4828864
20
-190.4243423
11
283.2740375
21
-176.7053964
0
LINE
8
0
10
283.2740375
20
-176.7053964
11
269.5550916
21
-173.9142453
0
LINE
8
0
10
269.5550916
20
-173.9142453
11
266.7639405
21
-187.6331912
0
ENDSEC
0
EOF