<svg width="121.181mm" height="90.715mm" viewBox="0 0 121.181 90.715" xmlns="http://www.w3.org/2000/svg"><g id="svgGroup" stroke-linecap="round" fill-rule="evenodd" font-size="9pt" stroke="#000" stroke-width="0.25mm" fill="none" style="stroke:#000;stroke-width:0.25mm;fill:none"><path d="M 41.149 24.551 L 42.807 62.514 L 23.825 63.343 L 22.167 25.379 L 41.149 24.551 L 40.321 5.569 L 21.339 6.397 L 22.167 25.379 M 102.637 27.859 L 103.465 8.877 L 84.483 8.049 L 83.655 27.031 L 102.637 27.859 L 100.979 65.823 L 81.997 64.994 L 83.655 27.031 M 42.998 57.164 L 61.997 56.998 L 61.5 0 L 42.5 0.166 L 42.998 57.164 Z M 6.453 73.058 L 25.33 70.907 L 18.878 14.274 L 0 16.424 L 6.453 73.058 Z M 62.695 59.655 L 81.688 60.152 L 83.18 3.171 L 64.187 2.674 L 62.695 59.655 Z M 43.164 76.213 L 62.163 76.047 L 61.998 57.048 L 42.998 57.214 L 43.164 76.213 Z M 61.861 78.713 L 80.854 79.21 L 81.352 60.216 L 62.358 59.719 L 61.861 78.713 Z M 98.774 86.927 L 117.393 90.715 L 121.181 72.096 L 102.562 68.308 L 98.774 86.927 Z M 79.902 84.035 L 98.693 86.844 L 101.502 68.052 L 82.711 65.244 L 79.902 84.035 Z M 101.723 84.975 L 115.441 87.767 L 118.233 74.048 L 104.514 71.256 L 101.723 84.975 Z M 4.352 32.535 L 18.262 30.951 L 16.677 17.041 L 2.767 18.625 L 4.352 32.535 Z M 8.654 70.291 L 22.564 68.706 L 20.979 54.796 L 7.069 56.381 L 8.654 70.291 Z M 6.503 51.413 L 20.413 49.828 L 18.828 35.918 L 4.918 37.503 L 6.503 51.413 Z M 82.744 81.932 L 96.59 84.001 L 98.66 70.155 L 84.814 68.086 L 82.744 81.932 Z M 86.261 24.642 L 100.248 25.253 L 100.859 11.266 L 86.872 10.655 L 86.261 24.642 Z M 24.556 22.773 L 38.543 22.162 L 37.932 8.175 L 23.945 8.786 L 24.556 22.773 Z M 84.604 62.606 L 98.59 63.216 L 99.201 49.23 L 85.214 48.619 L 84.604 62.606 Z M 85.433 43.624 L 99.419 44.235 L 100.03 30.248 L 86.043 29.637 L 85.433 43.624 Z M 26.214 60.736 L 40.2 60.126 L 39.59 46.139 L 25.603 46.75 L 26.214 60.736 Z M 25.385 41.755 L 39.371 41.144 L 38.761 27.157 L 24.774 27.768 L 25.385 41.755 Z M 45.144 16.643 L 59.144 16.521 L 59.022 2.522 L 45.022 2.644 L 45.144 16.643 Z M 45.31 35.643 L 59.31 35.52 L 59.187 21.521 L 45.188 21.643 L 45.31 35.643 Z M 45.476 54.642 L 59.475 54.52 L 59.353 40.52 L 45.354 40.642 L 45.476 54.642 Z M 45.642 73.691 L 59.642 73.569 L 59.52 59.57 L 45.52 59.692 L 45.642 73.691 Z M 65.259 57.221 L 79.254 57.587 L 79.621 43.592 L 65.626 43.226 L 65.259 57.221 Z M 64.425 76.279 L 78.421 76.645 L 78.787 62.65 L 64.792 62.284 L 64.425 76.279 Z M 65.757 38.227 L 79.752 38.594 L 80.118 24.599 L 66.123 24.232 L 65.757 38.227 Z M 66.254 19.234 L 80.249 19.6 L 80.616 5.605 L 66.62 5.239 L 66.254 19.234 Z M 11.836 62.888 L 14.812 62.549 L 15.038 64.531 L 15.047 64.53 L 14.822 62.548 L 17.4 62.254 A 0.4 0.4 0 1 0 17.399 62.244 L 14.82 62.538 L 14.64 60.953 A 0.4 0.4 0 1 0 14.63 60.955 L 14.811 62.539 L 11.835 62.878 L 11.836 62.888 Z M 9.685 44.01 L 12.661 43.671 L 12.887 45.654 L 12.897 45.652 L 12.671 43.67 L 15.249 43.376 A 0.4 0.4 0 1 0 15.248 43.367 L 12.67 43.66 L 12.489 42.076 A 0.4 0.4 0 1 0 12.479 42.077 L 12.66 43.661 L 9.684 44 L 9.685 44.01 Z M 7.534 25.133 L 10.51 24.793 L 10.736 26.776 L 10.746 26.775 L 10.52 24.792 L 13.098 24.499 A 0.4 0.4 0 1 0 13.097 24.489 L 10.519 24.782 L 10.338 23.198 A 0.4 0.4 0 1 0 10.328 23.199 L 10.509 24.784 L 7.533 25.123 L 7.534 25.133 Z M 69.441 50.333 L 72.435 50.411 L 72.383 52.406 L 72.393 52.406 L 72.445 50.412 L 75.039 50.48 A 0.4 0.4 0 1 0 75.039 50.47 L 72.445 50.402 L 72.487 48.807 A 0.4 0.4 0 1 0 72.477 48.807 L 72.435 50.401 L 69.441 50.323 L 69.441 50.333 Z M 68.607 69.391 L 71.601 69.469 L 71.549 71.464 L 71.559 71.464 L 71.611 69.47 L 74.205 69.538 A 0.4 0.4 0 1 0 74.206 69.528 L 71.611 69.46 L 71.653 67.865 A 0.4 0.4 0 1 0 71.643 67.865 L 71.601 69.459 L 68.607 69.381 L 68.607 69.391 Z M 70.436 12.346 L 73.43 12.424 L 73.377 14.419 L 73.387 14.419 L 73.44 12.425 L 76.034 12.493 A 0.4 0.4 0 1 0 76.034 12.483 L 73.44 12.415 L 73.482 10.82 A 0.4 0.4 0 1 0 73.472 10.82 L 73.43 12.414 L 70.436 12.336 L 70.436 12.346 Z M 69.938 31.339 L 72.932 31.418 L 72.88 33.412 L 72.89 33.412 L 72.942 31.418 L 75.536 31.486 A 0.4 0.4 0 1 0 75.537 31.476 L 72.943 31.408 L 72.984 29.814 A 0.4 0.4 0 1 0 72.974 29.813 L 72.933 31.408 L 69.939 31.329 L 69.938 31.339 Z M 87.734 75.605 L 90.696 76.048 L 90.401 78.021 L 90.411 78.022 L 90.706 76.049 L 93.273 76.433 A 0.4 0.4 0 1 0 93.274 76.423 L 90.708 76.04 L 90.943 74.462 A 0.4 0.4 0 1 0 90.934 74.461 L 90.698 76.038 L 87.736 75.595 L 87.734 75.605 Z M 107.037 78.918 L 109.972 79.515 L 109.574 81.47 L 109.584 81.472 L 109.981 79.517 L 112.524 80.035 A 0.4 0.4 0 1 0 112.526 80.025 L 109.983 79.508 L 110.301 77.945 A 0.4 0.4 0 1 0 110.292 77.943 L 109.974 79.506 L 107.039 78.908 L 107.037 78.918 Z M 49.415 47.612 L 52.41 47.586 L 52.427 49.581 L 52.437 49.581 L 52.42 47.586 L 55.015 47.563 A 0.4 0.4 0 1 0 55.015 47.553 L 52.42 47.576 L 52.406 45.981 A 0.4 0.4 0 1 0 52.396 45.981 L 52.41 47.576 L 49.415 47.602 L 49.415 47.612 Z M 49.083 9.614 L 52.078 9.588 L 52.095 11.583 L 52.105 11.582 L 52.088 9.587 L 54.683 9.565 A 0.4 0.4 0 1 0 54.683 9.555 L 52.088 9.577 L 52.074 7.983 A 0.4 0.4 0 1 0 52.064 7.983 L 52.078 9.578 L 49.083 9.604 L 49.083 9.614 Z M 49.581 66.662 L 52.576 66.635 L 52.593 68.63 L 52.603 68.63 L 52.586 66.635 L 55.181 66.613 A 0.4 0.4 0 1 0 55.181 66.603 L 52.586 66.625 L 52.572 65.03 A 0.4 0.4 0 1 0 52.562 65.03 L 52.576 66.625 L 49.581 66.652 L 49.581 66.662 Z M 49.249 28.613 L 52.244 28.587 L 52.261 30.582 L 52.271 30.582 L 52.254 28.587 L 54.849 28.564 A 0.4 0.4 0 1 0 54.849 28.554 L 52.254 28.577 L 52.24 26.982 A 0.4 0.4 0 1 0 52.23 26.982 L 52.244 28.577 L 49.249 28.603 L 49.249 28.613 Z M 29.076 34.592 L 32.068 34.461 L 32.155 36.454 L 32.165 36.454 L 32.078 34.461 L 34.671 34.347 A 0.4 0.4 0 1 0 34.67 34.337 L 32.078 34.451 L 32.008 32.857 A 0.4 0.4 0 1 0 31.998 32.858 L 32.068 34.451 L 29.075 34.582 L 29.076 34.592 Z M 29.905 53.574 L 32.897 53.443 L 32.984 55.436 L 32.994 55.436 L 32.907 53.443 L 35.499 53.329 A 0.4 0.4 0 1 0 35.499 53.319 L 32.906 53.433 L 32.837 51.839 A 0.4 0.4 0 1 0 32.827 51.84 L 32.896 53.433 L 29.904 53.564 L 29.905 53.574 Z M 90.563 17.828 L 93.555 17.959 L 93.468 19.952 L 93.478 19.952 L 93.565 17.959 L 96.157 18.072 A 0.4 0.4 0 1 0 96.158 18.062 L 93.565 17.949 L 93.635 16.356 A 0.4 0.4 0 1 0 93.625 16.355 L 93.555 17.949 L 90.563 17.818 L 90.563 17.828 Z M 88.905 55.792 L 91.897 55.923 L 91.81 57.916 L 91.82 57.916 L 91.907 55.923 L 94.5 56.036 A 0.4 0.4 0 1 0 94.5 56.026 L 91.908 55.913 L 91.977 54.32 A 0.4 0.4 0 1 0 91.967 54.319 L 91.898 55.913 L 88.906 55.782 L 88.905 55.792 Z M 28.247 15.61 L 31.239 15.479 L 31.326 17.472 L 31.336 17.472 L 31.249 15.479 L 33.842 15.366 A 0.4 0.4 0 1 0 33.841 15.356 L 31.249 15.469 L 31.179 13.875 A 0.4 0.4 0 1 0 31.169 13.876 L 31.239 15.469 L 28.247 15.6 L 28.247 15.61 Z M 89.734 36.81 L 92.726 36.941 L 92.639 38.934 L 92.649 38.934 L 92.736 36.941 L 95.329 37.054 A 0.4 0.4 0 1 0 95.329 37.044 L 92.736 36.931 L 92.806 35.338 A 0.4 0.4 0 1 0 92.796 35.337 L 92.726 36.931 L 89.734 36.8 L 89.734 36.81 Z M 4.302 54.18 23.18 52.029 M 2.151 35.302 21.029 33.151 M 22.996 44.361 41.978 43.532 M 42.832 38.164 61.831 37.999 M 42.666 19.165 61.666 18.999 M 63.192 40.661 82.185 41.158 M 63.689 21.668 82.683 22.165 M 82.826 46.012 101.808 46.841" vector-effect="non-scaling-stroke"/></g></svg>