0
SECTION
2
HEADER
9
$INSUNITS
70
4
0
ENDSEC
0
SECTION
2
TABLES
0
TABLE
2
LTYPE
0
LTYPE
72
65
70
64
2
CONTINUOUS
3
______
73
0
40
0
0
ENDTAB
0
TABLE
2
LAYER
0
ENDTAB
0
ENDSEC
0
SECTION
2
ENTITIES
0
LINE
8
0
10
171.7203941
20
-177.7030001
11
190.5982594
21
-175.552139
0
ARC
8
0
10
190.371853
20
-173.5649953
40
2
50
276.5000001
51
366.4999993
0
LINE
8
0
10
191.8482907
20
-168.8561797
11
192.3589967
21
-173.3385889
0
LINE
8
0
10
192.7982432
20
-167.7439283
11
206.8110003
21
-167.1321181
0
LINE
8
0
10
207.8545816
20
-168.1224398
11
207.9471075
21
-178.7248595
0
ARC
8
0
10
209.9470313
20
-178.7074064
40
2
50
180.5000008
51
270.5000001
0
LINE
8
0
10
209.9644844
20
-180.7073302
11
226.3922574
21
-180.5639673
0
LINE
8
0
10
227.4006412
20
-181.5901061
11
227.3986658
21
-181.6655451
0
ARC
8
0
10
229.3979805
20
-181.717899
40
2
50
178.4999999
51
268.5000001
0
LINE
8
0
10
229.3456266
20
-183.7172137
11
245.4783136
21
-184.139663
0
LINE
8
0
10
246.4411526
20
-185.2871297
11
246.2345763
21
-186.6693638
0
ARC
8
0
10
248.212608
20
-186.9649826
40
2
50
171.5000005
51
261.5
0
LINE
8
0
10
247.9169892
20
-188.9430143
11
266.6383133
21
-191.7409348
0
ARC
8
0
10
267.8243468
20
-190.1305546
40
2
50
233.6286198
51
251.5000008
0
LINE
8
0
10
267.1903373
20
-192.0274025
11
285.207887
21
-198.0559904
0
ARC
8
0
10
285.8424963
20
-196.1593431
40
2
50
251.5000003
51
341.5
0
LINE
8
0
10
287.7391436
20
-196.7939524
11
293.7679321
21
-178.7758029
0
ARC
8
0
10
291.8712848
20
-178.1411936
40
2
50
341.5
51
369.9909748
0
ARC
8
0
10
291.9405931
20
-177.1708098
40
2
50
341.8383592
51
363.2638217
0
LINE
8
0
10
293.937349
20
-177.0569425
11
290.228471
21
-112.0187524
0
ARC
8
0
10
288.2317151
20
-112.1326197
40
2
50
363.2638228
51
87.5
0
LINE
8
0
10
252.2533131
20
-108.5598634
11
288.3189539
21
-110.1345233
0
ARC
8
0
10
252.1660743
20
-110.5579598
40
2
50
87.5
51
90.8049434
0
LINE
8
0
10
252.1379774
20
-108.5581572
11
252.2123999
21
-105.7160768
0
ARC
8
0
10
250.2130852
20
-105.6637229
40
2
50
358.5000001
51
448.4999999
0
LINE
8
0
10
250.2654391
20
-103.6644082
11
231.2719499
21
-103.1670462
0
ARC
8
0
10
231.219596
20
-105.1663609
40
2
50
88.5000001
51
117.6780169
0
LINE
8
0
10
230.2825786
20
-102.4770448
11
230.2905914
21
-103.3952171
0
ARC
8
0
10
228.2826548
20
-102.4944979
40
2
50
0.5000001
51
90.5000008
0
LINE
8
0
10
228.2652017
20
-100.4945741
11
209.2659251
21
-100.6603783
0
ARC
8
0
10
209.2833782
20
-102.6603021
40
2
50
90.5000008
51
180.5000001
0
LINE
8
0
10
207.2834544
20
-102.6777552
11
207.3143267
21
-106.2153666
0
ARC
8
0
10
206.6039346
20
-108.0849503
40
2
50
69.1945401
51
92.5000008
0
LINE
8
0
10
206.5166958
20
-106.0868539
11
187.5347796
21
-106.9156223
0
ARC
8
0
10
187.6220184
20
-108.9137187
40
2
50
92.5000008
51
182.5000001
0
LINE
8
0
10
185.623922
20
-109.0009575
11
185.9937588
21
-117.4716133
0
LINE
8
0
10
185.9064135
20
-116.7049931
11
185.9937588
21
-117.4716133
0
ARC
8
0
10
183.9192698
20
-116.9313995
40
2
50
6.5
51
96.4999993
0
LINE
8
0
10
183.6928634
20
-114.9442558
11
164.8149981
21
-117.0951169
0
ARC
8
0
10
165.0414045
20
-119.0822606
40
2
50
96.4999993
51
186.5
0
LINE
8
0
10
163.0542608
20
-119.308667
11
169.506844
21
-175.9422628
0
ARC
8
0
10
171.4939877
20
-175.7158564
40
2
50
186.4999993
51
276.5000001
0
ARC
8
0
10
192.8418626
20
-168.7429765
40
1
50
92.5000008
51
186.4999989
0
ARC
8
0
10
206.8546197
20
-168.1311663
40
1
50
0.499998
51
92.5000008
0
ARC
8
0
10
226.4009839
20
-181.5639292
40
1
50
358.5000027
51
90.499998
0
ARC
8
0
10
245.4521367
20
-185.1393203
40
1
50
351.5000009
51
88.5000027
0
ENDSEC
0
EOF