<svg width="127.63mm" height="94.715mm" viewBox="0 0 127.63 94.715" xmlns="http://www.w3.org/2000/svg"><g id="svgGroup" stroke-linecap="round" fill-rule="evenodd" font-size="9pt" stroke="#000" stroke-width="0.25mm" fill="none" style="stroke:#000;stroke-width:0.25mm;fill:none"><path d="M 8.679 77.045 L 27.557 74.894 A 2 2 0 0 0 29.318 72.681 L 28.817 68.285 A 1 1 0 0 1 29.767 67.173 L 42.028 66.638 A 1 1 0 0 1 43.072 67.628 L 43.164 78.23 A 2 2 0 0 0 45.182 80.213 L 61.877 80.067 L 61.862 80.66 A 2 2 0 0 0 63.809 82.712 L 79.182 83.114 A 1 1 0 0 1 80.145 84.262 L 79.924 85.74 A 2 2 0 0 0 81.607 88.013 L 99.969 90.758 A 2 2 0 0 0 100.376 90.887 L 118.994 94.675 A 2 2 0 0 0 121.353 93.113 L 124.416 78.055 L 125.276 78.209 A 2 2 0 0 0 127.628 76.146 L 124.547 11.528 A 2 2 0 0 0 122.636 9.625 L 88.087 8.117 A 1 1 0 0 1 87.131 7.091 L 87.18 5.224 A 2 2 0 0 0 85.233 3.172 L 66.239 2.675 A 2 2 0 0 0 65.507 2.793 L 65.5 1.983 A 2 2 0 0 0 63.482 0 L 44.483 0.166 A 2 2 0 0 0 42.501 2.183 L 42.53 5.58 A 2 2 0 0 0 42.233 5.571 L 23.251 6.399 A 2 2 0 0 0 21.341 8.485 L 21.599 14.408 A 2 2 0 0 0 20.651 14.286 L 1.774 16.437 A 2 2 0 0 0 0.013 18.651 L 6.465 75.284 A 2 2 0 0 0 8.679 77.045 Z" vector-effect="non-scaling-stroke"/></g></svg>