0
SECTION
2
HEADER
9
$INSUNITS
70
4
0
ENDSEC
0
SECTION
2
TABLES
0
TABLE
2
LTYPE
0
LTYPE
72
65
70
64
2
CONTINUOUS
3
______
73
0
40
0
0
ENDTAB
0
TABLE
2
LAYER
0
ENDTAB
0
ENDSEC
0
SECTION
2
ENTITIES
0
LINE
8
0
10
171.7486949
20
-177.9513931
11
190.6265602
21
-175.800532
0
ARC
8
0
10
190.371853
20
-173.5649953
40
2.25
50
276.5000001
51
366.4999991
0
LINE
8
0
10
192.005637
20
-168.0287724
11
192.6073897
21
-173.3102881
0
LINE
8
0
10
192.005637
20
-168.0287724
11
207.5978136
21
-167.3480033
0
LINE
8
0
10
207.5978136
20
-167.3480033
11
207.697117
21
-178.7270411
0
ARC
8
0
10
209.9470313
20
-178.7074064
40
2.25
50
180.4999999
51
270.5000001
0
LINE
8
0
10
209.966666
20
-180.9573207
11
227.1710572
21
-180.8071802
0
LINE
8
0
10
227.1710572
20
-180.8071802
11
227.1487515
21
-181.6590009
0
ARC
8
0
10
229.3979805
20
-181.717899
40
2.25
50
178.5000009
51
268.5000001
0
LINE
8
0
10
229.3390824
20
-183.967128
11
246.3191997
21
-184.411768
0
LINE
8
0
10
246.3191997
20
-184.411768
11
245.9873223
21
-186.6324114
0
ARC
8
0
10
248.212608
20
-186.9649826
40
2.25
50
171.4999994
51
261.5
0
LINE
8
0
10
247.8800368
20
-189.1902683
11
266.6713382
21
-191.9986471
0
ARC
8
0
10
267.0039094
20
-189.7733614
40
2.25
50
261.5
51
262.8119396
0
ARC
8
0
10
267.7641848
20
-190.0114034
40
2.25
50
242.4174143
51
255.4999999
0
LINE
8
0
10
267.2008298
20
-192.1897356
11
285.5956349
21
-196.9469557
0
ARC
8
0
10
286.1589899
20
-194.7686235
40
2.25
50
255.4999999
51
345.5000003
0
LINE
8
0
10
288.3373221
20
-195.3319785
11
293.0945422
21
-176.9371734
0
ARC
8
0
10
290.91621
20
-176.3738184
40
2.25
50
345.4999999
51
358.2090982
0
LINE
8
0
10
295.018903
20
-117.1556079
11
293.165111
21
-176.4441355
0
ARC
8
0
10
292.770002
20
-117.0852908
40
2.25
50
358.2090977
51
87.5
0
LINE
8
0
10
273.2868005
20
-113.9824923
11
292.8681456
21
-114.8374323
0
LINE
8
0
10
273.2868005
20
-113.9824923
11
273.395849
21
-111.4848718
0
ARC
8
0
10
271.1479905
20
-111.3867282
40
2.25
50
357.4999999
51
447.5000006
0
LINE
8
0
10
271.2461341
20
-109.1388697
11
252.3944098
21
-108.3157856
0
LINE
8
0
10
252.3944098
20
-108.3157856
11
252.4623142
21
-105.722621
0
ARC
8
0
10
250.2130852
20
-105.6637229
40
2.25
50
358.5000001
51
448.5000009
0
LINE
8
0
10
250.2719833
20
-103.4144939
11
231.2784941
21
-102.9171319
0
ARC
8
0
10
231.219596
20
-105.1663609
40
2.25
50
88.5000001
51
107.6512301
0
LINE
8
0
10
230.5325691
20
-102.4748632
11
230.5373464
21
-103.0222911
0
ARC
8
0
10
228.2826548
20
-102.4944979
40
2.25
50
0.5000001
51
90.4999999
0
LINE
8
0
10
228.2630201
20
-100.2445836
11
209.2637435
21
-100.4103878
0
ARC
8
0
10
209.2833782
20
-102.6603021
40
2.25
50
90.4999999
51
180.5000001
0
LINE
8
0
10
207.0334639
20
-102.6799368
11
207.0614074
21
-105.8819481
0
ARC
8
0
10
206.6039346
20
-108.0849503
40
2.25
50
78.2687561
51
92.4999994
0
LINE
8
0
10
206.505791
20
-105.8370918
11
187.5238748
21
-106.6658602
0
ARC
8
0
10
187.6220184
20
-108.9137187
40
2.25
50
92.4999994
51
182.5000001
0
LINE
8
0
10
185.3741599
20
-109.0118623
11
185.6575611
21
-115.5028187
0
ARC
8
0
10
183.9192698
20
-116.9313995
40
2.25
50
39.4144084
51
96.4999991
0
LINE
8
0
10
183.6645626
20
-114.6958628
11
164.7866973
21
-116.8467239
0
ARC
8
0
10
165.0414045
20
-119.0822606
40
2.25
50
96.4999991
51
186.5
0
LINE
8
0
10
162.8058678
20
-119.3369678
11
169.258451
21
-175.9705636
0
ARC
8
0
10
171.4939877
20
-175.7158564
40
2.25
50
186.4999991
51
276.5000001
0
ENDSEC
0
EOF