<svg width="127.63mm" height="94.715mm" viewBox="0 0 127.63 94.715" xmlns="http://www.w3.org/2000/svg"><g id="svgGroup" stroke-linecap="round" fill-rule="evenodd" font-size="9pt" stroke="#000" stroke-width="0.25mm" fill="none" style="stroke:#000;stroke-width:0.25mm;fill:none"><path d="M 8.679 77.045 L 27.557 74.894 A 2 2 0 0 0 29.318 72.681 L 28.817 68.285 A 1 1 0 0 1 29.767 67.173 L 42.028 66.638 A 1 1 0 0 1 43.072 67.628 L 43.164 78.23 A 2 2 0 0 0 45.182 80.213 L 61.877 80.067 L 61.862 80.66 A 2 2 0 0 0 63.809 82.712 L 79.182 83.114 A 1 1 0 0 1 80.145 84.262 L 79.924 85.74 A 2 2 0 0 0 81.607 88.013 L 99.969 90.758 A 2 2 0 0 0 100.376 90.887 L 118.994 94.675 A 2 2 0 0 0 121.353 93.113 L 124.416 78.055 L 125.276 78.209 A 2 2 0 0 0 127.628 76.146 L 124.547 11.528 A 2 2 0 0 0 122.636 9.625 L 88.087 8.117 A 1 1 0 0 1 87.131 7.091 L 87.18 5.224 A 2 2 0 0 0 85.233 3.172 L 66.239 2.675 A 2 2 0 0 0 65.507 2.793 L 65.5 1.983 A 2 2 0 0 0 63.482 0 L 44.483 0.166 A 2 2 0 0 0 42.501 2.183 L 42.53 5.58 A 2 2 0 0 0 42.233 5.571 L 23.251 6.399 A 2 2 0 0 0 21.341 8.485 L 21.599 14.408 A 2 2 0 0 0 20.651 14.286 L 1.774 16.437 A 2 2 0 0 0 0.013 18.651 L 6.465 75.284 A 2 2 0 0 0 8.679 77.045 Z M 43.149 26.551 L 44.807 64.514 L 25.825 65.343 L 24.167 27.379 L 43.149 26.551 L 42.321 7.569 L 23.339 8.397 L 24.167 27.379 M 104.637 29.859 L 105.465 10.877 L 86.483 10.049 L 85.655 29.031 L 104.637 29.859 L 102.979 67.823 L 83.997 66.994 L 85.655 29.031 M 44.998 59.164 L 63.997 58.998 L 63.5 2 L 44.5 2.166 L 44.998 59.164 Z M 8.453 75.058 L 27.33 72.907 L 20.878 16.274 L 2 18.424 L 8.453 75.058 Z M 64.695 61.655 L 83.688 62.152 L 85.18 5.171 L 66.187 4.674 L 64.695 61.655 Z M 45.164 78.213 L 64.163 78.047 L 63.998 59.048 L 44.998 59.214 L 45.164 78.213 Z M 63.861 80.713 L 82.854 81.21 L 83.352 62.216 L 64.358 61.719 L 63.861 80.713 Z M 100.774 88.927 L 119.393 92.715 L 123.181 74.096 L 104.562 70.308 L 100.774 88.927 Z M 81.902 86.035 L 100.693 88.844 L 103.502 70.052 L 84.711 67.244 L 81.902 86.035 Z M 82.471 85.615 L 100.273 88.275 L 102.933 70.473 L 85.131 67.812 L 82.471 85.615 Z M 65.208 61.168 L 83.201 61.639 L 83.673 43.645 L 65.679 43.174 L 65.208 61.168 Z M 65.705 42.174 L 83.699 42.645 L 84.17 24.652 L 66.176 24.18 L 65.705 42.174 Z M 64.374 80.226 L 82.368 80.697 L 82.839 62.703 L 64.845 62.232 L 64.374 80.226 Z M 66.202 23.181 L 84.196 23.652 L 84.667 5.658 L 66.673 5.187 L 66.202 23.181 Z M 101.364 88.536 L 119.003 92.125 L 122.591 74.486 L 104.953 70.898 L 101.364 88.536 Z M 26.303 64.822 L 44.286 64.037 L 43.5 46.054 L 25.518 46.839 L 26.303 64.822 Z M 25.474 45.84 L 43.457 45.055 L 42.672 27.072 L 24.689 27.857 L 25.474 45.84 Z M 24.645 26.858 L 42.628 26.073 L 41.843 8.09 L 23.86 8.875 L 24.645 26.858 Z M 84.518 66.517 L 102.501 67.302 L 103.286 49.319 L 85.304 48.534 L 84.518 66.517 Z M 85.347 47.535 L 103.33 48.32 L 104.115 30.337 L 86.132 29.552 L 85.347 47.535 Z M 86.176 28.553 L 104.159 29.338 L 104.944 11.355 L 86.961 10.57 L 86.176 28.553 Z M 6.742 55.627 L 24.626 53.589 L 22.589 35.705 L 4.704 37.742 L 6.742 55.627 Z M 8.893 74.505 L 26.777 72.467 L 24.739 54.583 L 6.855 56.62 L 8.893 74.505 Z M 4.591 36.749 L 22.475 34.711 L 20.438 16.827 L 2.553 18.865 L 4.591 36.749 Z M 45.494 58.659 L 63.493 58.502 L 63.336 40.503 L 45.336 40.66 L 45.494 58.659 Z M 45.162 20.661 L 63.161 20.504 L 63.004 2.504 L 45.005 2.661 L 45.162 20.661 Z M 45.66 77.709 L 63.659 77.551 L 63.502 59.552 L 45.503 59.709 L 45.66 77.709 Z M 45.328 39.66 L 63.327 39.503 L 63.17 21.504 L 45.171 21.661 L 45.328 39.66 Z M 103.723 86.975 L 117.441 89.767 L 120.233 76.048 L 106.514 73.256 L 103.723 86.975 Z M 6.352 34.535 L 20.262 32.951 L 18.677 19.041 L 4.767 20.625 L 6.352 34.535 Z M 10.654 72.291 L 24.564 70.706 L 22.979 56.796 L 9.069 58.381 L 10.654 72.291 Z M 8.503 53.413 L 22.413 51.828 L 20.828 37.918 L 6.918 39.503 L 8.503 53.413 Z M 84.744 83.932 L 98.59 86.001 L 100.66 72.155 L 86.814 70.086 L 84.744 83.932 Z M 88.261 26.642 L 102.248 27.253 L 102.859 13.266 L 88.872 12.655 L 88.261 26.642 Z M 26.556 24.773 L 40.543 24.162 L 39.932 10.175 L 25.945 10.786 L 26.556 24.773 Z M 86.604 64.606 L 100.59 65.216 L 101.201 51.23 L 87.214 50.619 L 86.604 64.606 Z M 87.433 45.624 L 101.419 46.235 L 102.03 32.248 L 88.043 31.637 L 87.433 45.624 Z M 28.214 62.736 L 42.2 62.126 L 41.59 48.139 L 27.603 48.75 L 28.214 62.736 Z M 27.385 43.755 L 41.371 43.144 L 40.761 29.157 L 26.774 29.768 L 27.385 43.755 Z M 47.144 18.643 L 61.144 18.521 L 61.022 4.522 L 47.022 4.644 L 47.144 18.643 Z M 47.31 37.643 L 61.31 37.52 L 61.187 23.521 L 47.188 23.643 L 47.31 37.643 Z M 47.476 56.642 L 61.475 56.52 L 61.353 42.52 L 47.354 42.642 L 47.476 56.642 Z M 47.642 75.691 L 61.642 75.569 L 61.52 61.57 L 47.52 61.692 L 47.642 75.691 Z M 67.259 59.221 L 81.254 59.587 L 81.621 45.592 L 67.626 45.226 L 67.259 59.221 Z M 66.425 78.279 L 80.421 78.645 L 80.787 64.65 L 66.792 64.284 L 66.425 78.279 Z M 67.757 40.227 L 81.752 40.594 L 82.118 26.599 L 68.123 26.232 L 67.757 40.227 Z M 68.254 21.234 L 82.249 21.6 L 82.616 7.605 L 68.62 7.239 L 68.254 21.234 Z M 13.836 64.888 L 16.812 64.549 L 17.038 66.531 L 17.047 66.53 L 16.822 64.548 L 19.4 64.254 A 0.4 0.4 0 1 0 19.399 64.244 L 16.82 64.538 L 16.64 62.953 A 0.4 0.4 0 1 0 16.63 62.955 L 16.811 64.539 L 13.835 64.878 L 13.836 64.888 Z M 11.685 46.01 L 14.661 45.671 L 14.887 47.654 L 14.897 47.652 L 14.671 45.67 L 17.249 45.376 A 0.4 0.4 0 1 0 17.248 45.367 L 14.67 45.66 L 14.489 44.076 A 0.4 0.4 0 1 0 14.479 44.077 L 14.66 45.661 L 11.684 46 L 11.685 46.01 Z M 9.534 27.133 L 12.51 26.793 L 12.736 28.776 L 12.746 28.775 L 12.52 26.792 L 15.098 26.499 A 0.4 0.4 0 1 0 15.097 26.489 L 12.519 26.782 L 12.338 25.198 A 0.4 0.4 0 1 0 12.328 25.199 L 12.509 26.784 L 9.533 27.123 L 9.534 27.133 Z M 71.441 52.333 L 74.435 52.411 L 74.383 54.406 L 74.393 54.406 L 74.445 52.412 L 77.039 52.48 A 0.4 0.4 0 1 0 77.039 52.47 L 74.445 52.402 L 74.487 50.807 A 0.4 0.4 0 1 0 74.477 50.807 L 74.435 52.401 L 71.441 52.323 L 71.441 52.333 Z M 70.607 71.391 L 73.601 71.469 L 73.549 73.464 L 73.559 73.464 L 73.611 71.47 L 76.205 71.538 A 0.4 0.4 0 1 0 76.206 71.528 L 73.611 71.46 L 73.653 69.865 A 0.4 0.4 0 1 0 73.643 69.865 L 73.601 71.459 L 70.607 71.381 L 70.607 71.391 Z M 72.436 14.346 L 75.43 14.424 L 75.377 16.419 L 75.387 16.419 L 75.44 14.425 L 78.034 14.493 A 0.4 0.4 0 1 0 78.034 14.483 L 75.44 14.415 L 75.482 12.82 A 0.4 0.4 0 1 0 75.472 12.82 L 75.43 14.414 L 72.436 14.336 L 72.436 14.346 Z M 71.938 33.339 L 74.932 33.418 L 74.88 35.412 L 74.89 35.412 L 74.942 33.418 L 77.536 33.486 A 0.4 0.4 0 1 0 77.537 33.476 L 74.943 33.408 L 74.984 31.814 A 0.4 0.4 0 1 0 74.974 31.813 L 74.933 33.408 L 71.939 33.329 L 71.938 33.339 Z M 89.734 77.605 L 92.696 78.048 L 92.401 80.021 L 92.411 80.022 L 92.706 78.049 L 95.273 78.433 A 0.4 0.4 0 1 0 95.274 78.423 L 92.708 78.04 L 92.943 76.462 A 0.4 0.4 0 1 0 92.934 76.461 L 92.698 78.038 L 89.736 77.595 L 89.734 77.605 Z M 109.037 80.918 L 111.972 81.515 L 111.574 83.47 L 111.584 83.472 L 111.981 81.517 L 114.524 82.035 A 0.4 0.4 0 1 0 114.526 82.025 L 111.983 81.508 L 112.301 79.945 A 0.4 0.4 0 1 0 112.292 79.943 L 111.974 81.506 L 109.039 80.908 L 109.037 80.918 Z M 51.415 49.612 L 54.41 49.586 L 54.427 51.581 L 54.437 51.581 L 54.42 49.586 L 57.015 49.563 A 0.4 0.4 0 1 0 57.015 49.553 L 54.42 49.576 L 54.406 47.981 A 0.4 0.4 0 1 0 54.396 47.981 L 54.41 49.576 L 51.415 49.602 L 51.415 49.612 Z M 51.083 11.614 L 54.078 11.588 L 54.095 13.583 L 54.105 13.582 L 54.088 11.587 L 56.683 11.565 A 0.4 0.4 0 1 0 56.683 11.555 L 54.088 11.577 L 54.074 9.983 A 0.4 0.4 0 1 0 54.064 9.983 L 54.078 11.578 L 51.083 11.604 L 51.083 11.614 Z M 51.581 68.662 L 54.576 68.635 L 54.593 70.63 L 54.603 70.63 L 54.586 68.635 L 57.181 68.613 A 0.4 0.4 0 1 0 57.181 68.603 L 54.586 68.625 L 54.572 67.03 A 0.4 0.4 0 1 0 54.562 67.03 L 54.576 68.625 L 51.581 68.652 L 51.581 68.662 Z M 51.249 30.613 L 54.244 30.587 L 54.261 32.582 L 54.271 32.582 L 54.254 30.587 L 56.849 30.564 A 0.4 0.4 0 1 0 56.849 30.554 L 54.254 30.577 L 54.24 28.982 A 0.4 0.4 0 1 0 54.23 28.982 L 54.244 30.577 L 51.249 30.603 L 51.249 30.613 Z M 31.076 36.592 L 34.068 36.461 L 34.155 38.454 L 34.165 38.454 L 34.078 36.461 L 36.671 36.347 A 0.4 0.4 0 1 0 36.67 36.337 L 34.078 36.451 L 34.008 34.857 A 0.4 0.4 0 1 0 33.998 34.858 L 34.068 36.451 L 31.075 36.582 L 31.076 36.592 Z M 31.905 55.574 L 34.897 55.443 L 34.984 57.436 L 34.994 57.436 L 34.907 55.443 L 37.499 55.329 A 0.4 0.4 0 1 0 37.499 55.319 L 34.906 55.433 L 34.837 53.839 A 0.4 0.4 0 1 0 34.827 53.84 L 34.896 55.433 L 31.904 55.564 L 31.905 55.574 Z M 92.563 19.828 L 95.555 19.959 L 95.468 21.952 L 95.478 21.952 L 95.565 19.959 L 98.157 20.072 A 0.4 0.4 0 1 0 98.158 20.062 L 95.565 19.949 L 95.635 18.356 A 0.4 0.4 0 1 0 95.625 18.355 L 95.555 19.949 L 92.563 19.818 L 92.563 19.828 Z M 90.905 57.792 L 93.897 57.923 L 93.81 59.916 L 93.82 59.916 L 93.907 57.923 L 96.5 58.036 A 0.4 0.4 0 1 0 96.5 58.026 L 93.908 57.913 L 93.977 56.32 A 0.4 0.4 0 1 0 93.967 56.319 L 93.898 57.913 L 90.906 57.782 L 90.905 57.792 Z M 30.247 17.61 L 33.239 17.479 L 33.326 19.472 L 33.336 19.472 L 33.249 17.479 L 35.842 17.366 A 0.4 0.4 0 1 0 35.841 17.356 L 33.249 17.469 L 33.179 15.875 A 0.4 0.4 0 1 0 33.169 15.876 L 33.239 17.469 L 30.247 17.6 L 30.247 17.61 Z M 91.734 38.81 L 94.726 38.941 L 94.639 40.934 L 94.649 40.934 L 94.736 38.941 L 97.329 39.054 A 0.4 0.4 0 1 0 97.329 39.044 L 94.736 38.931 L 94.806 37.338 A 0.4 0.4 0 1 0 94.796 37.337 L 94.726 38.931 L 91.734 38.8 L 91.734 38.81 Z" vector-effect="non-scaling-stroke"/></g></svg>