0
SECTION
2
HEADER
9
$INSUNITS
70
4
0
ENDSEC
0
SECTION
2
TABLES
0
TABLE
2
LTYPE
0
LTYPE
72
65
70
64
2
CONTINUOUS
3
______
73
0
40
0
0
ENDTAB
0
TABLE
2
LAYER
0
ENDTAB
0
ENDSEC
0
SECTION
2
ENTITIES
0
LINE
8
0
10
147
20
-184.505
11
149.995
21
-184.505
0
LINE
8
0
10
150.005
20
-184.505
11
152.6000313
21
-184.505
0
LINE
8
0
10
152.6000313
20
-184.495
11
150.005
21
-184.495
0
LINE
8
0
10
149.995
20
-184.495
11
147
21
-184.495
0
LINE
8
0
10
147
20
-184.495
11
147
21
-184.505
0
LINE
8
0
10
147
20
-165.505
11
149.995
21
-165.505
0
LINE
8
0
10
150.005
20
-165.505
11
152.6000313
21
-165.505
0
LINE
8
0
10
152.6000313
20
-165.495
11
150.005
21
-165.495
0
LINE
8
0
10
149.995
20
-165.495
11
147
21
-165.495
0
LINE
8
0
10
147
20
-165.495
11
147
21
-165.505
0
LINE
8
0
10
147
20
-146.505
11
149.995
21
-146.505
0
LINE
8
0
10
150.005
20
-146.505
11
152.6000313
21
-146.505
0
LINE
8
0
10
152.6000313
20
-146.495
11
150.005
21
-146.495
0
LINE
8
0
10
149.995
20
-146.495
11
147
21
-146.495
0
LINE
8
0
10
147
20
-146.495
11
147
21
-146.505
0
LINE
8
0
10
167.2569591
20
-177.2957184
11
170.2446634
21
-177.504639
0
LINE
8
0
10
170.2546391
20
-177.5053366
11
172.843349
21
-177.6863568
0
LINE
8
0
10
172.8440465
20
-177.6763812
11
170.2553366
21
-177.495361
0
LINE
8
0
10
170.2453609
20
-177.4946634
11
167.2576566
21
-177.2857428
0
LINE
8
0
10
167.2576566
20
-177.2857428
11
167.2569591
21
-177.2957184
0
LINE
8
0
10
168.5823321
20
-158.3420014
11
171.5700364
21
-158.550922
0
LINE
8
0
10
171.5800121
20
-158.5516196
11
174.168722
21
-158.7326398
0
LINE
8
0
10
174.1694195
20
-158.7226642
11
171.5807096
21
-158.541644
0
LINE
8
0
10
171.5707339
20
-158.5409464
11
168.5830296
21
-158.3320258
0
LINE
8
0
10
168.5830296
20
-158.3320258
11
168.5823321
21
-158.3420014
0
LINE
8
0
10
169.9077051
20
-139.3882844
11
172.8954094
21
-139.597205
0
LINE
8
0
10
172.9053851
20
-139.5979026
11
175.494095
21
-139.7789228
0
LINE
8
0
10
175.4947925
20
-139.7689472
11
172.9060826
21
-139.587927
0
LINE
8
0
10
172.8961069
20
-139.5872294
11
169.9084026
21
-139.3783088
0
LINE
8
0
10
169.9084026
20
-139.3783088
11
169.9077051
21
-139.3882844
0
LINE
8
0
10
187.8153661
20
-173.6161355
11
190.7939592
21
-173.9291983
0
LINE
8
0
10
190.8039044
20
-173.9302435
11
193.3847198
21
-174.2014982
0
LINE
8
0
10
193.3857651
20
-174.191553
11
190.8049496
21
-173.9202983
0
LINE
8
0
10
190.7950044
20
-173.9192531
11
187.8164114
21
-173.6061903
0
LINE
8
0
10
187.8164114
20
-173.6061903
11
187.8153661
21
-173.6161355
0
LINE
8
0
10
189.8014069
20
-154.7202195
11
192.78
21
-155.0332823
0
LINE
8
0
10
192.7899452
20
-155.0343275
11
195.3707606
21
-155.3055822
0
LINE
8
0
10
195.3718059
20
-155.295637
11
192.7909904
21
-155.0243823
0
LINE
8
0
10
192.7810452
20
-155.0233371
11
189.8024522
21
-154.7102743
0
LINE
8
0
10
189.8024522
20
-154.7102743
11
189.8014069
21
-154.7202195
0
LINE
8
0
10
191.7874477
20
-135.8243035
11
194.7660408
21
-136.1373663
0
LINE
8
0
10
194.775986
20
-136.1384115
11
197.3568014
21
-136.4096662
0
LINE
8
0
10
197.3578467
20
-136.399721
11
194.7770312
21
-136.1284663
0
LINE
8
0
10
194.767086
20
-136.1274211
11
191.788493
21
-135.8143583
0
LINE
8
0
10
191.788493
20
-135.8143583
11
191.7874477
21
-135.8243035
0
LINE
8
0
10
207.6534373
20
-178.6124474
11
210.6192902
21
-179.0292708
0
LINE
8
0
10
210.6291928
20
-179.0306626
11
213.1989695
21
-179.3918211
0
LINE
8
0
10
213.2003612
20
-179.3819185
11
210.6305846
21
-179.02076
0
LINE
8
0
10
210.620682
20
-179.0193682
11
207.6548291
21
-178.6025448
0
LINE
8
0
10
207.6548291
20
-178.6025448
11
207.6534373
21
-178.6124474
0
LINE
8
0
10
210.2977262
20
-159.7973541
11
213.2635791
21
-160.2141775
0
LINE
8
0
10
213.2734817
20
-160.2155693
11
215.8432584
21
-160.5767278
0
LINE
8
0
10
215.8446501
20
-160.5668252
11
213.2748735
21
-160.2056667
0
LINE
8
0
10
213.2649709
20
-160.2042749
11
210.299118
21
-159.7874515
0
LINE
8
0
10
210.299118
20
-159.7874515
11
210.2977262
21
-159.7973541
0
LINE
8
0
10
212.9420151
20
-140.9822608
11
215.907868
21
-141.3990842
0
LINE
8
0
10
215.9177706
20
-141.400476
11
218.4875473
21
-141.7616345
0
LINE
8
0
10
218.488939
20
-141.7517319
11
215.9191624
21
-141.3905734
0
LINE
8
0
10
215.9092598
20
-141.3891816
11
212.9434069
21
-140.9723582
0
LINE
8
0
10
212.9434069
20
-140.9723582
11
212.9420151
21
-140.9822608
0
LINE
8
0
10
227.018153
20
-186.330246
11
229.9762796
21
-186.7987672
0
LINE
8
0
10
229.9861565
20
-186.8003316
11
232.5492386
21
-187.2062839
0
LINE
8
0
10
232.5508029
20
-187.1964071
11
229.9877208
21
-186.7904548
0
LINE
8
0
10
229.9778439
20
-186.7888904
11
227.0197174
21
-186.3203692
0
LINE
8
0
10
227.0197174
20
-186.3203692
11
227.018153
21
-186.330246
0
LINE
8
0
10
229.9904078
20
-167.5641675
11
232.9485344
21
-168.0326887
0
LINE
8
0
10
232.9584113
20
-168.0342531
11
235.5214934
21
-168.4402054
0
LINE
8
0
10
235.5230577
20
-168.4303286
11
232.9599756
21
-168.0243763
0
LINE
8
0
10
232.9500987
20
-168.0228119
11
229.9919722
21
-167.5542907
0
LINE
8
0
10
229.9919722
20
-167.5542907
11
229.9904078
21
-167.5641675
0
LINE
8
0
10
232.9626626
20
-148.798089
11
235.9207892
21
-149.2666102
0
LINE
8
0
10
235.9306661
20
-149.2681746
11
238.4937482
21
-149.6741269
0
LINE
8
0
10
238.4953125
20
-149.6642501
11
235.9322304
21
-149.2582978
0
LINE
8
0
10
235.9223535
20
-149.2567334
11
232.964227
21
-148.7882122
0
LINE
8
0
10
232.964227
20
-148.7882122
11
232.9626626
21
-148.798089
0
LINE
8
0
10
185.7195704
20
-193.5562995
11
188.6981635
21
-193.8693623
0
LINE
8
0
10
188.7081087
20
-193.8704075
11
191.2889241
21
-194.1416622
0
LINE
8
0
10
191.2899694
20
-194.131717
11
188.7091539
21
-193.8604623
0
LINE
8
0
10
188.6992087
20
-193.8594171
11
185.7206157
21
-193.5463543
0
LINE
8
0
10
185.7206157
20
-193.5463543
11
185.7195704
21
-193.5562995
0
LINE
8
0
10
205.110518
20
-198.0204086
11
208.0763709
21
-198.437232
0
LINE
8
0
10
208.0862735
20
-198.4386238
11
210.6560502
21
-198.7997823
0
LINE
8
0
10
210.6574419
20
-198.7898797
11
208.0876653
21
-198.4287212
0
LINE
8
0
10
208.0777627
20
-198.4273294
11
205.1119098
21
-198.010506
0
LINE
8
0
10
205.1119098
20
-198.010506
11
205.110518
21
-198.0204086
0
LINE
8
0
10
224.1880294
20
-206.3724678
11
227.0809773
21
-207.1476309
0
LINE
8
0
10
227.0906365
20
-207.150219
11
229.5972442
21
-207.8218626
0
LINE
8
0
10
229.5998325
20
-207.8122032
11
227.0932247
21
-207.1405597
0
LINE
8
0
10
227.0835655
20
-207.1379716
11
224.1906176
21
-206.3628085
0
LINE
8
0
10
224.1906176
20
-206.3628085
11
224.1880294
21
-206.3724678
0
LINE
8
0
10
244.0040329
20
-212.5667946
11
246.8001062
21
-213.6401066
0
LINE
8
0
10
246.809442
20
-213.6436903
11
249.2321124
21
-214.5736663
0
LINE
8
0
10
249.2356961
20
-214.5643304
11
246.8130258
21
-213.6343544
0
LINE
8
0
10
246.80369
20
-213.6307707
11
244.0076166
21
-212.5574587
0
LINE
8
0
10
244.0076166
20
-212.5574587
11
244.0040329
21
-212.5667946
0
LINE
8
0
10
158.1206828
20
-152.4350107
11
161.1138583
21
-152.5395347
0
LINE
8
0
10
161.1238522
20
-152.5398837
11
163.7173027
21
-152.630449
0
LINE
8
0
10
163.7176517
20
-152.6204551
11
161.1242012
21
-152.5298898
0
LINE
8
0
10
161.1142073
20
-152.5295408
11
158.1210318
21
-152.4250169
0
LINE
8
0
10
158.1210318
20
-152.4250169
11
158.1206828
21
-152.4350107
0
LINE
8
0
10
157.4579963
20
-171.4118693
11
160.4511718
21
-171.5163932
0
LINE
8
0
10
160.4611657
20
-171.5167422
11
163.0546162
21
-171.6073075
0
LINE
8
0
10
163.0549652
20
-171.5973136
11
160.4615147
21
-171.5067483
0
LINE
8
0
10
160.4515208
20
-171.5063993
11
157.4583453
21
-171.4018754
0
LINE
8
0
10
157.4583453
20
-171.4018754
11
157.4579963
21
-171.4118693
0
LINE
8
0
10
201.3893231
20
-146.3435964
11
204.3619989
21
-146.7085952
0
LINE
8
0
10
204.3719242
20
-146.7098138
11
206.9476126
21
-147.0260687
0
LINE
8
0
10
206.9488313
20
-147.0161431
11
204.3731429
21
-146.6998883
0
LINE
8
0
10
204.3632176
20
-146.6986697
11
201.3905418
21
-146.333671
0
LINE
8
0
10
201.3905418
20
-146.333671
11
201.3893231
21
-146.3435964
0
LINE
8
0
10
196.7589934
20
-184.0546057
11
199.7316692
21
-184.4196045
0
LINE
8
0
10
199.7415945
20
-184.4208231
11
202.3172829
21
-184.737078
0
LINE
8
0
10
202.3185016
20
-184.7271524
11
199.7428132
21
-184.4108976
0
LINE
8
0
10
199.7328879
20
-184.409679
11
196.7602121
21
-184.0446803
0
LINE
8
0
10
196.7602121
20
-184.0446803
11
196.7589934
21
-184.0546057
0
LINE
8
0
10
236.5642549
20
-201.8599151
11
239.4126691
21
-202.785421
0
LINE
8
0
10
239.4221797
20
-202.7885112
11
241.890201
21
-203.5904199
0
LINE
8
0
10
241.8932912
20
-203.5809094
11
239.4252699
21
-202.7790006
0
LINE
8
0
10
239.4157593
20
-202.7759104
11
236.567345
21
-201.8504045
0
LINE
8
0
10
236.567345
20
-201.8504045
11
236.5642549
21
-201.8599151
0
LINE
8
0
10
388.5131007
20
-184.505
11
391.108132
21
-184.505
0
LINE
8
0
10
391.118132
20
-184.505
11
394.113132
21
-184.505
0
LINE
8
0
10
394.113132
20
-184.505
11
394.113132
21
-184.495
0
LINE
8
0
10
394.113132
20
-184.495
11
391.118132
21
-184.495
0
LINE
8
0
10
391.108132
20
-184.495
11
388.5131007
21
-184.495
0
LINE
8
0
10
388.5131007
20
-165.505
11
391.108132
21
-165.505
0
LINE
8
0
10
391.118132
20
-165.505
11
394.113132
21
-165.505
0
LINE
8
0
10
394.113132
20
-165.505
11
394.113132
21
-165.495
0
LINE
8
0
10
394.113132
20
-165.495
11
391.118132
21
-165.495
0
LINE
8
0
10
391.108132
20
-165.495
11
388.5131007
21
-165.495
0
LINE
8
0
10
388.5131007
20
-146.505
11
391.108132
21
-146.505
0
LINE
8
0
10
391.118132
20
-146.505
11
394.113132
21
-146.505
0
LINE
8
0
10
394.113132
20
-146.505
11
394.113132
21
-146.495
0
LINE
8
0
10
394.113132
20
-146.495
11
391.118132
21
-146.495
0
LINE
8
0
10
391.108132
20
-146.495
11
388.5131007
21
-146.495
0
LINE
8
0
10
368.269783
20
-177.6863568
11
370.8584929
21
-177.5053366
0
LINE
8
0
10
370.8684686
20
-177.504639
11
373.8561729
21
-177.2957184
0
LINE
8
0
10
373.8561729
20
-177.2957184
11
373.8554754
21
-177.2857428
0
LINE
8
0
10
373.8554754
20
-177.2857428
11
370.8677711
21
-177.4946634
0
LINE
8
0
10
370.8577954
20
-177.495361
11
368.2690855
21
-177.6763812
0
LINE
8
0
10
366.94441
20
-158.7326398
11
369.5331199
21
-158.5516196
0
LINE
8
0
10
369.5430956
20
-158.550922
11
372.5307999
21
-158.3420014
0
LINE
8
0
10
372.5307999
20
-158.3420014
11
372.5301024
21
-158.3320258
0
LINE
8
0
10
372.5301024
20
-158.3320258
11
369.5423981
21
-158.5409464
0
LINE
8
0
10
369.5324224
20
-158.541644
11
366.9437125
21
-158.7226642
0
LINE
8
0
10
365.619037
20
-139.7789228
11
368.2077469
21
-139.5979026
0
LINE
8
0
10
368.2177226
20
-139.597205
11
371.2054269
21
-139.3882844
0
LINE
8
0
10
371.2054269
20
-139.3882844
11
371.2047294
21
-139.3783088
0
LINE
8
0
10
371.2047294
20
-139.3783088
11
368.2170251
21
-139.5872294
0
LINE
8
0
10
368.2070494
20
-139.587927
11
365.6183395
21
-139.7689472
0
LINE
8
0
10
347.7284122
20
-174.2014982
11
350.3092276
21
-173.9302435
0
LINE
8
0
10
350.3191728
20
-173.9291983
11
353.2977659
21
-173.6161355
0
LINE
8
0
10
353.2977659
20
-173.6161355
11
353.2967206
21
-173.6061903
0
LINE
8
0
10
353.2967206
20
-173.6061903
11
350.3181276
21
-173.9192531
0
LINE
8
0
10
350.3081824
20
-173.9202983
11
347.7273669
21
-174.191553
0
LINE
8
0
10
345.7423714
20
-155.3055822
11
348.3231868
21
-155.0343275
0
LINE
8
0
10
348.333132
20
-155.0332823
11
351.3117251
21
-154.7202195
0
LINE
8
0
10
351.3117251
20
-154.7202195
11
351.3106798
21
-154.7102743
0
LINE
8
0
10
351.3106798
20
-154.7102743
11
348.3320868
21
-155.0233371
0
LINE
8
0
10
348.3221416
20
-155.0243823
11
345.7413261
21
-155.295637
0
LINE
8
0
10
343.7563306
20
-136.4096662
11
346.337146
21
-136.1384115
0
LINE
8
0
10
346.3470912
20
-136.1373663
11
349.3256843
21
-135.8243035
0
LINE
8
0
10
349.3256843
20
-135.8243035
11
349.324639
21
-135.8143583
0
LINE
8
0
10
349.324639
20
-135.8143583
11
346.346046
21
-136.1274211
0
LINE
8
0
10
346.3361008
20
-136.1284663
11
343.7552853
21
-136.399721
0
LINE
8
0
10
327.9141625
20
-179.3918211
11
330.4839392
21
-179.0306626
0
LINE
8
0
10
330.4938418
20
-179.0292708
11
333.4596947
21
-178.6124474
0
LINE
8
0
10
333.4596947
20
-178.6124474
11
333.4583029
21
-178.6025448
0
LINE
8
0
10
333.4583029
20
-178.6025448
11
330.49245
21
-179.0193682
0
LINE
8
0
10
330.4825474
20
-179.02076
11
327.9127708
21
-179.3819185
0
LINE
8
0
10
325.2698736
20
-160.5767278
11
327.8396503
21
-160.2155693
0
LINE
8
0
10
327.8495529
20
-160.2141775
11
330.8154058
21
-159.7973541
0
LINE
8
0
10
330.8154058
20
-159.7973541
11
330.814014
21
-159.7874515
0
LINE
8
0
10
330.814014
20
-159.7874515
11
327.8481611
21
-160.2042749
0
LINE
8
0
10
327.8382585
20
-160.2056667
11
325.2684819
21
-160.5668252
0
LINE
8
0
10
322.6255847
20
-141.7616345
11
325.1953614
21
-141.400476
0
LINE
8
0
10
325.205264
20
-141.3990842
11
328.1711169
21
-140.9822608
0
LINE
8
0
10
328.1711169
20
-140.9822608
11
328.1697251
21
-140.9723582
0
LINE
8
0
10
328.1697251
20
-140.9723582
11
325.2038722
21
-141.3891816
0
LINE
8
0
10
325.1939696
20
-141.3905734
11
322.624193
21
-141.7517319
0
LINE
8
0
10
308.5638934
20
-187.2062839
11
311.1269755
21
-186.8003316
0
LINE
8
0
10
311.1368524
20
-186.7987672
11
314.094979
21
-186.330246
0
LINE
8
0
10
314.094979
20
-186.330246
11
314.0934146
21
-186.3203692
0
LINE
8
0
10
314.0934146
20
-186.3203692
11
311.1352881
21
-186.7888904
0
LINE
8
0
10
311.1254112
20
-186.7904548
11
308.5623291
21
-187.1964071
0
LINE
8
0
10
305.5916386
20
-168.4402054
11
308.1547207
21
-168.0342531
0
LINE
8
0
10
308.1645976
20
-168.0326887
11
311.1227242
21
-167.5641675
0
LINE
8
0
10
311.1227242
20
-167.5641675
11
311.1211598
21
-167.5542907
0
LINE
8
0
10
311.1211598
20
-167.5542907
11
308.1630333
21
-168.0228119
0
LINE
8
0
10
308.1531564
20
-168.0243763
11
305.5900743
21
-168.4303286
0
LINE
8
0
10
302.6193838
20
-149.6741269
11
305.1824659
21
-149.2681746
0
LINE
8
0
10
305.1923428
20
-149.2666102
11
308.1504694
21
-148.798089
0
LINE
8
0
10
308.1504694
20
-148.798089
11
308.148905
21
-148.7882122
0
LINE
8
0
10
308.148905
20
-148.7882122
11
305.1907785
21
-149.2567334
0
LINE
8
0
10
305.1809016
20
-149.2582978
11
302.6178195
21
-149.6642501
0
LINE
8
0
10
349.8242079
20
-194.1416622
11
352.4050233
21
-193.8704075
0
LINE
8
0
10
352.4149685
20
-193.8693623
11
355.3935616
21
-193.5562995
0
LINE
8
0
10
355.3935616
20
-193.5562995
11
355.3925163
21
-193.5463543
0
LINE
8
0
10
355.3925163
20
-193.5463543
11
352.4139233
21
-193.8594171
0
LINE
8
0
10
352.4039781
20
-193.8604623
11
349.8231626
21
-194.131717
0
LINE
8
0
10
330.4570818
20
-198.7997823
11
333.0268585
21
-198.4386238
0
LINE
8
0
10
333.0367611
20
-198.437232
11
336.002614
21
-198.0204086
0
LINE
8
0
10
336.002614
20
-198.0204086
11
336.0012222
21
-198.010506
0
LINE
8
0
10
336.0012222
20
-198.010506
11
333.0353693
21
-198.4273294
0
LINE
8
0
10
333.0254667
20
-198.4287212
11
330.4556901
21
-198.7898797
0
LINE
8
0
10
311.5158878
20
-207.8218626
11
314.0224955
21
-207.150219
0
LINE
8
0
10
314.0321547
20
-207.1476309
11
316.9251026
21
-206.3724678
0
LINE
8
0
10
316.9251026
20
-206.3724678
11
316.9225144
21
-206.3628085
0
LINE
8
0
10
316.9225144
20
-206.3628085
11
314.0295665
21
-207.1379716
0
LINE
8
0
10
314.0199073
20
-207.1405597
11
311.5132995
21
-207.8122032
0
LINE
8
0
10
291.8810196
20
-214.5736663
11
294.30369
21
-213.6436903
0
LINE
8
0
10
294.3130258
20
-213.6401066
11
297.1090991
21
-212.5667946
0
LINE
8
0
10
297.1090991
20
-212.5667946
11
297.1055154
21
-212.5574587
0
LINE
8
0
10
297.1055154
20
-212.5574587
11
294.309442
21
-213.6307707
0
LINE
8
0
10
294.3001062
20
-213.6343544
11
291.8774359
21
-214.5643304
0
LINE
8
0
10
377.3958294
20
-152.630449
11
379.9892798
21
-152.5398837
0
LINE
8
0
10
379.9992737
20
-152.5395347
11
382.9924493
21
-152.4350107
0
LINE
8
0
10
382.9924493
20
-152.4350107
11
382.9921002
21
-152.4250169
0
LINE
8
0
10
382.9921002
20
-152.4250169
11
379.9989247
21
-152.5295408
0
LINE
8
0
10
379.9889308
20
-152.5298898
11
377.3954803
21
-152.6204551
0
LINE
8
0
10
378.0585158
20
-171.6073075
11
380.6519663
21
-171.5167422
0
LINE
8
0
10
380.6619602
20
-171.5163932
11
383.6551357
21
-171.4118693
0
LINE
8
0
10
383.6551357
20
-171.4118693
11
383.6547867
21
-171.4018754
0
LINE
8
0
10
383.6547867
20
-171.4018754
11
380.6616112
21
-171.5063993
0
LINE
8
0
10
380.6516173
20
-171.5067483
11
378.0581668
21
-171.5973136
0
LINE
8
0
10
334.1655194
20
-147.0260687
11
336.7412078
21
-146.7098138
0
LINE
8
0
10
336.7511331
20
-146.7085952
11
339.7238089
21
-146.3435964
0
LINE
8
0
10
339.7238089
20
-146.3435964
11
339.7225902
21
-146.333671
0
LINE
8
0
10
339.7225902
20
-146.333671
11
336.7499144
21
-146.6986697
0
LINE
8
0
10
336.7399891
20
-146.6998883
11
334.1643007
21
-147.0161431
0
LINE
8
0
10
338.7958491
20
-184.737078
11
341.3715375
21
-184.4208231
0
LINE
8
0
10
341.3814628
20
-184.4196045
11
344.3541386
21
-184.0546057
0
LINE
8
0
10
344.3541386
20
-184.0546057
11
344.3529199
21
-184.0446803
0
LINE
8
0
10
344.3529199
20
-184.0446803
11
341.3802441
21
-184.409679
0
LINE
8
0
10
341.3703188
20
-184.4108976
11
338.7946304
21
-184.7271524
0
LINE
8
0
10
299.222931
20
-203.5904199
11
301.6909523
21
-202.7885112
0
LINE
8
0
10
301.7004629
20
-202.785421
11
304.5488771
21
-201.8599151
0
LINE
8
0
10
304.5488771
20
-201.8599151
11
304.545787
21
-201.8504045
0
LINE
8
0
10
304.545787
20
-201.8504045
11
301.6973727
21
-202.7759104
0
LINE
8
0
10
301.6878621
20
-202.7790006
11
299.2198408
21
-203.5809094
0
LINE
8
0
10
149.995
20
-186.5
11
150.005
21
-186.5
0
LINE
8
0
10
150.005
20
-186.5
11
150.005
21
-184.505
0
LINE
8
0
10
150.005
20
-184.495
11
150.005
21
-182.8999687
0
LINE
8
0
10
149.995
20
-182.8999687
11
149.995
21
-184.495
0
LINE
8
0
10
149.995
20
-184.505
11
149.995
21
-186.5
0
LINE
8
0
10
149.995
20
-167.5
11
150.005
21
-167.5
0
LINE
8
0
10
150.005
20
-167.5
11
150.005
21
-165.505
0
LINE
8
0
10
150.005
20
-165.495
11
150.005
21
-163.8999687
0
LINE
8
0
10
149.995
20
-163.8999687
11
149.995
21
-165.495
0
LINE
8
0
10
149.995
20
-165.505
11
149.995
21
-167.5
0
LINE
8
0
10
149.995
20
-148.5
11
150.005
21
-148.5
0
LINE
8
0
10
150.005
20
-148.5
11
150.005
21
-146.505
0
LINE
8
0
10
150.005
20
-146.495
11
150.005
21
-144.8999687
0
LINE
8
0
10
149.995
20
-144.8999687
11
149.995
21
-146.495
0
LINE
8
0
10
149.995
20
-146.505
11
149.995
21
-148.5
0
LINE
8
0
10
170.1054992
20
-179.4947793
11
170.1154749
21
-179.4954769
0
LINE
8
0
10
170.1154749
20
-179.4954769
11
170.2546391
21
-177.5053366
0
LINE
8
0
10
170.2553366
20
-177.495361
11
170.3666004
21
-175.9042151
0
LINE
8
0
10
170.3566247
20
-175.9035176
11
170.2453609
21
-177.4946634
0
LINE
8
0
10
170.2446634
20
-177.504639
11
170.1054992
21
-179.4947793
0
LINE
8
0
10
171.4308722
20
-160.5410623
11
171.4408479
21
-160.5417599
0
LINE
8
0
10
171.4408479
20
-160.5417599
11
171.5800121
21
-158.5516196
0
LINE
8
0
10
171.5807096
20
-158.541644
11
171.6919734
21
-156.9504981
0
LINE
8
0
10
171.6819977
20
-156.9498006
11
171.5707339
21
-158.5409464
0
LINE
8
0
10
171.5700364
20
-158.550922
11
171.4308722
21
-160.5410623
0
LINE
8
0
10
172.7562452
20
-141.5873453
11
172.7662209
21
-141.5880429
0
LINE
8
0
10
172.7662209
20
-141.5880429
11
172.9053851
21
-139.5979026
0
LINE
8
0
10
172.9060826
20
-139.587927
11
173.0173464
21
-137.9967811
0
LINE
8
0
10
173.0073707
20
-137.9960836
11
172.8961069
21
-139.5872294
0
LINE
8
0
10
172.8954094
20
-139.597205
11
172.7562452
21
-141.5873453
0
LINE
8
0
10
190.5854249
20
-175.9132694
11
190.5953701
21
-175.9143147
0
LINE
8
0
10
190.5953701
20
-175.9143147
11
190.8039044
21
-173.9302435
0
LINE
8
0
10
190.8049496
20
-173.9202983
11
190.9716758
21
-172.3340048
0
LINE
8
0
10
190.9617306
20
-172.3329595
11
190.7950044
21
-173.9192531
0
LINE
8
0
10
190.7939592
20
-173.9291983
11
190.5854249
21
-175.9132694
0
LINE
8
0
10
192.5714657
20
-157.0173534
11
192.5814109
21
-157.0183987
0
LINE
8
0
10
192.5814109
20
-157.0183987
11
192.7899452
21
-155.0343275
0
LINE
8
0
10
192.7909904
20
-155.0243823
11
192.9577166
21
-153.4380888
0
LINE
8
0
10
192.9477714
20
-153.4370435
11
192.7810452
21
-155.0233371
0
LINE
8
0
10
192.78
20
-155.0332823
11
192.5714657
21
-157.0173534
0
LINE
8
0
10
194.5575065
20
-138.1214374
11
194.5674517
21
-138.1224827
0
LINE
8
0
10
194.5674517
20
-138.1224827
11
194.775986
21
-136.1384115
0
LINE
8
0
10
194.7770312
20
-136.1284663
11
194.9437574
21
-134.5421728
0
LINE
8
0
10
194.9338122
20
-134.5411275
11
194.767086
21
-136.1274211
0
LINE
8
0
10
194.7660408
20
-136.1373663
11
194.5575065
21
-138.1214374
0
LINE
8
0
10
210.3416399
20
-181.0048557
11
210.3515425
21
-181.0062474
0
LINE
8
0
10
210.3515425
20
-181.0062474
11
210.6291928
21
-179.0306626
0
LINE
8
0
10
210.6305846
20
-179.02076
11
210.8525701
21
-177.4412514
0
LINE
8
0
10
210.8426674
20
-177.4398597
11
210.620682
21
-179.0193682
0
LINE
8
0
10
210.6192902
20
-179.0292708
11
210.3416399
21
-181.0048557
0
LINE
8
0
10
212.9859288
20
-162.1897624
11
212.9958314
21
-162.1911541
0
LINE
8
0
10
212.9958314
20
-162.1911541
11
213.2734817
21
-160.2155693
0
LINE
8
0
10
213.2748735
20
-160.2056667
11
213.496859
21
-158.6261581
0
LINE
8
0
10
213.4869563
20
-158.6247664
11
213.2649709
21
-160.2042749
0
LINE
8
0
10
213.2635791
20
-160.2141775
11
212.9859288
21
-162.1897624
0
LINE
8
0
10
215.6302177
20
-143.3746691
11
215.6401203
21
-143.3760608
0
LINE
8
0
10
215.6401203
20
-143.3760608
11
215.9177706
21
-141.400476
0
LINE
8
0
10
215.9191624
20
-141.3905734
11
216.1411479
21
-139.8110648
0
LINE
8
0
10
216.1312452
20
-139.8096731
11
215.9092598
21
-141.3891816
0
LINE
8
0
10
215.907868
20
-141.3990842
11
215.6302177
21
-143.3746691
0
LINE
8
0
10
229.6641928
20
-188.7692055
11
229.6740697
21
-188.7707699
0
LINE
8
0
10
229.6740697
20
-188.7707699
11
229.9861565
21
-186.8003316
0
LINE
8
0
10
229.9877208
20
-186.7904548
11
230.2372387
21
-185.215061
0
LINE
8
0
10
230.2273618
20
-185.2134966
11
229.9778439
21
-186.7888904
0
LINE
8
0
10
229.9762796
20
-186.7987672
11
229.6641928
21
-188.7692055
0
LINE
8
0
10
232.6364476
20
-170.003127
11
232.6463245
21
-170.0046914
0
LINE
8
0
10
232.6463245
20
-170.0046914
11
232.9584113
21
-168.0342531
0
LINE
8
0
10
232.9599756
20
-168.0243763
11
233.2094935
21
-166.4489825
0
LINE
8
0
10
233.1996166
20
-166.4474181
11
232.9500987
21
-168.0228119
0
LINE
8
0
10
232.9485344
20
-168.0326887
11
232.6364476
21
-170.003127
0
LINE
8
0
10
235.6087024
20
-151.2370485
11
235.6185793
21
-151.2386129
0
LINE
8
0
10
235.6185793
20
-151.2386129
11
235.9306661
21
-149.2681746
0
LINE
8
0
10
235.9322304
20
-149.2582978
11
236.1817483
21
-147.682904
0
LINE
8
0
10
236.1718714
20
-147.6813396
11
235.9223535
21
-149.2567334
0
LINE
8
0
10
235.9207892
20
-149.2666102
11
235.6087024
21
-151.2370485
0
LINE
8
0
10
188.4896292
20
-195.8534334
11
188.4995744
21
-195.8544787
0
LINE
8
0
10
188.4995744
20
-195.8544787
11
188.7081087
21
-193.8704075
0
LINE
8
0
10
188.7091539
20
-193.8604623
11
188.8758801
21
-192.2741688
0
LINE
8
0
10
188.8659349
20
-192.2731235
11
188.6992087
21
-193.8594171
0
LINE
8
0
10
188.6981635
20
-193.8693623
11
188.4896292
21
-195.8534334
0
LINE
8
0
10
207.7987206
20
-200.4128169
11
207.8086232
21
-200.4142086
0
LINE
8
0
10
207.8086232
20
-200.4142086
11
208.0862735
21
-198.4386238
0
LINE
8
0
10
208.0876653
20
-198.4287212
11
208.3096508
21
-196.8492126
0
LINE
8
0
10
208.2997481
20
-196.8478209
11
208.0777627
21
-198.4273294
0
LINE
8
0
10
208.0763709
20
-198.437232
11
207.7987206
21
-200.4128169
0
LINE
8
0
10
226.5646333
20
-209.0746529
11
226.5742925
21
-209.077241
0
LINE
8
0
10
226.5742925
20
-209.077241
11
227.0906365
21
-207.150219
0
LINE
8
0
10
227.0932247
20
-207.1405597
11
227.5060492
21
-205.5998778
0
LINE
8
0
10
227.49639
20
-205.5972897
11
227.0835655
21
-207.1379716
0
LINE
8
0
10
227.0809773
20
-207.1476309
11
226.5646333
21
-209.0746529
0
LINE
8
0
10
246.0851622
20
-215.5025995
11
246.094498
21
-215.5061832
0
LINE
8
0
10
246.094498
20
-215.5061832
11
246.809442
21
-213.6436903
0
LINE
8
0
10
246.8130258
20
-213.6343544
11
247.3846338
21
-212.1452644
0
LINE
8
0
10
247.375298
20
-212.1416808
11
246.80369
21
-213.6307707
0
LINE
8
0
10
246.8001062
20
-213.6401066
11
246.0851622
21
-215.5025995
0
LINE
8
0
10
161.0442339
20
-154.5333195
11
161.0542278
21
-154.5336685
0
LINE
8
0
10
161.0542278
20
-154.5336685
11
161.1238522
21
-152.5398837
0
LINE
8
0
10
161.1242012
20
-152.5298898
11
161.179867
21
-150.9358302
0
LINE
8
0
10
161.1698731
20
-150.9354812
11
161.1142073
21
-152.5295408
0
LINE
8
0
10
161.1138583
20
-152.5395347
11
161.0442339
21
-154.5333195
0
LINE
8
0
10
160.3815474
20
-173.510178
11
160.3915413
21
-173.510527
0
LINE
8
0
10
160.3915413
20
-173.510527
11
160.4611657
21
-171.5167422
0
LINE
8
0
10
160.4615147
20
-171.5067483
11
160.5171804
21
-169.9126887
0
LINE
8
0
10
160.5071866
20
-169.9123397
11
160.4515208
21
-171.5063993
0
LINE
8
0
10
160.4511718
20
-171.5163932
11
160.3815474
21
-173.510178
0
LINE
8
0
10
204.1188695
20
-148.6887248
11
204.1287949
21
-148.6899434
0
LINE
8
0
10
204.1287949
20
-148.6899434
11
204.3719242
21
-146.7098138
0
LINE
8
0
10
204.3731429
20
-146.6998883
11
204.5675284
21
-145.1167463
0
LINE
8
0
10
204.5576029
20
-145.1155276
11
204.3632176
21
-146.6986697
0
LINE
8
0
10
204.3619989
20
-146.7085952
11
204.1188695
21
-148.6887248
0
LINE
8
0
10
199.4885398
20
-186.3997341
11
199.4984652
21
-186.4009527
0
LINE
8
0
10
199.4984652
20
-186.4009527
11
199.7415945
21
-184.4208231
0
LINE
8
0
10
199.7428132
20
-184.4108976
11
199.9371987
21
-182.8277556
0
LINE
8
0
10
199.9272732
20
-182.8265369
11
199.7328879
21
-184.409679
0
LINE
8
0
10
199.7316692
20
-184.4196045
11
199.4885398
21
-186.3997341
0
LINE
8
0
10
238.7961802
20
-204.6827787
11
238.8056908
21
-204.6858689
0
LINE
8
0
10
238.8056908
20
-204.6858689
11
239.4221797
21
-202.7885112
0
LINE
8
0
10
239.4252699
20
-202.7790006
11
239.9181616
21
-201.2620358
0
LINE
8
0
10
239.9086511
20
-201.2589456
11
239.4157593
21
-202.7759104
0
LINE
8
0
10
239.4126691
20
-202.785421
11
238.7961802
21
-204.6827787
0
LINE
8
0
10
391.108132
20
-186.5
11
391.118132
21
-186.5
0
LINE
8
0
10
391.118132
20
-186.5
11
391.118132
21
-184.505
0
LINE
8
0
10
391.118132
20
-184.495
11
391.118132
21
-182.8999687
0
LINE
8
0
10
391.108132
20
-182.8999687
11
391.108132
21
-184.495
0
LINE
8
0
10
391.108132
20
-184.505
11
391.108132
21
-186.5
0
LINE
8
0
10
391.108132
20
-167.5
11
391.118132
21
-167.5
0
LINE
8
0
10
391.118132
20
-167.5
11
391.118132
21
-165.505
0
LINE
8
0
10
391.118132
20
-165.495
11
391.118132
21
-163.8999687
0
LINE
8
0
10
391.108132
20
-163.8999687
11
391.108132
21
-165.495
0
LINE
8
0
10
391.108132
20
-165.505
11
391.108132
21
-167.5
0
LINE
8
0
10
391.108132
20
-148.5
11
391.118132
21
-148.5
0
LINE
8
0
10
391.118132
20
-148.5
11
391.118132
21
-146.505
0
LINE
8
0
10
391.118132
20
-146.495
11
391.118132
21
-144.8999687
0
LINE
8
0
10
391.108132
20
-144.8999687
11
391.108132
21
-146.495
0
LINE
8
0
10
391.108132
20
-146.505
11
391.108132
21
-148.5
0
LINE
8
0
10
370.9976571
20
-179.4954769
11
371.0076328
21
-179.4947793
0
LINE
8
0
10
371.0076328
20
-179.4947793
11
370.8684686
21
-177.504639
0
LINE
8
0
10
370.8677711
20
-177.4946634
11
370.7565073
21
-175.9035176
0
LINE
8
0
10
370.7465316
20
-175.9042151
11
370.8577954
21
-177.495361
0
LINE
8
0
10
370.8584929
20
-177.5053366
11
370.9976571
21
-179.4954769
0
LINE
8
0
10
369.6722841
20
-160.5417599
11
369.6822598
21
-160.5410623
0
LINE
8
0
10
369.6822598
20
-160.5410623
11
369.5430956
21
-158.550922
0
LINE
8
0
10
369.5423981
20
-158.5409464
11
369.4311343
21
-156.9498006
0
LINE
8
0
10
369.4211586
20
-156.9504981
11
369.5324224
21
-158.541644
0
LINE
8
0
10
369.5331199
20
-158.5516196
11
369.6722841
21
-160.5417599
0
LINE
8
0
10
368.3469111
20
-141.5880429
11
368.3568868
21
-141.5873453
0
LINE
8
0
10
368.3568868
20
-141.5873453
11
368.2177226
21
-139.597205
0
LINE
8
0
10
368.2170251
20
-139.5872294
11
368.1057613
21
-137.9960836
0
LINE
8
0
10
368.0957856
20
-137.9967811
11
368.2070494
21
-139.587927
0
LINE
8
0
10
368.2077469
20
-139.5979026
11
368.3469111
21
-141.5880429
0
LINE
8
0
10
350.5177619
20
-175.9143147
11
350.5277071
21
-175.9132694
0
LINE
8
0
10
350.5277071
20
-175.9132694
11
350.3191728
21
-173.9291983
0
LINE
8
0
10
350.3181276
20
-173.9192531
11
350.1514014
21
-172.3329595
0
LINE
8
0
10
350.1414562
20
-172.3340048
11
350.3081824
21
-173.9202983
0
LINE
8
0
10
350.3092276
20
-173.9302435
11
350.5177619
21
-175.9143147
0
LINE
8
0
10
348.5317211
20
-157.0183987
11
348.5416663
21
-157.0173534
0
LINE
8
0
10
348.5416663
20
-157.0173534
11
348.333132
21
-155.0332823
0
LINE
8
0
10
348.3320868
20
-155.0233371
11
348.1653606
21
-153.4370435
0
LINE
8
0
10
348.1554154
20
-153.4380888
11
348.3221416
21
-155.0243823
0
LINE
8
0
10
348.3231868
20
-155.0343275
11
348.5317211
21
-157.0183987
0
LINE
8
0
10
346.5456803
20
-138.1224827
11
346.5556255
21
-138.1214374
0
LINE
8
0
10
346.5556255
20
-138.1214374
11
346.3470912
21
-136.1373663
0
LINE
8
0
10
346.346046
20
-136.1274211
11
346.1793198
21
-134.5411275
0
LINE
8
0
10
346.1693746
20
-134.5421728
11
346.3361008
21
-136.1284663
0
LINE
8
0
10
346.337146
20
-136.1384115
11
346.5456803
21
-138.1224827
0
LINE
8
0
10
330.7615895
20
-181.0062474
11
330.7714921
21
-181.0048557
0
LINE
8
0
10
330.7714921
20
-181.0048557
11
330.4938418
21
-179.0292708
0
LINE
8
0
10
330.49245
20
-179.0193682
11
330.2704646
21
-177.4398597
0
LINE
8
0
10
330.2605619
20
-177.4412514
11
330.4825474
21
-179.02076
0
LINE
8
0
10
330.4839392
20
-179.0306626
11
330.7615895
21
-181.0062474
0
LINE
8
0
10
328.1173006
20
-162.1911541
11
328.1272032
21
-162.1897624
0
LINE
8
0
10
328.1272032
20
-162.1897624
11
327.8495529
21
-160.2141775
0
LINE
8
0
10
327.8481611
20
-160.2042749
11
327.6261757
21
-158.6247664
0
LINE
8
0
10
327.616273
20
-158.6261581
11
327.8382585
21
-160.2056667
0
LINE
8
0
10
327.8396503
20
-160.2155693
11
328.1173006
21
-162.1911541
0
LINE
8
0
10
325.4730117
20
-143.3760608
11
325.4829143
21
-143.3746691
0
LINE
8
0
10
325.4829143
20
-143.3746691
11
325.205264
21
-141.3990842
0
LINE
8
0
10
325.2038722
20
-141.3891816
11
324.9818868
21
-139.8096731
0
LINE
8
0
10
324.9719841
20
-139.8110648
11
325.1939696
21
-141.3905734
0
LINE
8
0
10
325.1953614
20
-141.400476
11
325.4730117
21
-143.3760608
0
LINE
8
0
10
311.4390623
20
-188.7707699
11
311.4489392
21
-188.7692055
0
LINE
8
0
10
311.4489392
20
-188.7692055
11
311.1368524
21
-186.7987672
0
LINE
8
0
10
311.1352881
20
-186.7888904
11
310.8857702
21
-185.2134966
0
LINE
8
0
10
310.8758933
20
-185.215061
11
311.1254112
21
-186.7904548
0
LINE
8
0
10
311.1269755
20
-186.8003316
11
311.4390623
21
-188.7707699
0
LINE
8
0
10
308.4668075
20
-170.0046914
11
308.4766844
21
-170.003127
0
LINE
8
0
10
308.4766844
20
-170.003127
11
308.1645976
21
-168.0326887
0
LINE
8
0
10
308.1630333
20
-168.0228119
11
307.9135154
21
-166.4474181
0
LINE
8
0
10
307.9036385
20
-166.4489825
11
308.1531564
21
-168.0243763
0
LINE
8
0
10
308.1547207
20
-168.0342531
11
308.4668075
21
-170.0046914
0
LINE
8
0
10
305.4945527
20
-151.2386129
11
305.5044296
21
-151.2370485
0
LINE
8
0
10
305.5044296
20
-151.2370485
11
305.1923428
21
-149.2666102
0
LINE
8
0
10
305.1907785
20
-149.2567334
11
304.9412606
21
-147.6813396
0
LINE
8
0
10
304.9313837
20
-147.682904
11
305.1809016
21
-149.2582978
0
LINE
8
0
10
305.1824659
20
-149.2681746
11
305.4945527
21
-151.2386129
0
LINE
8
0
10
352.6135576
20
-195.8544787
11
352.6235028
21
-195.8534334
0
LINE
8
0
10
352.6235028
20
-195.8534334
11
352.4149685
21
-193.8693623
0
LINE
8
0
10
352.4139233
20
-193.8594171
11
352.2471971
21
-192.2731235
0
LINE
8
0
10
352.2372519
20
-192.2741688
11
352.4039781
21
-193.8604623
0
LINE
8
0
10
352.4050233
20
-193.8704075
11
352.6135576
21
-195.8544787
0
LINE
8
0
10
333.3045088
20
-200.4142086
11
333.3144114
21
-200.4128169
0
LINE
8
0
10
333.3144114
20
-200.4128169
11
333.0367611
21
-198.437232
0
LINE
8
0
10
333.0353693
20
-198.4273294
11
332.8133839
21
-196.8478209
0
LINE
8
0
10
332.8034812
20
-196.8492126
11
333.0254667
21
-198.4287212
0
LINE
8
0
10
333.0268585
20
-198.4386238
11
333.3045088
21
-200.4142086
0
LINE
8
0
10
314.5388395
20
-209.077241
11
314.5484987
21
-209.0746529
0
LINE
8
0
10
314.5484987
20
-209.0746529
11
314.0321547
21
-207.1476309
0
LINE
8
0
10
314.0295665
20
-207.1379716
11
313.616742
21
-205.5972897
0
LINE
8
0
10
313.6070828
20
-205.5998778
11
314.0199073
21
-207.1405597
0
LINE
8
0
10
314.0224955
20
-207.150219
11
314.5388395
21
-209.077241
0
LINE
8
0
10
295.018634
20
-215.5061832
11
295.0279698
21
-215.5025995
0
LINE
8
0
10
295.0279698
20
-215.5025995
11
294.3130258
21
-213.6401066
0
LINE
8
0
10
294.309442
20
-213.6307707
11
293.737834
21
-212.1416808
0
LINE
8
0
10
293.7284982
20
-212.1452644
11
294.3001062
21
-213.6343544
0
LINE
8
0
10
294.30369
20
-213.6436903
11
295.018634
21
-215.5061832
0
LINE
8
0
10
380.0589042
20
-154.5336685
11
380.0688982
21
-154.5333195
0
LINE
8
0
10
380.0688982
20
-154.5333195
11
379.9992737
21
-152.5395347
0
LINE
8
0
10
379.9989247
20
-152.5295408
11
379.943259
21
-150.9354812
0
LINE
8
0
10
379.9332651
20
-150.9358302
11
379.9889308
21
-152.5298898
0
LINE
8
0
10
379.9892798
20
-152.5398837
11
380.0589042
21
-154.5336685
0
LINE
8
0
10
380.7215907
20
-173.510527
11
380.7315846
21
-173.510178
0
LINE
8
0
10
380.7315846
20
-173.510178
11
380.6619602
21
-171.5163932
0
LINE
8
0
10
380.6616112
20
-171.5063993
11
380.6059454
21
-169.9123397
0
LINE
8
0
10
380.5959515
20
-169.9126887
11
380.6516173
21
-171.5067483
0
LINE
8
0
10
380.6519663
20
-171.5167422
11
380.7215907
21
-173.510527
0
LINE
8
0
10
336.9843371
20
-148.6899434
11
336.9942625
21
-148.6887248
0
LINE
8
0
10
336.9942625
20
-148.6887248
11
336.7511331
21
-146.7085952
0
LINE
8
0
10
336.7499144
20
-146.6986697
11
336.5555291
21
-145.1155276
0
LINE
8
0
10
336.5456036
20
-145.1167463
11
336.7399891
21
-146.6998883
0
LINE
8
0
10
336.7412078
20
-146.7098138
11
336.9843371
21
-148.6899434
0
LINE
8
0
10
341.6146668
20
-186.4009527
11
341.6245922
21
-186.3997341
0
LINE
8
0
10
341.6245922
20
-186.3997341
11
341.3814628
21
-184.4196045
0
LINE
8
0
10
341.3802441
20
-184.409679
11
341.1858588
21
-182.8265369
0
LINE
8
0
10
341.1759333
20
-182.8277556
11
341.3703188
21
-184.4108976
0
LINE
8
0
10
341.3715375
20
-184.4208231
11
341.6146668
21
-186.4009527
0
LINE
8
0
10
302.3074412
20
-204.6858689
11
302.3169518
21
-204.6827787
0
LINE
8
0
10
302.3169518
20
-204.6827787
11
301.7004629
21
-202.785421
0
LINE
8
0
10
301.6973727
20
-202.7759104
11
301.2044809
21
-201.2589456
0
LINE
8
0
10
301.1949704
20
-201.2620358
11
301.6878621
21
-202.7790006
0
LINE
8
0
10
301.6909523
20
-202.7885112
11
302.3074412
21
-204.6858689
0
ARC
8
0
10
153
20
-184.5
40
0.4
50
180.716216
51
539.283784
0
ARC
8
0
10
153
20
-165.5
40
0.4
50
180.716216
51
539.283784
0
ARC
8
0
10
153
20
-146.5
40
0.4
50
180.716216
51
539.283784
0
ARC
8
0
10
173.2426922
20
-177.7092694
40
0.4
50
176.7162141
51
535.2837888
0
ARC
8
0
10
174.5680652
20
-158.7555524
40
0.4
50
176.7162141
51
535.2837888
0
ARC
8
0
10
175.8934382
20
-139.8018354
40
0.4
50
176.7162141
51
535.2837888
0
ARC
8
0
10
193.7830201
20
-174.2383337
40
0.4
50
174.7162169
51
533.2837875
0
ARC
8
0
10
195.7690609
20
-155.3424177
40
0.4
50
174.7162169
51
533.2837875
0
ARC
8
0
10
197.7551017
20
-136.4465017
40
0.4
50
174.7162169
51
533.2837875
0
ARC
8
0
10
213.5957416
20
-179.4425347
40
0.4
50
172.7162081
51
531.2837882
0
ARC
8
0
10
216.2400305
20
-160.6274414
40
0.4
50
172.7162081
51
531.2837882
0
ARC
8
0
10
218.8843194
20
-141.8123481
40
0.4
50
172.7162081
51
531.2837882
0
ARC
8
0
10
232.9450652
20
-187.2639144
40
0.4
50
171.7162087
51
530.2837897
0
ARC
8
0
10
235.91732
20
-168.4978359
40
0.4
50
171.7162087
51
530.2837897
0
ARC
8
0
10
238.8895748
20
-149.7317574
40
0.4
50
171.7162087
51
530.2837897
0
ARC
8
0
10
191.6872244
20
-194.1784977
40
0.4
50
174.7162169
51
533.2837875
0
ARC
8
0
10
211.0528223
20
-198.8504959
40
0.4
50
172.7162081
51
531.2837882
0
ARC
8
0
10
229.9848785
20
-207.9205524
40
0.4
50
165.716232
51
524.2837765
0
ARC
8
0
10
249.6073073
20
-214.7123343
40
0.4
50
159.7162296
51
518.2837841
0
ARC
8
0
10
164.1172023
20
-152.6394108
40
0.4
50
178.7162093
51
537.2837787
0
ARC
8
0
10
163.4545158
20
-171.6162693
40
0.4
50
178.7162093
51
537.2837787
0
ARC
8
0
10
207.3452094
20
-147.0698498
40
0.4
50
173.71623
51
532.2837784
0
ARC
8
0
10
202.7148797
20
-184.7808591
40
0.4
50
173.71623
51
532.2837784
0
ARC
8
0
10
242.272139
20
-203.7092618
40
0.4
50
162.7162114
51
521.2837873
0
ARC
8
0
10
388.113132
20
-184.5
40
0.4
50
360.716216
51
719.283784
0
ARC
8
0
10
388.113132
20
-165.5
40
0.4
50
360.716216
51
719.283784
0
ARC
8
0
10
388.113132
20
-146.5
40
0.4
50
360.716216
51
719.283784
0
ARC
8
0
10
367.8704398
20
-177.7092694
40
0.4
50
4.7162112
51
363.2837859
0
ARC
8
0
10
366.5450668
20
-158.7555524
40
0.4
50
4.7162112
51
363.2837859
0
ARC
8
0
10
365.2196938
20
-139.8018354
40
0.4
50
4.7162112
51
363.2837859
0
ARC
8
0
10
347.3301119
20
-174.2383337
40
0.4
50
6.7162125
51
365.2837831
0
ARC
8
0
10
345.3440711
20
-155.3424177
40
0.4
50
6.7162125
51
365.2837831
0
ARC
8
0
10
343.3580303
20
-136.4465017
40
0.4
50
6.7162125
51
365.2837831
0
ARC
8
0
10
327.5173904
20
-179.4425347
40
0.4
50
8.7162118
51
367.2837919
0
ARC
8
0
10
324.8731015
20
-160.6274414
40
0.4
50
8.7162118
51
367.2837919
0
ARC
8
0
10
322.2288126
20
-141.8123481
40
0.4
50
8.7162118
51
367.2837919
0
ARC
8
0
10
308.1680668
20
-187.2639144
40
0.4
50
9.7162103
51
368.2837913
0
ARC
8
0
10
305.195812
20
-168.4978359
40
0.4
50
9.7162103
51
368.2837913
0
ARC
8
0
10
302.2235572
20
-149.7317574
40
0.4
50
9.7162103
51
368.2837913
0
ARC
8
0
10
349.4259076
20
-194.1784977
40
0.4
50
6.7162125
51
365.2837831
0
ARC
8
0
10
330.0603097
20
-198.8504959
40
0.4
50
8.7162118
51
367.2837919
0
ARC
8
0
10
311.1282535
20
-207.9205524
40
0.4
50
15.7162235
51
374.283768
0
ARC
8
0
10
291.5058247
20
-214.7123343
40
0.4
50
21.7162159
51
380.2837704
0
ARC
8
0
10
376.9959297
20
-152.6394108
40
0.4
50
2.7162213
51
361.2837907
0
ARC
8
0
10
377.6586162
20
-171.6162693
40
0.4
50
2.7162213
51
361.2837907
0
ARC
8
0
10
333.7679226
20
-147.0698498
40
0.4
50
7.7162216
51
366.28377
0
ARC
8
0
10
338.3982523
20
-184.7808591
40
0.4
50
7.7162216
51
366.28377
0
ARC
8
0
10
298.840993
20
-203.7092618
40
0.4
50
18.7162127
51
377.2837886
0
ARC
8
0
10
150
20
-182.5
40
0.4
50
270.716216
51
629.283784
0
ARC
8
0
10
150
20
-163.5
40
0.4
50
270.716216
51
629.283784
0
ARC
8
0
10
150
20
-144.5
40
0.4
50
270.716216
51
629.283784
0
ARC
8
0
10
170.3895129
20
-175.5048719
40
0.4
50
266.7162284
51
625.2837888
0
ARC
8
0
10
171.7148859
20
-156.5511549
40
0.4
50
266.7162284
51
625.2837888
0
ARC
8
0
10
173.0402589
20
-137.5974379
40
0.4
50
266.7162284
51
625.2837888
0
ARC
8
0
10
191.0085113
20
-171.9357045
40
0.4
50
264.7162169
51
623.2837875
0
ARC
8
0
10
192.9945521
20
-153.0397885
40
0.4
50
264.7162169
51
623.2837875
0
ARC
8
0
10
194.9805929
20
-134.1438725
40
0.4
50
264.7162169
51
623.2837875
0
ARC
8
0
10
210.9032836
20
-177.0444793
40
0.4
50
262.7162223
51
621.2837882
0
ARC
8
0
10
213.5475725
20
-158.229386
40
0.4
50
262.7162223
51
621.2837882
0
ARC
8
0
10
216.1918614
20
-139.4142927
40
0.4
50
262.7162223
51
621.2837882
0
ARC
8
0
10
230.2948691
20
-184.8192343
40
0.4
50
261.716225
51
620.2837897
0
ARC
8
0
10
233.2671239
20
-166.0531558
40
0.4
50
261.716225
51
620.2837897
0
ARC
8
0
10
236.2393787
20
-147.2870773
40
0.4
50
261.716225
51
620.2837897
0
ARC
8
0
10
188.9127156
20
-191.8758685
40
0.4
50
264.7162169
51
623.2837875
0
ARC
8
0
10
208.3603643
20
-196.4524405
40
0.4
50
262.7162223
51
621.2837882
0
ARC
8
0
10
227.6047391
20
-205.2122436
40
0.4
50
255.7162146
51
614.2837942
0
ARC
8
0
10
247.5233019
20
-211.7700696
40
0.4
50
249.7162112
51
608.2837841
0
ARC
8
0
10
161.1888288
20
-150.5359306
40
0.4
50
268.7162093
51
627.2837787
0
ARC
8
0
10
160.5261423
20
-169.5127891
40
0.4
50
268.7162093
51
627.2837787
0
ARC
8
0
10
204.6113096
20
-144.7191495
40
0.4
50
263.7162158
51
622.2837784
0
ARC
8
0
10
199.9809799
20
-182.4301588
40
0.4
50
263.7162158
51
622.2837784
0
ARC
8
0
10
240.0370035
20
-200.8800978
40
0.4
50
252.7162114
51
611.2837873
0
ARC
8
0
10
391.113132
20
-182.5
40
0.4
50
270.716216
51
629.283784
0
ARC
8
0
10
391.113132
20
-163.5
40
0.4
50
270.716216
51
629.283784
0
ARC
8
0
10
391.113132
20
-144.5
40
0.4
50
270.716216
51
629.283784
0
ARC
8
0
10
370.7236191
20
-175.5048719
40
0.4
50
274.7162112
51
633.2837716
0
ARC
8
0
10
369.3982461
20
-156.5511549
40
0.4
50
274.7162112
51
633.2837716
0
ARC
8
0
10
368.0728731
20
-137.5974379
40
0.4
50
274.7162112
51
633.2837716
0
ARC
8
0
10
350.1046207
20
-171.9357045
40
0.4
50
276.7162125
51
635.2837831
0
ARC
8
0
10
348.1185799
20
-153.0397885
40
0.4
50
276.7162125
51
635.2837831
0
ARC
8
0
10
346.1325391
20
-134.1438725
40
0.4
50
276.7162125
51
635.2837831
0
ARC
8
0
10
330.2098484
20
-177.0444793
40
0.4
50
278.7162118
51
637.2837777
0
ARC
8
0
10
327.5655595
20
-158.229386
40
0.4
50
278.7162118
51
637.2837777
0
ARC
8
0
10
324.9212706
20
-139.4142927
40
0.4
50
278.7162118
51
637.2837777
0
ARC
8
0
10
310.8182629
20
-184.8192343
40
0.4
50
279.7162103
51
638.283775
0
ARC
8
0
10
307.8460081
20
-166.0531558
40
0.4
50
279.7162103
51
638.283775
0
ARC
8
0
10
304.8737533
20
-147.2870773
40
0.4
50
279.7162103
51
638.283775
0
ARC
8
0
10
352.2004164
20
-191.8758685
40
0.4
50
276.7162125
51
635.2837831
0
ARC
8
0
10
332.7527677
20
-196.4524405
40
0.4
50
278.7162118
51
637.2837777
0
ARC
8
0
10
313.5083929
20
-205.2122436
40
0.4
50
285.7162058
51
644.2837854
0
ARC
8
0
10
293.5898301
20
-211.7700696
40
0.4
50
291.7162159
51
650.2837888
0
ARC
8
0
10
379.9243033
20
-150.5359306
40
0.4
50
272.7162213
51
631.2837907
0
ARC
8
0
10
380.5869897
20
-169.5127891
40
0.4
50
272.7162213
51
631.2837907
0
ARC
8
0
10
336.5018224
20
-144.7191495
40
0.4
50
277.7162216
51
636.2837842
0
ARC
8
0
10
341.1321521
20
-182.4301588
40
0.4
50
277.7162216
51
636.2837842
0
ARC
8
0
10
301.0761285
20
-200.8800978
40
0.4
50
288.7162127
51
647.2837886
0
LINE
8
0
10
140.5
20
-194
11
159.5
21
-194
0
LINE
8
0
10
159.5
20
-194
11
159.5
21
-137
0
LINE
8
0
10
140.5
20
-175
11
159.5
21
-175
0
LINE
8
0
10
140.5
20
-194
11
140.5
21
-137
0
LINE
8
0
10
140.5
20
-156
11
159.5
21
-156
0
LINE
8
0
10
159.5
20
-137
11
140.5
21
-137
0
LINE
8
0
10
160.110455
20
-186.314172
11
179.064172
21
-187.639545
0
LINE
8
0
10
179.064172
20
-187.639545
11
183.040291
21
-130.778394
0
LINE
8
0
10
161.435828
20
-167.360455
11
180.389545
21
-168.685828
0
LINE
8
0
10
160.110455
20
-186.314172
11
164.086574
21
-129.453021
0
LINE
8
0
10
162.761201
20
-148.406738
11
181.714918
21
-149.732111
0
LINE
8
0
10
183.040291
20
-130.778394
11
164.086574
21
-129.453021
0
LINE
8
0
10
180.358476
20
-182.3796859
11
199.254392
21
-184.3657267
0
LINE
8
0
10
199.254392
20
-184.3657267
11
205.2125144
21
-127.6779787
0
LINE
8
0
10
182.3445168
20
-163.4837699
11
201.2404328
21
-165.4698107
0
LINE
8
0
10
180.358476
20
-182.3796859
11
186.3165984
21
-125.6919379
0
LINE
8
0
10
184.3305576
20
-144.5878539
11
203.2264736
21
-146.5738947
0
LINE
8
0
10
205.2125144
20
-127.6779787
11
186.3165984
21
-125.6919379
0
LINE
8
0
10
199.8952463
20
-187.1104176
11
218.7103396
21
-189.7547065
0
LINE
8
0
10
218.7103396
20
-189.7547065
11
226.6432063
21
-133.3094266
0
LINE
8
0
10
202.5395352
20
-168.2953243
11
221.3546285
21
-170.9396132
0
LINE
8
0
10
199.8952463
20
-187.1104176
11
207.828113
21
-130.6651377
0
LINE
8
0
10
205.1838241
20
-149.480231
11
223.9989174
21
-152.1245199
0
LINE
8
0
10
226.6432063
20
-133.3094266
11
207.828113
21
-130.6651377
0
LINE
8
0
10
219.1128335
20
-194.6915228
11
237.878912
21
-197.6637777
0
LINE
8
0
10
237.878912
20
-197.6637777
11
246.7956765
21
-141.3655422
0
LINE
8
0
10
222.0850883
20
-175.9254443
11
240.8511669
21
-178.8976992
0
LINE
8
0
10
219.1128335
20
-194.6915228
11
228.029598
21
-138.3932873
0
LINE
8
0
10
225.0573431
20
-157.1593658
11
243.8234217
21
-160.1316207
0
LINE
8
0
10
246.7956765
20
-141.3655422
11
228.029598
21
-138.3932873
0
LINE
8
0
10
178.2626803
20
-202.3198499
11
197.1585963
21
-204.3058907
0
LINE
8
0
10
197.1585963
20
-204.3058907
11
199.1446371
21
-185.4099747
0
LINE
8
0
10
199.1446371
20
-185.4099747
11
180.2487211
21
-183.4239339
0
LINE
8
0
10
180.2487211
20
-183.4239339
11
178.2626803
21
-202.3198499
0
LINE
8
0
10
197.352327
20
-206.5183788
11
216.1674203
21
-209.1626677
0
LINE
8
0
10
216.1674203
20
-209.1626677
11
218.8117092
21
-190.3475744
0
LINE
8
0
10
218.8117092
20
-190.3475744
11
199.9966159
21
-187.7032855
0
LINE
8
0
10
199.9966159
20
-187.7032855
11
197.352327
21
-206.5183788
0
LINE
8
0
10
215.4520247
20
-213.8616097
11
233.8046154
21
-218.7791716
0
LINE
8
0
10
233.8046154
20
-218.7791716
11
238.7221773
21
-200.4265809
0
LINE
8
0
10
238.7221773
20
-200.4265809
11
220.3695866
21
-195.509019
0
LINE
8
0
10
220.3695866
20
-195.509019
11
215.4520247
21
-213.8616097
0
LINE
8
0
10
234.5330564
20
-219.101749
11
252.2710845
21
-225.9107401
0
LINE
8
0
10
252.2710845
20
-225.9107401
11
259.0800756
21
-208.172712
0
LINE
8
0
10
259.0800756
20
-208.172712
11
241.3420475
21
-201.3637209
0
LINE
8
0
10
241.3420475
20
-201.3637209
11
234.5330564
21
-219.101749
0
LINE
8
0
10
381.613132
20
-194
11
400.613132
21
-194
0
LINE
8
0
10
400.613132
20
-194
11
400.613132
21
-137
0
LINE
8
0
10
381.613132
20
-175
11
400.613132
21
-175
0
LINE
8
0
10
381.613132
20
-194
11
381.613132
21
-137
0
LINE
8
0
10
381.613132
20
-156
11
400.613132
21
-156
0
LINE
8
0
10
400.613132
20
-137
11
381.613132
21
-137
0
LINE
8
0
10
362.04896
20
-187.639545
11
381.002677
21
-186.314172
0
LINE
8
0
10
377.026558
20
-129.453021
11
381.002677
21
-186.314172
0
LINE
8
0
10
360.723587
20
-168.685828
11
379.677304
21
-167.360455
0
LINE
8
0
10
358.072841
20
-130.778394
11
362.04896
21
-187.639545
0
LINE
8
0
10
359.398214
20
-149.732111
11
378.351931
21
-148.406738
0
LINE
8
0
10
377.026558
20
-129.453021
11
358.072841
21
-130.778394
0
LINE
8
0
10
341.85874
20
-184.3657267
11
360.754656
21
-182.3796859
0
LINE
8
0
10
354.7965336
20
-125.6919379
11
360.754656
21
-182.3796859
0
LINE
8
0
10
339.8726992
20
-165.4698107
11
358.7686152
21
-163.4837699
0
LINE
8
0
10
335.9006176
20
-127.6779787
11
341.85874
21
-184.3657267
0
LINE
8
0
10
337.8866584
20
-146.5738947
11
356.7825744
21
-144.5878539
0
LINE
8
0
10
354.7965336
20
-125.6919379
11
335.9006176
21
-127.6779787
0
LINE
8
0
10
322.4027924
20
-189.7547065
11
341.2178857
21
-187.1104176
0
LINE
8
0
10
333.285019
20
-130.6651377
11
341.2178857
21
-187.1104176
0
LINE
8
0
10
319.7585035
20
-170.9396132
11
338.5735968
21
-168.2953243
0
LINE
8
0
10
314.4699257
20
-133.3094266
11
322.4027924
21
-189.7547065
0
LINE
8
0
10
317.1142146
20
-152.1245199
11
335.9293079
21
-149.480231
0
LINE
8
0
10
333.285019
20
-130.6651377
11
314.4699257
21
-133.3094266
0
LINE
8
0
10
303.23422
20
-197.6637777
11
322.0002985
21
-194.6915228
0
LINE
8
0
10
313.083534
20
-138.3932873
11
322.0002985
21
-194.6915228
0
LINE
8
0
10
300.2619651
20
-178.8976992
11
319.0280437
21
-175.9254443
0
LINE
8
0
10
294.3174555
20
-141.3655422
11
303.23422
21
-197.6637777
0
LINE
8
0
10
297.2897103
20
-160.1316207
11
316.0557889
21
-157.1593658
0
LINE
8
0
10
313.083534
20
-138.3932873
11
294.3174555
21
-141.3655422
0
LINE
8
0
10
343.9545357
20
-204.3058907
11
362.8504517
21
-202.3198499
0
LINE
8
0
10
362.8504517
20
-202.3198499
11
360.8644109
21
-183.4239339
0
LINE
8
0
10
360.8644109
20
-183.4239339
11
341.9684949
21
-185.4099747
0
LINE
8
0
10
341.9684949
20
-185.4099747
11
343.9545357
21
-204.3058907
0
LINE
8
0
10
324.9457117
20
-209.1626677
11
343.760805
21
-206.5183788
0
LINE
8
0
10
343.760805
20
-206.5183788
11
341.1165161
21
-187.7032855
0
LINE
8
0
10
341.1165161
20
-187.7032855
11
322.3014228
21
-190.3475744
0
LINE
8
0
10
322.3014228
20
-190.3475744
11
324.9457117
21
-209.1626677
0
LINE
8
0
10
307.3085166
20
-218.7791716
11
325.6611073
21
-213.8616097
0
LINE
8
0
10
325.6611073
20
-213.8616097
11
320.7435454
21
-195.509019
0
LINE
8
0
10
320.7435454
20
-195.509019
11
302.3909547
21
-200.4265809
0
LINE
8
0
10
302.3909547
20
-200.4265809
11
307.3085166
21
-218.7791716
0
LINE
8
0
10
288.8420475
20
-225.9107401
11
306.5800756
21
-219.101749
0
LINE
8
0
10
306.5800756
20
-219.101749
11
299.7710845
21
-201.3637209
0
LINE
8
0
10
299.7710845
20
-201.3637209
11
282.0330564
21
-208.172712
0
LINE
8
0
10
282.0330564
20
-208.172712
11
288.8420475
21
-225.9107401
0
LINE
8
0
10
143
20
-191.5
11
157
21
-191.5
0
LINE
8
0
10
157
20
-191.5
11
157
21
-177.5
0
LINE
8
0
10
157
20
-177.5
11
143
21
-177.5
0
LINE
8
0
10
143
20
-177.5
11
143
21
-191.5
0
LINE
8
0
10
143
20
-172.5
11
157
21
-172.5
0
LINE
8
0
10
157
20
-172.5
11
157
21
-158.5
0
LINE
8
0
10
157
20
-158.5
11
143
21
-158.5
0
LINE
8
0
10
143
20
-158.5
11
143
21
-172.5
0
LINE
8
0
10
143
20
-153.5
11
157
21
-153.5
0
LINE
8
0
10
157
20
-153.5
11
157
21
-139.5
0
LINE
8
0
10
157
20
-139.5
11
143
21
-139.5
0
LINE
8
0
10
143
20
-139.5
11
143
21
-153.5
0
LINE
8
0
10
162.7787563
20
-183.994653
11
176.744653
21
-184.9712437
0
LINE
8
0
10
176.744653
20
-184.9712437
11
177.7212437
21
-171.005347
0
LINE
8
0
10
177.7212437
20
-171.005347
11
163.755347
21
-170.0287563
0
LINE
8
0
10
163.755347
20
-170.0287563
11
162.7787563
21
-183.994653
0
LINE
8
0
10
164.1041293
20
-165.040936
11
178.070026
21
-166.0175267
0
LINE
8
0
10
178.070026
20
-166.0175267
11
179.0466167
21
-152.05163
0
LINE
8
0
10
179.0466167
20
-152.05163
11
165.08072
21
-151.0750393
0
LINE
8
0
10
165.08072
20
-151.0750393
11
164.1041293
21
-165.040936
0
LINE
8
0
10
165.4295023
20
-146.087219
11
179.395399
21
-147.0638097
0
LINE
8
0
10
179.395399
20
-147.0638097
11
180.3719897
21
-133.097913
0
LINE
8
0
10
180.3719897
20
-133.097913
11
166.406093
21
-132.1213223
0
LINE
8
0
10
166.406093
20
-132.1213223
11
165.4295023
21
-146.087219
0
LINE
8
0
10
183.1061019
20
-180.1547023
11
197.0294084
21
-181.6181008
0
LINE
8
0
10
197.0294084
20
-181.6181008
11
198.4928069
21
-167.6947943
0
LINE
8
0
10
198.4928069
20
-167.6947943
11
184.5695004
21
-166.2313958
0
LINE
8
0
10
184.5695004
20
-166.2313958
11
183.1061019
21
-180.1547023
0
LINE
8
0
10
185.0921427
20
-161.2587863
11
199.0154492
21
-162.7221848
0
LINE
8
0
10
199.0154492
20
-162.7221848
11
200.4788477
21
-148.7988783
0
LINE
8
0
10
200.4788477
20
-148.7988783
11
186.5555412
21
-147.3354798
0
LINE
8
0
10
186.5555412
20
-147.3354798
11
185.0921427
21
-161.2587863
0
LINE
8
0
10
187.0781835
20
-142.3628703
11
201.00149
21
-143.8262688
0
LINE
8
0
10
201.00149
20
-143.8262688
11
202.4648885
21
-129.9029623
0
LINE
8
0
10
202.4648885
20
-129.9029623
11
188.541582
21
-128.4395638
0
LINE
8
0
10
188.541582
20
-128.4395638
11
187.0781835
21
-142.3628703
0
LINE
8
0
10
202.7188492
20
-184.9826802
11
216.5826022
21
-186.9311036
0
LINE
8
0
10
216.5826022
20
-186.9311036
11
218.5310256
21
-173.0673506
0
LINE
8
0
10
218.5310256
20
-173.0673506
11
204.6672726
21
-171.1189272
0
LINE
8
0
10
204.6672726
20
-171.1189272
11
202.7188492
21
-184.9826802
0
LINE
8
0
10
205.3631381
20
-166.1675869
11
219.2268911
21
-168.1160103
0
LINE
8
0
10
219.2268911
20
-168.1160103
11
221.1753145
21
-154.2522573
0
LINE
8
0
10
221.1753145
20
-154.2522573
11
207.3115615
21
-152.3038339
0
LINE
8
0
10
207.3115615
20
-152.3038339
11
205.3631381
21
-166.1675869
0
LINE
8
0
10
208.007427
20
-147.3524936
11
221.87118
21
-149.300917
0
LINE
8
0
10
221.87118
20
-149.300917
11
223.8196034
21
-135.437164
0
LINE
8
0
10
223.8196034
20
-135.437164
11
209.9558504
21
-133.4887406
0
LINE
8
0
10
209.9558504
20
-133.4887406
11
208.007427
21
-147.3524936
0
LINE
8
0
10
221.9731406
20
-192.6133881
11
235.8007773
21
-194.8034706
0
LINE
8
0
10
235.8007773
20
-194.8034706
11
237.9908598
21
-180.9758339
0
LINE
8
0
10
237.9908598
20
-180.9758339
11
224.1632231
21
-178.7857514
0
LINE
8
0
10
224.1632231
20
-178.7857514
11
221.9731406
21
-192.6133881
0
LINE
8
0
10
224.9453954
20
-173.8473096
11
238.7730321
21
-176.0373921
0
LINE
8
0
10
238.7730321
20
-176.0373921
11
240.9631146
21
-162.2097554
0
LINE
8
0
10
240.9631146
20
-162.2097554
11
227.1354779
21
-160.0196729
0
LINE
8
0
10
227.1354779
20
-160.0196729
11
224.9453954
21
-173.8473096
0
LINE
8
0
10
227.9176502
20
-155.0812311
11
241.7452869
21
-157.2713136
0
LINE
8
0
10
241.7452869
20
-157.2713136
11
243.9353694
21
-143.4436769
0
LINE
8
0
10
243.9353694
20
-143.4436769
11
230.1077327
21
-141.2535944
0
LINE
8
0
10
230.1077327
20
-141.2535944
11
227.9176502
21
-155.0812311
0
LINE
8
0
10
181.0103062
20
-200.0948663
11
194.9336127
21
-201.5582648
0
LINE
8
0
10
194.9336127
20
-201.5582648
11
196.3970112
21
-187.6349583
0
LINE
8
0
10
196.3970112
20
-187.6349583
11
182.4737047
21
-186.1715598
0
LINE
8
0
10
182.4737047
20
-186.1715598
11
181.0103062
21
-200.0948663
0
LINE
8
0
10
200.1759299
20
-204.3906414
11
214.0396829
21
-206.3390648
0
LINE
8
0
10
214.0396829
20
-206.3390648
11
215.9881063
21
-192.4753118
0
LINE
8
0
10
215.9881063
20
-192.4753118
11
202.1243533
21
-190.5268884
0
LINE
8
0
10
202.1243533
20
-190.5268884
11
200.1759299
21
-204.3906414
0
LINE
8
0
10
218.5138869
20
-212.0938428
11
232.0368485
21
-215.7173094
0
LINE
8
0
10
232.0368485
20
-215.7173094
11
235.6603151
21
-202.1943478
0
LINE
8
0
10
235.6603151
20
-202.1943478
11
222.1373535
21
-198.5708812
0
LINE
8
0
10
222.1373535
20
-198.5708812
11
218.5138869
21
-212.0938428
0
LINE
8
0
10
237.7629274
20
-217.6637178
11
250.8330533
21
-222.6808691
0
LINE
8
0
10
250.8330533
20
-222.6808691
11
255.8502046
21
-209.6107432
0
LINE
8
0
10
255.8502046
20
-209.6107432
11
242.7800787
21
-204.5935919
0
LINE
8
0
10
242.7800787
20
-204.5935919
11
237.7629274
21
-217.6637178
0
LINE
8
0
10
384.113132
20
-191.5
11
398.113132
21
-191.5
0
LINE
8
0
10
398.113132
20
-191.5
11
398.113132
21
-177.5
0
LINE
8
0
10
398.113132
20
-177.5
11
384.113132
21
-177.5
0
LINE
8
0
10
384.113132
20
-177.5
11
384.113132
21
-191.5
0
LINE
8
0
10
384.113132
20
-172.5
11
398.113132
21
-172.5
0
LINE
8
0
10
398.113132
20
-172.5
11
398.113132
21
-158.5
0
LINE
8
0
10
398.113132
20
-158.5
11
384.113132
21
-158.5
0
LINE
8
0
10
384.113132
20
-158.5
11
384.113132
21
-172.5
0
LINE
8
0
10
384.113132
20
-153.5
11
398.113132
21
-153.5
0
LINE
8
0
10
398.113132
20
-153.5
11
398.113132
21
-139.5
0
LINE
8
0
10
398.113132
20
-139.5
11
384.113132
21
-139.5
0
LINE
8
0
10
384.113132
20
-139.5
11
384.113132
21
-153.5
0
LINE
8
0
10
364.368479
20
-184.9712437
11
378.3343757
21
-183.994653
0
LINE
8
0
10
378.3343757
20
-183.994653
11
377.357785
21
-170.0287563
0
LINE
8
0
10
377.357785
20
-170.0287563
11
363.3918883
21
-171.005347
0
LINE
8
0
10
363.3918883
20
-171.005347
11
364.368479
21
-184.9712437
0
LINE
8
0
10
363.043106
20
-166.0175267
11
377.0090027
21
-165.040936
0
LINE
8
0
10
377.0090027
20
-165.040936
11
376.032412
21
-151.0750393
0
LINE
8
0
10
376.032412
20
-151.0750393
11
362.0665153
21
-152.05163
0
LINE
8
0
10
362.0665153
20
-152.05163
11
363.043106
21
-166.0175267
0
LINE
8
0
10
361.717733
20
-147.0638097
11
375.6836297
21
-146.087219
0
LINE
8
0
10
375.6836297
20
-146.087219
11
374.707039
21
-132.1213223
0
LINE
8
0
10
374.707039
20
-132.1213223
11
360.7411423
21
-133.097913
0
LINE
8
0
10
360.7411423
20
-133.097913
11
361.717733
21
-147.0638097
0
LINE
8
0
10
344.0837236
20
-181.6181008
11
358.0070301
21
-180.1547023
0
LINE
8
0
10
358.0070301
20
-180.1547023
11
356.5436316
21
-166.2313958
0
LINE
8
0
10
356.5436316
20
-166.2313958
11
342.6203251
21
-167.6947943
0
LINE
8
0
10
342.6203251
20
-167.6947943
11
344.0837236
21
-181.6181008
0
LINE
8
0
10
342.0976828
20
-162.7221848
11
356.0209893
21
-161.2587863
0
LINE
8
0
10
356.0209893
20
-161.2587863
11
354.5575908
21
-147.3354798
0
LINE
8
0
10
354.5575908
20
-147.3354798
11
340.6342843
21
-148.7988783
0
LINE
8
0
10
340.6342843
20
-148.7988783
11
342.0976828
21
-162.7221848
0
LINE
8
0
10
340.111642
20
-143.8262688
11
354.0349485
21
-142.3628703
0
LINE
8
0
10
354.0349485
20
-142.3628703
11
352.57155
21
-128.4395638
0
LINE
8
0
10
352.57155
20
-128.4395638
11
338.6482435
21
-129.9029623
0
LINE
8
0
10
338.6482435
20
-129.9029623
11
340.111642
21
-143.8262688
0
LINE
8
0
10
324.5305298
20
-186.9311036
11
338.3942828
21
-184.9826802
0
LINE
8
0
10
338.3942828
20
-184.9826802
11
336.4458594
21
-171.1189272
0
LINE
8
0
10
336.4458594
20
-171.1189272
11
322.5821064
21
-173.0673506
0
LINE
8
0
10
322.5821064
20
-173.0673506
11
324.5305298
21
-186.9311036
0
LINE
8
0
10
321.8862409
20
-168.1160103
11
335.7499939
21
-166.1675869
0
LINE
8
0
10
335.7499939
20
-166.1675869
11
333.8015705
21
-152.3038339
0
LINE
8
0
10
333.8015705
20
-152.3038339
11
319.9378175
21
-154.2522573
0
LINE
8
0
10
319.9378175
20
-154.2522573
11
321.8862409
21
-168.1160103
0
LINE
8
0
10
319.241952
20
-149.300917
11
333.105705
21
-147.3524936
0
LINE
8
0
10
333.105705
20
-147.3524936
11
331.1572816
21
-133.4887406
0
LINE
8
0
10
331.1572816
20
-133.4887406
11
317.2935286
21
-135.437164
0
LINE
8
0
10
317.2935286
20
-135.437164
11
319.241952
21
-149.300917
0
LINE
8
0
10
305.3123547
20
-194.8034706
11
319.1399914
21
-192.6133881
0
LINE
8
0
10
319.1399914
20
-192.6133881
11
316.9499089
21
-178.7857514
0
LINE
8
0
10
316.9499089
20
-178.7857514
11
303.1222722
21
-180.9758339
0
LINE
8
0
10
303.1222722
20
-180.9758339
11
305.3123547
21
-194.8034706
0
LINE
8
0
10
302.3400999
20
-176.0373921
11
316.1677366
21
-173.8473096
0
LINE
8
0
10
316.1677366
20
-173.8473096
11
313.9776541
21
-160.0196729
0
LINE
8
0
10
313.9776541
20
-160.0196729
11
300.1500174
21
-162.2097554
0
LINE
8
0
10
300.1500174
20
-162.2097554
11
302.3400999
21
-176.0373921
0
LINE
8
0
10
299.3678451
20
-157.2713136
11
313.1954818
21
-155.0812311
0
LINE
8
0
10
313.1954818
20
-155.0812311
11
311.0053993
21
-141.2535944
0
LINE
8
0
10
311.0053993
20
-141.2535944
11
297.1777626
21
-143.4436769
0
LINE
8
0
10
297.1777626
20
-143.4436769
11
299.3678451
21
-157.2713136
0
LINE
8
0
10
346.1795193
20
-201.5582648
11
360.1028258
21
-200.0948663
0
LINE
8
0
10
360.1028258
20
-200.0948663
11
358.6394273
21
-186.1715598
0
LINE
8
0
10
358.6394273
20
-186.1715598
11
344.7161208
21
-187.6349583
0
LINE
8
0
10
344.7161208
20
-187.6349583
11
346.1795193
21
-201.5582648
0
LINE
8
0
10
327.0734491
20
-206.3390648
11
340.9372021
21
-204.3906414
0
LINE
8
0
10
340.9372021
20
-204.3906414
11
338.9887787
21
-190.5268884
0
LINE
8
0
10
338.9887787
20
-190.5268884
11
325.1250257
21
-192.4753118
0
LINE
8
0
10
325.1250257
20
-192.4753118
11
327.0734491
21
-206.3390648
0
LINE
8
0
10
309.0762835
20
-215.7173094
11
322.5992451
21
-212.0938428
0
LINE
8
0
10
322.5992451
20
-212.0938428
11
318.9757785
21
-198.5708812
0
LINE
8
0
10
318.9757785
20
-198.5708812
11
305.4528169
21
-202.1943478
0
LINE
8
0
10
305.4528169
20
-202.1943478
11
309.0762835
21
-215.7173094
0
LINE
8
0
10
290.2800787
20
-222.6808691
11
303.3502046
21
-217.6637178
0
LINE
8
0
10
303.3502046
20
-217.6637178
11
298.3330533
21
-204.5935919
0
LINE
8
0
10
298.3330533
20
-204.5935919
11
285.2629274
21
-209.6107432
0
LINE
8
0
10
285.2629274
20
-209.6107432
11
290.2800787
21
-222.6808691
0
CIRCLE
8
0
10
161.1190298
20
-152.5347122
40
2
0
CIRCLE
8
0
10
160.4563433
20
-171.5115708
40
2
0
CIRCLE
8
0
10
204.3675709
20
-146.7042418
40
2
0
CIRCLE
8
0
10
199.7372412
20
-184.4152511
40
2
0
CIRCLE
8
0
10
239.4189695
20
-202.7822108
40
2
0
CIRCLE
8
0
10
379.9941022
20
-152.5347122
40
2
0
CIRCLE
8
0
10
380.6567887
20
-171.5115708
40
2
0
CIRCLE
8
0
10
336.7455611
20
-146.7042418
40
2
0
CIRCLE
8
0
10
341.3758908
20
-184.4152511
40
2
0
CIRCLE
8
0
10
301.6941625
20
-202.7822108
40
2
0
ENDSEC
0
EOF