0
SECTION
2
HEADER
9
$INSUNITS
70
4
0
ENDSEC
0
SECTION
2
TABLES
0
TABLE
2
LTYPE
0
LTYPE
72
65
70
64
2
CONTINUOUS
3
______
73
0
40
0
0
ENDTAB
0
TABLE
2
LAYER
0
ENDTAB
0
ENDSEC
0
SECTION
2
ENTITIES
0
LINE
8
0
10
170.2361238
20
-160.258891
11
188.1204172
21
-158.2212331
0
ARC
8
0
10
188.007214
20
-157.2276612
40
1
50
276.5000002
51
366.4999989
0
LINE
8
0
10
189.0007859
20
-157.114458
11
188.2529492
21
-150.5507801
0
LINE
8
0
10
188.2529492
20
-150.5507801
11
204.8822105
21
-149.8247308
0
LINE
8
0
10
204.8822105
20
-149.8247308
11
204.9837435
21
-161.4592574
0
ARC
8
0
10
205.9837054
20
-161.4505309
40
1
50
180.499998
51
270.5000002
0
LINE
8
0
10
205.9924319
20
-162.4504928
11
223.6411582
21
-162.2964746
0
LINE
8
0
10
223.6411582
20
-162.2964746
11
223.6112371
21
-163.4391165
0
ARC
8
0
10
224.6108944
20
-163.4652934
40
1
50
178.5000027
51
268.4999999
0
LINE
8
0
10
224.5847175
20
-164.4649507
11
242.240552
21
-164.927285
0
LINE
8
0
10
242.240552
20
-164.927285
11
241.8911927
21
-168.5555196
0
ARC
8
0
10
242.8865889
20
-168.6513654
40
1
50
174.4999973
51
264.4999998
0
LINE
8
0
10
242.7907431
20
-169.6467616
11
260.7078747
21
-171.3719852
0
ARC
8
0
10
260.8037205
20
-170.376589
40
1
50
264.4999998
51
282.4965601
0
ARC
8
0
10
261.3363304
20
-170.4042151
40
1
50
251.5649823
51
259.5000002
0
LINE
8
0
10
261.1540949
20
-171.38747
11
278.8526832
21
-174.6677094
0
ARC
8
0
10
279.0349187
20
-173.6844545
40
1
50
259.5000002
51
349.5000014
0
LINE
8
0
10
280.0181736
20
-173.86669
11
283.1161775
21
-157.1513566
0
ARC
8
0
10
282.1329226
20
-156.9691211
40
1
50
349.5000001
51
357.6868568
0
LINE
8
0
10
285.1795216
20
-106.3232486
11
283.1321078
21
-157.0094821
0
ARC
8
0
10
284.1803364
20
-106.2828876
40
1
50
357.6868559
51
87.5
0
LINE
8
0
10
264.5427058
20
-104.4245375
11
284.2239558
21
-105.2838394
0
LINE
8
0
10
264.5427058
20
-104.4245375
11
264.6844688
21
-101.1776307
0
ARC
8
0
10
263.6854206
20
-101.1340113
40
1
50
357.5
51
447.4999991
0
LINE
8
0
10
244.9862297
20
-99.3166343
11
263.72904
21
-100.1349631
0
LINE
8
0
10
244.9862297
20
-99.3166343
11
245.08664
21
-95.4821176
0
ARC
8
0
10
244.0869945
20
-95.4554936
40
1
50
358.4999997
51
448.5
0
LINE
8
0
10
224.5953227
20
-93.9447434
11
244.1131714
21
-94.4558362
0
LINE
8
0
10
224.5953227
20
-93.9447434
11
224.5808436
21
-92.2856087
0
ARC
8
0
10
223.5808817
20
-92.2943353
40
1
50
0.4999996
51
90.5000008
0
LINE
8
0
10
223.5721552
20
-91.2943734
11
205.5728405
21
-91.4514511
0
ARC
8
0
10
205.581567
20
-92.451413
40
1
50
90.5000002
51
180.499998
0
LINE
8
0
10
204.5816051
20
-92.4601395
11
204.6193538
21
-96.785715
0
LINE
8
0
10
185.2994055
20
-97.6292421
11
204.6193538
21
-96.785715
0
ARC
8
0
10
185.3430249
20
-98.6282903
40
1
50
92.5
51
182.5000008
0
LINE
8
0
10
184.3439767
20
-98.6719097
11
184.6323069
21
-105.2757572
0
LINE
8
0
10
164.2363536
20
-107.5995826
11
184.6323069
21
-105.2757572
0
ARC
8
0
10
164.3495568
20
-108.5931545
40
1
50
96.4999989
51
186.4999999
0
LINE
8
0
10
163.3559849
20
-108.7063577
11
169.1293487
21
-159.3785223
0
ARC
8
0
10
170.1229206
20
-159.2653191
40
1
50
186.4999989
51
276.5000002
0
ENDSEC
0
EOF