0
SECTION
2
HEADER
9
$INSUNITS
70
4
0
ENDSEC
0
SECTION
2
TABLES
0
TABLE
2
LTYPE
0
LTYPE
72
65
70
64
2
CONTINUOUS
3
______
73
0
40
0
0
ENDTAB
0
TABLE
2
LAYER
0
ENDTAB
0
ENDSEC
0
SECTION
2
ENTITIES
0
LINE
8
0
10
171.7203941
20
-177.7030001
11
190.5982594
21
-175.552139
0
ARC
8
0
10
190.371853
20
-173.5649953
40
2
50
276.5000001
51
366.4999993
0
LINE
8
0
10
191.8482907
20
-168.8561797
11
192.3589967
21
-173.3385889
0
LINE
8
0
10
192.7982432
20
-167.7439283
11
206.8110003
21
-167.1321181
0
LINE
8
0
10
207.8545816
20
-168.1224398
11
207.9471075
21
-178.7248595
0
ARC
8
0
10
209.9470313
20
-178.7074064
40
2
50
180.5000008
51
270.5000001
0
LINE
8
0
10
209.9644844
20
-180.7073302
11
226.3922574
21
-180.5639673
0
LINE
8
0
10
227.4006412
20
-181.5901061
11
227.3986658
21
-181.6655451
0
ARC
8
0
10
229.3979805
20
-181.717899
40
2
50
178.4999999
51
268.5000001
0
LINE
8
0
10
229.3456266
20
-183.7172137
11
245.4783136
21
-184.139663
0
LINE
8
0
10
246.4411526
20
-185.2871297
11
246.2345763
21
-186.6693638
0
ARC
8
0
10
248.212608
20
-186.9649826
40
2
50
171.5000005
51
261.5
0
LINE
8
0
10
247.9169892
20
-188.9430143
11
266.7082906
21
-191.7513931
0
ARC
8
0
10
267.0039094
20
-189.7733614
40
2
50
261.5
51
264.1029541
0
ARC
8
0
10
267.7641848
20
-190.0114034
40
2
50
241.1263994
51
255.4999999
0
LINE
8
0
10
267.2634248
20
-191.9476987
11
285.6582299
21
-196.7049188
0
ARC
8
0
10
286.1589899
20
-194.7686235
40
2
50
255.4999999
51
345.5000004
0
LINE
8
0
10
288.0952852
20
-195.2693835
11
292.8525053
21
-176.8745784
0
ARC
8
0
10
290.91621
20
-176.3738184
40
2
50
345.4999999
51
435.5000004
0
LINE
8
0
10
291.41697
20
-174.4375231
11
290.9417008
21
-174.3146101
0
LINE
8
0
10
292.8695465
20
-117.0975471
11
290.1932127
21
-173.2988959
0
ARC
8
0
10
290.8718104
20
-117.002414
40
2
50
357.2736084
51
87.4999999
0
LINE
8
0
10
274.0251818
20
-114.264969
11
290.9590492
21
-115.0043176
0
LINE
8
0
10
273.069753
20
-113.2223014
11
273.1460869
21
-111.473967
0
ARC
8
0
10
271.1479905
20
-111.3867282
40
2
50
357.4999999
51
447.4999993
0
LINE
8
0
10
271.2352293
20
-109.3886318
11
252.2533131
21
-108.5598634
0
ARC
8
0
10
252.1660743
20
-110.5579598
40
2
50
87.4999999
51
90.8049434
0
LINE
8
0
10
252.1379774
20
-108.5581572
11
252.2123999
21
-105.7160768
0
ARC
8
0
10
250.2130852
20
-105.6637229
40
2
50
358.5000001
51
448.4999999
0
LINE
8
0
10
250.2654391
20
-103.6644082
11
231.2719499
21
-103.1670462
0
ARC
8
0
10
231.219596
20
-105.1663609
40
2
50
88.5000001
51
117.6780169
0
LINE
8
0
10
230.2825786
20
-102.4770448
11
230.2905914
21
-103.3952171
0
ARC
8
0
10
228.2826548
20
-102.4944979
40
2
50
0.5000001
51
90.5000008
0
LINE
8
0
10
228.2652017
20
-100.4945741
11
209.2659251
21
-100.6603783
0
ARC
8
0
10
209.2833782
20
-102.6603021
40
2
50
90.5000008
51
180.5000001
0
LINE
8
0
10
207.2834544
20
-102.6777552
11
207.3143267
21
-106.2153666
0
ARC
8
0
10
206.6039346
20
-108.0849503
40
2
50
69.1945401
51
92.5000008
0
LINE
8
0
10
206.5166958
20
-106.0868539
11
187.5347796
21
-106.9156223
0
ARC
8
0
10
187.6220184
20
-108.9137187
40
2
50
92.5000008
51
182.5000001
0
LINE
8
0
10
185.623922
20
-109.0009575
11
185.9937588
21
-117.4716133
0
LINE
8
0
10
185.9064135
20
-116.7049931
11
185.9937588
21
-117.4716133
0
ARC
8
0
10
183.9192698
20
-116.9313995
40
2
50
6.5
51
96.4999993
0
LINE
8
0
10
183.6928634
20
-114.9442558
11
164.8149981
21
-117.0951169
0
ARC
8
0
10
165.0414045
20
-119.0822606
40
2
50
96.4999993
51
186.5
0
LINE
8
0
10
163.0542608
20
-119.308667
11
169.506844
21
-175.9422628
0
ARC
8
0
10
171.4939877
20
-175.7158564
40
2
50
186.4999993
51
276.5000001
0
ARC
8
0
10
192.8418626
20
-168.7429765
40
1
50
92.5000008
51
186.4999989
0
ARC
8
0
10
206.8546197
20
-168.1311663
40
1
50
0.499998
51
92.5000008
0
ARC
8
0
10
226.4009839
20
-181.5639292
40
1
50
358.5000027
51
90.499998
0
ARC
8
0
10
245.4521367
20
-185.1393203
40
1
50
351.5000009
51
88.5000027
0
ARC
8
0
10
291.1920808
20
-173.3464625
40
1
50
177.2736059
51
255.4999996
0
ARC
8
0
10
274.0688012
20
-113.2659208
40
1
50
177.4999992
51
267.4999992
0
ENDSEC
0
EOF