0
SECTION
2
HEADER
9
$INSUNITS
70
4
0
ENDSEC
0
SECTION
2
TABLES
0
TABLE
2
LTYPE
0
LTYPE
72
65
70
64
2
CONTINUOUS
3
______
73
0
40
0
0
ENDTAB
0
TABLE
2
LAYER
0
ENDTAB
0
ENDSEC
0
SECTION
2
ENTITIES
0
LINE
8
0
10
162.5
20
-189.488591
11
162.5
21
-195
0
ARC
8
0
10
160.5
20
-195
40
2
50
270
51
0
0
LINE
8
0
10
139.5
20
-197
11
160.5
21
-197
0
ARC
8
0
10
139.5
20
-195
40
2
50
180
51
270
0
LINE
8
0
10
137.5
20
-195
11
137.5
21
-136
0
ARC
8
0
10
139.5
20
-136
40
2
50
90
51
180
0
LINE
8
0
10
139.5
20
-134
11
160.5
21
-134
0
ARC
8
0
10
160.5
20
-136
40
2
50
82.5273795
51
90
0
LINE
8
0
10
160.7601048
20
-134.0169858
11
161.1636383
21
-128.2461876
0
ARC
8
0
10
163.1587664
20
-128.3857005
40
2
50
446.0000013
51
176
0
LINE
8
0
10
163.2982793
20
-126.3905724
11
183.0812472
21
-127.7739322
0
LINE
8
0
10
183.0812472
20
-127.7739322
11
183.4375612
21
-124.3838306
0
ARC
8
0
10
185.426605
20
-124.5928875
40
2
50
444.0000019
51
173.9999999
0
LINE
8
0
10
185.6356619
20
-122.6038437
11
206.5206217
21
-124.7989415
0
ARC
8
0
10
206.3115648
20
-126.7879853
40
2
50
353.9999999
51
444.0000001
0
LINE
8
0
10
208.2275868
20
-127.6917974
11
208.3006086
21
-126.9970422
0
LINE
8
0
10
208.2275868
20
-127.6917974
11
228.0509937
21
-130.4777955
0
ARC
8
0
10
227.7726475
20
-132.4583316
40
2
50
351.9999999
51
82.0000001
0
LINE
8
0
10
229.7531836
20
-132.7366778
11
229.3555618
21
-135.565904
0
LINE
8
0
10
229.3555618
20
-135.565904
11
248.2526682
21
-138.5589116
0
ARC
8
0
10
247.9397993
20
-140.5342883
40
2
50
351.0000001
51
441.0000016
0
LINE
8
0
10
249.3285468
20
-144.5509885
11
249.915176
21
-140.8471572
0
LINE
8
0
10
249.3285468
20
-144.5509885
11
267.9464719
21
-147.4997782
0
ARC
8
0
10
267.633603
20
-149.4751549
40
2
50
352.7786188
51
81
0
LINE
8
0
10
269.6177387
20
-149.7265618
11
262.3341087
21
-207.209913
0
ARC
8
0
10
260.3720239
20
-207.5974995
40
2
50
339.0000005
51
371.1742372
0
LINE
8
0
10
262.1720072
20
-208.489239
11
262.2391847
21
-208.3142354
0
LINE
8
0
10
262.1720072
20
-208.489239
11
262.128493
21
-208.8326583
0
ARC
8
0
10
260.1443573
20
-208.5812514
40
2
50
317.4348077
51
352.7786193
0
LINE
8
0
10
254.7134579
20
-227.9194243
11
261.6173736
21
-209.9341087
0
ARC
8
0
10
252.846297
20
-227.2026884
40
2
50
249.0000005
51
339
0
LINE
8
0
10
232.5243722
20
-221.5441224
11
252.1295611
21
-229.0698493
0
ARC
8
0
10
233.2411081
20
-219.6769615
40
2
50
248.4524416
51
249
0
LINE
8
0
10
213.7096418
20
-216.5005682
11
232.5065613
21
-221.5371876
0
ARC
8
0
10
214.2272799
20
-214.5687165
40
2
50
165.0000001
51
255.0000001
0
LINE
8
0
10
212.2954282
20
-214.0510784
11
212.915969
21
-211.7351887
0
LINE
8
0
10
195.9445396
20
-209.3500099
11
212.915969
21
-211.7351887
0
ARC
8
0
10
196.2228858
20
-207.3694738
40
2
50
171.9999999
51
262.0000001
0
LINE
8
0
10
194.2423497
20
-207.0911276
11
194.2527676
21
-207.0170006
0
LINE
8
0
10
176.954573
20
-205.1988871
11
194.2527676
21
-207.0170006
0
ARC
8
0
10
177.1636299
20
-203.2098433
40
2
50
174.0000008
51
263.9999998
0
LINE
8
0
10
175.1745861
20
-203.0007864
11
176.4919399
21
-190.4670027
0
LINE
8
0
10
162.5
20
-189.488591
11
176.4919399
21
-190.4670027
0
LINE
8
0
10
403.613132
20
-195
11
403.613132
21
-136
0
ARC
8
0
10
401.613132
20
-136
40
2
50
0
51
90
0
LINE
8
0
10
380.613132
20
-134
11
401.613132
21
-134
0
ARC
8
0
10
380.613132
20
-136
40
2
50
90
51
97.4726205
0
LINE
8
0
10
379.9494937
20
-128.2461876
11
380.3530272
21
-134.0169858
0
ARC
8
0
10
377.9543656
20
-128.3857005
40
2
50
4
51
93.9999986
0
LINE
8
0
10
358.0318848
20
-127.7739322
11
377.8148527
21
-126.3905724
0
LINE
8
0
10
357.6755708
20
-124.3838306
11
358.0318848
21
-127.7739322
0
ARC
8
0
10
355.686527
20
-124.5928875
40
2
50
6.0000001
51
95.9999992
0
LINE
8
0
10
334.5925103
20
-124.7989415
11
355.4774701
21
-122.6038437
0
ARC
8
0
10
334.8015672
20
-126.7879853
40
2
50
95.9999992
51
186.0000001
0
LINE
8
0
10
332.8125234
20
-126.9970422
11
332.8855451
21
-127.6917974
0
LINE
8
0
10
313.0627646
20
-130.4777075
11
332.8855451
21
-127.6917974
0
ARC
8
0
10
313.3404845
20
-132.4583316
40
2
50
97.9999999
51
187.9999991
0
LINE
8
0
10
311.7575702
20
-135.565904
11
311.3599484
21
-132.7366778
0
LINE
8
0
10
292.8604638
20
-138.5589116
11
311.7575702
21
-135.565904
0
ARC
8
0
10
293.1733327
20
-140.5342883
40
2
50
98.9999991
51
188.9999999
0
LINE
8
0
10
291.197956
20
-140.8471572
11
291.7845853
21
-144.5509885
0
LINE
8
0
10
291.7845853
20
-144.5509885
11
273.1666601
21
-147.4997782
0
ARC
8
0
10
273.479529
20
-149.4751549
40
2
50
99
51
187.2213812
0
LINE
8
0
10
271.4953933
20
-149.7265618
11
278.7790233
21
-207.209913
0
ARC
8
0
10
280.7411081
20
-207.5974995
40
2
50
168.8257628
51
200.9999995
0
LINE
8
0
10
278.8739472
20
-208.3142354
11
278.9411249
21
-208.4892391
0
LINE
8
0
10
278.9411249
20
-208.4892391
11
278.984639
21
-208.8326583
0
ARC
8
0
10
280.9687747
20
-208.5812514
40
2
50
187.2213807
51
222.5651923
0
LINE
8
0
10
279.4957584
20
-209.9341087
11
286.3996742
21
-227.9194243
0
ARC
8
0
10
288.266835
20
-227.2026884
40
2
50
201.0000007
51
291
0
LINE
8
0
10
288.9835709
20
-229.0698493
11
308.5887598
21
-221.5441224
0
ARC
8
0
10
307.8720239
20
-219.6769615
40
2
50
291.0000008
51
291.5475584
0
LINE
8
0
10
308.6065707
20
-221.5371876
11
327.4034902
21
-216.5005681
0
ARC
8
0
10
326.8858521
20
-214.5687165
40
2
50
284.999998
51
14.9999996
0
LINE
8
0
10
328.197163
20
-211.7351887
11
328.8177037
21
-214.0510785
0
LINE
8
0
10
328.197163
20
-211.7351887
11
345.1685924
21
-209.35001
0
ARC
8
0
10
344.8902462
20
-207.3694738
40
2
50
278.0000009
51
8.0000002
0
LINE
8
0
10
346.8603644
20
-207.0170007
11
346.8706942
21
-207.0905013
0
LINE
8
0
10
346.8603644
20
-207.0170007
11
364.158559
21
-205.1988871
0
ARC
8
0
10
363.9495021
20
-203.2098433
40
2
50
275.9999989
51
6.0000002
0
LINE
8
0
10
364.6211921
20
-190.4670027
11
365.9385459
21
-203.0007864
0
LINE
8
0
10
364.6211921
20
-190.4670027
11
378.613132
21
-189.488591
0
LINE
8
0
10
378.613132
20
-195
11
378.613132
21
-189.488591
0
ARC
8
0
10
380.613132
20
-195
40
2
50
180
51
270
0
LINE
8
0
10
380.613132
20
-197
11
401.613132
21
-197
0
ARC
8
0
10
401.613132
20
-195
40
2
50
270
51
0
0
ENDSEC
0
EOF