0
SECTION
2
HEADER
9
$INSUNITS
70
4
0
ENDSEC
0
SECTION
2
TABLES
0
TABLE
2
LTYPE
0
LTYPE
72
65
70
64
2
CONTINUOUS
3
______
73
0
40
0
0
ENDTAB
0
TABLE
2
LAYER
0
ENDTAB
0
ENDSEC
0
SECTION
2
ENTITIES
0
LINE
8
0
10
171.7203941
20
-177.7030001
11
190.5982594
21
-175.552139
0
ARC
8
0
10
190.371853
20
-173.5649953
40
2
50
276.5000001
51
366.4999993
0
LINE
8
0
10
192.3589967
20
-173.3385889
11
191.7268951
21
-167.7907044
0
LINE
8
0
10
191.7268951
20
-167.7907044
11
207.8455449
21
-167.0869489
0
LINE
8
0
10
207.8455449
20
-167.0869489
11
207.955834
21
-179.7248214
0
ARC
8
0
10
209.9557578
20
-179.7073683
40
2
50
180.5000008
51
270.5000001
0
LINE
8
0
10
209.9732109
20
-181.7072921
11
227.4015554
21
-181.5551972
0
LINE
8
0
10
227.4015554
20
-181.5551972
11
227.3986658
21
-181.6655451
0
ARC
8
0
10
229.3979805
20
-181.717899
40
2
50
178.4999999
51
268.5000001
0
LINE
8
0
10
229.3456266
20
-183.7172137
11
246.6082207
21
-184.1692506
0
LINE
8
0
10
246.6082207
20
-184.1692506
11
246.2345763
21
-186.6693638
0
ARC
8
0
10
248.212608
20
-186.9649826
40
2
50
171.5000005
51
261.5
0
LINE
8
0
10
247.9169892
20
-188.9430143
11
266.7082906
21
-191.7513931
0
ARC
8
0
10
267.0039094
20
-189.7733614
40
2
50
261.5
51
264.1029541
0
ARC
8
0
10
267.7641848
20
-190.0114034
40
2
50
241.1263994
51
255.4999999
0
LINE
8
0
10
267.2634248
20
-191.9476987
11
285.6582299
21
-196.7049188
0
ARC
8
0
10
286.1589899
20
-194.7686235
40
2
50
255.4999999
51
345.5000004
0
LINE
8
0
10
288.0952852
20
-195.2693835
11
292.8525053
21
-176.8745784
0
ARC
8
0
10
290.91621
20
-176.3738184
40
2
50
345.4999999
51
358.2091007
0
LINE
8
0
10
294.7690251
20
-117.1477948
11
292.9152331
21
-176.4363224
0
ARC
8
0
10
292.770002
20
-117.0852908
40
2
50
358.2091003
51
87.5
0
LINE
8
0
10
273.0261336
20
-114.2213496
11
292.8572408
21
-115.0871944
0
LINE
8
0
10
273.0261336
20
-114.2213496
11
273.146087
21
-111.473967
0
ARC
8
0
10
271.1479905
20
-111.3867282
40
2
50
357.5000006
51
447.4999992
0
LINE
8
0
10
252.1380645
20
-108.5548315
11
271.2352293
21
-109.3886317
0
LINE
8
0
10
252.1380645
20
-108.5548315
11
252.2123999
21
-105.7160768
0
ARC
8
0
10
250.2130852
20
-105.6637229
40
2
50
358.5000001
51
448.4999983
0
LINE
8
0
10
230.2883754
20
-103.1412905
11
250.2654391
21
-103.6644082
0
LINE
8
0
10
230.2883754
20
-103.1412905
11
230.2825786
21
-102.4770448
0
ARC
8
0
10
228.2826548
20
-102.4944979
40
2
50
0.5000001
51
90.5000015
0
LINE
8
0
10
228.2652017
20
-100.4945741
11
209.2659251
21
-100.6603783
0
ARC
8
0
10
209.2833782
20
-102.6603021
40
2
50
90.5000001
51
180.5000008
0
LINE
8
0
10
207.2834544
20
-102.6777552
11
207.3129018
21
-106.0520907
0
LINE
8
0
10
187.5347796
20
-106.9156223
11
207.3129018
21
-106.0520907
0
ARC
8
0
10
187.6220184
20
-108.9137187
40
2
50
92.5000001
51
182.5000008
0
LINE
8
0
10
185.623922
20
-109.0009575
11
185.8725689
21
-114.6959097
0
LINE
8
0
10
164.8149981
20
-117.0951169
11
185.8725689
21
-114.6959097
0
ARC
8
0
10
165.0414045
20
-119.0822606
40
2
50
96.4999993
51
186.5
0
LINE
8
0
10
163.0542608
20
-119.308667
11
166.2239508
21
-147.1286789
0
LINE
8
0
10
166.2805525
20
-147.6254652
11
166.2239508
21
-147.1286793
0
LINE
8
0
10
166.3371539
20
-148.1222504
11
166.2805524
21
-147.6254644
0
LINE
8
0
10
166.337154
20
-148.1222508
11
169.506844
21
-175.9422628
0
ARC
8
0
10
171.4939877
20
-175.7158564
40
2
50
186.4999993
51
276.5000001
0
ENDSEC
0
EOF