0
SECTION
2
HEADER
9
$INSUNITS
70
4
0
ENDSEC
0
SECTION
2
TABLES
0
TABLE
2
LTYPE
0
LTYPE
72
65
70
64
2
CONTINUOUS
3
______
73
0
40
0
0
ENDTAB
0
TABLE
2
LAYER
0
ENDTAB
0
ENDSEC
0
SECTION
2
ENTITIES
0
LINE
8
0
10
170.349327
20
-161.2524628
11
188.2336204
21
-159.2148049
0
ARC
8
0
10
188.007214
20
-157.2276612
40
2
50
276.5000002
51
366.4999993
0
LINE
8
0
10
189.9943577
20
-157.0012548
11
189.4893122
21
-152.5685275
0
LINE
8
0
10
190.4392647
20
-151.4562761
11
205.6377204
21
-150.7926972
0
ARC
8
0
10
205.5504816
20
-148.7946008
40
2
50
272.5000001
51
362.5000015
0
LINE
8
0
10
207.548578
20
-148.707362
11
207.4509825
21
-146.4720558
0
LINE
8
0
10
208.4413042
20
-145.4284745
11
214.1821646
21
-145.3783747
0
LINE
8
0
10
215.1647121
20
-147.3911606
11
215.1905484
21
-146.4045135
0
LINE
8
0
10
215.164712
20
-147.3911606
11
214.942208
21
-155.8882479
0
LINE
8
0
10
214.9422081
20
-155.8882479
11
214.719704
21
-164.3853351
0
ARC
8
0
10
216.7190186
20
-164.437689
40
2
50
178.4999999
51
268.5
0
LINE
8
0
10
216.6666647
20
-166.4370036
11
234.6408484
21
-166.9076742
0
LINE
8
0
10
235.600957
20
-168.0723791
11
235.5600273
21
-168.3169651
0
ARC
8
0
10
237.5325985
20
-168.6470603
40
2
50
170.4999993
51
260.5000001
0
LINE
8
0
10
237.2025033
20
-170.6196315
11
259.2952154
21
-174.3166835
0
LINE
8
0
10
259.3466074
20
-174.3266731
11
266.7359567
21
-175.9648525
0
LINE
8
0
10
266.7359568
20
-175.9648525
11
276.0107688
21
-178.0210288
0
ARC
8
0
10
276.443648
20
-176.0684368
40
2
50
257.5000001
51
347.5000007
0
LINE
8
0
10
278.39624
20
-176.501316
11
282.231088
21
-159.2034349
0
ARC
8
0
10
280.359087
20
-158.4994375
40
2
50
339.3903869
51
355.8145095
0
LINE
8
0
10
286.1750024
20
-106.4288589
11
282.353753
21
-158.6454088
0
ARC
8
0
10
284.1803364
20
-106.2828876
40
2
50
355.8145083
51
87.5
0
LINE
8
0
10
266.5844216
20
-103.512728
11
284.2675752
21
-104.2847912
0
LINE
8
0
10
265.6289928
20
-102.4700604
11
265.683517
21
-101.2212501
0
ARC
8
0
10
263.6854206
20
-101.1340113
40
2
50
357.5
51
447.4999992
0
LINE
8
0
10
246.993373
20
-98.4033154
11
263.7726594
21
-99.1359149
0
LINE
8
0
10
246.0373351
20
-97.3780902
11
246.0862925
21
-95.5084797
0
ARC
8
0
10
244.0869945
20
-95.4554936
40
2
50
358.4999997
51
448.5000014
0
LINE
8
0
10
225.5868575
20
-92.9703649
11
244.1393483
21
-93.4561789
0
LINE
8
0
10
225.5868575
20
-92.9703649
11
225.5808055
21
-92.2768822
0
ARC
8
0
10
223.5808817
20
-92.2943353
40
2
50
0.4999996
51
90.5000023
0
LINE
8
0
10
223.5634286
20
-90.2944115
11
205.5641139
21
-90.4514892
0
ARC
8
0
10
205.581567
20
-92.451413
40
2
50
90.5000002
51
180.5000008
0
LINE
8
0
10
203.5816432
20
-92.4688661
11
203.6025377
21
-94.8631375
0
LINE
8
0
10
185.2557861
20
-96.6301939
11
202.6461952
21
-95.8709122
0
ARC
8
0
10
185.3430249
20
-98.6282903
40
2
50
92.5
51
182.5000008
0
LINE
8
0
10
183.3449285
20
-98.7155291
11
183.5519072
21
-103.4561215
0
LINE
8
0
10
164.1231504
20
-106.6060108
11
182.6660622
21
-104.4933128
0
ARC
8
0
10
164.3495568
20
-108.5931545
40
2
50
96.4999993
51
186.4999999
0
LINE
8
0
10
162.3624131
20
-108.8195609
11
168.1357769
21
-159.4917255
0
ARC
8
0
10
170.1229206
20
-159.2653191
40
2
50
186.4999993
51
276.5000002
0
ARC
8
0
10
190.4828841
20
-152.4553243
40
1
50
92.5000008
51
186.4999989
0
ARC
8
0
10
208.4500307
20
-146.4284364
40
1
50
90.499998
51
182.5000008
0
ARC
8
0
10
214.1908911
20
-146.3783366
40
1
50
358.5000027
51
90.499998
0
ARC
8
0
10
234.6146714
20
-167.9073315
40
1
50
350.5000003
51
88.499997
0
ARC
8
0
10
259.1301678
20
-175.3029691
40
1
50
77.5000007
51
80.5000003
0
ARC
8
0
10
266.628041
20
-102.5136798
40
1
50
177.4999992
51
267.4999992
0
ARC
8
0
10
247.0369924
20
-97.4042672
40
1
50
178.499997
51
267.4999992
0
ARC
8
0
10
202.6025758
20
-94.871864
40
1
50
272.5000008
51
0.499998
0
ARC
8
0
10
182.552859
20
-103.4997409
40
1
50
276.4999989
51
2.5000008
0
ENDSEC
0
EOF