0
SECTION
2
HEADER
9
$INSUNITS
70
4
0
ENDSEC
0
SECTION
2
TABLES
0
TABLE
2
LTYPE
0
LTYPE
72
65
70
64
2
CONTINUOUS
3
______
73
0
40
0
0
ENDTAB
0
TABLE
2
LAYER
0
ENDTAB
0
ENDSEC
0
SECTION
2
ENTITIES
0
LINE
8
0
10
171.7203941
20
-177.7030001
11
190.5982594
21
-175.552139
0
ARC
8
0
10
190.371853
20
-173.5649953
40
2
50
276.5000001
51
366.4999993
0
LINE
8
0
10
192.3589967
20
-173.3385889
11
191.7268951
21
-167.7907044
0
LINE
8
0
10
191.7268951
20
-167.7907044
11
207.8455449
21
-167.0869489
0
LINE
8
0
10
207.8455449
20
-167.0869489
11
207.955834
21
-179.7248214
0
ARC
8
0
10
209.9557578
20
-179.7073683
40
2
50
180.5000008
51
270.5000001
0
LINE
8
0
10
209.9732109
20
-181.7072921
11
227.4015554
21
-181.5551972
0
LINE
8
0
10
227.4015554
20
-181.5551972
11
227.3986658
21
-181.6655451
0
ARC
8
0
10
229.3979805
20
-181.717899
40
2
50
178.4999999
51
268.5000001
0
LINE
8
0
10
229.3456266
20
-183.7172137
11
246.6082207
21
-184.1692506
0
LINE
8
0
10
246.6082207
20
-184.1692506
11
246.2345763
21
-186.6693638
0
ARC
8
0
10
248.212608
20
-186.9649826
40
2
50
171.5000005
51
261.5
0
LINE
8
0
10
247.9169892
20
-188.9430143
11
266.7082906
21
-191.7513931
0
ARC
8
0
10
267.0039094
20
-189.7733614
40
2
50
261.5
51
264.1029541
0
ARC
8
0
10
267.7641848
20
-190.0114034
40
2
50
241.1263994
51
255.4999999
0
LINE
8
0
10
267.2634248
20
-191.9476987
11
285.6582299
21
-196.7049188
0
ARC
8
0
10
286.1589899
20
-194.7686235
40
2
50
255.4999999
51
345.5000004
0
LINE
8
0
10
288.0952852
20
-195.2693835
11
292.8525053
21
-176.8745784
0
ARC
8
0
10
290.91621
20
-176.3738184
40
2
50
345.4999999
51
435.5000004
0
LINE
8
0
10
291.41697
20
-174.4375231
11
282.2495679
21
-172.0666716
0
LINE
8
0
10
282.2495679
20
-172.0666716
11
270.6321509
21
-168.6749177
0
ARC
8
0
10
268.6616854
20
-168.3324769
40
2
50
350.1412167
51
357.4999998
0
LINE
8
0
10
270.6597818
20
-168.4197157
11
271.0523564
21
-159.4282817
0
LINE
8
0
10
271.0523565
20
-159.4282813
11
271.0741661
21
-158.9287572
0
LINE
8
0
10
271.074166
20
-158.9287576
11
271.8811247
21
-140.4463654
0
LINE
8
0
10
271.9029344
20
-139.9468414
11
271.8811247
21
-140.4463654
0
LINE
8
0
10
271.9247441
20
-139.4473173
11
271.9029344
21
-139.9468414
0
LINE
8
0
10
271.9247441
20
-139.4473173
11
272.3173186
21
-130.4558833
0
LINE
8
0
10
272.7317027
20
-120.9649251
11
272.3173186
21
-130.4558833
0
LINE
8
0
10
272.7535125
20
-120.4654015
11
272.7317027
21
-120.9649255
0
LINE
8
0
10
272.7535125
20
-120.4654011
11
273.1460869
21
-111.473967
0
ARC
8
0
10
271.1479905
20
-111.3867282
40
2
50
357.5000006
51
447.5000003
0
LINE
8
0
10
252.1380645
20
-108.5548315
11
271.2352293
21
-109.3886317
0
LINE
8
0
10
252.1380645
20
-108.5548315
11
252.2123999
21
-105.7160768
0
ARC
8
0
10
250.2130852
20
-105.6637229
40
2
50
358.5000001
51
448.4999983
0
LINE
8
0
10
230.2883754
20
-103.1412905
11
250.2654391
21
-103.6644082
0
LINE
8
0
10
230.2883754
20
-103.1412905
11
230.2825786
21
-102.4770448
0
ARC
8
0
10
228.2826548
20
-102.4944979
40
2
50
0.5000001
51
90.5000015
0
LINE
8
0
10
228.2652017
20
-100.4945741
11
209.2659251
21
-100.6603783
0
ARC
8
0
10
209.2833782
20
-102.6603021
40
2
50
90.5000001
51
180.5000008
0
LINE
8
0
10
207.2834544
20
-102.6777552
11
207.3129018
21
-106.0520907
0
LINE
8
0
10
187.5347796
20
-106.9156223
11
207.3129018
21
-106.0520907
0
ARC
8
0
10
187.6220184
20
-108.9137187
40
2
50
92.5000001
51
182.5000008
0
LINE
8
0
10
185.623922
20
-109.0009575
11
185.8725689
21
-114.6959097
0
LINE
8
0
10
164.8149981
20
-117.0951169
11
185.8725689
21
-114.6959097
0
ARC
8
0
10
165.0414045
20
-119.0822606
40
2
50
96.4999993
51
186.5
0
LINE
8
0
10
163.0542608
20
-119.308667
11
166.2239508
21
-147.1286789
0
LINE
8
0
10
166.2805525
20
-147.6254652
11
166.2239508
21
-147.1286793
0
LINE
8
0
10
166.3371539
20
-148.1222504
11
166.2805524
21
-147.6254644
0
LINE
8
0
10
166.337154
20
-148.1222508
11
169.506844
21
-175.9422628
0
ARC
8
0
10
171.4939877
20
-175.7158564
40
2
50
186.4999993
51
276.5000001
0
LINE
8
0
10
173.6949093
20
-172.9489187
11
187.6049153
21
-171.3640737
0
LINE
8
0
10
187.6049153
20
-171.3640737
11
186.0200703
21
-157.4540677
0
LINE
8
0
10
186.0200703
20
-157.4540677
11
172.1100643
21
-159.0389127
0
LINE
8
0
10
172.1100643
20
-159.0389127
11
173.6949093
21
-172.9489187
0
LINE
8
0
10
171.5440483
20
-154.0710534
11
185.4540543
21
-152.4862084
0
LINE
8
0
10
185.4540543
20
-152.4862084
11
183.8692093
21
-138.5762024
0
LINE
8
0
10
183.8692093
20
-138.5762024
11
169.9592033
21
-140.1610474
0
LINE
8
0
10
169.9592033
20
-140.1610474
11
171.5440483
21
-154.0710534
0
LINE
8
0
10
169.3931872
20
-135.1931882
11
183.3031932
21
-133.6083432
0
LINE
8
0
10
183.3031932
20
-133.6083432
11
181.7183482
21
-119.6983372
0
LINE
8
0
10
181.7183482
20
-119.6983372
11
167.8083422
21
-121.2831822
0
LINE
8
0
10
167.8083422
20
-121.2831822
11
169.3931872
21
-135.1931882
0
LINE
8
0
10
192.4968956
20
-163.2527984
11
206.4835707
21
-162.6421269
0
LINE
8
0
10
206.4835707
20
-162.6421269
11
205.8728992
21
-148.6554518
0
LINE
8
0
10
205.8728992
20
-148.6554518
11
191.8862241
21
-149.2661233
0
LINE
8
0
10
191.8862241
20
-149.2661233
11
192.4968956
21
-163.2527984
0
LINE
8
0
10
191.6681273
20
-144.2708821
11
205.6548024
21
-143.6602106
0
LINE
8
0
10
205.6548024
20
-143.6602106
11
205.0441309
21
-129.6735355
0
LINE
8
0
10
205.0441309
20
-129.6735355
11
191.0574558
21
-130.284207
0
LINE
8
0
10
191.0574558
20
-130.284207
11
191.6681273
21
-144.2708821
0
LINE
8
0
10
190.8393589
20
-125.2889659
11
204.826034
21
-124.6782944
0
LINE
8
0
10
204.826034
20
-124.6782944
11
204.2153625
21
-110.6916193
0
LINE
8
0
10
204.2153625
20
-110.6916193
11
190.2286874
21
-111.3022908
0
LINE
8
0
10
190.2286874
20
-111.3022908
11
190.8393589
21
-125.2889659
0
LINE
8
0
10
212.2588793
20
-157.1364106
11
226.2583462
21
-157.0142391
0
LINE
8
0
10
226.2583462
20
-157.0142391
11
226.1361747
21
-143.0147722
0
LINE
8
0
10
226.1361747
20
-143.0147722
11
212.1367078
21
-143.1369437
0
LINE
8
0
10
212.1367078
20
-143.1369437
11
212.2588793
21
-157.1364106
0
LINE
8
0
10
212.0930751
20
-138.137134
11
226.092542
21
-138.0149625
0
LINE
8
0
10
226.092542
20
-138.0149625
11
225.9703705
21
-124.0154956
0
LINE
8
0
10
225.9703705
20
-124.0154956
11
211.9709036
21
-124.1376671
0
LINE
8
0
10
211.9709036
20
-124.1376671
11
212.0930751
21
-138.137134
0
LINE
8
0
10
211.9272709
20
-119.1378575
11
225.9267378
21
-119.015686
0
LINE
8
0
10
225.9267378
20
-119.015686
11
225.8045663
21
-105.0162191
0
LINE
8
0
10
225.8045663
20
-105.0162191
11
211.8050994
21
-105.1383906
0
LINE
8
0
10
211.8050994
20
-105.1383906
11
211.9272709
21
-119.1378575
0
LINE
8
0
10
232.2920956
20
-159.7131274
11
246.2872981
21
-160.0796047
0
LINE
8
0
10
246.2872981
20
-160.0796047
11
246.6537754
21
-146.0844022
0
LINE
8
0
10
246.6537754
20
-146.0844022
11
232.6585729
21
-145.7179249
0
LINE
8
0
10
232.6585729
20
-145.7179249
11
232.2920956
21
-159.7131274
0
LINE
8
0
10
232.7894576
20
-140.7196382
11
246.7846601
21
-141.0861155
0
LINE
8
0
10
246.7846601
20
-141.0861155
11
247.1511374
21
-127.090913
0
LINE
8
0
10
247.1511374
20
-127.090913
11
233.1559349
21
-126.7244357
0
LINE
8
0
10
233.1559349
20
-126.7244357
11
232.7894576
21
-140.7196382
0
LINE
8
0
10
233.2868197
20
-121.7261491
11
247.2820222
21
-122.0926264
0
LINE
8
0
10
247.2820222
20
-122.0926264
11
247.6484995
21
-108.0974239
0
LINE
8
0
10
247.6484995
20
-108.0974239
11
233.653297
21
-107.7309466
0
LINE
8
0
10
233.653297
20
-107.7309466
11
233.2868197
21
-121.7261491
0
LINE
8
0
10
252.2864382
20
-165.1151364
11
266.2731133
21
-165.7258079
0
LINE
8
0
10
266.2731133
20
-165.7258079
11
266.8837848
21
-151.7391328
0
LINE
8
0
10
266.8837848
20
-151.7391328
11
252.8971097
21
-151.1284613
0
LINE
8
0
10
252.8971097
20
-151.1284613
11
252.2864382
21
-165.1151364
0
LINE
8
0
10
253.1152066
20
-146.1332202
11
267.1018817
21
-146.7438917
0
LINE
8
0
10
267.1018817
20
-146.7438917
11
267.7125532
21
-132.7572166
0
LINE
8
0
10
267.7125532
20
-132.7572166
11
253.7258781
21
-132.1465451
0
LINE
8
0
10
253.7258781
20
-132.1465451
11
253.1152066
21
-146.1332202
0
LINE
8
0
10
253.9439749
20
-127.1513039
11
267.93065
21
-127.7619754
0
LINE
8
0
10
267.93065
20
-127.7619754
11
268.5413215
21
-113.7753003
0
LINE
8
0
10
268.5413215
20
-113.7753003
11
254.5546464
21
-113.1646288
0
LINE
8
0
10
254.5546464
20
-113.1646288
11
253.9439749
21
-127.1513039
0
LINE
8
0
10
212.4338463
20
-177.1856471
11
226.4333132
21
-177.0634756
0
LINE
8
0
10
226.4333132
20
-177.0634756
11
226.3111417
21
-163.0640087
0
LINE
8
0
10
226.3111417
20
-163.0640087
11
212.3116748
21
-163.1861802
0
LINE
8
0
10
212.3116748
20
-163.1861802
11
212.4338463
21
-177.1856471
0
LINE
8
0
10
231.9625662
20
-179.284198
11
245.9577687
21
-179.6506753
0
LINE
8
0
10
245.9577687
20
-179.6506753
11
246.324246
21
-165.6554728
0
LINE
8
0
10
246.324246
20
-165.6554728
11
232.3290435
21
-165.2889955
0
LINE
8
0
10
232.3290435
20
-165.2889955
11
231.9625662
21
-179.284198
0
LINE
8
0
10
251.0546712
20
-184.8619665
11
264.9008933
21
-186.9312982
0
LINE
8
0
10
264.9008933
20
-186.9312982
11
266.970225
21
-173.0850761
0
LINE
8
0
10
266.970225
20
-173.0850761
11
253.1240029
21
-171.0157444
0
LINE
8
0
10
253.1240029
20
-171.0157444
11
251.0546712
21
-184.8619665
0
LINE
8
0
10
270.8105039
20
-188.2169844
11
284.3645709
21
-191.7223044
0
LINE
8
0
10
284.3645709
20
-191.7223044
11
287.8698909
21
-178.1682374
0
LINE
8
0
10
287.8698909
20
-178.1682374
11
274.3158239
21
-174.6629174
0
LINE
8
0
10
274.3158239
20
-174.6629174
11
270.8105039
21
-188.2169844
0
ENDSEC
0
EOF