0
SECTION
2
HEADER
9
$INSUNITS
70
4
0
ENDSEC
0
SECTION
2
TABLES
0
TABLE
2
LTYPE
0
LTYPE
72
65
70
64
2
CONTINUOUS
3
______
73
0
40
0
0
ENDTAB
0
TABLE
2
LAYER
0
ENDTAB
0
ENDSEC
0
SECTION
2
ENTITIES
0
LINE
8
0
10
162.5
20
-189.488591
11
162.5
21
-195
0
ARC
8
0
10
160.5
20
-195
40
2
50
270
51
0
0
LINE
8
0
10
139.5
20
-197
11
160.5
21
-197
0
ARC
8
0
10
139.5
20
-195
40
2
50
180
51
270
0
LINE
8
0
10
137.5
20
-195
11
137.5
21
-136
0
ARC
8
0
10
139.5
20
-136
40
2
50
90
51
180
0
LINE
8
0
10
139.5
20
-134
11
160.5
21
-134
0
ARC
8
0
10
160.5
20
-136
40
2
50
82.5273795
51
90
0
LINE
8
0
10
160.7601048
20
-134.0169858
11
161.1636383
21
-128.2461876
0
ARC
8
0
10
163.1587664
20
-128.3857005
40
2
50
446.0000013
51
176
0
LINE
8
0
10
163.2982793
20
-126.3905724
11
183.0812472
21
-127.7739322
0
LINE
8
0
10
183.0812472
20
-127.7739322
11
183.4375612
21
-124.3838306
0
ARC
8
0
10
185.426605
20
-124.5928875
40
2
50
444.0000019
51
173.9999999
0
LINE
8
0
10
185.6356619
20
-122.6038437
11
206.5206217
21
-124.7989415
0
ARC
8
0
10
206.3115648
20
-126.7879853
40
2
50
353.9999999
51
444.0000001
0
LINE
8
0
10
208.2275868
20
-127.6917974
11
208.3006086
21
-126.9970422
0
LINE
8
0
10
208.2275868
20
-127.6917974
11
228.0509937
21
-130.4777955
0
ARC
8
0
10
227.7726475
20
-132.4583316
40
2
50
351.9999999
51
82.0000001
0
LINE
8
0
10
229.7531836
20
-132.7366778
11
229.3555618
21
-135.565904
0
LINE
8
0
10
229.3555618
20
-135.565904
11
248.2526682
21
-138.5589116
0
ARC
8
0
10
247.9397993
20
-140.5342883
40
2
50
351.0000001
51
441.0000009
0
LINE
8
0
10
240.8715973
20
-197.9460661
11
249.915176
21
-140.8471572
0
ARC
8
0
10
239.9469221
20
-199.7194741
40
2
50
413.8567463
51
422.4619489
0
ARC
8
0
10
240.766835
20
-200.0717726
40
2
50
69
51
79.6389946
0
LINE
8
0
10
241.4835709
20
-198.2046117
11
261.0887598
21
-205.7303386
0
ARC
8
0
10
260.3720239
20
-207.5974995
40
2
50
339.0000005
51
69
0
LINE
8
0
10
254.7134579
20
-227.9194243
11
262.2391848
21
-208.3142354
0
ARC
8
0
10
252.846297
20
-227.2026884
40
2
50
249.0000005
51
339
0
LINE
8
0
10
232.5243722
20
-221.5441224
11
252.1295611
21
-229.0698493
0
ARC
8
0
10
233.2411081
20
-219.6769615
40
2
50
248.4524416
51
249
0
LINE
8
0
10
213.7096418
20
-216.5005682
11
232.5065613
21
-221.5371876
0
ARC
8
0
10
214.2272799
20
-214.5687165
40
2
50
165.0000001
51
255.0000001
0
LINE
8
0
10
212.2954282
20
-214.0510784
11
212.915969
21
-211.7351887
0
LINE
8
0
10
195.9445396
20
-209.3500099
11
212.915969
21
-211.7351887
0
ARC
8
0
10
196.2228858
20
-207.3694738
40
2
50
171.9999999
51
262.0000001
0
LINE
8
0
10
194.2423497
20
-207.0911276
11
194.2527676
21
-207.0170006
0
LINE
8
0
10
176.954573
20
-205.1988871
11
194.2527676
21
-207.0170006
0
ARC
8
0
10
177.1636299
20
-203.2098433
40
2
50
174.0000008
51
263.9999998
0
LINE
8
0
10
175.1745861
20
-203.0007864
11
176.4919399
21
-190.4670027
0
LINE
8
0
10
162.5
20
-189.488591
11
176.4919399
21
-190.4670027
0
LINE
8
0
10
403.613132
20
-195
11
403.613132
21
-136
0
ARC
8
0
10
401.613132
20
-136
40
2
50
0
51
90
0
LINE
8
0
10
380.613132
20
-134
11
401.613132
21
-134
0
ARC
8
0
10
380.613132
20
-136
40
2
50
90
51
97.4726205
0
LINE
8
0
10
379.9494937
20
-128.2461876
11
380.3530272
21
-134.0169858
0
ARC
8
0
10
377.9543656
20
-128.3857005
40
2
50
4
51
93.9999986
0
LINE
8
0
10
358.0318848
20
-127.7739322
11
377.8148527
21
-126.3905724
0
LINE
8
0
10
357.6755708
20
-124.3838306
11
358.0318848
21
-127.7739322
0
ARC
8
0
10
355.686527
20
-124.5928875
40
2
50
6.0000001
51
95.9999992
0
LINE
8
0
10
334.5925103
20
-124.7989415
11
355.4774701
21
-122.6038437
0
ARC
8
0
10
334.8015672
20
-126.7879853
40
2
50
95.9999992
51
186.0000001
0
LINE
8
0
10
332.8125234
20
-126.9970422
11
332.8855451
21
-127.6917974
0
LINE
8
0
10
313.0627646
20
-130.4777075
11
332.8855451
21
-127.6917974
0
ARC
8
0
10
313.3404845
20
-132.4583316
40
2
50
97.9999999
51
187.9999991
0
LINE
8
0
10
311.7575702
20
-135.565904
11
311.3599484
21
-132.7366778
0
LINE
8
0
10
292.8604638
20
-138.5589116
11
311.7575702
21
-135.565904
0
ARC
8
0
10
293.1733327
20
-140.5342883
40
2
50
98.9999991
51
188.9999999
0
LINE
8
0
10
291.197956
20
-140.8471572
11
300.2415347
21
-197.9460661
0
ARC
8
0
10
301.1662099
20
-199.7194741
40
2
50
117.5380511
51
126.1432537
0
ARC
8
0
10
300.346297
20
-200.0717726
40
2
50
460.3610082
51
111
0
LINE
8
0
10
280.0243722
20
-205.7303386
11
299.6295611
21
-198.2046117
0
ARC
8
0
10
280.7411081
20
-207.5974995
40
2
50
111
51
200.9999995
0
LINE
8
0
10
278.8739472
20
-208.3142354
11
286.3996741
21
-227.9194243
0
ARC
8
0
10
288.266835
20
-227.2026884
40
2
50
200.9999995
51
291
0
LINE
8
0
10
288.9835709
20
-229.0698493
11
308.5887598
21
-221.5441224
0
ARC
8
0
10
307.8720239
20
-219.6769615
40
2
50
291.0000008
51
291.5475584
0
LINE
8
0
10
308.6065707
20
-221.5371876
11
327.4034902
21
-216.5005681
0
ARC
8
0
10
326.8858521
20
-214.5687165
40
2
50
284.999998
51
14.9999996
0
LINE
8
0
10
328.197163
20
-211.7351887
11
328.8177037
21
-214.0510785
0
LINE
8
0
10
328.197163
20
-211.7351887
11
345.1685924
21
-209.35001
0
ARC
8
0
10
344.8902462
20
-207.3694738
40
2
50
278.0000009
51
8.0000002
0
LINE
8
0
10
346.8603644
20
-207.0170007
11
346.8706942
21
-207.0905013
0
LINE
8
0
10
346.8603644
20
-207.0170007
11
364.158559
21
-205.1988871
0
ARC
8
0
10
363.9495021
20
-203.2098433
40
2
50
275.9999989
51
6.0000002
0
LINE
8
0
10
364.6211921
20
-190.4670027
11
365.9385459
21
-203.0007864
0
LINE
8
0
10
364.6211921
20
-190.4670027
11
378.613132
21
-189.488591
0
LINE
8
0
10
378.613132
20
-195
11
378.613132
21
-189.488591
0
ARC
8
0
10
380.613132
20
-195
40
2
50
180
51
270
0
LINE
8
0
10
380.613132
20
-197
11
401.613132
21
-197
0
ARC
8
0
10
401.613132
20
-195
40
2
50
270
51
0
0
LINE
8
0
10
143
20
-191.5
11
157
21
-191.5
0
LINE
8
0
10
157
20
-191.5
11
157
21
-177.5
0
LINE
8
0
10
157
20
-177.5
11
143
21
-177.5
0
LINE
8
0
10
143
20
-177.5
11
143
21
-191.5
0
LINE
8
0
10
143
20
-172.5
11
157
21
-172.5
0
LINE
8
0
10
157
20
-172.5
11
157
21
-158.5
0
LINE
8
0
10
157
20
-158.5
11
143
21
-158.5
0
LINE
8
0
10
143
20
-158.5
11
143
21
-172.5
0
LINE
8
0
10
143
20
-153.5
11
157
21
-153.5
0
LINE
8
0
10
157
20
-153.5
11
157
21
-139.5
0
LINE
8
0
10
157
20
-139.5
11
143
21
-139.5
0
LINE
8
0
10
143
20
-139.5
11
143
21
-153.5
0
LINE
8
0
10
162.7787563
20
-183.994653
11
176.744653
21
-184.9712437
0
LINE
8
0
10
176.744653
20
-184.9712437
11
177.7212437
21
-171.005347
0
LINE
8
0
10
177.7212437
20
-171.005347
11
163.755347
21
-170.0287563
0
LINE
8
0
10
163.755347
20
-170.0287563
11
162.7787563
21
-183.994653
0
LINE
8
0
10
164.1041293
20
-165.040936
11
178.070026
21
-166.0175267
0
LINE
8
0
10
178.070026
20
-166.0175267
11
179.0466167
21
-152.05163
0
LINE
8
0
10
179.0466167
20
-152.05163
11
165.08072
21
-151.0750393
0
LINE
8
0
10
165.08072
20
-151.0750393
11
164.1041293
21
-165.040936
0
LINE
8
0
10
165.4295023
20
-146.087219
11
179.395399
21
-147.0638097
0
LINE
8
0
10
179.395399
20
-147.0638097
11
180.3719897
21
-133.097913
0
LINE
8
0
10
180.3719897
20
-133.097913
11
166.406093
21
-132.1213223
0
LINE
8
0
10
166.406093
20
-132.1213223
11
165.4295023
21
-146.087219
0
LINE
8
0
10
183.1061019
20
-180.1547023
11
197.0294084
21
-181.6181008
0
LINE
8
0
10
197.0294084
20
-181.6181008
11
198.4928069
21
-167.6947943
0
LINE
8
0
10
198.4928069
20
-167.6947943
11
184.5695004
21
-166.2313958
0
LINE
8
0
10
184.5695004
20
-166.2313958
11
183.1061019
21
-180.1547023
0
LINE
8
0
10
185.0921427
20
-161.2587863
11
199.0154492
21
-162.7221848
0
LINE
8
0
10
199.0154492
20
-162.7221848
11
200.4788477
21
-148.7988783
0
LINE
8
0
10
200.4788477
20
-148.7988783
11
186.5555412
21
-147.3354798
0
LINE
8
0
10
186.5555412
20
-147.3354798
11
185.0921427
21
-161.2587863
0
LINE
8
0
10
187.0781835
20
-142.3628703
11
201.00149
21
-143.8262688
0
LINE
8
0
10
201.00149
20
-143.8262688
11
202.4648885
21
-129.9029623
0
LINE
8
0
10
202.4648885
20
-129.9029623
11
188.541582
21
-128.4395638
0
LINE
8
0
10
188.541582
20
-128.4395638
11
187.0781835
21
-142.3628703
0
LINE
8
0
10
202.7188492
20
-184.9826802
11
216.5826022
21
-186.9311036
0
LINE
8
0
10
216.5826022
20
-186.9311036
11
218.5310256
21
-173.0673506
0
LINE
8
0
10
218.5310256
20
-173.0673506
11
204.6672726
21
-171.1189272
0
LINE
8
0
10
204.6672726
20
-171.1189272
11
202.7188492
21
-184.9826802
0
LINE
8
0
10
205.3631381
20
-166.1675869
11
219.2268911
21
-168.1160103
0
LINE
8
0
10
219.2268911
20
-168.1160103
11
221.1753145
21
-154.2522573
0
LINE
8
0
10
221.1753145
20
-154.2522573
11
207.3115615
21
-152.3038339
0
LINE
8
0
10
207.3115615
20
-152.3038339
11
205.3631381
21
-166.1675869
0
LINE
8
0
10
208.007427
20
-147.3524936
11
221.87118
21
-149.300917
0
LINE
8
0
10
221.87118
20
-149.300917
11
223.8196034
21
-135.437164
0
LINE
8
0
10
223.8196034
20
-135.437164
11
209.9558504
21
-133.4887406
0
LINE
8
0
10
209.9558504
20
-133.4887406
11
208.007427
21
-147.3524936
0
LINE
8
0
10
221.9731406
20
-192.6133881
11
235.8007773
21
-194.8034706
0
LINE
8
0
10
235.8007773
20
-194.8034706
11
237.9908598
21
-180.9758339
0
LINE
8
0
10
237.9908598
20
-180.9758339
11
224.1632231
21
-178.7857514
0
LINE
8
0
10
224.1632231
20
-178.7857514
11
221.9731406
21
-192.6133881
0
LINE
8
0
10
224.9453954
20
-173.8473096
11
238.7730321
21
-176.0373921
0
LINE
8
0
10
238.7730321
20
-176.0373921
11
240.9631146
21
-162.2097554
0
LINE
8
0
10
240.9631146
20
-162.2097554
11
227.1354779
21
-160.0196729
0
LINE
8
0
10
227.1354779
20
-160.0196729
11
224.9453954
21
-173.8473096
0
LINE
8
0
10
227.9176502
20
-155.0812311
11
241.7452869
21
-157.2713136
0
LINE
8
0
10
241.7452869
20
-157.2713136
11
243.9353694
21
-143.4436769
0
LINE
8
0
10
243.9353694
20
-143.4436769
11
230.1077327
21
-141.2535944
0
LINE
8
0
10
230.1077327
20
-141.2535944
11
227.9176502
21
-155.0812311
0
LINE
8
0
10
181.0103062
20
-200.0948663
11
194.9336127
21
-201.5582648
0
LINE
8
0
10
194.9336127
20
-201.5582648
11
196.3970112
21
-187.6349583
0
LINE
8
0
10
196.3970112
20
-187.6349583
11
182.4737047
21
-186.1715598
0
LINE
8
0
10
182.4737047
20
-186.1715598
11
181.0103062
21
-200.0948663
0
LINE
8
0
10
200.1759299
20
-204.3906414
11
214.0396829
21
-206.3390648
0
LINE
8
0
10
214.0396829
20
-206.3390648
11
215.9881063
21
-192.4753118
0
LINE
8
0
10
215.9881063
20
-192.4753118
11
202.1243533
21
-190.5268884
0
LINE
8
0
10
202.1243533
20
-190.5268884
11
200.1759299
21
-204.3906414
0
LINE
8
0
10
218.5138869
20
-212.0938428
11
232.0368485
21
-215.7173094
0
LINE
8
0
10
232.0368485
20
-215.7173094
11
235.6603151
21
-202.1943478
0
LINE
8
0
10
235.6603151
20
-202.1943478
11
222.1373535
21
-198.5708812
0
LINE
8
0
10
222.1373535
20
-198.5708812
11
218.5138869
21
-212.0938428
0
LINE
8
0
10
237.7629274
20
-217.6637178
11
250.8330533
21
-222.6808691
0
LINE
8
0
10
250.8330533
20
-222.6808691
11
255.8502046
21
-209.6107432
0
LINE
8
0
10
255.8502046
20
-209.6107432
11
242.7800787
21
-204.5935919
0
LINE
8
0
10
242.7800787
20
-204.5935919
11
237.7629274
21
-217.6637178
0
LINE
8
0
10
384.113132
20
-191.5
11
398.113132
21
-191.5
0
LINE
8
0
10
398.113132
20
-191.5
11
398.113132
21
-177.5
0
LINE
8
0
10
398.113132
20
-177.5
11
384.113132
21
-177.5
0
LINE
8
0
10
384.113132
20
-177.5
11
384.113132
21
-191.5
0
LINE
8
0
10
384.113132
20
-172.5
11
398.113132
21
-172.5
0
LINE
8
0
10
398.113132
20
-172.5
11
398.113132
21
-158.5
0
LINE
8
0
10
398.113132
20
-158.5
11
384.113132
21
-158.5
0
LINE
8
0
10
384.113132
20
-158.5
11
384.113132
21
-172.5
0
LINE
8
0
10
384.113132
20
-153.5
11
398.113132
21
-153.5
0
LINE
8
0
10
398.113132
20
-153.5
11
398.113132
21
-139.5
0
LINE
8
0
10
398.113132
20
-139.5
11
384.113132
21
-139.5
0
LINE
8
0
10
384.113132
20
-139.5
11
384.113132
21
-153.5
0
LINE
8
0
10
364.368479
20
-184.9712437
11
378.3343757
21
-183.994653
0
LINE
8
0
10
378.3343757
20
-183.994653
11
377.357785
21
-170.0287563
0
LINE
8
0
10
377.357785
20
-170.0287563
11
363.3918883
21
-171.005347
0
LINE
8
0
10
363.3918883
20
-171.005347
11
364.368479
21
-184.9712437
0
LINE
8
0
10
363.043106
20
-166.0175267
11
377.0090027
21
-165.040936
0
LINE
8
0
10
377.0090027
20
-165.040936
11
376.032412
21
-151.0750393
0
LINE
8
0
10
376.032412
20
-151.0750393
11
362.0665153
21
-152.05163
0
LINE
8
0
10
362.0665153
20
-152.05163
11
363.043106
21
-166.0175267
0
LINE
8
0
10
361.717733
20
-147.0638097
11
375.6836297
21
-146.087219
0
LINE
8
0
10
375.6836297
20
-146.087219
11
374.707039
21
-132.1213223
0
LINE
8
0
10
374.707039
20
-132.1213223
11
360.7411423
21
-133.097913
0
LINE
8
0
10
360.7411423
20
-133.097913
11
361.717733
21
-147.0638097
0
LINE
8
0
10
344.0837236
20
-181.6181008
11
358.0070301
21
-180.1547023
0
LINE
8
0
10
358.0070301
20
-180.1547023
11
356.5436316
21
-166.2313958
0
LINE
8
0
10
356.5436316
20
-166.2313958
11
342.6203251
21
-167.6947943
0
LINE
8
0
10
342.6203251
20
-167.6947943
11
344.0837236
21
-181.6181008
0
LINE
8
0
10
342.0976828
20
-162.7221848
11
356.0209893
21
-161.2587863
0
LINE
8
0
10
356.0209893
20
-161.2587863
11
354.5575908
21
-147.3354798
0
LINE
8
0
10
354.5575908
20
-147.3354798
11
340.6342843
21
-148.7988783
0
LINE
8
0
10
340.6342843
20
-148.7988783
11
342.0976828
21
-162.7221848
0
LINE
8
0
10
340.111642
20
-143.8262688
11
354.0349485
21
-142.3628703
0
LINE
8
0
10
354.0349485
20
-142.3628703
11
352.57155
21
-128.4395638
0
LINE
8
0
10
352.57155
20
-128.4395638
11
338.6482435
21
-129.9029623
0
LINE
8
0
10
338.6482435
20
-129.9029623
11
340.111642
21
-143.8262688
0
LINE
8
0
10
324.5305298
20
-186.9311036
11
338.3942828
21
-184.9826802
0
LINE
8
0
10
338.3942828
20
-184.9826802
11
336.4458594
21
-171.1189272
0
LINE
8
0
10
336.4458594
20
-171.1189272
11
322.5821064
21
-173.0673506
0
LINE
8
0
10
322.5821064
20
-173.0673506
11
324.5305298
21
-186.9311036
0
LINE
8
0
10
321.8862409
20
-168.1160103
11
335.7499939
21
-166.1675869
0
LINE
8
0
10
335.7499939
20
-166.1675869
11
333.8015705
21
-152.3038339
0
LINE
8
0
10
333.8015705
20
-152.3038339
11
319.9378175
21
-154.2522573
0
LINE
8
0
10
319.9378175
20
-154.2522573
11
321.8862409
21
-168.1160103
0
LINE
8
0
10
319.241952
20
-149.300917
11
333.105705
21
-147.3524936
0
LINE
8
0
10
333.105705
20
-147.3524936
11
331.1572816
21
-133.4887406
0
LINE
8
0
10
331.1572816
20
-133.4887406
11
317.2935286
21
-135.437164
0
LINE
8
0
10
317.2935286
20
-135.437164
11
319.241952
21
-149.300917
0
LINE
8
0
10
305.3123547
20
-194.8034706
11
319.1399914
21
-192.6133881
0
LINE
8
0
10
319.1399914
20
-192.6133881
11
316.9499089
21
-178.7857514
0
LINE
8
0
10
316.9499089
20
-178.7857514
11
303.1222722
21
-180.9758339
0
LINE
8
0
10
303.1222722
20
-180.9758339
11
305.3123547
21
-194.8034706
0
LINE
8
0
10
302.3400999
20
-176.0373921
11
316.1677366
21
-173.8473096
0
LINE
8
0
10
316.1677366
20
-173.8473096
11
313.9776541
21
-160.0196729
0
LINE
8
0
10
313.9776541
20
-160.0196729
11
300.1500174
21
-162.2097554
0
LINE
8
0
10
300.1500174
20
-162.2097554
11
302.3400999
21
-176.0373921
0
LINE
8
0
10
299.3678451
20
-157.2713136
11
313.1954818
21
-155.0812311
0
LINE
8
0
10
313.1954818
20
-155.0812311
11
311.0053993
21
-141.2535944
0
LINE
8
0
10
311.0053993
20
-141.2535944
11
297.1777626
21
-143.4436769
0
LINE
8
0
10
297.1777626
20
-143.4436769
11
299.3678451
21
-157.2713136
0
LINE
8
0
10
346.1795193
20
-201.5582648
11
360.1028258
21
-200.0948663
0
LINE
8
0
10
360.1028258
20
-200.0948663
11
358.6394273
21
-186.1715598
0
LINE
8
0
10
358.6394273
20
-186.1715598
11
344.7161208
21
-187.6349583
0
LINE
8
0
10
344.7161208
20
-187.6349583
11
346.1795193
21
-201.5582648
0
LINE
8
0
10
327.0734491
20
-206.3390648
11
340.9372021
21
-204.3906414
0
LINE
8
0
10
340.9372021
20
-204.3906414
11
338.9887787
21
-190.5268884
0
LINE
8
0
10
338.9887787
20
-190.5268884
11
325.1250257
21
-192.4753118
0
LINE
8
0
10
325.1250257
20
-192.4753118
11
327.0734491
21
-206.3390648
0
LINE
8
0
10
309.0762835
20
-215.7173094
11
322.5992451
21
-212.0938428
0
LINE
8
0
10
322.5992451
20
-212.0938428
11
318.9757785
21
-198.5708812
0
LINE
8
0
10
318.9757785
20
-198.5708812
11
305.4528169
21
-202.1943478
0
LINE
8
0
10
305.4528169
20
-202.1943478
11
309.0762835
21
-215.7173094
0
LINE
8
0
10
290.2800787
20
-222.6808691
11
303.3502046
21
-217.6637178
0
LINE
8
0
10
303.3502046
20
-217.6637178
11
298.3330533
21
-204.5935919
0
LINE
8
0
10
298.3330533
20
-204.5935919
11
285.2629274
21
-209.6107432
0
LINE
8
0
10
285.2629274
20
-209.6107432
11
290.2800787
21
-222.6808691
0
ENDSEC
0
EOF