0
SECTION
2
HEADER
9
$INSUNITS
70
4
0
ENDSEC
0
SECTION
2
TABLES
0
TABLE
2
LTYPE
0
LTYPE
72
65
70
64
2
CONTINUOUS
3
______
73
0
40
0
0
ENDTAB
0
TABLE
2
LAYER
0
ENDTAB
0
ENDSEC
0
SECTION
2
ENTITIES
0
LINE
8
0
10
175.1226904
20
-150.1457069
11
178.0984382
21
-149.8066633
0
LINE
8
0
10
178.1083739
20
-149.8055312
11
180.6867239
21
-149.5117653
0
LINE
8
0
10
180.6855919
20
-149.5018297
11
178.1072418
21
-149.7955955
0
LINE
8
0
10
178.0973061
20
-149.7967276
11
175.1215584
21
-150.1357712
0
LINE
8
0
10
175.1215584
20
-150.1357712
11
175.1226904
21
-150.1457069
0
LINE
8
0
10
173.1982358
20
-133.2549854
11
176.1739836
21
-132.9159418
0
LINE
8
0
10
176.1839193
20
-132.9148097
11
178.7622693
21
-132.6210438
0
LINE
8
0
10
178.7611373
20
-132.6111082
11
176.1827872
21
-132.904874
0
LINE
8
0
10
176.1728515
20
-132.9060061
11
173.1971038
21
-133.2450497
0
LINE
8
0
10
173.1971038
20
-133.2450497
11
173.1982358
21
-133.2549854
0
LINE
8
0
10
171.2737812
20
-116.3642638
11
174.249529
21
-116.0252202
0
LINE
8
0
10
174.2594647
20
-116.0240881
11
176.8378147
21
-115.7303222
0
LINE
8
0
10
176.8366827
20
-115.7203866
11
174.2583326
21
-116.0141524
0
LINE
8
0
10
174.2483969
20
-116.0152845
11
171.2726492
21
-116.3543281
0
LINE
8
0
10
171.2726492
20
-116.3543281
11
171.2737812
21
-116.3642638
0
LINE
8
0
10
193.1913562
20
-140.8311188
11
196.1835056
21
-140.7004787
0
LINE
8
0
10
196.1934961
20
-140.7000426
11
198.7860575
21
-140.5868489
0
LINE
8
0
10
198.7856213
20
-140.5768583
11
196.19306
21
-140.6900521
0
LINE
8
0
10
196.1830695
20
-140.6904882
11
193.19092
21
-140.8211283
0
LINE
8
0
10
193.19092
20
-140.8211283
11
193.1913562
21
-140.8311188
0
LINE
8
0
10
192.4498267
20
-123.8472989
11
195.4419761
21
-123.7166588
0
LINE
8
0
10
195.4519666
20
-123.7162227
11
198.044528
21
-123.603029
0
LINE
8
0
10
198.0440918
20
-123.5930384
11
195.4515305
21
-123.7062322
0
LINE
8
0
10
195.44154
20
-123.7066683
11
192.4493905
21
-123.8373084
0
LINE
8
0
10
192.4493905
20
-123.8373084
11
192.4498267
21
-123.8472989
0
LINE
8
0
10
191.7082971
20
-106.8634791
11
194.7004465
21
-106.732839
0
LINE
8
0
10
194.710437
20
-106.7324029
11
197.3029984
21
-106.6192092
0
LINE
8
0
10
197.3025622
20
-106.6092186
11
194.7100009
21
-106.7224124
0
LINE
8
0
10
194.7000104
20
-106.7228485
11
191.7078609
21
-106.8534886
0
LINE
8
0
10
191.7078609
20
-106.8534886
11
191.7082971
21
-106.8634791
0
LINE
8
0
10
211.9522599
20
-134.9024352
11
214.9471458
21
-134.8762992
0
LINE
8
0
10
214.9571454
20
-134.876212
11
217.5520779
21
-134.8535664
0
LINE
8
0
10
217.5519906
20
-134.8435667
11
214.9570582
21
-134.8662124
0
LINE
8
0
10
214.9470586
20
-134.8662996
11
211.9521726
21
-134.8924356
0
LINE
8
0
10
211.9521726
20
-134.8924356
11
211.9522599
21
-134.9024352
0
LINE
8
0
10
211.8039089
20
-117.9030826
11
214.7987948
21
-117.8769466
0
LINE
8
0
10
214.8087944
20
-117.8768594
11
217.4037269
21
-117.8542138
0
LINE
8
0
10
217.4036396
20
-117.8442141
11
214.8087072
21
-117.8668598
0
LINE
8
0
10
214.7987076
20
-117.866947
11
211.8038216
21
-117.893083
0
LINE
8
0
10
211.8038216
20
-117.893083
11
211.8039089
21
-117.9030826
0
LINE
8
0
10
211.6555578
20
-100.9037299
11
214.6504437
21
-100.8775939
0
LINE
8
0
10
214.6604433
20
-100.8775067
11
217.2553758
21
-100.8548611
0
LINE
8
0
10
217.2552885
20
-100.8448614
11
214.6603561
21
-100.8675071
0
LINE
8
0
10
214.6503565
20
-100.8675943
11
211.6554705
21
-100.8937303
0
LINE
8
0
10
211.6554705
20
-100.8937303
11
211.6555578
21
-100.9037299
0
LINE
8
0
10
230.9784554
20
-137.6318048
11
233.9724291
21
-137.7102048
0
LINE
8
0
10
233.9824257
20
-137.7104665
11
236.5765677
21
-137.7783965
0
LINE
8
0
10
236.5768295
20
-137.7684001
11
233.9826875
21
-137.70047
0
LINE
8
0
10
233.9726909
20
-137.7002083
11
230.9787172
21
-137.6218083
0
LINE
8
0
10
230.9787172
20
-137.6218083
11
230.9784554
21
-137.6318048
0
LINE
8
0
10
231.4234635
20
-120.6376303
11
234.4174372
21
-120.7160303
0
LINE
8
0
10
234.4274338
20
-120.716292
11
237.0215758
21
-120.784222
0
LINE
8
0
10
237.0218376
20
-120.7742256
11
234.4276956
21
-120.7062955
0
LINE
8
0
10
234.417699
20
-120.7060338
11
231.4237253
21
-120.6276338
0
LINE
8
0
10
231.4237253
20
-120.6276338
11
231.4234635
21
-120.6376303
0
LINE
8
0
10
231.8684716
20
-103.6434557
11
234.8624453
21
-103.7218557
0
LINE
8
0
10
234.8724419
20
-103.7221174
11
237.4665839
21
-103.7900474
0
LINE
8
0
10
237.4668457
20
-103.780051
11
234.8727037
21
-103.7121209
0
LINE
8
0
10
234.8627071
20
-103.7118592
11
231.8687334
21
-103.6334592
0
LINE
8
0
10
231.8687334
20
-103.6334592
11
231.8684716
21
-103.6434557
0
LINE
8
0
10
249.8427998
20
-143.0751233
11
252.8349493
21
-143.2057634
0
LINE
8
0
10
252.8449398
20
-143.2061995
11
255.4375011
21
-143.3193933
0
LINE
8
0
10
255.4379373
20
-143.3094027
11
252.8453759
21
-143.196209
0
LINE
8
0
10
252.8353854
20
-143.1957729
11
249.843236
21
-143.0651328
0
LINE
8
0
10
249.843236
20
-143.0651328
11
249.8427998
21
-143.0751233
0
LINE
8
0
10
250.5843294
20
-126.0913036
11
253.5764789
21
-126.2219437
0
LINE
8
0
10
253.5864694
20
-126.2223798
11
256.1790307
21
-126.3355736
0
LINE
8
0
10
256.1794669
20
-126.325583
11
253.5869055
21
-126.2123893
0
LINE
8
0
10
253.576915
20
-126.2119532
11
250.5847656
21
-126.0813131
0
LINE
8
0
10
250.5847656
20
-126.0813131
11
250.5843294
21
-126.0913036
0
LINE
8
0
10
251.325859
20
-109.1074838
11
254.3180085
21
-109.2381239
0
LINE
8
0
10
254.327999
20
-109.23856
11
256.9205603
21
-109.3517538
0
LINE
8
0
10
256.9209965
20
-109.3417632
11
254.3284351
21
-109.2285695
0
LINE
8
0
10
254.3184446
20
-109.2281334
11
251.3262952
21
-109.0974933
0
LINE
8
0
10
251.3262952
20
-109.0974933
11
251.325859
21
-109.1074838
0
LINE
8
0
10
211.9093451
20
-152.9034951
11
214.904231
21
-152.8773591
0
LINE
8
0
10
214.9142306
20
-152.8772719
11
217.5091631
21
-152.8546263
0
LINE
8
0
10
217.5090758
20
-152.8446266
11
214.9141434
21
-152.8672723
0
LINE
8
0
10
214.9041438
20
-152.8673595
11
211.9092578
21
-152.8934955
0
LINE
8
0
10
211.9092578
20
-152.8934955
11
211.9093451
21
-152.9034951
0
LINE
8
0
10
230.8312115
20
-155.1302661
11
233.8251852
21
-155.2086661
0
LINE
8
0
10
233.8351818
20
-155.2089278
11
236.4293238
21
-155.2768578
0
LINE
8
0
10
236.4295856
20
-155.2668614
11
233.8354436
21
-155.1989313
0
LINE
8
0
10
233.825447
20
-155.1986696
11
230.8314733
21
-155.1202696
0
LINE
8
0
10
230.8314733
20
-155.1202696
11
230.8312115
21
-155.1302661
0
LINE
8
0
10
249.6731758
20
-160.7705492
11
252.6543874
21
-161.0576072
0
LINE
8
0
10
252.6643414
20
-161.0585657
11
255.2474256
21
-161.3072884
0
LINE
8
0
10
255.2483841
20
-161.2973345
11
252.6652998
21
-161.0486118
0
LINE
8
0
10
252.6553458
20
-161.0476533
11
249.6741342
21
-160.7605953
0
LINE
8
0
10
249.6741342
20
-160.7605953
11
249.6731758
21
-160.7705492
0
LINE
8
0
10
268.7839506
20
-163.1448778
11
271.7287991
21
-163.6906732
0
LINE
8
0
10
271.7386316
20
-163.6924956
11
274.2902088
21
-164.1654025
0
LINE
8
0
10
274.2920311
20
-164.1555699
11
271.7404539
21
-163.682663
0
LINE
8
0
10
271.7306214
20
-163.6808406
11
268.785773
21
-163.1350452
0
LINE
8
0
10
268.785773
20
-163.1350452
11
268.7839506
21
-163.1448778
0
LINE
8
0
10
182.1557136
20
-120.0826533
11
185.141481
21
-119.8476682
0
LINE
8
0
10
185.1514502
20
-119.8468837
11
187.7384818
21
-119.6432799
0
LINE
8
0
10
187.7376972
20
-119.6333107
11
185.1506656
21
-119.8369145
0
LINE
8
0
10
185.1406964
20
-119.837699
11
182.154929
21
-120.0726841
0
LINE
8
0
10
182.154929
20
-120.0726841
11
182.1557136
21
-120.0826533
0
LINE
8
0
10
183.4887057
20
-137.019924
11
186.4744731
21
-136.7849389
0
LINE
8
0
10
186.4844423
20
-136.7841544
11
189.0714739
21
-136.5805506
0
LINE
8
0
10
189.0706893
20
-136.5705814
11
186.4836577
21
-136.7741852
0
LINE
8
0
10
186.4736885
20
-136.7749697
11
183.4879211
21
-137.0099548
0
LINE
8
0
10
183.4879211
20
-137.0099548
11
183.4887057
21
-137.019924
0
LINE
8
0
10
221.6917455
20
-110.273285
11
224.6866315
21
-110.299421
0
LINE
8
0
10
224.6966311
20
-110.2995082
11
227.2915635
21
-110.3221539
0
LINE
8
0
10
227.2916508
20
-110.3121542
11
224.6967183
21
-110.2895086
0
LINE
8
0
10
224.6867187
20
-110.2894214
11
221.6918328
21
-110.2632854
0
LINE
8
0
10
221.6918328
20
-110.2632854
11
221.6917455
21
-110.273285
0
LINE
8
0
10
221.3950885
20
-144.2668122
11
224.3899744
21
-144.2929482
0
LINE
8
0
10
224.399974
20
-144.2930354
11
226.9949065
21
-144.3156811
0
LINE
8
0
10
226.9949938
20
-144.3056814
11
224.4000613
21
-144.2830358
0
LINE
8
0
10
224.3900617
20
-144.2829486
11
221.3951758
21
-144.2568126
0
LINE
8
0
10
221.3951758
20
-144.2568126
11
221.3950885
21
-144.2668122
0
LINE
8
0
10
260.3391198
20
-154.0351763
11
263.3049727
21
-154.4519997
0
LINE
8
0
10
263.3148753
20
-154.4533915
11
265.884652
21
-154.81455
0
LINE
8
0
10
265.8860437
20
-154.8046474
11
263.316267
21
-154.4434889
0
LINE
8
0
10
263.3063644
20
-154.4420971
11
260.3405116
21
-154.0252737
0
LINE
8
0
10
260.3405116
20
-154.0252737
11
260.3391198
21
-154.0351763
0
LINE
8
0
10
178.3242786
20
-151.7888391
11
178.3342143
21
-151.7877071
0
LINE
8
0
10
178.3342143
20
-151.7877071
11
178.1083739
21
-149.8055312
0
LINE
8
0
10
178.1072418
20
-149.7955955
11
177.9266791
21
-148.2108174
0
LINE
8
0
10
177.9167435
20
-148.2119494
11
178.0973061
21
-149.7967276
0
LINE
8
0
10
178.0984382
20
-149.8066633
11
178.3242786
21
-151.7888391
0
LINE
8
0
10
176.399824
20
-134.8981176
11
176.4097597
21
-134.8969856
0
LINE
8
0
10
176.4097597
20
-134.8969856
11
176.1839193
21
-132.9148097
0
LINE
8
0
10
176.1827872
20
-132.904874
11
176.0022245
21
-131.3200959
0
LINE
8
0
10
175.9922889
20
-131.3212279
11
176.1728515
21
-132.9060061
0
LINE
8
0
10
176.1739836
20
-132.9159418
11
176.399824
21
-134.8981176
0
LINE
8
0
10
174.4753694
20
-118.007396
11
174.4853051
21
-118.006264
0
LINE
8
0
10
174.4853051
20
-118.006264
11
174.2594647
21
-116.0240881
0
LINE
8
0
10
174.2583326
20
-116.0141524
11
174.0777699
21
-114.4293743
0
LINE
8
0
10
174.0678343
20
-114.4305063
11
174.2483969
21
-116.0152845
0
LINE
8
0
10
174.249529
20
-116.0252202
11
174.4753694
21
-118.007396
0
LINE
8
0
10
196.2705263
20
-142.6935799
11
196.2805168
21
-142.6931437
0
LINE
8
0
10
196.2805168
20
-142.6931437
11
196.1934961
21
-140.7000426
0
LINE
8
0
10
196.19306
20
-140.6900521
11
196.1234857
21
-139.096539
0
LINE
8
0
10
196.1134951
20
-139.0969752
11
196.1830695
21
-140.6904882
0
LINE
8
0
10
196.1835056
20
-140.7004787
11
196.2705263
21
-142.6935799
0
LINE
8
0
10
195.5289968
20
-125.70976
11
195.5389873
21
-125.7093238
0
LINE
8
0
10
195.5389873
20
-125.7093238
11
195.4519666
21
-123.7162227
0
LINE
8
0
10
195.4515305
20
-123.7062322
11
195.3819562
21
-122.1127191
0
LINE
8
0
10
195.3719656
20
-122.1131553
11
195.44154
21
-123.7066683
0
LINE
8
0
10
195.4419761
20
-123.7166588
11
195.5289968
21
-125.70976
0
LINE
8
0
10
194.7874672
20
-108.7259402
11
194.7974577
21
-108.725504
0
LINE
8
0
10
194.7974577
20
-108.725504
11
194.710437
21
-106.7324029
0
LINE
8
0
10
194.7100009
20
-106.7224124
11
194.6404266
21
-105.1288993
0
LINE
8
0
10
194.630436
20
-105.1293355
11
194.7000104
21
-106.7228485
0
LINE
8
0
10
194.7004465
20
-106.732839
11
194.7874672
21
-108.7259402
0
LINE
8
0
10
214.9645553
20
-136.8712233
11
214.9745549
21
-136.871136
0
LINE
8
0
10
214.9745549
20
-136.871136
11
214.9571454
21
-134.876212
0
LINE
8
0
10
214.9570582
20
-134.8662124
11
214.9431391
21
-133.2712419
0
LINE
8
0
10
214.9331394
20
-133.2713292
11
214.9470586
21
-134.8662996
0
LINE
8
0
10
214.9471458
20
-134.8762992
11
214.9645553
21
-136.8712233
0
LINE
8
0
10
214.8162043
20
-119.8718707
11
214.8262039
21
-119.8717834
0
LINE
8
0
10
214.8262039
20
-119.8717834
11
214.8087944
21
-117.8768594
0
LINE
8
0
10
214.8087072
20
-117.8668598
11
214.7947881
21
-116.2718893
0
LINE
8
0
10
214.7847884
20
-116.2719766
11
214.7987076
21
-117.866947
0
LINE
8
0
10
214.7987948
20
-117.8769466
11
214.8162043
21
-119.8718707
0
LINE
8
0
10
214.6678532
20
-102.872518
11
214.6778528
21
-102.8724307
0
LINE
8
0
10
214.6778528
20
-102.8724307
11
214.6604433
21
-100.8775067
0
LINE
8
0
10
214.6603561
20
-100.8675071
11
214.646437
21
-99.2725366
0
LINE
8
0
10
214.6364373
20
-99.2726239
11
214.6503565
21
-100.8675943
0
LINE
8
0
10
214.6504437
20
-100.8775939
11
214.6678532
21
-102.872518
0
LINE
8
0
10
233.9202061
20
-139.7045212
11
233.9302027
21
-139.7047829
0
LINE
8
0
10
233.9302027
20
-139.7047829
11
233.9824257
21
-137.7104665
0
LINE
8
0
10
233.9826875
20
-137.70047
11
234.0244405
21
-136.1059854
0
LINE
8
0
10
234.014444
20
-136.1057236
11
233.9726909
21
-137.7002083
0
LINE
8
0
10
233.9724291
20
-137.7102048
11
233.9202061
21
-139.7045212
0
LINE
8
0
10
234.3652142
20
-122.7103467
11
234.3752108
21
-122.7106084
0
LINE
8
0
10
234.3752108
20
-122.7106084
11
234.4274338
21
-120.716292
0
LINE
8
0
10
234.4276956
20
-120.7062955
11
234.4694486
21
-119.1118109
0
LINE
8
0
10
234.4594521
20
-119.1115491
11
234.417699
21
-120.7060338
0
LINE
8
0
10
234.4174372
20
-120.7160303
11
234.3652142
21
-122.7103467
0
LINE
8
0
10
234.8102223
20
-105.7161721
11
234.8202189
21
-105.7164338
0
LINE
8
0
10
234.8202189
20
-105.7164338
11
234.8724419
21
-103.7221174
0
LINE
8
0
10
234.8727037
20
-103.7121209
11
234.9144567
21
-102.1176363
0
LINE
8
0
10
234.9044602
20
-102.1173745
11
234.8627071
21
-103.7118592
0
LINE
8
0
10
234.8624453
20
-103.7218557
11
234.8102223
21
-105.7161721
0
LINE
8
0
10
252.7479286
20
-145.1988645
11
252.7579191
21
-145.1993007
0
LINE
8
0
10
252.7579191
20
-145.1993007
11
252.8449398
21
-143.2061995
0
LINE
8
0
10
252.8453759
20
-143.196209
11
252.9149503
21
-141.602696
0
LINE
8
0
10
252.9049597
20
-141.6022598
11
252.8353854
21
-143.1957729
0
LINE
8
0
10
252.8349493
20
-143.2057634
11
252.7479286
21
-145.1988645
0
LINE
8
0
10
253.4894582
20
-128.2150448
11
253.4994487
21
-128.215481
0
LINE
8
0
10
253.4994487
20
-128.215481
11
253.5864694
21
-126.2223798
0
LINE
8
0
10
253.5869055
20
-126.2123893
11
253.6564799
21
-124.6188763
0
LINE
8
0
10
253.6464893
20
-124.6184401
11
253.576915
21
-126.2119532
0
LINE
8
0
10
253.5764789
20
-126.2219437
11
253.4894582
21
-128.2150448
0
LINE
8
0
10
254.2309878
20
-111.231225
11
254.2409783
21
-111.2316612
0
LINE
8
0
10
254.2409783
20
-111.2316612
11
254.327999
21
-109.23856
0
LINE
8
0
10
254.3284351
20
-109.2285695
11
254.3980095
21
-107.6350565
0
LINE
8
0
10
254.3880189
20
-107.6346203
11
254.3184446
21
-109.2281334
0
LINE
8
0
10
254.3180085
20
-109.2381239
11
254.2309878
21
-111.231225
0
LINE
8
0
10
214.9216405
20
-154.8722832
11
214.9316401
21
-154.8721959
0
LINE
8
0
10
214.9316401
20
-154.8721959
11
214.9142306
21
-152.8772719
0
LINE
8
0
10
214.9141434
20
-152.8672723
11
214.9002243
21
-151.2723018
0
LINE
8
0
10
214.8902246
20
-151.2723891
11
214.9041438
21
-152.8673595
0
LINE
8
0
10
214.904231
20
-152.8773591
11
214.9216405
21
-154.8722832
0
LINE
8
0
10
233.7729622
20
-157.2029825
11
233.7829588
21
-157.2032442
0
LINE
8
0
10
233.7829588
20
-157.2032442
11
233.8351818
21
-155.2089278
0
LINE
8
0
10
233.8354436
20
-155.1989313
11
233.8771966
21
-153.6044467
0
LINE
8
0
10
233.8672001
20
-153.6041849
11
233.825447
21
-155.1986696
0
LINE
8
0
10
233.8251852
20
-155.2086661
11
233.7729622
21
-157.2029825
0
LINE
8
0
10
252.4631751
20
-163.0434227
11
252.4731291
21
-163.0443811
0
LINE
8
0
10
252.4731291
20
-163.0443811
11
252.6643414
21
-161.0585657
0
LINE
8
0
10
252.6652998
20
-161.0486118
11
252.8181768
21
-159.4609237
0
LINE
8
0
10
252.8082228
20
-159.4599652
11
252.6553458
21
-161.0476533
0
LINE
8
0
10
252.6543874
20
-161.0576072
11
252.4631751
21
-163.0434227
0
LINE
8
0
10
271.3652392
20
-165.6522667
11
271.3750717
21
-165.6540891
0
LINE
8
0
10
271.3750717
20
-165.6540891
11
271.7386316
21
-163.6924956
0
LINE
8
0
10
271.7404539
20
-163.682663
11
272.0311253
21
-162.1143407
0
LINE
8
0
10
272.0212928
20
-162.1125184
11
271.7306214
21
-163.6808406
0
LINE
8
0
10
271.7287991
20
-163.6906732
11
271.3652392
21
-165.6522667
0
LINE
8
0
10
185.2980069
20
-121.8365184
11
185.3079761
21
-121.8357338
0
LINE
8
0
10
185.3079761
20
-121.8357338
11
185.1514502
21
-119.8468837
0
LINE
8
0
10
185.1506656
20
-119.8369145
11
185.0255209
21
-118.2468002
0
LINE
8
0
10
185.0155517
20
-118.2475848
11
185.1406964
21
-119.837699
0
LINE
8
0
10
185.141481
20
-119.8476682
11
185.2980069
21
-121.8365184
0
LINE
8
0
10
186.630999
20
-138.7737891
11
186.6409682
21
-138.7730045
0
LINE
8
0
10
186.6409682
20
-138.7730045
11
186.4844423
21
-136.7841544
0
LINE
8
0
10
186.4836577
20
-136.7741852
11
186.358513
21
-135.1840709
0
LINE
8
0
10
186.3485438
20
-135.1848555
11
186.4736885
21
-136.7749697
0
LINE
8
0
10
186.4744731
20
-136.7849389
11
186.630999
21
-138.7737891
0
LINE
8
0
10
224.669222
20
-112.294345
11
224.6792216
21
-112.2944323
0
LINE
8
0
10
224.6792216
20
-112.2944323
11
224.6966311
21
-110.2995082
0
LINE
8
0
10
224.6967183
20
-110.2895086
11
224.7106375
21
-108.6945382
0
LINE
8
0
10
224.7006378
20
-108.6944509
11
224.6867187
21
-110.2894214
0
LINE
8
0
10
224.6866315
20
-110.299421
11
224.669222
21
-112.294345
0
LINE
8
0
10
224.372565
20
-146.2878722
11
224.3825646
21
-146.2879595
0
LINE
8
0
10
224.3825646
20
-146.2879595
11
224.399974
21
-144.2930354
0
LINE
8
0
10
224.4000613
20
-144.2830358
11
224.4139805
21
-142.6880654
0
LINE
8
0
10
224.4039808
20
-142.6879781
11
224.3900617
21
-144.2829486
0
LINE
8
0
10
224.3899744
20
-144.2929482
11
224.372565
21
-146.2878722
0
LINE
8
0
10
263.0273224
20
-156.4275846
11
263.037225
21
-156.4289763
0
LINE
8
0
10
263.037225
20
-156.4289763
11
263.3148753
21
-154.4533915
0
LINE
8
0
10
263.316267
20
-154.4434889
11
263.5382526
21
-152.8639803
0
LINE
8
0
10
263.5283499
20
-152.8625886
11
263.3063644
21
-154.4420971
0
LINE
8
0
10
263.3049727
20
-154.4519997
11
263.0273224
21
-156.4275846
0
ARC
8
0
10
181.0835556
20
-149.4615198
40
0.4
50
187.2162003
51
545.7837859
0
ARC
8
0
10
179.159101
20
-132.5707983
40
0.4
50
187.2162003
51
545.7837859
0
ARC
8
0
10
177.2346464
20
-115.6800767
40
0.4
50
187.2162003
51
545.7837859
0
ARC
8
0
10
199.1854275
20
-140.5644072
40
0.4
50
183.2162253
51
541.7837767
0
ARC
8
0
10
198.443898
20
-123.5805873
40
0.4
50
183.2162253
51
541.7837767
0
ARC
8
0
10
197.7023684
20
-106.5967675
40
0.4
50
183.2162253
51
541.7837767
0
ARC
8
0
10
217.9519878
20
-134.8450762
40
0.4
50
181.2162229
51
539.7837796
0
ARC
8
0
10
217.8036368
20
-117.8457236
40
0.4
50
181.2162229
51
539.7837796
0
ARC
8
0
10
217.6552857
20
-100.8463709
40
0.4
50
181.2162229
51
539.7837796
0
ARC
8
0
10
236.9765303
20
-137.7838682
40
0.4
50
179.2162123
51
537.7838052
0
ARC
8
0
10
237.4215384
20
-120.7896937
40
0.4
50
179.2162123
51
537.7838052
0
ARC
8
0
10
237.8665465
20
-103.7955191
40
0.4
50
179.2162123
51
537.7838052
0
ARC
8
0
10
255.8373073
20
-143.3318444
40
0.4
50
178.2162233
51
536.7837747
0
ARC
8
0
10
256.5788369
20
-126.3480247
40
0.4
50
178.2162233
51
536.7837747
0
ARC
8
0
10
257.3203665
20
-109.3642049
40
0.4
50
178.2162233
51
536.7837747
0
ARC
8
0
10
217.909073
20
-152.8461361
40
0.4
50
181.2162229
51
539.7837796
0
ARC
8
0
10
236.8292864
20
-155.2823295
40
0.4
50
179.2162123
51
537.7838052
0
ARC
8
0
10
255.6460322
20
-161.3406468
40
0.4
50
175.2162051
51
533.7837815
0
ARC
8
0
10
274.6843912
20
-164.2333747
40
0.4
50
170.2162213
51
528.7837838
0
ARC
8
0
10
188.1368253
20
-119.6069141
40
0.4
50
185.2162195
51
543.7837839
0
ARC
8
0
10
189.4698174
20
-136.5441848
40
0.4
50
185.2162195
51
543.7837839
0
ARC
8
0
10
227.6915607
20
-110.3206444
40
0.4
50
180.2162204
51
538.7837771
0
ARC
8
0
10
227.3949037
20
-144.3141716
40
0.4
50
180.2162204
51
538.7837771
0
ARC
8
0
10
266.2814241
20
-154.8652636
40
0.4
50
172.7162081
51
531.2837882
0
ARC
8
0
10
177.8764336
20
-147.8139857
40
0.4
50
277.2162003
51
635.7837859
0
ARC
8
0
10
175.951979
20
-130.9232642
40
0.4
50
277.2162003
51
635.7837859
0
ARC
8
0
10
174.0275244
20
-114.0325426
40
0.4
50
277.2162003
51
635.7837859
0
ARC
8
0
10
196.101044
20
-138.697169
40
0.4
50
273.2162253
51
631.7837767
0
ARC
8
0
10
195.3595145
20
-121.7133491
40
0.4
50
273.2162253
51
631.7837767
0
ARC
8
0
10
194.6179849
20
-104.7295293
40
0.4
50
273.2162253
51
631.7837767
0
ARC
8
0
10
214.9346489
20
-132.871332
40
0.4
50
271.2162229
51
629.7837796
0
ARC
8
0
10
214.7862979
20
-115.8719794
40
0.4
50
271.2162229
51
629.7837796
0
ARC
8
0
10
214.6379468
20
-98.8726267
40
0.4
50
271.2162229
51
629.7837796
0
ARC
8
0
10
234.0299122
20
-135.7060228
40
0.4
50
269.2162123
51
627.7837909
0
ARC
8
0
10
234.4749203
20
-118.7118483
40
0.4
50
269.2162123
51
627.7837909
0
ARC
8
0
10
234.9199284
20
-101.7176737
40
0.4
50
269.2162123
51
627.7837909
0
ARC
8
0
10
252.9274014
20
-141.2028898
40
0.4
50
268.2162233
51
626.7837747
0
ARC
8
0
10
253.668931
20
-124.2190701
40
0.4
50
268.2162233
51
626.7837747
0
ARC
8
0
10
254.4104606
20
-107.2352503
40
0.4
50
268.2162233
51
626.7837747
0
ARC
8
0
10
214.8917341
20
-150.8723919
40
0.4
50
271.2162229
51
629.7837796
0
ARC
8
0
10
233.8826683
20
-153.2044841
40
0.4
50
269.2162123
51
627.7837909
0
ARC
8
0
10
252.8515351
20
-159.0623171
40
0.4
50
265.2162194
51
623.7837815
0
ARC
8
0
10
272.0990976
20
-161.7201583
40
0.4
50
260.2162072
51
618.7837838
0
ARC
8
0
10
184.9891551
20
-117.8484567
40
0.4
50
275.2162195
51
633.7837839
0
ARC
8
0
10
186.3221472
20
-134.7857274
40
0.4
50
275.2162195
51
633.7837839
0
ARC
8
0
10
224.709128
20
-108.294541
40
0.4
50
270.2162204
51
628.7837771
0
ARC
8
0
10
224.412471
20
-142.2880682
40
0.4
50
270.2162204
51
628.7837771
0
ARC
8
0
10
263.5889661
20
-152.4672082
40
0.4
50
262.7162223
51
621.2837882
0
LINE
8
0
10
170.1229206
20
-159.2653191
11
188.007214
21
-157.2276612
0
LINE
8
0
10
184.1583048
20
-123.4462182
11
188.007214
21
-157.2276612
0
LINE
8
0
10
166.2740114
20
-125.4838761
11
170.1229206
21
-159.2653191
0
LINE
8
0
10
166.2740114
20
-125.4838761
11
184.1583048
21
-123.4462181
0
LINE
8
0
10
184.1583048
20
-123.4462181
11
182.2338502
21
-106.5554966
0
LINE
8
0
10
182.2338502
20
-106.5554966
11
164.3495568
21
-108.5931545
0
LINE
8
0
10
164.3495568
20
-108.5931545
11
166.2740114
21
-125.483876
0
LINE
8
0
10
187.5676136
20
-149.5797498
11
205.5504816
21
-148.7946008
0
LINE
8
0
10
205.5504816
20
-148.7946008
11
204.808952
21
-131.810781
0
LINE
8
0
10
186.826084
20
-132.59593
11
204.8089521
21
-131.8107809
0
LINE
8
0
10
186.826084
20
-132.59593
11
187.5676136
21
-149.5797498
0
LINE
8
0
10
203.3258929
20
-97.8431413
11
204.8089521
21
-131.8107809
0
LINE
8
0
10
185.3430249
20
-98.6282903
11
186.8260841
21
-132.5959299
0
LINE
8
0
10
203.3258929
20
-97.8431413
11
185.3430249
21
-98.6282903
0
LINE
8
0
10
206.0266202
20
-143.449471
11
224.0259349
21
-143.2923933
0
LINE
8
0
10
223.5808817
20
-92.2943353
11
224.0259349
21
-143.2923933
0
LINE
8
0
10
223.8775838
20
-126.2930406
11
205.8782691
21
-126.4501183
0
LINE
8
0
10
205.581567
20
-92.451413
11
206.0266202
21
-143.449471
0
LINE
8
0
10
205.8782692
20
-126.4501184
11
223.8775839
21
-126.2930407
0
LINE
8
0
10
223.5808817
20
-92.2943353
11
205.581567
21
-92.451413
0
LINE
8
0
10
224.7581383
20
-145.9668321
11
242.7519702
21
-146.4380172
0
LINE
8
0
10
242.7519702
20
-146.4380172
11
243.6419864
21
-112.4496682
0
LINE
8
0
10
224.7581383
20
-145.9668321
11
225.6481545
21
-111.9784831
0
LINE
8
0
10
225.6481545
20
-111.978483
11
243.6419864
21
-112.4496682
0
LINE
8
0
10
243.6419864
20
-112.4496681
11
244.0869945
21
-95.4554936
0
LINE
8
0
10
244.0869945
20
-95.4554936
11
226.0931626
21
-94.9843085
0
LINE
8
0
10
226.0931626
20
-94.9843085
11
225.6481545
21
-111.978483
0
LINE
8
0
10
243.4779638
20
-151.3003216
11
261.4608318
21
-152.0854706
0
LINE
8
0
10
261.4608318
20
-152.0854706
11
263.6854206
21
-101.1340113
0
LINE
8
0
10
243.4779638
20
-151.3003216
11
245.7025526
21
-100.3488623
0
LINE
8
0
10
263.6854206
20
-101.1340113
11
245.7025526
21
-100.3488623
0
LINE
8
0
10
205.9837054
20
-161.4505309
11
223.9830201
21
-161.2934532
0
LINE
8
0
10
223.9830201
20
-161.2934532
11
223.834669
21
-144.2941005
0
LINE
8
0
10
223.834669
20
-144.2941005
11
205.8353543
21
-144.4511782
0
LINE
8
0
10
205.8353543
20
-144.4511782
11
205.9837054
21
-161.4505309
0
LINE
8
0
10
224.6108944
20
-163.4652934
11
242.6047263
21
-163.9364785
0
LINE
8
0
10
242.6047263
20
-163.9364785
11
243.0497344
21
-146.942304
0
LINE
8
0
10
243.0497344
20
-146.942304
11
225.0559025
21
-146.4711189
0
LINE
8
0
10
225.0559025
20
-146.4711189
11
224.6108944
21
-163.4652934
0
LINE
8
0
10
242.8865889
20
-168.6513654
11
260.8037205
21
-170.376589
0
LINE
8
0
10
260.8037205
20
-170.376589
11
262.4330983
21
-153.4548536
0
LINE
8
0
10
262.4330983
20
-153.4548536
11
244.5159667
21
-151.72963
0
LINE
8
0
10
244.5159667
20
-151.72963
11
242.8865889
21
-168.6513654
0
LINE
8
0
10
261.3363304
20
-170.4042151
11
279.0349187
21
-173.6844545
0
LINE
8
0
10
279.0349187
20
-173.6844545
11
282.1329226
21
-156.9691211
0
LINE
8
0
10
282.1329226
20
-156.9691211
11
264.4343343
21
-153.6888817
0
LINE
8
0
10
264.4343343
20
-153.6888817
11
261.3363304
21
-170.4042151
0
LINE
8
0
10
172.0282964
20
-157.4378774
11
185.739588
21
-155.875673
0
LINE
8
0
10
184.1773836
20
-142.1643814
11
185.739588
21
-155.875673
0
LINE
8
0
10
170.466092
20
-143.7265858
11
184.1773836
21
-142.1643814
0
LINE
8
0
10
170.466092
20
-143.7265858
11
172.0282964
21
-157.4378774
0
LINE
8
0
10
170.1038418
20
-140.5471559
11
183.8151334
21
-138.9849515
0
LINE
8
0
10
182.252929
20
-125.2736599
11
183.8151334
21
-138.9849515
0
LINE
8
0
10
168.5416374
20
-126.8358643
11
182.252929
21
-125.2736599
0
LINE
8
0
10
168.5416374
20
-126.8358643
11
170.1038418
21
-140.5471559
0
LINE
8
0
10
168.1793872
20
-123.6564343
11
181.8906788
21
-122.0942299
0
LINE
8
0
10
180.3284744
20
-108.3829383
11
181.8906788
21
-122.0942299
0
LINE
8
0
10
166.6171828
20
-109.9451427
11
180.3284744
21
-108.3829383
0
LINE
8
0
10
166.6171828
20
-109.9451427
11
168.1793872
21
-123.6564343
0
LINE
8
0
10
189.5958238
20
-147.8896719
11
203.3826893
21
-147.2877244
0
LINE
8
0
10
202.7807418
20
-133.5008589
11
203.3826893
21
-147.2877244
0
LINE
8
0
10
188.9938763
20
-134.1028064
11
202.7807418
21
-133.5008589
0
LINE
8
0
10
188.9938763
20
-134.1028064
11
189.5958238
21
-147.8896719
0
LINE
8
0
10
188.8542943
20
-130.905852
11
202.6411598
21
-130.3039045
0
LINE
8
0
10
202.0392123
20
-116.517039
11
202.6411598
21
-130.3039045
0
LINE
8
0
10
188.2523468
20
-117.1189865
11
202.0392123
21
-116.517039
0
LINE
8
0
10
188.2523468
20
-117.1189865
11
188.8542943
21
-130.905852
0
LINE
8
0
10
188.1127647
20
-113.9220322
11
201.8996302
21
-113.3200847
0
LINE
8
0
10
201.2976827
20
-99.5332192
11
201.8996302
21
-113.3200847
0
LINE
8
0
10
187.5108172
20
-100.1351667
11
201.2976827
21
-99.5332192
0
LINE
8
0
10
187.5108172
20
-100.1351667
11
188.1127647
21
-113.9220322
0
LINE
8
0
10
208.1125778
20
-141.8312062
11
221.9120524
21
-141.71078
0
LINE
8
0
10
221.7916262
20
-127.9113054
11
221.9120524
21
-141.71078
0
LINE
8
0
10
207.9921516
20
-128.0317316
11
221.7916262
21
-127.9113054
0
LINE
8
0
10
207.9921516
20
-128.0317316
11
208.1125778
21
-141.8312062
0
LINE
8
0
10
207.9642268
20
-124.8318536
11
221.7637014
21
-124.7114274
0
LINE
8
0
10
221.6432752
20
-110.9119528
11
221.7637014
21
-124.7114274
0
LINE
8
0
10
207.8438006
20
-111.032379
11
221.6432752
21
-110.9119528
0
LINE
8
0
10
207.8438006
20
-111.032379
11
207.9642268
21
-124.8318536
0
LINE
8
0
10
207.8158757
20
-107.8325009
11
221.6153503
21
-107.7120747
0
LINE
8
0
10
221.4949241
20
-93.9126001
11
221.6153503
21
-107.7120747
0
LINE
8
0
10
207.6954495
20
-94.0330263
11
221.4949241
21
-93.9126001
0
LINE
8
0
10
207.6954495
20
-94.0330263
11
207.8158757
21
-107.8325009
0
LINE
8
0
10
226.8993018
20
-144.422352
11
240.6945729
21
-144.7835939
0
LINE
8
0
10
240.6945729
20
-144.7835939
11
241.0558148
21
-130.9883228
0
LINE
8
0
10
227.2605437
20
-130.6270809
11
241.0558148
21
-130.9883228
0
LINE
8
0
10
226.8993018
20
-144.422352
11
227.2605437
21
-130.6270809
0
LINE
8
0
10
227.3443099
20
-127.4281775
11
241.139581
21
-127.7894194
0
LINE
8
0
10
241.139581
20
-127.7894194
11
241.5008229
21
-113.9941483
0
LINE
8
0
10
227.7055518
20
-113.6329064
11
241.5008229
21
-113.9941483
0
LINE
8
0
10
227.3443099
20
-127.4281775
11
227.7055518
21
-113.6329064
0
LINE
8
0
10
227.789318
20
-110.4340029
11
241.5845891
21
-110.7952448
0
LINE
8
0
10
241.5845891
20
-110.7952448
11
241.945831
21
-96.9999737
0
LINE
8
0
10
228.1505599
20
-96.6387318
11
241.945831
21
-96.9999737
0
LINE
8
0
10
227.789318
20
-110.4340029
11
228.1505599
21
-96.6387318
0
LINE
8
0
10
245.6457561
20
-149.7934452
11
259.4326216
21
-150.3953927
0
LINE
8
0
10
259.4326216
20
-150.3953927
11
260.0345691
21
-136.6085272
0
LINE
8
0
10
246.2477036
20
-136.0065797
11
260.0345691
21
-136.6085272
0
LINE
8
0
10
245.6457561
20
-149.7934452
11
246.2477036
21
-136.0065797
0
LINE
8
0
10
246.3872857
20
-132.8096255
11
260.1741512
21
-133.411573
0
LINE
8
0
10
260.1741512
20
-133.411573
11
260.7760987
21
-119.6247075
0
LINE
8
0
10
246.9892332
20
-119.02276
11
260.7760987
21
-119.6247075
0
LINE
8
0
10
246.3872857
20
-132.8096255
11
246.9892332
21
-119.02276
0
LINE
8
0
10
247.1288153
20
-115.8258057
11
260.9156808
21
-116.4277532
0
LINE
8
0
10
260.9156808
20
-116.4277532
11
261.5176283
21
-102.6408877
0
LINE
8
0
10
247.7307628
20
-102.0389402
11
261.5176283
21
-102.6408877
0
LINE
8
0
10
247.1288153
20
-115.8258057
11
247.7307628
21
-102.0389402
0
LINE
8
0
10
208.069663
20
-159.8322661
11
221.8691376
21
-159.7118399
0
LINE
8
0
10
221.7487114
20
-145.9123653
11
221.8691376
21
-159.7118399
0
LINE
8
0
10
207.9492368
20
-146.0327915
11
221.7487114
21
-145.9123653
0
LINE
8
0
10
207.9492368
20
-146.0327915
11
208.069663
21
-159.8322661
0
LINE
8
0
10
226.7520579
20
-161.9208133
11
240.547329
21
-162.2820552
0
LINE
8
0
10
240.547329
20
-162.2820552
11
240.9085709
21
-148.4867841
0
LINE
8
0
10
227.1132998
20
-148.1255422
11
240.9085709
21
-148.4867841
0
LINE
8
0
10
226.7520579
20
-161.9208133
11
227.1132998
21
-148.1255422
0
LINE
8
0
10
245.1302741
20
-167.2600076
11
258.8667417
21
-168.582679
0
LINE
8
0
10
258.8667417
20
-168.582679
11
260.1894131
21
-154.8462114
0
LINE
8
0
10
246.4529455
20
-153.52354
11
260.1894131
21
-154.8462114
0
LINE
8
0
10
245.1302741
20
-167.2600076
11
246.4529455
21
-153.52354
0
LINE
8
0
10
263.6927425
20
-169.2137018
11
277.2616602
21
-171.7285521
0
LINE
8
0
10
277.2616602
20
-171.7285521
11
279.7765105
21
-158.1596344
0
LINE
8
0
10
266.2075928
20
-155.6447841
11
279.7765105
21
-158.1596344
0
LINE
8
0
10
263.6927425
20
-169.2137018
11
266.2075928
21
-155.6447841
0
CIRCLE
8
0
10
185.1460733
20
-119.8422914
40
2
0
CIRCLE
8
0
10
186.4790654
20
-136.7795621
40
2
0
CIRCLE
8
0
10
224.6916749
20
-110.2944648
40
2
0
CIRCLE
8
0
10
224.3950179
20
-144.287992
40
2
0
CIRCLE
8
0
10
263.3106199
20
-154.4477443
40
2
0
LINE
8
0
10
170.3430128
20
-158.9886253
11
187.7305203
21
-157.0075691
0
LINE
8
0
10
187.7305203
20
-157.0075691
11
185.8626672
21
-140.6136335
0
LINE
8
0
10
185.8626672
20
-140.6136335
11
168.4751597
21
-142.5946897
0
LINE
8
0
10
168.4751597
20
-142.5946897
11
170.3430128
21
-158.9886253
0
LINE
8
0
10
168.4185582
20
-142.0979038
11
185.8060657
21
-140.1168476
0
LINE
8
0
10
185.8060657
20
-140.1168476
11
183.9382126
21
-123.722912
0
LINE
8
0
10
183.9382126
20
-123.722912
11
166.5507051
21
-125.7039682
0
LINE
8
0
10
166.5507051
20
-125.7039682
11
168.4185582
21
-142.0979038
0
LINE
8
0
10
166.4941036
20
-125.2071822
11
183.8816111
21
-123.226126
0
LINE
8
0
10
183.8816111
20
-123.226126
11
182.013758
21
-106.8321904
0
LINE
8
0
10
182.013758
20
-106.8321904
11
164.6262505
21
-108.8132466
0
LINE
8
0
10
164.6262505
20
-108.8132466
11
166.4941036
21
-125.2071822
0
LINE
8
0
10
187.8064708
20
-149.3190829
11
205.2898147
21
-148.5557436
0
LINE
8
0
10
205.2898147
20
-148.5557436
11
204.5700948
21
-132.0714479
0
LINE
8
0
10
204.5700948
20
-132.0714479
11
187.0867509
21
-132.8347872
0
LINE
8
0
10
187.0867509
20
-132.8347872
11
187.8064708
21
-149.3190829
0
LINE
8
0
10
187.0649413
20
-132.335263
11
204.5482852
21
-131.5719237
0
LINE
8
0
10
204.5482852
20
-131.5719237
11
203.8285653
21
-115.087628
0
LINE
8
0
10
203.8285653
20
-115.087628
11
186.3452214
21
-115.8509673
0
LINE
8
0
10
186.3452214
20
-115.8509673
11
187.0649413
21
-132.335263
0
LINE
8
0
10
186.3234117
20
-115.3514432
11
203.8067556
21
-114.5881039
0
LINE
8
0
10
203.8067556
20
-114.5881039
11
203.0870357
21
-98.1038082
0
LINE
8
0
10
203.0870357
20
-98.1038082
11
185.6036918
21
-98.8671475
0
LINE
8
0
10
185.6036918
20
-98.8671475
11
186.3234117
21
-115.3514432
0
LINE
8
0
10
206.2744291
20
-143.1972989
11
223.7737627
21
-143.0445845
0
LINE
8
0
10
223.7737627
20
-143.0445845
11
223.6297749
21
-126.5452127
0
LINE
8
0
10
223.6297749
20
-126.5452127
11
206.1304413
21
-126.6979271
0
LINE
8
0
10
206.1304413
20
-126.6979271
11
206.2744291
21
-143.1972989
0
LINE
8
0
10
206.1260781
20
-126.1979463
11
223.6254117
21
-126.0452319
0
LINE
8
0
10
223.6254117
20
-126.0452319
11
223.4814239
21
-109.5458601
0
LINE
8
0
10
223.4814239
20
-109.5458601
11
205.9820903
21
-109.6985745
0
LINE
8
0
10
205.9820903
20
-109.6985745
11
206.1260781
21
-126.1979463
0
LINE
8
0
10
205.977727
20
-109.1985936
11
223.4770606
21
-109.0458792
0
LINE
8
0
10
223.4770606
20
-109.0458792
11
223.3330728
21
-92.5465074
0
LINE
8
0
10
223.3330728
20
-92.5465074
11
205.8337392
21
-92.6992218
0
LINE
8
0
10
205.8337392
20
-92.6992218
11
205.977727
21
-109.1985936
0
LINE
8
0
10
225.0145969
20
-145.723462
11
242.5086001
21
-146.1815586
0
LINE
8
0
10
242.5086001
20
-146.1815586
11
242.9405197
21
-129.6872128
0
LINE
8
0
10
242.9405197
20
-129.6872128
11
225.4465165
21
-129.2291162
0
LINE
8
0
10
225.4465165
20
-129.2291162
11
225.0145969
21
-145.723462
0
LINE
8
0
10
225.459605
20
-128.7292875
11
242.9536082
21
-129.1873841
0
LINE
8
0
10
242.9536082
20
-129.1873841
11
243.3855278
21
-112.6930383
0
LINE
8
0
10
243.3855278
20
-112.6930383
11
225.8915246
21
-112.2349417
0
LINE
8
0
10
225.8915246
20
-112.2349417
11
225.459605
21
-128.7292875
0
LINE
8
0
10
225.9046131
20
-111.7351129
11
243.3986163
21
-112.1932095
0
LINE
8
0
10
243.3986163
20
-112.1932095
11
243.8305359
21
-95.6988637
0
LINE
8
0
10
243.8305359
20
-95.6988637
11
226.3365327
21
-95.2407671
0
LINE
8
0
10
226.3365327
20
-95.2407671
11
225.9046131
21
-111.7351129
0
LINE
8
0
10
243.7386307
20
-151.0614644
11
261.2219746
21
-151.8248037
0
LINE
8
0
10
261.2219746
20
-151.8248037
11
261.9416945
21
-135.340508
0
LINE
8
0
10
261.9416945
20
-135.340508
11
244.4583506
21
-134.5771687
0
LINE
8
0
10
244.4583506
20
-134.5771687
11
243.7386307
21
-151.0614644
0
LINE
8
0
10
244.4801603
20
-134.0776447
11
261.9635042
21
-134.840984
0
LINE
8
0
10
261.9635042
20
-134.840984
11
262.6832241
21
-118.3566883
0
LINE
8
0
10
262.6832241
20
-118.3566883
11
245.1998802
21
-117.593349
0
LINE
8
0
10
245.1998802
20
-117.593349
11
244.4801603
21
-134.0776447
0
LINE
8
0
10
245.2216899
20
-117.0938249
11
262.7050338
21
-117.8571642
0
LINE
8
0
10
262.7050338
20
-117.8571642
11
263.4247537
21
-101.3728685
0
LINE
8
0
10
263.4247537
20
-101.3728685
11
245.9414098
21
-100.6095292
0
LINE
8
0
10
245.9414098
20
-100.6095292
11
245.2216899
21
-117.0938249
0
LINE
8
0
10
206.2315143
20
-161.1983588
11
223.7308479
21
-161.0456444
0
LINE
8
0
10
223.7308479
20
-161.0456444
11
223.5868601
21
-144.5462726
0
LINE
8
0
10
223.5868601
20
-144.5462726
11
206.0875265
21
-144.698987
0
LINE
8
0
10
206.0875265
20
-144.698987
11
206.2315143
21
-161.1983588
0
LINE
8
0
10
224.867353
20
-163.2219233
11
242.3613562
21
-163.6800199
0
LINE
8
0
10
242.3613562
20
-163.6800199
11
242.7932758
21
-147.1856741
0
LINE
8
0
10
242.7932758
20
-147.1856741
11
225.2992726
21
-146.7275775
0
LINE
8
0
10
225.2992726
20
-146.7275775
11
224.867353
21
-163.2219233
0
LINE
8
0
10
243.1593994
20
-168.4264778
11
260.5788329
21
-170.1037785
0
LINE
8
0
10
260.5788329
20
-170.1037785
11
262.1602878
21
-153.6797412
0
LINE
8
0
10
262.1602878
20
-153.6797412
11
244.7408543
21
-152.0024405
0
LINE
8
0
10
244.7408543
20
-152.0024405
11
243.1593994
21
-168.4264778
0
LINE
8
0
10
261.627703
20
-170.2039602
11
278.8346639
21
-173.3930819
0
LINE
8
0
10
278.8346639
20
-173.3930819
11
281.84155
21
-157.169376
0
LINE
8
0
10
281.84155
20
-157.169376
11
264.6345891
21
-153.9802543
0
LINE
8
0
10
264.6345891
20
-153.9802543
11
261.627703
21
-170.2039602
0
LINE
8
0
10
170.2361238
20
-160.258891
11
188.1204172
21
-158.2212331
0
ARC
8
0
10
188.007214
20
-157.2276612
40
1
50
276.5000002
51
366.4999989
0
LINE
8
0
10
189.0007859
20
-157.114458
11
188.2529492
21
-150.5507801
0
LINE
8
0
10
188.2529492
20
-150.5507801
11
204.8822105
21
-149.8247308
0
LINE
8
0
10
204.8822105
20
-149.8247308
11
204.9837435
21
-161.4592574
0
ARC
8
0
10
205.9837054
20
-161.4505309
40
1
50
180.499998
51
270.5000002
0
LINE
8
0
10
205.9924319
20
-162.4504928
11
223.6411582
21
-162.2964746
0
LINE
8
0
10
223.6411582
20
-162.2964746
11
223.6112371
21
-163.4391165
0
ARC
8
0
10
224.6108944
20
-163.4652934
40
1
50
178.5000027
51
268.4999999
0
LINE
8
0
10
224.5847175
20
-164.4649507
11
242.240552
21
-164.927285
0
LINE
8
0
10
242.240552
20
-164.927285
11
241.8911927
21
-168.5555196
0
ARC
8
0
10
242.8865889
20
-168.6513654
40
1
50
174.4999973
51
264.4999998
0
LINE
8
0
10
242.7907431
20
-169.6467616
11
260.7078747
21
-171.3719852
0
ARC
8
0
10
260.8037205
20
-170.376589
40
1
50
264.4999998
51
282.4965601
0
ARC
8
0
10
261.3363304
20
-170.4042151
40
1
50
251.5649823
51
259.5000002
0
LINE
8
0
10
261.1540949
20
-171.38747
11
278.8526832
21
-174.6677094
0
ARC
8
0
10
279.0349187
20
-173.6844545
40
1
50
259.5000002
51
349.5000014
0
LINE
8
0
10
280.0181736
20
-173.86669
11
283.1161775
21
-157.1513566
0
ARC
8
0
10
282.1329226
20
-156.9691211
40
1
50
349.5000001
51
357.6868568
0
LINE
8
0
10
285.1795216
20
-106.3232486
11
283.1321078
21
-157.0094821
0
ARC
8
0
10
284.1803364
20
-106.2828876
40
1
50
357.6868559
51
87.5
0
LINE
8
0
10
264.5427058
20
-104.4245375
11
284.2239558
21
-105.2838394
0
LINE
8
0
10
264.5427058
20
-104.4245375
11
264.6844688
21
-101.1776307
0
ARC
8
0
10
263.6854206
20
-101.1340113
40
1
50
357.5
51
447.4999991
0
LINE
8
0
10
244.9862297
20
-99.3166343
11
263.72904
21
-100.1349631
0
LINE
8
0
10
244.9862297
20
-99.3166343
11
245.08664
21
-95.4821176
0
ARC
8
0
10
244.0869945
20
-95.4554936
40
1
50
358.4999997
51
448.5
0
LINE
8
0
10
224.5953227
20
-93.9447434
11
244.1131714
21
-94.4558362
0
LINE
8
0
10
224.5953227
20
-93.9447434
11
224.5808436
21
-92.2856087
0
ARC
8
0
10
223.5808817
20
-92.2943353
40
1
50
0.4999996
51
90.5000008
0
LINE
8
0
10
223.5721552
20
-91.2943734
11
205.5728405
21
-91.4514511
0
ARC
8
0
10
205.581567
20
-92.451413
40
1
50
90.5000002
51
180.499998
0
LINE
8
0
10
204.5816051
20
-92.4601395
11
204.6193538
21
-96.785715
0
LINE
8
0
10
185.2994055
20
-97.6292421
11
204.6193538
21
-96.785715
0
ARC
8
0
10
185.3430249
20
-98.6282903
40
1
50
92.5
51
182.5000008
0
LINE
8
0
10
184.3439767
20
-98.6719097
11
184.6323069
21
-105.2757572
0
LINE
8
0
10
164.2363536
20
-107.5995826
11
184.6323069
21
-105.2757572
0
ARC
8
0
10
164.3495568
20
-108.5931545
40
1
50
96.4999989
51
186.4999999
0
LINE
8
0
10
163.3559849
20
-108.7063577
11
169.1293487
21
-159.3785223
0
ARC
8
0
10
170.1229206
20
-159.2653191
40
1
50
186.4999989
51
276.5000002
0
ENDSEC
0
EOF