0
SECTION
2
HEADER
9
$INSUNITS
70
4
0
ENDSEC
0
SECTION
2
TABLES
0
TABLE
2
LTYPE
0
LTYPE
72
65
70
64
2
CONTINUOUS
3
______
73
0
40
0
0
ENDTAB
0
TABLE
2
LAYER
0
ENDTAB
0
ENDSEC
0
SECTION
2
ENTITIES
0
LINE
8
0
10
176.8773402
20
-165.5460707
11
179.853088
21
-165.2070271
0
LINE
8
0
10
179.8630237
20
-165.205895
11
182.4413737
21
-164.9121291
0
LINE
8
0
10
182.4402417
20
-164.9021935
11
179.8618916
21
-165.1959593
0
LINE
8
0
10
179.8519559
20
-165.1970914
11
176.8762082
21
-165.536135
0
LINE
8
0
10
176.8762082
20
-165.536135
11
176.8773402
21
-165.5460707
0
LINE
8
0
10
174.7264792
20
-146.6682054
11
177.702227
21
-146.3291618
0
LINE
8
0
10
177.7121627
20
-146.3280297
11
180.2905127
21
-146.0342638
0
LINE
8
0
10
180.2893807
20
-146.0243282
11
177.7110306
21
-146.318094
0
LINE
8
0
10
177.7010949
20
-146.3192261
11
174.7253472
21
-146.6582697
0
LINE
8
0
10
174.7253472
20
-146.6582697
11
174.7264792
21
-146.6682054
0
LINE
8
0
10
172.5756181
20
-127.7903402
11
175.5513659
21
-127.4512966
0
LINE
8
0
10
175.5613016
20
-127.4501645
11
178.1396516
21
-127.1563986
0
LINE
8
0
10
178.1385196
20
-127.146463
11
175.5601695
21
-127.4402288
0
LINE
8
0
10
175.5502338
20
-127.4413609
11
172.5744861
21
-127.7804045
0
LINE
8
0
10
172.5744861
20
-127.7804045
11
172.5756181
21
-127.7903402
0
LINE
8
0
10
196.1879708
20
-156.0899785
11
199.1801202
21
-155.9593384
0
LINE
8
0
10
199.1901107
20
-155.9589023
11
201.7826721
21
-155.8457086
0
LINE
8
0
10
201.7822359
20
-155.835718
11
199.1896746
21
-155.9489118
0
LINE
8
0
10
199.1796841
20
-155.9493479
11
196.1875346
21
-156.079988
0
LINE
8
0
10
196.1875346
20
-156.079988
11
196.1879708
21
-156.0899785
0
LINE
8
0
10
195.3592025
20
-137.1080622
11
198.3513519
21
-136.9774221
0
LINE
8
0
10
198.3613424
20
-136.976986
11
200.9539038
21
-136.8637923
0
LINE
8
0
10
200.9534676
20
-136.8538017
11
198.3609063
21
-136.9669955
0
LINE
8
0
10
198.3509158
20
-136.9674316
11
195.3587663
21
-137.0980717
0
LINE
8
0
10
195.3587663
20
-137.0980717
11
195.3592025
21
-137.1080622
0
LINE
8
0
10
194.5304341
20
-118.126146
11
197.5225835
21
-117.9955059
0
LINE
8
0
10
197.532574
20
-117.9950698
11
200.1251354
21
-117.8818761
0
LINE
8
0
10
200.1246992
20
-117.8718855
11
197.5321379
21
-117.9850793
0
LINE
8
0
10
197.5221474
20
-117.9855154
11
194.5299979
21
-118.1161555
0
LINE
8
0
10
194.5299979
20
-118.1161555
11
194.5304341
21
-118.126146
0
LINE
8
0
10
216.1976849
20
-150.1067708
11
219.1925708
21
-150.0806348
0
LINE
8
0
10
219.2025704
20
-150.0805476
11
221.7975029
21
-150.057902
0
LINE
8
0
10
221.7974156
20
-150.0479023
11
219.2024832
21
-150.070548
0
LINE
8
0
10
219.1924836
20
-150.0706352
11
216.1975976
21
-150.0967712
0
LINE
8
0
10
216.1975976
20
-150.0967712
11
216.1976849
21
-150.1067708
0
LINE
8
0
10
216.0318807
20
-131.1074942
11
219.0267666
21
-131.0813582
0
LINE
8
0
10
219.0367662
20
-131.081271
11
221.6316987
21
-131.0586254
0
LINE
8
0
10
221.6316114
20
-131.0486257
11
219.036679
21
-131.0712714
0
LINE
8
0
10
219.0266794
20
-131.0713586
11
216.0317934
21
-131.0974946
0
LINE
8
0
10
216.0317934
20
-131.0974946
11
216.0318807
21
-131.1074942
0
LINE
8
0
10
215.8660765
20
-112.1082177
11
218.8609624
21
-112.0820817
0
LINE
8
0
10
218.870962
20
-112.0819945
11
221.4658945
21
-112.0593489
0
LINE
8
0
10
221.4658072
20
-112.0493492
11
218.8708748
21
-112.0719949
0
LINE
8
0
10
218.8608752
20
-112.0720821
11
215.8659892
21
-112.0982181
0
LINE
8
0
10
215.8659892
20
-112.0982181
11
215.8660765
21
-112.1082177
0
LINE
8
0
10
236.4738326
20
-152.8252322
11
239.4678063
21
-152.9036322
0
LINE
8
0
10
239.4778029
20
-152.9038939
11
242.0719449
21
-152.9718239
0
LINE
8
0
10
242.0722067
20
-152.9618275
11
239.4780647
21
-152.8938974
0
LINE
8
0
10
239.4680681
20
-152.8936357
11
236.4740944
21
-152.8152357
0
LINE
8
0
10
236.4740944
20
-152.8152357
11
236.4738326
21
-152.8252322
0
LINE
8
0
10
236.9711946
20
-133.831743
11
239.9651683
21
-133.910143
0
LINE
8
0
10
239.9751649
20
-133.9104047
11
242.5693069
21
-133.9783347
0
LINE
8
0
10
242.5695687
20
-133.9683383
11
239.9754267
21
-133.9004082
0
LINE
8
0
10
239.9654301
20
-133.9001465
11
236.9714564
21
-133.8217465
0
LINE
8
0
10
236.9714564
20
-133.8217465
11
236.9711946
21
-133.831743
0
LINE
8
0
10
237.4685567
20
-114.8382539
11
240.4625304
21
-114.9166539
0
LINE
8
0
10
240.472527
20
-114.9169156
11
243.066669
21
-114.9848456
0
LINE
8
0
10
243.0669308
20
-114.9748492
11
240.4727888
21
-114.9069191
0
LINE
8
0
10
240.4627922
20
-114.9066574
11
237.4688185
21
-114.8282574
0
LINE
8
0
10
237.4688185
20
-114.8282574
11
237.4685567
21
-114.8382539
0
LINE
8
0
10
256.5877487
20
-158.3012717
11
259.5798982
21
-158.4319118
0
LINE
8
0
10
259.5898887
20
-158.4323479
11
262.18245
21
-158.5455417
0
LINE
8
0
10
262.1828862
20
-158.5355511
11
259.5903248
21
-158.4223574
0
LINE
8
0
10
259.5803343
20
-158.4219213
11
256.5881849
21
-158.2912812
0
LINE
8
0
10
256.5881849
20
-158.2912812
11
256.5877487
21
-158.3012717
0
LINE
8
0
10
257.4165171
20
-139.3193555
11
260.4086666
21
-139.4499956
0
LINE
8
0
10
260.4186571
20
-139.4504317
11
263.0112184
21
-139.5636255
0
LINE
8
0
10
263.0116546
20
-139.5536349
11
260.4190932
21
-139.4404412
0
LINE
8
0
10
260.4091027
20
-139.4400051
11
257.4169533
21
-139.309365
0
LINE
8
0
10
257.4169533
20
-139.309365
11
257.4165171
21
-139.3193555
0
LINE
8
0
10
258.2452854
20
-120.3374392
11
261.2374349
21
-120.4680793
0
LINE
8
0
10
261.2474254
20
-120.4685154
11
263.8399867
21
-120.5817092
0
LINE
8
0
10
263.8404229
20
-120.5717186
11
261.2478615
21
-120.4585249
0
LINE
8
0
10
261.237871
20
-120.4580888
11
258.2457216
21
-120.3274487
0
LINE
8
0
10
258.2457216
20
-120.3274487
11
258.2452854
21
-120.3374392
0
LINE
8
0
10
216.3639254
20
-169.1560454
11
219.3588113
21
-169.1299094
0
LINE
8
0
10
219.3688109
20
-169.1298222
11
221.9637434
21
-169.1071766
0
LINE
8
0
10
221.9636561
20
-169.0971769
11
219.3687237
21
-169.1198226
0
LINE
8
0
10
219.3587241
20
-169.1199098
11
216.3638381
21
-169.1460458
0
LINE
8
0
10
216.3638381
20
-169.1460458
11
216.3639254
21
-169.1560454
0
LINE
8
0
10
236.1443032
20
-172.3963028
11
239.1382769
21
-172.4747028
0
LINE
8
0
10
239.1482735
20
-172.4749645
11
241.7424155
21
-172.5428945
0
LINE
8
0
10
241.7426773
20
-172.5328981
11
239.1485353
21
-172.464968
0
LINE
8
0
10
239.1385387
20
-172.4647063
11
236.144565
21
-172.3863063
0
LINE
8
0
10
236.144565
20
-172.3863063
11
236.1443032
21
-172.3963028
0
LINE
8
0
10
256.0446615
20
-178.5350381
11
259.006764
21
-178.9777273
0
LINE
8
0
10
259.0166542
20
-178.9792054
11
261.5831812
21
-179.3627754
0
LINE
8
0
10
261.5846593
20
-179.3528854
11
259.0181322
21
-178.9693153
0
LINE
8
0
10
259.008242
20
-178.9678372
11
256.0461396
21
-178.525148
0
LINE
8
0
10
256.0461396
20
-178.525148
11
256.0446615
21
-178.5350381
0
LINE
8
0
10
276.4345026
20
-182.4463116
11
279.3341048
21
-183.1961998
0
LINE
8
0
10
279.3437862
20
-183.1987035
11
281.8561596
21
-183.8484476
0
LINE
8
0
10
281.8586634
20
-183.838766
11
279.34629
21
-183.189022
0
LINE
8
0
10
279.3366086
20
-183.1865183
11
276.4370064
21
-182.4366301
0
LINE
8
0
10
276.4370064
20
-182.4366301
11
276.4345026
21
-182.4463116
0
LINE
8
0
10
180.0789284
20
-167.1892029
11
180.0888641
21
-167.1880709
0
LINE
8
0
10
180.0888641
20
-167.1880709
11
179.8630237
21
-165.205895
0
LINE
8
0
10
179.8618916
20
-165.1959593
11
179.6813289
21
-163.6111812
0
LINE
8
0
10
179.6713933
20
-163.6123132
11
179.8519559
21
-165.1970914
0
LINE
8
0
10
179.853088
20
-165.2070271
11
180.0789284
21
-167.1892029
0
LINE
8
0
10
177.9280674
20
-148.3113376
11
177.9380031
21
-148.3102056
0
LINE
8
0
10
177.9380031
20
-148.3102056
11
177.7121627
21
-146.3280297
0
LINE
8
0
10
177.7110306
20
-146.318094
11
177.5304679
21
-144.7333159
0
LINE
8
0
10
177.5205323
20
-144.7344479
11
177.7010949
21
-146.3192261
0
LINE
8
0
10
177.702227
20
-146.3291618
11
177.9280674
21
-148.3113376
0
LINE
8
0
10
175.7772063
20
-129.4334724
11
175.787142
21
-129.4323404
0
LINE
8
0
10
175.787142
20
-129.4323404
11
175.5613016
21
-127.4501645
0
LINE
8
0
10
175.5601695
20
-127.4402288
11
175.3796068
21
-125.8554507
0
LINE
8
0
10
175.3696712
20
-125.8565827
11
175.5502338
21
-127.4413609
0
LINE
8
0
10
175.5513659
20
-127.4512966
11
175.7772063
21
-129.4334724
0
LINE
8
0
10
199.2671409
20
-157.9524396
11
199.2771314
21
-157.9520034
0
LINE
8
0
10
199.2771314
20
-157.9520034
11
199.1901107
21
-155.9589023
0
LINE
8
0
10
199.1896746
20
-155.9489118
11
199.1201003
21
-154.3553987
0
LINE
8
0
10
199.1101097
20
-154.3558349
11
199.1796841
21
-155.9493479
0
LINE
8
0
10
199.1801202
20
-155.9593384
11
199.2671409
21
-157.9524396
0
LINE
8
0
10
198.4383726
20
-138.9705233
11
198.4483631
21
-138.9700871
0
LINE
8
0
10
198.4483631
20
-138.9700871
11
198.3613424
21
-136.976986
0
LINE
8
0
10
198.3609063
20
-136.9669955
11
198.291332
21
-135.3734824
0
LINE
8
0
10
198.2813414
20
-135.3739186
11
198.3509158
21
-136.9674316
0
LINE
8
0
10
198.3513519
20
-136.9774221
11
198.4383726
21
-138.9705233
0
LINE
8
0
10
197.6096042
20
-119.9886071
11
197.6195947
21
-119.9881709
0
LINE
8
0
10
197.6195947
20
-119.9881709
11
197.532574
21
-117.9950698
0
LINE
8
0
10
197.5321379
20
-117.9850793
11
197.4625636
21
-116.3915662
0
LINE
8
0
10
197.452573
20
-116.3920024
11
197.5221474
21
-117.9855154
0
LINE
8
0
10
197.5225835
20
-117.9955059
11
197.6096042
21
-119.9886071
0
LINE
8
0
10
219.2099803
20
-152.0755589
11
219.2199799
21
-152.0754716
0
LINE
8
0
10
219.2199799
20
-152.0754716
11
219.2025704
21
-150.0805476
0
LINE
8
0
10
219.2024832
20
-150.070548
11
219.1885641
21
-148.4755775
0
LINE
8
0
10
219.1785644
20
-148.4756648
11
219.1924836
21
-150.0706352
0
LINE
8
0
10
219.1925708
20
-150.0806348
11
219.2099803
21
-152.0755589
0
LINE
8
0
10
219.0441761
20
-133.0762823
11
219.0541757
21
-133.076195
0
LINE
8
0
10
219.0541757
20
-133.076195
11
219.0367662
21
-131.081271
0
LINE
8
0
10
219.036679
20
-131.0712714
11
219.0227599
21
-129.4763009
0
LINE
8
0
10
219.0127602
20
-129.4763882
11
219.0266794
21
-131.0713586
0
LINE
8
0
10
219.0267666
20
-131.0813582
11
219.0441761
21
-133.0762823
0
LINE
8
0
10
218.8783719
20
-114.0770058
11
218.8883715
21
-114.0769185
0
LINE
8
0
10
218.8883715
20
-114.0769185
11
218.870962
21
-112.0819945
0
LINE
8
0
10
218.8708748
20
-112.0719949
11
218.8569557
21
-110.4770244
0
LINE
8
0
10
218.846956
20
-110.4771117
11
218.8608752
21
-112.0720821
0
LINE
8
0
10
218.8609624
20
-112.0820817
11
218.8783719
21
-114.0770058
0
LINE
8
0
10
239.4155833
20
-154.8979486
11
239.4255799
21
-154.8982103
0
LINE
8
0
10
239.4255799
20
-154.8982103
11
239.4778029
21
-152.9038939
0
LINE
8
0
10
239.4780647
20
-152.8938974
11
239.5198177
21
-151.2994128
0
LINE
8
0
10
239.5098212
20
-151.299151
11
239.4680681
21
-152.8936357
0
LINE
8
0
10
239.4678063
20
-152.9036322
11
239.4155833
21
-154.8979486
0
LINE
8
0
10
239.9129453
20
-135.9044594
11
239.9229419
21
-135.9047211
0
LINE
8
0
10
239.9229419
20
-135.9047211
11
239.9751649
21
-133.9104047
0
LINE
8
0
10
239.9754267
20
-133.9004082
11
240.0171797
21
-132.3059236
0
LINE
8
0
10
240.0071832
20
-132.3056618
11
239.9654301
21
-133.9001465
0
LINE
8
0
10
239.9651683
20
-133.910143
11
239.9129453
21
-135.9044594
0
LINE
8
0
10
240.4103074
20
-116.9109703
11
240.420304
21
-116.911232
0
LINE
8
0
10
240.420304
20
-116.911232
11
240.472527
21
-114.9169156
0
LINE
8
0
10
240.4727888
20
-114.9069191
11
240.5145418
21
-113.3124345
0
LINE
8
0
10
240.5045453
20
-113.3121727
11
240.4627922
21
-114.9066574
0
LINE
8
0
10
240.4625304
20
-114.9166539
11
240.4103074
21
-116.9109703
0
LINE
8
0
10
259.4928775
20
-160.4250129
11
259.502868
21
-160.4254491
0
LINE
8
0
10
259.502868
20
-160.4254491
11
259.5898887
21
-158.4323479
0
LINE
8
0
10
259.5903248
20
-158.4223574
11
259.6598992
21
-156.8288444
0
LINE
8
0
10
259.6499086
20
-156.8284082
11
259.5803343
21
-158.4219213
0
LINE
8
0
10
259.5798982
20
-158.4319118
11
259.4928775
21
-160.4250129
0
LINE
8
0
10
260.3216459
20
-141.4430967
11
260.3316364
21
-141.4435329
0
LINE
8
0
10
260.3316364
20
-141.4435329
11
260.4186571
21
-139.4504317
0
LINE
8
0
10
260.4190932
20
-139.4404412
11
260.4886676
21
-137.8469282
0
LINE
8
0
10
260.478677
20
-137.846492
11
260.4091027
21
-139.4400051
0
LINE
8
0
10
260.4086666
20
-139.4499956
11
260.3216459
21
-141.4430967
0
LINE
8
0
10
261.1504142
20
-122.4611804
11
261.1604047
21
-122.4616166
0
LINE
8
0
10
261.1604047
20
-122.4616166
11
261.2474254
21
-120.4685154
0
LINE
8
0
10
261.2478615
20
-120.4585249
11
261.3174359
21
-118.8650119
0
LINE
8
0
10
261.3074453
20
-118.8645757
11
261.237871
21
-120.4580888
0
LINE
8
0
10
261.2374349
20
-120.4680793
11
261.1504142
21
-122.4611804
0
LINE
8
0
10
219.3762208
20
-171.1248335
11
219.3862204
21
-171.1247462
0
LINE
8
0
10
219.3862204
20
-171.1247462
11
219.3688109
21
-169.1298222
0
LINE
8
0
10
219.3687237
20
-169.1198226
11
219.3548046
21
-167.5248521
0
LINE
8
0
10
219.3448049
20
-167.5249394
11
219.3587241
21
-169.1199098
0
LINE
8
0
10
219.3588113
20
-169.1299094
11
219.3762208
21
-171.1248335
0
LINE
8
0
10
239.0860539
20
-174.4690192
11
239.0960505
21
-174.4692809
0
LINE
8
0
10
239.0960505
20
-174.4692809
11
239.1482735
21
-172.4749645
0
LINE
8
0
10
239.1485353
20
-172.464968
11
239.1902883
21
-170.8704834
0
LINE
8
0
10
239.1802918
20
-170.8702216
11
239.1385387
21
-172.4647063
0
LINE
8
0
10
239.1382769
20
-172.4747028
11
239.0860539
21
-174.4690192
0
LINE
8
0
10
258.7118842
20
-180.950814
11
258.7217744
21
-180.9522921
0
LINE
8
0
10
258.7217744
20
-180.9522921
11
259.0166542
21
-178.9792054
0
LINE
8
0
10
259.0181322
20
-178.9693153
11
259.2538928
21
-177.3918041
0
LINE
8
0
10
259.2440027
20
-177.390326
11
259.008242
21
-178.9678372
0
LINE
8
0
10
259.006764
20
-178.9777273
11
258.7118842
21
-180.950814
0
LINE
8
0
10
278.8345967
20
-185.1276543
11
278.8442781
21
-185.1301581
0
LINE
8
0
10
278.8442781
20
-185.1301581
11
279.3437862
21
-183.1987035
0
LINE
8
0
10
279.34629
20
-183.189022
11
279.745654
21
-181.6447963
0
LINE
8
0
10
279.7359725
20
-181.6422925
11
279.3366086
21
-183.1865183
0
LINE
8
0
10
279.3341048
20
-183.1961998
11
278.8345967
21
-185.1276543
0
ARC
8
0
10
182.8382054
20
-164.8618836
40
0.4
50
187.2162003
51
545.7837859
0
ARC
8
0
10
180.6873444
20
-145.9840183
40
0.4
50
187.2162003
51
545.7837859
0
ARC
8
0
10
178.5364833
20
-127.1061531
40
0.4
50
187.2162003
51
545.7837859
0
ARC
8
0
10
202.1820421
20
-155.8232669
40
0.4
50
183.2162253
51
541.7837767
0
ARC
8
0
10
201.3532738
20
-136.8413506
40
0.4
50
183.2162253
51
541.7837767
0
ARC
8
0
10
200.5245054
20
-117.8594344
40
0.4
50
183.2162253
51
541.7837767
0
ARC
8
0
10
222.1974128
20
-150.0494118
40
0.4
50
181.2162229
51
539.7837796
0
ARC
8
0
10
222.0316086
20
-131.0501352
40
0.4
50
181.2162229
51
539.7837796
0
ARC
8
0
10
221.8658044
20
-112.0508587
40
0.4
50
181.2162229
51
539.7837796
0
ARC
8
0
10
242.4719075
20
-152.9772956
40
0.4
50
179.2162123
51
537.7838052
0
ARC
8
0
10
242.9692695
20
-133.9838064
40
0.4
50
179.2162123
51
537.7838052
0
ARC
8
0
10
243.4666316
20
-114.9903173
40
0.4
50
179.2162123
51
537.7838052
0
ARC
8
0
10
262.5822562
20
-158.5579928
40
0.4
50
178.2162233
51
536.7837747
0
ARC
8
0
10
263.4110246
20
-139.5760766
40
0.4
50
178.2162233
51
536.7837747
0
ARC
8
0
10
264.2397929
20
-120.5941603
40
0.4
50
178.2162233
51
536.7837747
0
ARC
8
0
10
222.3636533
20
-169.0986864
40
0.4
50
181.2162229
51
539.7837796
0
ARC
8
0
10
242.1423781
20
-172.5483662
40
0.4
50
179.2162123
51
537.7838052
0
ARC
8
0
10
261.9794957
20
-179.4169495
40
0.4
50
172.2162114
51
530.7838019
0
ARC
8
0
10
282.2446403
20
-183.9437509
40
0.4
50
166.2162352
51
524.7837862
0
ARC
8
0
10
179.6310834
20
-163.2143495
40
0.4
50
277.2162003
51
635.7837859
0
ARC
8
0
10
177.4802224
20
-144.3364842
40
0.4
50
277.2162003
51
635.7837859
0
ARC
8
0
10
175.3293613
20
-125.458619
40
0.4
50
277.2162003
51
635.7837859
0
ARC
8
0
10
199.0976586
20
-153.9560287
40
0.4
50
273.2162253
51
631.7837767
0
ARC
8
0
10
198.2688903
20
-134.9741124
40
0.4
50
273.2162253
51
631.7837767
0
ARC
8
0
10
197.4401219
20
-115.9921962
40
0.4
50
273.2162253
51
631.7837767
0
ARC
8
0
10
219.1800739
20
-148.0756676
40
0.4
50
271.2162229
51
629.7837796
0
ARC
8
0
10
219.0142697
20
-129.076391
40
0.4
50
271.2162229
51
629.7837796
0
ARC
8
0
10
218.8484655
20
-110.0771145
40
0.4
50
271.2162229
51
629.7837796
0
ARC
8
0
10
239.5252894
20
-150.8994502
40
0.4
50
269.2162123
51
627.7837909
0
ARC
8
0
10
240.0226514
20
-131.905961
40
0.4
50
269.2162123
51
627.7837909
0
ARC
8
0
10
240.5200135
20
-112.9124719
40
0.4
50
269.2162123
51
627.7837909
0
ARC
8
0
10
259.6723503
20
-156.4290382
40
0.4
50
268.2162233
51
626.7837747
0
ARC
8
0
10
260.5011187
20
-137.447122
40
0.4
50
268.2162233
51
626.7837747
0
ARC
8
0
10
261.329887
20
-118.4652057
40
0.4
50
268.2162233
51
626.7837747
0
ARC
8
0
10
219.3463144
20
-167.1249422
40
0.4
50
271.2162229
51
629.7837796
0
ARC
8
0
10
239.19576
20
-170.4705208
40
0.4
50
269.2162123
51
627.7837909
0
ARC
8
0
10
259.3080669
20
-176.9954896
40
0.4
50
262.2162114
51
620.7837878
0
ARC
8
0
10
279.8409574
20
-181.2563156
40
0.4
50
256.2162213
51
614.7837862
0
LINE
8
0
10
171.4939877
20
-175.7158564
11
190.371853
21
-173.5649953
0
LINE
8
0
10
183.9192698
20
-116.9313995
11
190.371853
21
-173.5649953
0
LINE
8
0
10
165.0414045
20
-119.0822606
11
171.4939877
21
-175.7158564
0
LINE
8
0
10
183.9192698
20
-116.9313995
11
165.0414045
21
-119.0822606
0
LINE
8
0
10
190.1083235
20
-165.8594674
11
209.0902397
21
-165.030699
0
LINE
8
0
10
209.0902397
20
-165.030699
11
208.2614713
21
-146.0487828
0
LINE
8
0
10
189.2795551
20
-146.8775512
11
208.2614714
21
-146.0487827
0
LINE
8
0
10
189.2795551
20
-146.8775512
11
190.1083235
21
-165.8594674
0
LINE
8
0
10
206.6039346
20
-108.0849503
11
208.2614714
21
-146.0487827
0
LINE
8
0
10
187.6220184
20
-108.9137187
11
189.2795552
21
-146.8775511
0
LINE
8
0
10
206.6039346
20
-108.0849503
11
187.6220184
21
-108.9137187
0
LINE
8
0
10
209.7807908
20
-159.6581318
11
228.7800674
21
-159.4923276
0
LINE
8
0
10
228.2826548
20
-102.4944979
11
228.7800674
21
-159.4923276
0
LINE
8
0
10
209.2833782
20
-102.6603021
11
209.7807908
21
-159.6581318
0
LINE
8
0
10
228.2826548
20
-102.4944979
11
209.2833782
21
-102.6603021
0
LINE
8
0
10
229.7275099
20
-162.1468284
11
248.7209991
21
-162.6441904
0
LINE
8
0
10
248.7209991
20
-162.6441904
11
249.7157231
21
-124.657212
0
LINE
8
0
10
229.7275099
20
-162.1468284
11
230.7222339
21
-124.15985
0
LINE
8
0
10
230.7222339
20
-124.15985
11
249.7157232
21
-124.6572121
0
LINE
8
0
10
249.7157232
20
-124.6572121
11
250.2130852
21
-105.6637229
0
LINE
8
0
10
250.2130852
20
-105.6637229
11
231.219596
21
-105.1663609
0
LINE
8
0
10
231.219596
20
-105.1663609
11
230.722234
21
-124.1598501
0
LINE
8
0
10
249.6797692
20
-167.5037085
11
268.6616854
21
-168.3324769
0
LINE
8
0
10
268.6616854
20
-168.3324769
11
270.3192222
21
-130.3686445
0
LINE
8
0
10
249.6797692
20
-167.5037085
11
251.337306
21
-129.5398761
0
LINE
8
0
10
251.3373059
20
-129.539876
11
270.3192222
21
-130.3686445
0
LINE
8
0
10
270.3192221
20
-130.3686444
11
271.1479905
21
-111.3867282
0
LINE
8
0
10
271.1479905
20
-111.3867282
11
252.1660743
21
-110.5579598
0
LINE
8
0
10
252.1660743
20
-110.5579598
11
251.3373059
21
-129.539876
0
LINE
8
0
10
209.9470313
20
-178.7074064
11
228.9463079
21
-178.5416022
0
LINE
8
0
10
228.9463079
20
-178.5416022
11
228.7805037
21
-159.5423256
0
LINE
8
0
10
228.7805037
20
-159.5423256
11
209.7812271
21
-159.7081298
0
LINE
8
0
10
209.7812271
20
-159.7081298
11
209.9470313
21
-178.7074064
0
LINE
8
0
10
229.3979805
20
-181.717899
11
248.3914697
21
-182.215261
0
LINE
8
0
10
248.3914697
20
-182.215261
11
248.8888317
21
-163.2217718
0
LINE
8
0
10
248.8888317
20
-163.2217718
11
229.8953425
21
-162.7244098
0
LINE
8
0
10
229.8953425
20
-162.7244098
11
229.3979805
21
-181.717899
0
LINE
8
0
10
248.212608
20
-186.9649826
11
267.0039094
21
-189.7733614
0
LINE
8
0
10
267.0039094
20
-189.7733614
11
269.8122882
21
-170.98206
0
LINE
8
0
10
269.8122882
20
-170.98206
11
251.0209868
21
-168.1736812
0
LINE
8
0
10
251.0209868
20
-168.1736812
11
248.212608
21
-186.9649826
0
LINE
8
0
10
267.7641848
20
-190.0114034
11
286.1589899
21
-194.7686235
0
LINE
8
0
10
286.1589899
20
-194.7686235
11
290.91621
21
-176.3738184
0
LINE
8
0
10
290.91621
20
-176.3738184
11
272.5214049
21
-171.6165983
0
LINE
8
0
10
272.5214049
20
-171.6165983
11
267.7641848
21
-190.0114034
0
LINE
8
0
10
173.6949093
20
-172.9489187
11
187.6049153
21
-171.3640737
0
LINE
8
0
10
186.0200703
20
-157.4540677
11
187.6049153
21
-171.3640737
0
LINE
8
0
10
172.1100643
20
-159.0389127
11
186.0200703
21
-157.4540677
0
LINE
8
0
10
172.1100643
20
-159.0389127
11
173.6949093
21
-172.9489187
0
LINE
8
0
10
171.5440483
20
-154.0710534
11
185.4540543
21
-152.4862084
0
LINE
8
0
10
183.8692093
20
-138.5762024
11
185.4540543
21
-152.4862084
0
LINE
8
0
10
169.9592033
20
-140.1610474
11
183.8692093
21
-138.5762024
0
LINE
8
0
10
169.9592033
20
-140.1610474
11
171.5440483
21
-154.0710534
0
LINE
8
0
10
169.3931872
20
-135.1931882
11
183.3031932
21
-133.6083432
0
LINE
8
0
10
181.7183482
20
-119.6983372
11
183.3031932
21
-133.6083432
0
LINE
8
0
10
167.8083422
20
-121.2831822
11
181.7183482
21
-119.6983372
0
LINE
8
0
10
167.8083422
20
-121.2831822
11
169.3931872
21
-135.1931882
0
LINE
8
0
10
192.4968956
20
-163.2527984
11
206.4835707
21
-162.6421269
0
LINE
8
0
10
205.8728992
20
-148.6554518
11
206.4835707
21
-162.6421269
0
LINE
8
0
10
191.8862241
20
-149.2661233
11
205.8728992
21
-148.6554518
0
LINE
8
0
10
191.8862241
20
-149.2661233
11
192.4968956
21
-163.2527984
0
LINE
8
0
10
191.6681273
20
-144.2708821
11
205.6548024
21
-143.6602106
0
LINE
8
0
10
205.0441309
20
-129.6735355
11
205.6548024
21
-143.6602106
0
LINE
8
0
10
191.0574558
20
-130.284207
11
205.0441309
21
-129.6735355
0
LINE
8
0
10
191.0574558
20
-130.284207
11
191.6681273
21
-144.2708821
0
LINE
8
0
10
190.8393589
20
-125.2889659
11
204.826034
21
-124.6782944
0
LINE
8
0
10
204.2153625
20
-110.6916193
11
204.826034
21
-124.6782944
0
LINE
8
0
10
190.2286874
20
-111.3022908
11
204.2153625
21
-110.6916193
0
LINE
8
0
10
190.2286874
20
-111.3022908
11
190.8393589
21
-125.2889659
0
LINE
8
0
10
212.2588793
20
-157.1364106
11
226.2583462
21
-157.0142391
0
LINE
8
0
10
226.1361747
20
-143.0147722
11
226.2583462
21
-157.0142391
0
LINE
8
0
10
212.1367078
20
-143.1369437
11
226.1361747
21
-143.0147722
0
LINE
8
0
10
212.1367078
20
-143.1369437
11
212.2588793
21
-157.1364106
0
LINE
8
0
10
212.0930751
20
-138.137134
11
226.092542
21
-138.0149625
0
LINE
8
0
10
225.9703705
20
-124.0154956
11
226.092542
21
-138.0149625
0
LINE
8
0
10
211.9709036
20
-124.1376671
11
225.9703705
21
-124.0154956
0
LINE
8
0
10
211.9709036
20
-124.1376671
11
212.0930751
21
-138.137134
0
LINE
8
0
10
211.9272709
20
-119.1378575
11
225.9267378
21
-119.015686
0
LINE
8
0
10
225.8045663
20
-105.0162191
11
225.9267378
21
-119.015686
0
LINE
8
0
10
211.8050994
20
-105.1383906
11
225.8045663
21
-105.0162191
0
LINE
8
0
10
211.8050994
20
-105.1383906
11
211.9272709
21
-119.1378575
0
LINE
8
0
10
232.2920956
20
-159.7131274
11
246.2872981
21
-160.0796047
0
LINE
8
0
10
246.2872981
20
-160.0796047
11
246.6537754
21
-146.0844022
0
LINE
8
0
10
232.6585729
20
-145.7179249
11
246.6537754
21
-146.0844022
0
LINE
8
0
10
232.2920956
20
-159.7131274
11
232.6585729
21
-145.7179249
0
LINE
8
0
10
232.7894576
20
-140.7196382
11
246.7846601
21
-141.0861155
0
LINE
8
0
10
246.7846601
20
-141.0861155
11
247.1511374
21
-127.090913
0
LINE
8
0
10
233.1559349
20
-126.7244357
11
247.1511374
21
-127.090913
0
LINE
8
0
10
232.7894576
20
-140.7196382
11
233.1559349
21
-126.7244357
0
LINE
8
0
10
233.2868197
20
-121.7261491
11
247.2820222
21
-122.0926264
0
LINE
8
0
10
247.2820222
20
-122.0926264
11
247.6484995
21
-108.0974239
0
LINE
8
0
10
233.653297
20
-107.7309466
11
247.6484995
21
-108.0974239
0
LINE
8
0
10
233.2868197
20
-121.7261491
11
233.653297
21
-107.7309466
0
LINE
8
0
10
252.2864382
20
-165.1151364
11
266.2731133
21
-165.7258079
0
LINE
8
0
10
266.2731133
20
-165.7258079
11
266.8837848
21
-151.7391328
0
LINE
8
0
10
252.8971097
20
-151.1284613
11
266.8837848
21
-151.7391328
0
LINE
8
0
10
252.2864382
20
-165.1151364
11
252.8971097
21
-151.1284613
0
LINE
8
0
10
253.1152066
20
-146.1332202
11
267.1018817
21
-146.7438917
0
LINE
8
0
10
267.1018817
20
-146.7438917
11
267.7125532
21
-132.7572166
0
LINE
8
0
10
253.7258781
20
-132.1465451
11
267.7125532
21
-132.7572166
0
LINE
8
0
10
253.1152066
20
-146.1332202
11
253.7258781
21
-132.1465451
0
LINE
8
0
10
253.9439749
20
-127.1513039
11
267.93065
21
-127.7619754
0
LINE
8
0
10
267.93065
20
-127.7619754
11
268.5413215
21
-113.7753003
0
LINE
8
0
10
254.5546464
20
-113.1646288
11
268.5413215
21
-113.7753003
0
LINE
8
0
10
253.9439749
20
-127.1513039
11
254.5546464
21
-113.1646288
0
LINE
8
0
10
212.4251198
20
-176.1856852
11
226.4245867
21
-176.0635137
0
LINE
8
0
10
226.3024152
20
-162.0640468
11
226.4245867
21
-176.0635137
0
LINE
8
0
10
212.3029483
20
-162.1862183
11
226.3024152
21
-162.0640468
0
LINE
8
0
10
212.3029483
20
-162.1862183
11
212.4251198
21
-176.1856852
0
LINE
8
0
10
231.9625662
20
-179.284198
11
245.9577687
21
-179.6506753
0
LINE
8
0
10
245.9577687
20
-179.6506753
11
246.324246
21
-165.6554728
0
LINE
8
0
10
232.3290435
20
-165.2889955
11
246.324246
21
-165.6554728
0
LINE
8
0
10
231.9625662
20
-179.284198
11
232.3290435
21
-165.2889955
0
LINE
8
0
10
251.0546712
20
-184.8619665
11
264.9008933
21
-186.9312982
0
LINE
8
0
10
264.9008933
20
-186.9312982
11
266.970225
21
-173.0850761
0
LINE
8
0
10
253.1240029
20
-171.0157444
11
266.970225
21
-173.0850761
0
LINE
8
0
10
251.0546712
20
-184.8619665
11
253.1240029
21
-171.0157444
0
LINE
8
0
10
270.8105039
20
-188.2169844
11
284.3645709
21
-191.7223044
0
LINE
8
0
10
284.3645709
20
-191.7223044
11
287.8698909
21
-178.1682374
0
LINE
8
0
10
274.3158239
20
-174.6629174
11
287.8698909
21
-178.1682374
0
LINE
8
0
10
270.8105039
20
-188.2169844
11
274.3158239
21
-174.6629174
0
LINE
8
0
10
171.934172
20
-175.1624688
11
189.8184654
21
-173.124811
0
LINE
8
0
10
189.8184654
20
-173.124811
11
187.7808076
21
-155.2405176
0
LINE
8
0
10
187.7808076
20
-155.2405176
11
169.8965142
21
-157.2781754
0
LINE
8
0
10
169.8965142
20
-157.2781754
11
171.934172
21
-175.1624688
0
LINE
8
0
10
169.783311
20
-156.2846035
11
187.6676044
21
-154.2469457
0
LINE
8
0
10
187.6676044
20
-154.2469457
11
185.6299466
21
-136.3626523
0
LINE
8
0
10
185.6299466
20
-136.3626523
11
167.7456532
21
-138.4003101
0
LINE
8
0
10
167.7456532
20
-138.4003101
11
169.783311
21
-156.2846035
0
LINE
8
0
10
167.6324499
20
-137.4067383
11
185.5167433
21
-135.3690805
0
LINE
8
0
10
185.5167433
20
-135.3690805
11
183.4790855
21
-117.4847871
0
LINE
8
0
10
183.4790855
20
-117.4847871
11
165.5947921
21
-119.5224449
0
LINE
8
0
10
165.5947921
20
-119.5224449
11
167.6324499
21
-137.4067383
0
LINE
8
0
10
190.5860379
20
-165.3381336
11
208.5689059
21
-164.5529846
0
LINE
8
0
10
208.5689059
20
-164.5529846
11
207.7837569
21
-146.5701166
0
LINE
8
0
10
207.7837569
20
-146.5701166
11
189.8008889
21
-147.3552656
0
LINE
8
0
10
189.8008889
20
-147.3552656
11
190.5860379
21
-165.3381336
0
LINE
8
0
10
189.7572696
20
-146.3562173
11
207.7401376
21
-145.5710683
0
LINE
8
0
10
207.7401376
20
-145.5710683
11
206.9549886
21
-127.5882003
0
LINE
8
0
10
206.9549886
20
-127.5882003
11
188.9721206
21
-128.3733493
0
LINE
8
0
10
188.9721206
20
-128.3733493
11
189.7572696
21
-146.3562173
0
LINE
8
0
10
188.9285012
20
-127.3743011
11
206.9113692
21
-126.5891521
0
LINE
8
0
10
206.9113692
20
-126.5891521
11
206.1262202
21
-108.6062841
0
LINE
8
0
10
206.1262202
20
-108.6062841
11
188.1433522
21
-109.3914331
0
LINE
8
0
10
188.1433522
20
-109.3914331
11
188.9285012
21
-127.3743011
0
LINE
8
0
10
210.2764085
20
-159.1537875
11
228.2757231
21
-158.9967099
0
LINE
8
0
10
228.2757231
20
-158.9967099
11
228.1186455
21
-140.9973953
0
LINE
8
0
10
228.1186455
20
-140.9973953
11
210.1193309
21
-141.1544729
0
LINE
8
0
10
210.1193309
20
-141.1544729
11
210.2764085
21
-159.1537875
0
LINE
8
0
10
210.1106043
20
-140.1545109
11
228.1099189
21
-139.9974333
0
LINE
8
0
10
228.1099189
20
-139.9974333
11
227.9528413
21
-121.9981187
0
LINE
8
0
10
227.9528413
20
-121.9981187
11
209.9535267
21
-122.1551963
0
LINE
8
0
10
209.9535267
20
-122.1551963
11
210.1106043
21
-140.1545109
0
LINE
8
0
10
209.9448001
20
-121.1552344
11
227.9441147
21
-120.9981568
0
LINE
8
0
10
227.9441147
20
-120.9981568
11
227.7870371
21
-102.9988422
0
LINE
8
0
10
227.7870371
20
-102.9988422
11
209.7877225
21
-103.1559198
0
LINE
8
0
10
209.7877225
20
-103.1559198
11
209.9448001
21
-121.1552344
0
LINE
8
0
10
230.240427
20
-161.6600882
11
248.2342589
21
-162.1312733
0
LINE
8
0
10
248.2342589
20
-162.1312733
11
248.705444
21
-144.1374414
0
LINE
8
0
10
248.705444
20
-144.1374414
11
230.7116121
21
-143.6662563
0
LINE
8
0
10
230.7116121
20
-143.6662563
11
230.240427
21
-161.6600882
0
LINE
8
0
10
230.737789
20
-142.666599
11
248.7316209
21
-143.1377841
0
LINE
8
0
10
248.7316209
20
-143.1377841
11
249.202806
21
-125.1439522
0
LINE
8
0
10
249.202806
20
-125.1439522
11
231.2089741
21
-124.6727671
0
LINE
8
0
10
231.2089741
20
-124.6727671
11
230.737789
21
-142.666599
0
LINE
8
0
10
231.2351511
20
-123.6731099
11
249.228983
21
-124.144295
0
LINE
8
0
10
249.228983
20
-124.144295
11
249.7001681
21
-106.1504631
0
LINE
8
0
10
249.7001681
20
-106.1504631
11
231.7063362
21
-105.679278
0
LINE
8
0
10
231.7063362
20
-105.679278
11
231.2351511
21
-123.6731099
0
LINE
8
0
10
250.201103
20
-167.0259941
11
268.183971
21
-167.8111431
0
LINE
8
0
10
268.183971
20
-167.8111431
11
268.96912
21
-149.8282751
0
LINE
8
0
10
268.96912
20
-149.8282751
11
250.986252
21
-149.0431261
0
LINE
8
0
10
250.986252
20
-149.0431261
11
250.201103
21
-167.0259941
0
LINE
8
0
10
251.0298714
20
-148.0440779
11
269.0127394
21
-148.8292269
0
LINE
8
0
10
269.0127394
20
-148.8292269
11
269.7978884
21
-130.8463589
0
LINE
8
0
10
269.7978884
20
-130.8463589
11
251.8150204
21
-130.0612099
0
LINE
8
0
10
251.8150204
20
-130.0612099
11
251.0298714
21
-148.0440779
0
LINE
8
0
10
251.8586397
20
-129.0621616
11
269.8415077
21
-129.8473106
0
LINE
8
0
10
269.8415077
20
-129.8473106
11
270.6266567
21
-111.8644426
0
LINE
8
0
10
270.6266567
20
-111.8644426
11
252.6437887
21
-111.0792936
0
LINE
8
0
10
252.6437887
20
-111.0792936
11
251.8586397
21
-129.0621616
0
LINE
8
0
10
210.442649
20
-178.2030621
11
228.4419636
21
-178.0459845
0
LINE
8
0
10
228.4419636
20
-178.0459845
11
228.284886
21
-160.0466699
0
LINE
8
0
10
228.284886
20
-160.0466699
11
210.2855714
21
-160.2037475
0
LINE
8
0
10
210.2855714
20
-160.2037475
11
210.442649
21
-178.2030621
0
LINE
8
0
10
229.9108976
20
-181.2311588
11
247.9047295
21
-181.7023439
0
LINE
8
0
10
247.9047295
20
-181.7023439
11
248.3759146
21
-163.708512
0
LINE
8
0
10
248.3759146
20
-163.708512
11
230.3820827
21
-163.2373269
0
LINE
8
0
10
230.3820827
20
-163.2373269
11
229.9108976
21
-181.2311588
0
LINE
8
0
10
248.7810206
20
-186.5443794
11
266.5833062
21
-189.2049488
0
LINE
8
0
10
266.5833062
20
-189.2049488
11
269.2438756
21
-171.4026632
0
LINE
8
0
10
269.2438756
20
-171.4026632
11
251.44159
21
-168.7420938
0
LINE
8
0
10
251.44159
20
-168.7420938
11
248.7810206
21
-186.5443794
0
LINE
8
0
10
268.3734486
20
-189.6525196
11
285.8001061
21
-194.1593597
0
LINE
8
0
10
285.8001061
20
-194.1593597
11
290.3069462
21
-176.7327022
0
LINE
8
0
10
290.3069462
20
-176.7327022
11
272.8802887
21
-172.2258621
0
LINE
8
0
10
272.8802887
20
-172.2258621
11
268.3734486
21
-189.6525196
0
LINE
8
0
10
171.7203941
20
-177.7030001
11
190.5982594
21
-175.552139
0
ARC
8
0
10
190.371853
20
-173.5649953
40
2
50
276.5000001
51
366.4999993
0
LINE
8
0
10
192.3589967
20
-173.3385889
11
191.7268951
21
-167.7907044
0
LINE
8
0
10
191.7268951
20
-167.7907044
11
207.845545
21
-167.0869489
0
LINE
8
0
10
207.845545
20
-167.0869489
11
207.9471075
21
-178.7248595
0
ARC
8
0
10
209.9470313
20
-178.7074064
40
2
50
180.5000008
51
270.5000001
0
LINE
8
0
10
209.9644844
20
-180.7073302
11
227.4277483
21
-180.5549307
0
LINE
8
0
10
227.4277483
20
-180.5549307
11
227.3986658
21
-181.6655451
0
ARC
8
0
10
229.3979805
20
-181.717899
40
2
50
178.4999999
51
268.5000001
0
LINE
8
0
10
229.3456266
20
-183.7172137
11
246.6082207
21
-184.1692506
0
LINE
8
0
10
246.6082207
20
-184.1692506
11
246.2345763
21
-186.6693638
0
ARC
8
0
10
248.212608
20
-186.9649826
40
2
50
171.5000005
51
261.5
0
LINE
8
0
10
247.9169892
20
-188.9430143
11
266.7082906
21
-191.7513931
0
ARC
8
0
10
267.0039094
20
-189.7733614
40
2
50
261.5
51
264.1029541
0
ARC
8
0
10
267.7641848
20
-190.0114034
40
2
50
241.1263994
51
255.4999999
0
LINE
8
0
10
267.2634248
20
-191.9476987
11
285.6582299
21
-196.7049188
0
ARC
8
0
10
286.1589899
20
-194.7686235
40
2
50
255.4999999
51
345.5000004
0
LINE
8
0
10
288.0952852
20
-195.2693835
11
292.8525053
21
-176.8745784
0
ARC
8
0
10
290.91621
20
-176.3738184
40
2
50
345.4999999
51
358.2091007
0
LINE
8
0
10
294.7690251
20
-117.1477948
11
292.9152331
21
-176.4363224
0
ARC
8
0
10
292.770002
20
-117.0852908
40
2
50
358.2091003
51
87.5
0
LINE
8
0
10
273.0261336
20
-114.2213496
11
292.8572408
21
-115.0871944
0
LINE
8
0
10
273.0261336
20
-114.2213496
11
273.146087
21
-111.473967
0
ARC
8
0
10
271.1479905
20
-111.3867282
40
2
50
357.5000006
51
447.4999992
0
LINE
8
0
10
252.1380645
20
-108.5548315
11
271.2352293
21
-109.3886317
0
LINE
8
0
10
252.1380645
20
-108.5548315
11
252.2123999
21
-105.7160768
0
ARC
8
0
10
250.2130852
20
-105.6637229
40
2
50
358.5000001
51
448.4999983
0
LINE
8
0
10
230.2883754
20
-103.1412905
11
250.2654391
21
-103.6644082
0
LINE
8
0
10
230.2883754
20
-103.1412905
11
230.2825786
21
-102.4770448
0
ARC
8
0
10
228.2826548
20
-102.4944979
40
2
50
0.5000001
51
90.5000015
0
LINE
8
0
10
228.2652017
20
-100.4945741
11
209.2659251
21
-100.6603783
0
ARC
8
0
10
209.2833782
20
-102.6603021
40
2
50
90.5000001
51
180.5000008
0
LINE
8
0
10
207.2834544
20
-102.6777552
11
207.3129018
21
-106.0520907
0
LINE
8
0
10
187.5347796
20
-106.9156223
11
207.3129018
21
-106.0520907
0
ARC
8
0
10
187.6220184
20
-108.9137187
40
2
50
92.5000001
51
182.5000008
0
LINE
8
0
10
185.623922
20
-109.0009575
11
185.8725689
21
-114.6959097
0
LINE
8
0
10
164.8149981
20
-117.0951169
11
185.8725689
21
-114.6959097
0
ARC
8
0
10
165.0414045
20
-119.0822606
40
2
50
96.4999993
51
186.5
0
LINE
8
0
10
163.0542608
20
-119.308667
11
166.2239508
21
-147.1286789
0
LINE
8
0
10
166.2805525
20
-147.6254652
11
166.2239508
21
-147.1286793
0
LINE
8
0
10
166.3371539
20
-148.1222504
11
166.2805524
21
-147.6254644
0
LINE
8
0
10
166.337154
20
-148.1222508
11
169.506844
21
-175.9422628
0
ARC
8
0
10
171.4939877
20
-175.7158564
40
2
50
186.4999993
51
276.5000001
0
ENDSEC
0
EOF