0
SECTION
2
HEADER
9
$INSUNITS
70
4
0
ENDSEC
0
SECTION
2
TABLES
0
TABLE
2
LTYPE
0
LTYPE
72
65
70
64
2
CONTINUOUS
3
______
73
0
40
0
0
ENDTAB
0
TABLE
2
LAYER
0
ENDTAB
0
ENDSEC
0
SECTION
2
ENTITIES
0
LINE
8
0
10
175.1226904
20
-150.1457069
11
178.0984382
21
-149.8066633
0
LINE
8
0
10
178.1083739
20
-149.8055312
11
180.6867239
21
-149.5117653
0
LINE
8
0
10
180.6855919
20
-149.5018297
11
178.1072418
21
-149.7955955
0
LINE
8
0
10
178.0973061
20
-149.7967276
11
175.1215584
21
-150.1357712
0
LINE
8
0
10
175.1215584
20
-150.1357712
11
175.1226904
21
-150.1457069
0
LINE
8
0
10
173.1982358
20
-133.2549854
11
176.1739836
21
-132.9159418
0
LINE
8
0
10
176.1839193
20
-132.9148097
11
178.7622693
21
-132.6210438
0
LINE
8
0
10
178.7611373
20
-132.6111082
11
176.1827872
21
-132.904874
0
LINE
8
0
10
176.1728515
20
-132.9060061
11
173.1971038
21
-133.2450497
0
LINE
8
0
10
173.1971038
20
-133.2450497
11
173.1982358
21
-133.2549854
0
LINE
8
0
10
171.2737812
20
-116.3642638
11
174.249529
21
-116.0252202
0
LINE
8
0
10
174.2594647
20
-116.0240881
11
176.8378147
21
-115.7303222
0
LINE
8
0
10
176.8366827
20
-115.7203866
11
174.2583326
21
-116.0141524
0
LINE
8
0
10
174.2483969
20
-116.0152845
11
171.2726492
21
-116.3543281
0
LINE
8
0
10
171.2726492
20
-116.3543281
11
171.2737812
21
-116.3642638
0
LINE
8
0
10
193.1913562
20
-140.8311188
11
196.1835056
21
-140.7004787
0
LINE
8
0
10
196.1934961
20
-140.7000426
11
198.7860575
21
-140.5868489
0
LINE
8
0
10
198.7856213
20
-140.5768583
11
196.19306
21
-140.6900521
0
LINE
8
0
10
196.1830695
20
-140.6904882
11
193.19092
21
-140.8211283
0
LINE
8
0
10
193.19092
20
-140.8211283
11
193.1913562
21
-140.8311188
0
LINE
8
0
10
192.4498267
20
-123.8472989
11
195.4419761
21
-123.7166588
0
LINE
8
0
10
195.4519666
20
-123.7162227
11
198.044528
21
-123.603029
0
LINE
8
0
10
198.0440918
20
-123.5930384
11
195.4515305
21
-123.7062322
0
LINE
8
0
10
195.44154
20
-123.7066683
11
192.4493905
21
-123.8373084
0
LINE
8
0
10
192.4493905
20
-123.8373084
11
192.4498267
21
-123.8472989
0
LINE
8
0
10
191.7082971
20
-106.8634791
11
194.7004465
21
-106.732839
0
LINE
8
0
10
194.710437
20
-106.7324029
11
197.3029984
21
-106.6192092
0
LINE
8
0
10
197.3025622
20
-106.6092186
11
194.7100009
21
-106.7224124
0
LINE
8
0
10
194.7000104
20
-106.7228485
11
191.7078609
21
-106.8534886
0
LINE
8
0
10
191.7078609
20
-106.8534886
11
191.7082971
21
-106.8634791
0
LINE
8
0
10
211.9522599
20
-134.9024352
11
214.9471458
21
-134.8762992
0
LINE
8
0
10
214.9571454
20
-134.876212
11
217.5520779
21
-134.8535664
0
LINE
8
0
10
217.5519906
20
-134.8435667
11
214.9570582
21
-134.8662124
0
LINE
8
0
10
214.9470586
20
-134.8662996
11
211.9521726
21
-134.8924356
0
LINE
8
0
10
211.9521726
20
-134.8924356
11
211.9522599
21
-134.9024352
0
LINE
8
0
10
211.8039089
20
-117.9030826
11
214.7987948
21
-117.8769466
0
LINE
8
0
10
214.8087944
20
-117.8768594
11
217.4037269
21
-117.8542138
0
LINE
8
0
10
217.4036396
20
-117.8442141
11
214.8087072
21
-117.8668598
0
LINE
8
0
10
214.7987076
20
-117.866947
11
211.8038216
21
-117.893083
0
LINE
8
0
10
211.8038216
20
-117.893083
11
211.8039089
21
-117.9030826
0
LINE
8
0
10
211.6555578
20
-100.9037299
11
214.6504437
21
-100.8775939
0
LINE
8
0
10
214.6604433
20
-100.8775067
11
217.2553758
21
-100.8548611
0
LINE
8
0
10
217.2552885
20
-100.8448614
11
214.6603561
21
-100.8675071
0
LINE
8
0
10
214.6503565
20
-100.8675943
11
211.6554705
21
-100.8937303
0
LINE
8
0
10
211.6554705
20
-100.8937303
11
211.6555578
21
-100.9037299
0
LINE
8
0
10
230.9784554
20
-137.6318048
11
233.9724291
21
-137.7102048
0
LINE
8
0
10
233.9824257
20
-137.7104665
11
236.5765677
21
-137.7783965
0
LINE
8
0
10
236.5768295
20
-137.7684001
11
233.9826875
21
-137.70047
0
LINE
8
0
10
233.9726909
20
-137.7002083
11
230.9787172
21
-137.6218083
0
LINE
8
0
10
230.9787172
20
-137.6218083
11
230.9784554
21
-137.6318048
0
LINE
8
0
10
231.4234635
20
-120.6376303
11
234.4174372
21
-120.7160303
0
LINE
8
0
10
234.4274338
20
-120.716292
11
237.0215758
21
-120.784222
0
LINE
8
0
10
237.0218376
20
-120.7742256
11
234.4276956
21
-120.7062955
0
LINE
8
0
10
234.417699
20
-120.7060338
11
231.4237253
21
-120.6276338
0
LINE
8
0
10
231.4237253
20
-120.6276338
11
231.4234635
21
-120.6376303
0
LINE
8
0
10
231.8684716
20
-103.6434557
11
234.8624453
21
-103.7218557
0
LINE
8
0
10
234.8724419
20
-103.7221174
11
237.4665839
21
-103.7900474
0
LINE
8
0
10
237.4668457
20
-103.780051
11
234.8727037
21
-103.7121209
0
LINE
8
0
10
234.8627071
20
-103.7118592
11
231.8687334
21
-103.6334592
0
LINE
8
0
10
231.8687334
20
-103.6334592
11
231.8684716
21
-103.6434557
0
LINE
8
0
10
249.8427998
20
-143.0751233
11
252.8349493
21
-143.2057634
0
LINE
8
0
10
252.8449398
20
-143.2061995
11
255.4375011
21
-143.3193933
0
LINE
8
0
10
255.4379373
20
-143.3094027
11
252.8453759
21
-143.196209
0
LINE
8
0
10
252.8353854
20
-143.1957729
11
249.843236
21
-143.0651328
0
LINE
8
0
10
249.843236
20
-143.0651328
11
249.8427998
21
-143.0751233
0
LINE
8
0
10
250.5843294
20
-126.0913036
11
253.5764789
21
-126.2219437
0
LINE
8
0
10
253.5864694
20
-126.2223798
11
256.1790307
21
-126.3355736
0
LINE
8
0
10
256.1794669
20
-126.325583
11
253.5869055
21
-126.2123893
0
LINE
8
0
10
253.576915
20
-126.2119532
11
250.5847656
21
-126.0813131
0
LINE
8
0
10
250.5847656
20
-126.0813131
11
250.5843294
21
-126.0913036
0
LINE
8
0
10
251.325859
20
-109.1074838
11
254.3180085
21
-109.2381239
0
LINE
8
0
10
254.327999
20
-109.23856
11
256.9205603
21
-109.3517538
0
LINE
8
0
10
256.9209965
20
-109.3417632
11
254.3284351
21
-109.2285695
0
LINE
8
0
10
254.3184446
20
-109.2281334
11
251.3262952
21
-109.0974933
0
LINE
8
0
10
251.3262952
20
-109.0974933
11
251.325859
21
-109.1074838
0
LINE
8
0
10
222.9393357
20
-156.1026617
11
225.9333094
21
-156.1810617
0
LINE
8
0
10
225.943306
20
-156.1813234
11
228.537448
21
-156.2492534
0
LINE
8
0
10
228.5377098
20
-156.239257
11
225.9435678
21
-156.1713269
0
LINE
8
0
10
225.9335712
20
-156.1710652
11
222.9395975
21
-156.0926652
0
LINE
8
0
10
222.9395975
20
-156.0926652
11
222.9393357
21
-156.1026617
0
LINE
8
0
10
244.8523916
20
-161.2588497
11
247.806317
21
-161.7531673
0
LINE
8
0
10
247.8161798
20
-161.7548177
11
250.3756217
21
-162.1831214
0
LINE
8
0
10
250.3772722
20
-162.1732586
11
247.8178302
21
-161.7449549
0
LINE
8
0
10
247.8079674
20
-161.7433045
11
244.854042
21
-161.2489869
0
LINE
8
0
10
244.854042
20
-161.2489869
11
244.8523916
21
-161.2588497
0
LINE
8
0
10
269.7612299
20
-162.2956262
11
269.1129933
21
-165.2196327
0
LINE
8
0
10
269.1108288
20
-165.2293957
11
268.5491613
21
-167.7629143
0
LINE
8
0
10
268.5589242
20
-167.7650787
11
269.1205917
21
-165.2315601
0
LINE
8
0
10
269.1227562
20
-165.2217971
11
269.7709928
21
-162.2977906
0
LINE
8
0
10
269.7709928
20
-162.2977906
11
269.7612299
21
-162.2956262
0
LINE
8
0
10
181.9203363
20
-117.0919013
11
184.9061037
21
-116.8569162
0
LINE
8
0
10
184.9160729
20
-116.8561317
11
187.5031045
21
-116.6525279
0
LINE
8
0
10
187.5023199
20
-116.6425587
11
184.9152883
21
-116.8461625
0
LINE
8
0
10
184.9053191
20
-116.846947
11
181.9195517
21
-117.0819321
0
LINE
8
0
10
181.9195517
20
-117.0819321
11
181.9203363
21
-117.0919013
0
LINE
8
0
10
183.4887057
20
-137.019924
11
186.4744731
21
-136.7849389
0
LINE
8
0
10
186.4844423
20
-136.7841544
11
189.0714739
21
-136.5805506
0
LINE
8
0
10
189.0706893
20
-136.5705814
11
186.4836577
21
-136.7741852
0
LINE
8
0
10
186.4736885
20
-136.7749697
11
183.4879211
21
-137.0099548
0
LINE
8
0
10
183.4879211
20
-137.0099548
11
183.4887057
21
-137.019924
0
LINE
8
0
10
221.7353782
20
-105.2734754
11
224.7302642
21
-105.2996114
0
LINE
8
0
10
224.7402638
20
-105.2996986
11
227.3351962
21
-105.3223443
0
LINE
8
0
10
227.3352835
20
-105.3123446
11
224.740351
21
-105.289699
0
LINE
8
0
10
224.7303514
20
-105.2896118
11
221.7354655
21
-105.2634758
0
LINE
8
0
10
221.7354655
20
-105.2634758
11
221.7353782
21
-105.2734754
0
LINE
8
0
10
221.4776316
20
-146.2676087
11
224.4725175
21
-146.2937447
0
LINE
8
0
10
224.4825171
20
-146.2938319
11
227.0774496
21
-146.3164776
0
LINE
8
0
10
227.0775369
20
-146.3064779
11
224.4826044
21
-146.2838323
0
LINE
8
0
10
224.4726048
20
-146.2837451
11
221.4777189
21
-146.2576091
0
LINE
8
0
10
221.4777189
20
-146.2576091
11
221.4776316
21
-146.2676087
0
LINE
8
0
10
259.2241778
20
-158.1135325
11
259.6496268
21
-155.1489046
0
LINE
8
0
10
259.6510473
20
-155.139006
11
260.0196794
21
-152.5702909
0
LINE
8
0
10
260.0097808
20
-152.5688704
11
259.6411487
21
-155.1375855
0
LINE
8
0
10
259.6397282
20
-155.1474841
11
259.2142792
21
-158.112112
0
LINE
8
0
10
259.2142792
20
-158.112112
11
259.2241778
21
-158.1135325
0
LINE
8
0
10
178.3242786
20
-151.7888391
11
178.3342143
21
-151.7877071
0
LINE
8
0
10
178.3342143
20
-151.7877071
11
178.1083739
21
-149.8055312
0
LINE
8
0
10
178.1072418
20
-149.7955955
11
177.9266791
21
-148.2108174
0
LINE
8
0
10
177.9167435
20
-148.2119494
11
178.0973061
21
-149.7967276
0
LINE
8
0
10
178.0984382
20
-149.8066633
11
178.3242786
21
-151.7888391
0
LINE
8
0
10
176.399824
20
-134.8981176
11
176.4097597
21
-134.8969856
0
LINE
8
0
10
176.4097597
20
-134.8969856
11
176.1839193
21
-132.9148097
0
LINE
8
0
10
176.1827872
20
-132.904874
11
176.0022245
21
-131.3200959
0
LINE
8
0
10
175.9922889
20
-131.3212279
11
176.1728515
21
-132.9060061
0
LINE
8
0
10
176.1739836
20
-132.9159418
11
176.399824
21
-134.8981176
0
LINE
8
0
10
174.4753694
20
-118.007396
11
174.4853051
21
-118.006264
0
LINE
8
0
10
174.4853051
20
-118.006264
11
174.2594647
21
-116.0240881
0
LINE
8
0
10
174.2583326
20
-116.0141524
11
174.0777699
21
-114.4293743
0
LINE
8
0
10
174.0678343
20
-114.4305063
11
174.2483969
21
-116.0152845
0
LINE
8
0
10
174.249529
20
-116.0252202
11
174.4753694
21
-118.007396
0
LINE
8
0
10
196.2705263
20
-142.6935799
11
196.2805168
21
-142.6931437
0
LINE
8
0
10
196.2805168
20
-142.6931437
11
196.1934961
21
-140.7000426
0
LINE
8
0
10
196.19306
20
-140.6900521
11
196.1234857
21
-139.096539
0
LINE
8
0
10
196.1134951
20
-139.0969752
11
196.1830695
21
-140.6904882
0
LINE
8
0
10
196.1835056
20
-140.7004787
11
196.2705263
21
-142.6935799
0
LINE
8
0
10
195.5289968
20
-125.70976
11
195.5389873
21
-125.7093238
0
LINE
8
0
10
195.5389873
20
-125.7093238
11
195.4519666
21
-123.7162227
0
LINE
8
0
10
195.4515305
20
-123.7062322
11
195.3819562
21
-122.1127191
0
LINE
8
0
10
195.3719656
20
-122.1131553
11
195.44154
21
-123.7066683
0
LINE
8
0
10
195.4419761
20
-123.7166588
11
195.5289968
21
-125.70976
0
LINE
8
0
10
194.7874672
20
-108.7259402
11
194.7974577
21
-108.725504
0
LINE
8
0
10
194.7974577
20
-108.725504
11
194.710437
21
-106.7324029
0
LINE
8
0
10
194.7100009
20
-106.7224124
11
194.6404266
21
-105.1288993
0
LINE
8
0
10
194.630436
20
-105.1293355
11
194.7000104
21
-106.7228485
0
LINE
8
0
10
194.7004465
20
-106.732839
11
194.7874672
21
-108.7259402
0
LINE
8
0
10
214.9645553
20
-136.8712233
11
214.9745549
21
-136.871136
0
LINE
8
0
10
214.9745549
20
-136.871136
11
214.9571454
21
-134.876212
0
LINE
8
0
10
214.9570582
20
-134.8662124
11
214.9431391
21
-133.2712419
0
LINE
8
0
10
214.9331394
20
-133.2713292
11
214.9470586
21
-134.8662996
0
LINE
8
0
10
214.9471458
20
-134.8762992
11
214.9645553
21
-136.8712233
0
LINE
8
0
10
214.8162043
20
-119.8718707
11
214.8262039
21
-119.8717834
0
LINE
8
0
10
214.8262039
20
-119.8717834
11
214.8087944
21
-117.8768594
0
LINE
8
0
10
214.8087072
20
-117.8668598
11
214.7947881
21
-116.2718893
0
LINE
8
0
10
214.7847884
20
-116.2719766
11
214.7987076
21
-117.866947
0
LINE
8
0
10
214.7987948
20
-117.8769466
11
214.8162043
21
-119.8718707
0
LINE
8
0
10
214.6678532
20
-102.872518
11
214.6778528
21
-102.8724307
0
LINE
8
0
10
214.6778528
20
-102.8724307
11
214.6604433
21
-100.8775067
0
LINE
8
0
10
214.6603561
20
-100.8675071
11
214.646437
21
-99.2725366
0
LINE
8
0
10
214.6364373
20
-99.2726239
11
214.6503565
21
-100.8675943
0
LINE
8
0
10
214.6504437
20
-100.8775939
11
214.6678532
21
-102.872518
0
LINE
8
0
10
233.9202061
20
-139.7045212
11
233.9302027
21
-139.7047829
0
LINE
8
0
10
233.9302027
20
-139.7047829
11
233.9824257
21
-137.7104665
0
LINE
8
0
10
233.9826875
20
-137.70047
11
234.0244405
21
-136.1059854
0
LINE
8
0
10
234.014444
20
-136.1057236
11
233.9726909
21
-137.7002083
0
LINE
8
0
10
233.9724291
20
-137.7102048
11
233.9202061
21
-139.7045212
0
LINE
8
0
10
234.3652142
20
-122.7103467
11
234.3752108
21
-122.7106084
0
LINE
8
0
10
234.3752108
20
-122.7106084
11
234.4274338
21
-120.716292
0
LINE
8
0
10
234.4276956
20
-120.7062955
11
234.4694486
21
-119.1118109
0
LINE
8
0
10
234.4594521
20
-119.1115491
11
234.417699
21
-120.7060338
0
LINE
8
0
10
234.4174372
20
-120.7160303
11
234.3652142
21
-122.7103467
0
LINE
8
0
10
234.8102223
20
-105.7161721
11
234.8202189
21
-105.7164338
0
LINE
8
0
10
234.8202189
20
-105.7164338
11
234.8724419
21
-103.7221174
0
LINE
8
0
10
234.8727037
20
-103.7121209
11
234.9144567
21
-102.1176363
0
LINE
8
0
10
234.9044602
20
-102.1173745
11
234.8627071
21
-103.7118592
0
LINE
8
0
10
234.8624453
20
-103.7218557
11
234.8102223
21
-105.7161721
0
LINE
8
0
10
252.7479286
20
-145.1988645
11
252.7579191
21
-145.1993007
0
LINE
8
0
10
252.7579191
20
-145.1993007
11
252.8449398
21
-143.2061995
0
LINE
8
0
10
252.8453759
20
-143.196209
11
252.9149503
21
-141.602696
0
LINE
8
0
10
252.9049597
20
-141.6022598
11
252.8353854
21
-143.1957729
0
LINE
8
0
10
252.8349493
20
-143.2057634
11
252.7479286
21
-145.1988645
0
LINE
8
0
10
253.4894582
20
-128.2150448
11
253.4994487
21
-128.215481
0
LINE
8
0
10
253.4994487
20
-128.215481
11
253.5864694
21
-126.2223798
0
LINE
8
0
10
253.5869055
20
-126.2123893
11
253.6564799
21
-124.6188763
0
LINE
8
0
10
253.6464893
20
-124.6184401
11
253.576915
21
-126.2119532
0
LINE
8
0
10
253.5764789
20
-126.2219437
11
253.4894582
21
-128.2150448
0
LINE
8
0
10
254.2309878
20
-111.231225
11
254.2409783
21
-111.2316612
0
LINE
8
0
10
254.2409783
20
-111.2316612
11
254.327999
21
-109.23856
0
LINE
8
0
10
254.3284351
20
-109.2285695
11
254.3980095
21
-107.6350565
0
LINE
8
0
10
254.3880189
20
-107.6346203
11
254.3184446
21
-109.2281334
0
LINE
8
0
10
254.3180085
20
-109.2381239
11
254.2309878
21
-111.231225
0
LINE
8
0
10
225.8810864
20
-158.1753781
11
225.891083
21
-158.1756398
0
LINE
8
0
10
225.891083
20
-158.1756398
11
225.943306
21
-156.1813234
0
LINE
8
0
10
225.9435678
20
-156.1713269
11
225.9853208
21
-154.5768423
0
LINE
8
0
10
225.9753243
20
-154.5765805
11
225.9335712
21
-156.1710652
0
LINE
8
0
10
225.9333094
20
-156.1810617
11
225.8810864
21
-158.1753781
0
LINE
8
0
10
247.477047
20
-163.7208071
11
247.4869098
21
-163.7224575
0
LINE
8
0
10
247.4869098
20
-163.7224575
11
247.8161798
21
-161.7548177
0
LINE
8
0
10
247.8178302
20
-161.7449549
11
248.0810863
21
-160.1717986
0
LINE
8
0
10
248.0712235
20
-160.1701481
11
247.8079674
21
-161.7433045
0
LINE
8
0
10
247.806317
20
-161.7531673
11
247.477047
21
-163.7208071
0
LINE
8
0
10
267.1652827
20
-164.7878357
11
267.1631183
21
-164.7975987
0
LINE
8
0
10
267.1631183
20
-164.7975987
11
269.1108288
21
-165.2293957
0
LINE
8
0
10
269.1205917
20
-165.2315601
11
270.6778144
21
-165.576788
0
LINE
8
0
10
270.6799788
20
-165.567025
11
269.1227562
21
-165.2217971
0
LINE
8
0
10
269.1129933
20
-165.2196327
11
267.1652827
21
-164.7878357
0
LINE
8
0
10
185.0626296
20
-118.8457664
11
185.0725988
21
-118.8449818
0
LINE
8
0
10
185.0725988
20
-118.8449818
11
184.9160729
21
-116.8561317
0
LINE
8
0
10
184.9152883
20
-116.8461625
11
184.7901436
21
-115.2560482
0
LINE
8
0
10
184.7801744
20
-115.2568328
11
184.9053191
21
-116.846947
0
LINE
8
0
10
184.9061037
20
-116.8569162
11
185.0626296
21
-118.8457664
0
LINE
8
0
10
186.630999
20
-138.7737891
11
186.6409682
21
-138.7730045
0
LINE
8
0
10
186.6409682
20
-138.7730045
11
186.4844423
21
-136.7841544
0
LINE
8
0
10
186.4836577
20
-136.7741852
11
186.358513
21
-135.1840709
0
LINE
8
0
10
186.3485438
20
-135.1848555
11
186.4736885
21
-136.7749697
0
LINE
8
0
10
186.4744731
20
-136.7849389
11
186.630999
21
-138.7737891
0
LINE
8
0
10
224.7128547
20
-107.2945354
11
224.7228543
21
-107.2946227
0
LINE
8
0
10
224.7228543
20
-107.2946227
11
224.7402638
21
-105.2996986
0
LINE
8
0
10
224.740351
20
-105.289699
11
224.7542702
21
-103.6947286
0
LINE
8
0
10
224.7442705
20
-103.6946413
11
224.7303514
21
-105.2896118
0
LINE
8
0
10
224.7302642
20
-105.2996114
11
224.7128547
21
-107.2945354
0
LINE
8
0
10
224.4551081
20
-148.2886687
11
224.4651077
21
-148.288756
0
LINE
8
0
10
224.4651077
20
-148.288756
11
224.4825171
21
-146.2938319
0
LINE
8
0
10
224.4826044
20
-146.2838323
11
224.4965236
21
-144.6888619
0
LINE
8
0
10
224.4865239
20
-144.6887746
11
224.4726048
21
-146.2837451
0
LINE
8
0
10
224.4725175
20
-146.2937447
11
224.4551081
21
-148.2886687
0
LINE
8
0
10
261.6243955
20
-155.4323006
11
261.625816
21
-155.422402
0
LINE
8
0
10
261.625816
20
-155.422402
11
259.6510473
21
-155.139006
0
LINE
8
0
10
259.6411487
20
-155.1375855
11
258.0622925
21
-154.9110064
0
LINE
8
0
10
258.060872
20
-154.920905
11
259.6397282
21
-155.1474841
0
LINE
8
0
10
259.6496268
20
-155.1489046
11
261.6243955
21
-155.4323006
0
ARC
8
0
10
181.0835556
20
-149.4615198
40
0.4
50
187.2162003
51
545.7837859
0
ARC
8
0
10
179.159101
20
-132.5707983
40
0.4
50
187.2162003
51
545.7837859
0
ARC
8
0
10
177.2346464
20
-115.6800767
40
0.4
50
187.2162003
51
545.7837859
0
ARC
8
0
10
199.1854275
20
-140.5644072
40
0.4
50
183.2162253
51
541.7837767
0
ARC
8
0
10
198.443898
20
-123.5805873
40
0.4
50
183.2162253
51
541.7837767
0
ARC
8
0
10
197.7023684
20
-106.5967675
40
0.4
50
183.2162253
51
541.7837767
0
ARC
8
0
10
217.9519878
20
-134.8450762
40
0.4
50
181.2162229
51
539.7837796
0
ARC
8
0
10
217.8036368
20
-117.8457236
40
0.4
50
181.2162229
51
539.7837796
0
ARC
8
0
10
217.6552857
20
-100.8463709
40
0.4
50
181.2162229
51
539.7837796
0
ARC
8
0
10
236.9765303
20
-137.7838682
40
0.4
50
179.2162123
51
537.7838052
0
ARC
8
0
10
237.4215384
20
-120.7896937
40
0.4
50
179.2162123
51
537.7838052
0
ARC
8
0
10
237.8665465
20
-103.7955191
40
0.4
50
179.2162123
51
537.7838052
0
ARC
8
0
10
255.8373073
20
-143.3318444
40
0.4
50
178.2162233
51
536.7837747
0
ARC
8
0
10
256.5788369
20
-126.3480247
40
0.4
50
178.2162233
51
536.7837747
0
ARC
8
0
10
257.3203665
20
-109.3642049
40
0.4
50
178.2162233
51
536.7837747
0
ARC
8
0
10
228.9374106
20
-156.2547251
40
0.4
50
179.2162123
51
537.7838052
0
ARC
8
0
10
250.7709304
20
-162.2442039
40
0.4
50
171.2162107
51
529.7837864
0
ARC
8
0
10
268.4674737
20
-168.1544844
40
0.4
50
78.2162164
51
436.7837929
0
ARC
8
0
10
187.901448
20
-116.6161621
40
0.4
50
185.2162195
51
543.7837839
0
ARC
8
0
10
189.4698174
20
-136.5441848
40
0.4
50
185.2162195
51
543.7837839
0
ARC
8
0
10
227.7351934
20
-105.3208348
40
0.4
50
180.2162204
51
538.7837771
0
ARC
8
0
10
227.4774468
20
-146.3149681
40
0.4
50
180.2162204
51
538.7837771
0
ARC
8
0
10
260.0715469
20
-152.173668
40
0.4
50
262.549548
51
621.1171154
0
ARC
8
0
10
177.8764336
20
-147.8139857
40
0.4
50
277.2162003
51
635.7837859
0
ARC
8
0
10
175.951979
20
-130.9232642
40
0.4
50
277.2162003
51
635.7837859
0
ARC
8
0
10
174.0275244
20
-114.0325426
40
0.4
50
277.2162003
51
635.7837859
0
ARC
8
0
10
196.101044
20
-138.697169
40
0.4
50
273.2162253
51
631.7837767
0
ARC
8
0
10
195.3595145
20
-121.7133491
40
0.4
50
273.2162253
51
631.7837767
0
ARC
8
0
10
194.6179849
20
-104.7295293
40
0.4
50
273.2162253
51
631.7837767
0
ARC
8
0
10
214.9346489
20
-132.871332
40
0.4
50
271.2162229
51
629.7837796
0
ARC
8
0
10
214.7862979
20
-115.8719794
40
0.4
50
271.2162229
51
629.7837796
0
ARC
8
0
10
214.6379468
20
-98.8726267
40
0.4
50
271.2162229
51
629.7837796
0
ARC
8
0
10
234.0299122
20
-135.7060228
40
0.4
50
269.2162123
51
627.7837909
0
ARC
8
0
10
234.4749203
20
-118.7118483
40
0.4
50
269.2162123
51
627.7837909
0
ARC
8
0
10
234.9199284
20
-101.7176737
40
0.4
50
269.2162123
51
627.7837909
0
ARC
8
0
10
252.9274014
20
-141.2028898
40
0.4
50
268.2162233
51
626.7837747
0
ARC
8
0
10
253.668931
20
-124.2190701
40
0.4
50
268.2162233
51
626.7837747
0
ARC
8
0
10
254.4104606
20
-107.2352503
40
0.4
50
268.2162233
51
626.7837747
0
ARC
8
0
10
225.9907925
20
-154.1768797
40
0.4
50
269.2162123
51
627.7837909
0
ARC
8
0
10
248.1421688
20
-159.7764899
40
0.4
50
261.2162107
51
619.7837864
0
ARC
8
0
10
271.0693845
20
-165.6584756
40
0.4
50
168.2162164
51
526.7837789
0
ARC
8
0
10
184.7537778
20
-114.8577047
40
0.4
50
275.2162195
51
633.7837839
0
ARC
8
0
10
186.3221472
20
-134.7857274
40
0.4
50
275.2162195
51
633.7837839
0
ARC
8
0
10
224.7527607
20
-103.2947314
40
0.4
50
270.2162204
51
628.7837771
0
ARC
8
0
10
224.4950141
20
-144.2888647
40
0.4
50
270.2162204
51
628.7837771
0
ARC
8
0
10
257.6656696
20
-154.8591389
40
0.4
50
352.549548
51
711.1171154
0
LINE
8
0
10
170.1229206
20
-159.2653191
11
188.007214
21
-157.2276612
0
LINE
8
0
10
184.1583048
20
-123.4462182
11
188.007214
21
-157.2276612
0
LINE
8
0
10
166.2740114
20
-125.4838761
11
170.1229206
21
-159.2653191
0
LINE
8
0
10
166.2740114
20
-125.4838761
11
184.1583048
21
-123.4462181
0
LINE
8
0
10
184.1583048
20
-123.4462181
11
182.2338502
21
-106.5554966
0
LINE
8
0
10
182.2338502
20
-106.5554966
11
164.3495568
21
-108.5931545
0
LINE
8
0
10
164.3495568
20
-108.5931545
11
166.2740114
21
-125.483876
0
LINE
8
0
10
187.5676136
20
-149.5797498
11
205.5504816
21
-148.7946008
0
LINE
8
0
10
205.5504816
20
-148.7946008
11
204.808952
21
-131.810781
0
LINE
8
0
10
186.826084
20
-132.59593
11
204.8089521
21
-131.8107809
0
LINE
8
0
10
186.826084
20
-132.59593
11
187.5676136
21
-149.5797498
0
LINE
8
0
10
203.3258929
20
-97.8431413
11
204.8089521
21
-131.8107809
0
LINE
8
0
10
185.3430249
20
-98.6282903
11
186.8260841
21
-132.5959299
0
LINE
8
0
10
203.3258929
20
-97.8431413
11
185.3430249
21
-98.6282903
0
LINE
8
0
10
206.0266202
20
-143.449471
11
224.0259349
21
-143.2923933
0
LINE
8
0
10
223.5808817
20
-92.2943353
11
224.0259349
21
-143.2923933
0
LINE
8
0
10
223.8775838
20
-126.2930406
11
205.8782691
21
-126.4501183
0
LINE
8
0
10
205.581567
20
-92.451413
11
206.0266202
21
-143.449471
0
LINE
8
0
10
205.8782692
20
-126.4501184
11
223.8775839
21
-126.2930407
0
LINE
8
0
10
223.5808817
20
-92.2943353
11
205.581567
21
-92.451413
0
LINE
8
0
10
224.7581383
20
-145.9668321
11
242.7519702
21
-146.4380172
0
LINE
8
0
10
242.7519702
20
-146.4380172
11
243.6419864
21
-112.4496682
0
LINE
8
0
10
224.7581383
20
-145.9668321
11
225.6481545
21
-111.9784831
0
LINE
8
0
10
225.6481545
20
-111.978483
11
243.6419864
21
-112.4496682
0
LINE
8
0
10
243.6419864
20
-112.4496681
11
244.0869945
21
-95.4554936
0
LINE
8
0
10
244.0869945
20
-95.4554936
11
226.0931626
21
-94.9843085
0
LINE
8
0
10
226.0931626
20
-94.9843085
11
225.6481545
21
-111.978483
0
LINE
8
0
10
243.4779638
20
-151.3003216
11
261.4608318
21
-152.0854706
0
LINE
8
0
10
261.4608318
20
-152.0854706
11
263.6854206
21
-101.1340113
0
LINE
8
0
10
243.4779638
20
-151.3003216
11
245.7025526
21
-100.3488623
0
LINE
8
0
10
263.6854206
20
-101.1340113
11
245.7025526
21
-100.3488623
0
LINE
8
0
10
216.7190186
20
-164.437689
11
234.7128505
21
-164.9088741
0
LINE
8
0
10
234.7128505
20
-164.9088741
11
235.1578586
21
-147.9146996
0
LINE
8
0
10
235.1578586
20
-147.9146996
11
217.1640267
21
-147.4435145
0
LINE
8
0
10
217.1640267
20
-147.4435145
11
216.7190186
21
-164.437689
0
LINE
8
0
10
237.5325985
20
-168.6470603
11
255.2857394
21
-171.6179172
0
LINE
8
0
10
255.2857394
20
-171.6179172
11
258.0915487
21
-154.8510619
0
LINE
8
0
10
258.0915487
20
-154.8510619
11
240.3384078
21
-151.880205
0
LINE
8
0
10
240.3384078
20
-151.880205
11
237.5325985
21
-168.6470603
0
LINE
8
0
10
262.766233
20
-154.5991956
11
258.8703199
21
-172.1725237
0
LINE
8
0
10
258.8703199
20
-172.1725237
11
275.467352
21
-175.8519972
0
LINE
8
0
10
275.467352
20
-175.8519972
11
279.3632651
21
-158.2786691
0
LINE
8
0
10
279.3632651
20
-158.2786691
11
262.766233
21
-154.5991956
0
LINE
8
0
10
172.0282964
20
-157.4378774
11
185.739588
21
-155.875673
0
LINE
8
0
10
184.1773836
20
-142.1643814
11
185.739588
21
-155.875673
0
LINE
8
0
10
170.466092
20
-143.7265858
11
184.1773836
21
-142.1643814
0
LINE
8
0
10
170.466092
20
-143.7265858
11
172.0282964
21
-157.4378774
0
LINE
8
0
10
170.1038418
20
-140.5471559
11
183.8151334
21
-138.9849515
0
LINE
8
0
10
182.252929
20
-125.2736599
11
183.8151334
21
-138.9849515
0
LINE
8
0
10
168.5416374
20
-126.8358643
11
182.252929
21
-125.2736599
0
LINE
8
0
10
168.5416374
20
-126.8358643
11
170.1038418
21
-140.5471559
0
LINE
8
0
10
168.1793872
20
-123.6564343
11
181.8906788
21
-122.0942299
0
LINE
8
0
10
180.3284744
20
-108.3829383
11
181.8906788
21
-122.0942299
0
LINE
8
0
10
166.6171828
20
-109.9451427
11
180.3284744
21
-108.3829383
0
LINE
8
0
10
166.6171828
20
-109.9451427
11
168.1793872
21
-123.6564343
0
LINE
8
0
10
189.5958238
20
-147.8896719
11
203.3826893
21
-147.2877244
0
LINE
8
0
10
202.7807418
20
-133.5008589
11
203.3826893
21
-147.2877244
0
LINE
8
0
10
188.9938763
20
-134.1028064
11
202.7807418
21
-133.5008589
0
LINE
8
0
10
188.9938763
20
-134.1028064
11
189.5958238
21
-147.8896719
0
LINE
8
0
10
188.8542943
20
-130.905852
11
202.6411598
21
-130.3039045
0
LINE
8
0
10
202.0392123
20
-116.517039
11
202.6411598
21
-130.3039045
0
LINE
8
0
10
188.2523468
20
-117.1189865
11
202.0392123
21
-116.517039
0
LINE
8
0
10
188.2523468
20
-117.1189865
11
188.8542943
21
-130.905852
0
LINE
8
0
10
188.1127647
20
-113.9220322
11
201.8996302
21
-113.3200847
0
LINE
8
0
10
201.2976827
20
-99.5332192
11
201.8996302
21
-113.3200847
0
LINE
8
0
10
187.5108172
20
-100.1351667
11
201.2976827
21
-99.5332192
0
LINE
8
0
10
187.5108172
20
-100.1351667
11
188.1127647
21
-113.9220322
0
LINE
8
0
10
208.1125778
20
-141.8312062
11
221.9120524
21
-141.71078
0
LINE
8
0
10
221.7916262
20
-127.9113054
11
221.9120524
21
-141.71078
0
LINE
8
0
10
207.9921516
20
-128.0317316
11
221.7916262
21
-127.9113054
0
LINE
8
0
10
207.9921516
20
-128.0317316
11
208.1125778
21
-141.8312062
0
LINE
8
0
10
207.9642268
20
-124.8318536
11
221.7637014
21
-124.7114274
0
LINE
8
0
10
221.6432752
20
-110.9119528
11
221.7637014
21
-124.7114274
0
LINE
8
0
10
207.8438006
20
-111.032379
11
221.6432752
21
-110.9119528
0
LINE
8
0
10
207.8438006
20
-111.032379
11
207.9642268
21
-124.8318536
0
LINE
8
0
10
207.8158757
20
-107.8325009
11
221.6153503
21
-107.7120747
0
LINE
8
0
10
221.4949241
20
-93.9126001
11
221.6153503
21
-107.7120747
0
LINE
8
0
10
207.6954495
20
-94.0330263
11
221.4949241
21
-93.9126001
0
LINE
8
0
10
207.6954495
20
-94.0330263
11
207.8158757
21
-107.8325009
0
LINE
8
0
10
226.8993018
20
-144.422352
11
240.6945729
21
-144.7835939
0
LINE
8
0
10
240.6945729
20
-144.7835939
11
241.0558148
21
-130.9883228
0
LINE
8
0
10
227.2605437
20
-130.6270809
11
241.0558148
21
-130.9883228
0
LINE
8
0
10
226.8993018
20
-144.422352
11
227.2605437
21
-130.6270809
0
LINE
8
0
10
227.3443099
20
-127.4281775
11
241.139581
21
-127.7894194
0
LINE
8
0
10
241.139581
20
-127.7894194
11
241.5008229
21
-113.9941483
0
LINE
8
0
10
227.7055518
20
-113.6329064
11
241.5008229
21
-113.9941483
0
LINE
8
0
10
227.3443099
20
-127.4281775
11
227.7055518
21
-113.6329064
0
LINE
8
0
10
227.789318
20
-110.4340029
11
241.5845891
21
-110.7952448
0
LINE
8
0
10
241.5845891
20
-110.7952448
11
241.945831
21
-96.9999737
0
LINE
8
0
10
228.1505599
20
-96.6387318
11
241.945831
21
-96.9999737
0
LINE
8
0
10
227.789318
20
-110.4340029
11
228.1505599
21
-96.6387318
0
LINE
8
0
10
245.6457561
20
-149.7934452
11
259.4326216
21
-150.3953927
0
LINE
8
0
10
259.4326216
20
-150.3953927
11
260.0345691
21
-136.6085272
0
LINE
8
0
10
246.2477036
20
-136.0065797
11
260.0345691
21
-136.6085272
0
LINE
8
0
10
245.6457561
20
-149.7934452
11
246.2477036
21
-136.0065797
0
LINE
8
0
10
246.3872857
20
-132.8096255
11
260.1741512
21
-133.411573
0
LINE
8
0
10
260.1741512
20
-133.411573
11
260.7760987
21
-119.6247075
0
LINE
8
0
10
246.9892332
20
-119.02276
11
260.7760987
21
-119.6247075
0
LINE
8
0
10
246.3872857
20
-132.8096255
11
246.9892332
21
-119.02276
0
LINE
8
0
10
247.1288153
20
-115.8258057
11
260.9156808
21
-116.4277532
0
LINE
8
0
10
260.9156808
20
-116.4277532
11
261.5176283
21
-102.6408877
0
LINE
8
0
10
247.7307628
20
-102.0389402
11
261.5176283
21
-102.6408877
0
LINE
8
0
10
247.1288153
20
-115.8258057
11
247.7307628
21
-102.0389402
0
LINE
8
0
10
218.8601821
20
-162.8932089
11
232.6554532
21
-163.2544508
0
LINE
8
0
10
232.6554532
20
-163.2544508
11
233.0166951
21
-149.4591797
0
LINE
8
0
10
219.221424
20
-149.0979378
11
233.0166951
21
-149.4591797
0
LINE
8
0
10
218.8601821
20
-162.8932089
11
219.221424
21
-149.0979378
0
LINE
8
0
10
239.8678745
20
-167.4156033
11
253.4786158
21
-169.6932602
0
LINE
8
0
10
253.4786158
20
-169.6932602
11
255.7562727
21
-156.0825189
0
LINE
8
0
10
242.1455314
20
-153.804862
11
255.7562727
21
-156.0825189
0
LINE
8
0
10
239.8678745
20
-167.4156033
11
242.1455314
21
-153.804862
0
LINE
8
0
10
260.8869167
20
-170.4686055
11
263.8737834
21
-156.9957206
0
LINE
8
0
10
260.8869167
20
-170.4686055
11
274.3598016
21
-173.4554722
0
LINE
8
0
10
274.3598016
20
-173.4554722
11
277.3466683
21
-159.9825873
0
LINE
8
0
10
263.8737834
20
-156.9957206
11
277.3466683
21
-159.9825873
0
CIRCLE
8
0
10
184.910696
20
-116.8515394
40
2
0
CIRCLE
8
0
10
186.4790654
20
-136.7795621
40
2
0
CIRCLE
8
0
10
224.7353076
20
-105.2946552
40
2
0
CIRCLE
8
0
10
224.477561
20
-146.2887885
40
2
0
CIRCLE
8
0
10
259.6453877
20
-155.1432451
40
2
0
LINE
8
0
10
170.3430128
20
-158.9886253
11
187.7305203
21
-157.0075691
0
LINE
8
0
10
187.7305203
20
-157.0075691
11
185.8626672
21
-140.6136335
0
LINE
8
0
10
185.8626672
20
-140.6136335
11
168.4751597
21
-142.5946897
0
LINE
8
0
10
168.4751597
20
-142.5946897
11
170.3430128
21
-158.9886253
0
LINE
8
0
10
168.4185582
20
-142.0979038
11
185.8060657
21
-140.1168476
0
LINE
8
0
10
185.8060657
20
-140.1168476
11
183.9382126
21
-123.722912
0
LINE
8
0
10
183.9382126
20
-123.722912
11
166.5507051
21
-125.7039682
0
LINE
8
0
10
166.5507051
20
-125.7039682
11
168.4185582
21
-142.0979038
0
LINE
8
0
10
166.4941036
20
-125.2071822
11
183.8816111
21
-123.226126
0
LINE
8
0
10
183.8816111
20
-123.226126
11
182.013758
21
-106.8321904
0
LINE
8
0
10
182.013758
20
-106.8321904
11
164.6262505
21
-108.8132466
0
LINE
8
0
10
164.6262505
20
-108.8132466
11
166.4941036
21
-125.2071822
0
LINE
8
0
10
187.8064708
20
-149.3190829
11
205.2898147
21
-148.5557436
0
LINE
8
0
10
205.2898147
20
-148.5557436
11
204.5700948
21
-132.0714479
0
LINE
8
0
10
204.5700948
20
-132.0714479
11
187.0867509
21
-132.8347872
0
LINE
8
0
10
187.0867509
20
-132.8347872
11
187.8064708
21
-149.3190829
0
LINE
8
0
10
187.0649413
20
-132.335263
11
204.5482852
21
-131.5719237
0
LINE
8
0
10
204.5482852
20
-131.5719237
11
203.8285653
21
-115.087628
0
LINE
8
0
10
203.8285653
20
-115.087628
11
186.3452214
21
-115.8509673
0
LINE
8
0
10
186.3452214
20
-115.8509673
11
187.0649413
21
-132.335263
0
LINE
8
0
10
186.3234117
20
-115.3514432
11
203.8067556
21
-114.5881039
0
LINE
8
0
10
203.8067556
20
-114.5881039
11
203.0870357
21
-98.1038082
0
LINE
8
0
10
203.0870357
20
-98.1038082
11
185.6036918
21
-98.8671475
0
LINE
8
0
10
185.6036918
20
-98.8671475
11
186.3234117
21
-115.3514432
0
LINE
8
0
10
206.2744291
20
-143.1972989
11
223.7737627
21
-143.0445845
0
LINE
8
0
10
223.7737627
20
-143.0445845
11
223.6297749
21
-126.5452127
0
LINE
8
0
10
223.6297749
20
-126.5452127
11
206.1304413
21
-126.6979271
0
LINE
8
0
10
206.1304413
20
-126.6979271
11
206.2744291
21
-143.1972989
0
LINE
8
0
10
206.1260781
20
-126.1979463
11
223.6254117
21
-126.0452319
0
LINE
8
0
10
223.6254117
20
-126.0452319
11
223.4814239
21
-109.5458601
0
LINE
8
0
10
223.4814239
20
-109.5458601
11
205.9820903
21
-109.6985745
0
LINE
8
0
10
205.9820903
20
-109.6985745
11
206.1260781
21
-126.1979463
0
LINE
8
0
10
205.977727
20
-109.1985936
11
223.4770606
21
-109.0458792
0
LINE
8
0
10
223.4770606
20
-109.0458792
11
223.3330728
21
-92.5465074
0
LINE
8
0
10
223.3330728
20
-92.5465074
11
205.8337392
21
-92.6992218
0
LINE
8
0
10
205.8337392
20
-92.6992218
11
205.977727
21
-109.1985936
0
LINE
8
0
10
225.0145969
20
-145.723462
11
242.5086001
21
-146.1815586
0
LINE
8
0
10
242.5086001
20
-146.1815586
11
242.9405197
21
-129.6872128
0
LINE
8
0
10
242.9405197
20
-129.6872128
11
225.4465165
21
-129.2291162
0
LINE
8
0
10
225.4465165
20
-129.2291162
11
225.0145969
21
-145.723462
0
LINE
8
0
10
225.459605
20
-128.7292875
11
242.9536082
21
-129.1873841
0
LINE
8
0
10
242.9536082
20
-129.1873841
11
243.3855278
21
-112.6930383
0
LINE
8
0
10
243.3855278
20
-112.6930383
11
225.8915246
21
-112.2349417
0
LINE
8
0
10
225.8915246
20
-112.2349417
11
225.459605
21
-128.7292875
0
LINE
8
0
10
225.9046131
20
-111.7351129
11
243.3986163
21
-112.1932095
0
LINE
8
0
10
243.3986163
20
-112.1932095
11
243.8305359
21
-95.6988637
0
LINE
8
0
10
243.8305359
20
-95.6988637
11
226.3365327
21
-95.2407671
0
LINE
8
0
10
226.3365327
20
-95.2407671
11
225.9046131
21
-111.7351129
0
LINE
8
0
10
243.7386307
20
-151.0614644
11
261.2219746
21
-151.8248037
0
LINE
8
0
10
261.2219746
20
-151.8248037
11
261.9416945
21
-135.340508
0
LINE
8
0
10
261.9416945
20
-135.340508
11
244.4583506
21
-134.5771687
0
LINE
8
0
10
244.4583506
20
-134.5771687
11
243.7386307
21
-151.0614644
0
LINE
8
0
10
244.4801603
20
-134.0776447
11
261.9635042
21
-134.840984
0
LINE
8
0
10
261.9635042
20
-134.840984
11
262.6832241
21
-118.3566883
0
LINE
8
0
10
262.6832241
20
-118.3566883
11
245.1998802
21
-117.593349
0
LINE
8
0
10
245.1998802
20
-117.593349
11
244.4801603
21
-134.0776447
0
LINE
8
0
10
245.2216899
20
-117.0938249
11
262.7050338
21
-117.8571642
0
LINE
8
0
10
262.7050338
20
-117.8571642
11
263.4247537
21
-101.3728685
0
LINE
8
0
10
263.4247537
20
-101.3728685
11
245.9414098
21
-100.6095292
0
LINE
8
0
10
245.9414098
20
-100.6095292
11
245.2216899
21
-117.0938249
0
LINE
8
0
10
216.9754772
20
-164.1943189
11
234.4694804
21
-164.6524155
0
LINE
8
0
10
234.4694804
20
-164.6524155
11
234.9014
21
-148.1580697
0
LINE
8
0
10
234.9014
20
-148.1580697
11
217.4073968
21
-147.6999731
0
LINE
8
0
10
217.4073968
20
-147.6999731
11
216.9754772
21
-164.1943189
0
LINE
8
0
10
237.8204318
20
-168.4417508
11
255.0804299
21
-171.3300839
0
LINE
8
0
10
255.0804299
20
-171.3300839
11
257.8037154
21
-155.0563714
0
LINE
8
0
10
257.8037154
20
-155.0563714
11
240.5437173
21
-152.1680383
0
LINE
8
0
10
240.5437173
20
-152.1680383
11
237.8204318
21
-168.4417508
0
LINE
8
0
10
262.9561971
20
-154.8973795
11
259.1685038
21
-171.9825596
0
LINE
8
0
10
259.1685038
20
-171.9825596
11
275.2773879
21
-175.5538133
0
LINE
8
0
10
275.2773879
20
-175.5538133
11
279.0650812
21
-158.4686332
0
LINE
8
0
10
279.0650812
20
-158.4686332
11
262.9561971
21
-154.8973795
0
LINE
8
0
10
170.349327
20
-161.2524628
11
188.2336204
21
-159.2148049
0
ARC
8
0
10
188.007214
20
-157.2276612
40
2
50
276.5000002
51
366.4999993
0
LINE
8
0
10
189.9943577
20
-157.0012548
11
189.4893122
21
-152.5685275
0
LINE
8
0
10
190.4392647
20
-151.4562761
11
205.6377204
21
-150.7926972
0
ARC
8
0
10
205.5504816
20
-148.7946008
40
2
50
272.5000001
51
362.5000015
0
LINE
8
0
10
207.548578
20
-148.707362
11
207.4509825
21
-146.4720558
0
LINE
8
0
10
208.4413042
20
-145.4284745
11
214.1821646
21
-145.3783747
0
LINE
8
0
10
215.1647121
20
-147.3911606
11
215.1905484
21
-146.4045135
0
LINE
8
0
10
215.164712
20
-147.3911606
11
214.942208
21
-155.8882479
0
LINE
8
0
10
214.9422081
20
-155.8882479
11
214.719704
21
-164.3853351
0
ARC
8
0
10
216.7190186
20
-164.437689
40
2
50
178.4999999
51
268.5
0
LINE
8
0
10
216.6666647
20
-166.4370036
11
234.6408484
21
-166.9076742
0
LINE
8
0
10
235.600957
20
-168.0723791
11
235.5600273
21
-168.3169651
0
ARC
8
0
10
237.5325985
20
-168.6470603
40
2
50
170.4999993
51
260.5000001
0
LINE
8
0
10
237.2025033
20
-170.6196315
11
259.2952154
21
-174.3166835
0
LINE
8
0
10
259.3466074
20
-174.3266731
11
266.7359567
21
-175.9648525
0
LINE
8
0
10
266.7359568
20
-175.9648525
11
276.0107688
21
-178.0210288
0
ARC
8
0
10
276.443648
20
-176.0684368
40
2
50
257.5000001
51
347.5000007
0
LINE
8
0
10
278.39624
20
-176.501316
11
282.231088
21
-159.2034349
0
ARC
8
0
10
280.359087
20
-158.4994375
40
2
50
339.3903869
51
355.8145095
0
LINE
8
0
10
286.1750024
20
-106.4288589
11
282.353753
21
-158.6454088
0
ARC
8
0
10
284.1803364
20
-106.2828876
40
2
50
355.8145083
51
87.5
0
LINE
8
0
10
266.5844216
20
-103.512728
11
284.2675752
21
-104.2847912
0
LINE
8
0
10
265.6289928
20
-102.4700604
11
265.683517
21
-101.2212501
0
ARC
8
0
10
263.6854206
20
-101.1340113
40
2
50
357.5
51
447.4999992
0
LINE
8
0
10
246.993373
20
-98.4033154
11
263.7726594
21
-99.1359149
0
LINE
8
0
10
246.0373351
20
-97.3780902
11
246.0862925
21
-95.5084797
0
ARC
8
0
10
244.0869945
20
-95.4554936
40
2
50
358.4999997
51
448.5000014
0
LINE
8
0
10
225.5868575
20
-92.9703649
11
244.1393483
21
-93.4561789
0
LINE
8
0
10
225.5868575
20
-92.9703649
11
225.5808055
21
-92.2768822
0
ARC
8
0
10
223.5808817
20
-92.2943353
40
2
50
0.4999996
51
90.5000023
0
LINE
8
0
10
223.5634286
20
-90.2944115
11
205.5641139
21
-90.4514892
0
ARC
8
0
10
205.581567
20
-92.451413
40
2
50
90.5000002
51
180.5000008
0
LINE
8
0
10
203.5816432
20
-92.4688661
11
203.6025377
21
-94.8631375
0
LINE
8
0
10
185.2557861
20
-96.6301939
11
202.6461952
21
-95.8709122
0
ARC
8
0
10
185.3430249
20
-98.6282903
40
2
50
92.5
51
182.5000008
0
LINE
8
0
10
183.3449285
20
-98.7155291
11
183.5519072
21
-103.4561215
0
LINE
8
0
10
164.1231504
20
-106.6060108
11
182.6660622
21
-104.4933128
0
ARC
8
0
10
164.3495568
20
-108.5931545
40
2
50
96.4999993
51
186.4999999
0
LINE
8
0
10
162.3624131
20
-108.8195609
11
168.1357769
21
-159.4917255
0
ARC
8
0
10
170.1229206
20
-159.2653191
40
2
50
186.4999993
51
276.5000002
0
ARC
8
0
10
190.4828841
20
-152.4553243
40
1
50
92.5000008
51
186.4999989
0
ARC
8
0
10
208.4500307
20
-146.4284364
40
1
50
90.499998
51
182.5000008
0
ARC
8
0
10
214.1908911
20
-146.3783366
40
1
50
358.5000027
51
90.499998
0
ARC
8
0
10
234.6146714
20
-167.9073315
40
1
50
350.5000003
51
88.499997
0
ARC
8
0
10
259.1301678
20
-175.3029691
40
1
50
77.5000007
51
80.5000003
0
ARC
8
0
10
266.628041
20
-102.5136798
40
1
50
177.4999992
51
267.4999992
0
ARC
8
0
10
247.0369924
20
-97.4042672
40
1
50
178.499997
51
267.4999992
0
ARC
8
0
10
202.6025758
20
-94.871864
40
1
50
272.5000008
51
0.499998
0
ARC
8
0
10
182.552859
20
-103.4997409
40
1
50
276.4999989
51
2.5000008
0
ENDSEC
0
EOF