<svg width="120.038mm" height="89.621mm" viewBox="0 0 120.038 89.621" xmlns="http://www.w3.org/2000/svg"><g id="svgGroup" stroke-linecap="round" fill-rule="evenodd" font-size="9pt" stroke="#000" stroke-width="0.25mm" fill="none" style="stroke:#000;stroke-width:0.25mm;fill:none"><path d="M 82.578 65.308 L 100.38 67.969 L 97.719 85.771 L 79.917 83.11 L 82.578 65.308 Z M 63.125 40.67 L 81.119 41.141 L 80.648 59.135 L 62.654 58.663 L 63.125 40.67 Z M 63.623 21.676 L 81.617 22.147 L 81.145 40.141 L 63.152 39.67 L 63.623 21.676 Z M 62.292 59.728 L 80.285 60.199 L 79.814 78.193 L 61.82 77.721 L 62.292 59.728 Z M 64.12 2.683 L 82.114 3.154 L 81.643 21.148 L 63.649 20.676 L 64.12 2.683 Z M 102.399 68.394 L 120.038 71.982 L 116.449 89.621 L 98.811 86.032 L 102.399 68.394 Z M 22.964 44.335 L 40.947 43.549 L 41.732 61.532 L 23.749 62.317 L 22.964 44.335 Z M 22.135 25.353 L 40.118 24.568 L 40.903 42.55 L 22.921 43.336 L 22.135 25.353 Z M 21.307 6.371 L 39.289 5.586 L 40.075 23.569 L 22.092 24.354 L 21.307 6.371 Z M 82.75 46.029 L 100.733 46.815 L 99.948 64.797 L 81.965 64.012 L 82.75 46.029 Z M 83.579 27.048 L 101.562 27.833 L 100.777 45.816 L 82.794 45.03 L 83.579 27.048 Z M 84.408 8.066 L 102.391 8.851 L 101.605 26.834 L 83.623 26.048 L 84.408 8.066 Z M 2.151 35.238 L 20.035 33.2 L 22.073 51.085 L 4.189 53.122 L 2.151 35.238 Z M 4.302 54.116 L 22.186 52.078 L 24.224 69.963 L 6.339 72 L 4.302 54.116 Z M 0 16.36 L 17.884 14.323 L 19.922 32.207 L 2.038 34.245 L 0 16.36 Z M 42.783 38.156 L 60.782 37.999 L 60.939 55.998 L 42.94 56.155 L 42.783 38.156 Z M 42.451 0.157 L 60.451 0 L 60.608 17.999 L 42.609 18.156 L 42.451 0.157 Z M 42.949 57.205 L 60.949 57.048 L 61.106 75.047 L 43.106 75.204 L 42.949 57.205 Z M 42.617 19.156 L 60.617 18.999 L 60.774 36.999 L 42.774 37.156 L 42.617 19.156 Z" vector-effect="non-scaling-stroke"/></g></svg>