0
SECTION
2
HEADER
9
$INSUNITS
70
4
0
ENDSEC
0
SECTION
2
TABLES
0
TABLE
2
LTYPE
0
LTYPE
72
65
70
64
2
CONTINUOUS
3
______
73
0
40
0
0
ENDTAB
0
TABLE
2
LAYER
0
ENDTAB
0
ENDSEC
0
SECTION
2
ENTITIES
0
LINE
8
0
10
169.8965142
20
-157.2781754
11
187.7808076
21
-155.2405176
0
LINE
8
0
10
187.7808076
20
-155.2405176
11
189.8184654
21
-173.124811
0
LINE
8
0
10
189.8184654
20
-173.124811
11
171.934172
21
-175.1624688
0
LINE
8
0
10
171.934172
20
-175.1624688
11
169.8965142
21
-157.2781754
0
LINE
8
0
10
167.7456532
20
-138.4003101
11
185.6299466
21
-136.3626523
0
LINE
8
0
10
185.6299466
20
-136.3626523
11
187.6676044
21
-154.2469457
0
LINE
8
0
10
187.6676044
20
-154.2469457
11
169.783311
21
-156.2846035
0
LINE
8
0
10
169.783311
20
-156.2846035
11
167.7456532
21
-138.4003101
0
LINE
8
0
10
165.5947921
20
-119.5224449
11
183.4790855
21
-117.4847871
0
LINE
8
0
10
183.4790855
20
-117.4847871
11
185.5167433
21
-135.3690805
0
LINE
8
0
10
185.5167433
20
-135.3690805
11
167.6324499
21
-137.4067383
0
LINE
8
0
10
167.6324499
20
-137.4067383
11
165.5947921
21
-119.5224449
0
LINE
8
0
10
188.5589241
20
-147.4967696
11
206.5417921
21
-146.7116206
0
LINE
8
0
10
206.5417921
20
-146.7116206
11
207.3269411
21
-164.6944886
0
LINE
8
0
10
207.3269411
20
-164.6944886
11
189.3440731
21
-165.4796376
0
LINE
8
0
10
189.3440731
20
-165.4796376
11
188.5589241
21
-147.4967696
0
LINE
8
0
10
187.7301557
20
-128.5148534
11
205.7130237
21
-127.7297044
0
LINE
8
0
10
205.7130237
20
-127.7297044
11
206.4981727
21
-145.7125724
0
LINE
8
0
10
206.4981727
20
-145.7125724
11
188.5153047
21
-146.4977214
0
LINE
8
0
10
188.5153047
20
-146.4977214
11
187.7301557
21
-128.5148534
0
LINE
8
0
10
186.9013874
20
-109.5329371
11
204.8842554
21
-108.7477881
0
LINE
8
0
10
204.8842554
20
-108.7477881
11
205.6694044
21
-126.7306561
0
LINE
8
0
10
205.6694044
20
-126.7306561
11
187.6865364
21
-127.5158051
0
LINE
8
0
10
187.6865364
20
-127.5158051
11
186.9013874
21
-109.5329371
0
LINE
8
0
10
208.377842
20
-141.3177866
11
226.3771566
21
-141.160709
0
LINE
8
0
10
226.3771566
20
-141.160709
11
226.5342342
21
-159.1600236
0
LINE
8
0
10
226.5342342
20
-159.1600236
11
208.5349196
21
-159.3171012
0
LINE
8
0
10
208.5349196
20
-159.3171012
11
208.377842
21
-141.3177866
0
LINE
8
0
10
208.2120378
20
-122.3185101
11
226.2113524
21
-122.1614325
0
LINE
8
0
10
226.2113524
20
-122.1614325
11
226.36843
21
-140.1607471
0
LINE
8
0
10
226.36843
20
-140.1607471
11
208.3691154
21
-140.3178247
0
LINE
8
0
10
208.3691154
20
-140.3178247
11
208.2120378
21
-122.3185101
0
LINE
8
0
10
208.0462336
20
-103.3192335
11
226.0455482
21
-103.1621559
0
LINE
8
0
10
226.0455482
20
-103.1621559
11
226.2026258
21
-121.1614705
0
LINE
8
0
10
226.2026258
20
-121.1614705
11
208.2033112
21
-121.3185481
0
LINE
8
0
10
208.2033112
20
-121.3185481
11
208.0462336
21
-103.3192335
0
LINE
8
0
10
228.7201326
20
-143.8317516
11
246.7139645
21
-144.3029367
0
LINE
8
0
10
246.7139645
20
-144.3029367
11
246.2427794
21
-162.2967686
0
LINE
8
0
10
246.2427794
20
-162.2967686
11
228.2489475
21
-161.8255835
0
LINE
8
0
10
228.2489475
20
-161.8255835
11
228.7201326
21
-143.8317516
0
LINE
8
0
10
229.2174946
20
-124.8382625
11
247.2113265
21
-125.3094476
0
LINE
8
0
10
247.2113265
20
-125.3094476
11
246.7401414
21
-143.3032795
0
LINE
8
0
10
246.7401414
20
-143.3032795
11
228.7463095
21
-142.8320944
0
LINE
8
0
10
228.7463095
20
-142.8320944
11
229.2174946
21
-124.8382625
0
LINE
8
0
10
229.7148566
20
-105.8447733
11
247.7086885
21
-106.3159584
0
LINE
8
0
10
247.7086885
20
-106.3159584
11
247.2375034
21
-124.3097903
0
LINE
8
0
10
247.2375034
20
-124.3097903
11
229.2436715
21
-123.8386052
0
LINE
8
0
10
229.2436715
20
-123.8386052
11
229.7148566
21
-105.8447733
0
LINE
8
0
10
248.3449954
20
-149.1916065
11
266.3278634
21
-149.9767555
0
LINE
8
0
10
266.3278634
20
-149.9767555
11
265.5427144
21
-167.9596235
0
LINE
8
0
10
265.5427144
20
-167.9596235
11
247.5598464
21
-167.1744745
0
LINE
8
0
10
247.5598464
20
-167.1744745
11
248.3449954
21
-149.1916065
0
LINE
8
0
10
249.1737637
20
-130.2096903
11
267.1566317
21
-130.9948393
0
LINE
8
0
10
267.1566317
20
-130.9948393
11
266.3714827
21
-148.9777073
0
LINE
8
0
10
266.3714827
20
-148.9777073
11
248.3886147
21
-148.1925583
0
LINE
8
0
10
248.3886147
20
-148.1925583
11
249.1737637
21
-130.2096903
0
LINE
8
0
10
250.0025321
20
-111.227774
11
267.9854001
21
-112.012923
0
LINE
8
0
10
267.9854001
20
-112.012923
11
267.2002511
21
-129.995791
0
LINE
8
0
10
267.2002511
20
-129.995791
11
249.2173831
21
-129.210642
0
LINE
8
0
10
249.2173831
20
-129.210642
11
250.0025321
21
-111.227774
0
LINE
8
0
10
208.5440825
20
-160.3670612
11
226.5433971
21
-160.2099836
0
LINE
8
0
10
226.5433971
20
-160.2099836
11
226.7004747
21
-178.2092982
0
LINE
8
0
10
226.7004747
20
-178.2092982
11
208.7011601
21
-178.3663758
0
LINE
8
0
10
208.7011601
20
-178.3663758
11
208.5440825
21
-160.3670612
0
LINE
8
0
10
227.8864113
20
-162.8897528
11
245.8802432
21
-163.3609379
0
LINE
8
0
10
245.8802432
20
-163.3609379
11
245.4090581
21
-181.3547698
0
LINE
8
0
10
245.4090581
20
-181.3547698
11
227.4152262
21
-180.8835847
0
LINE
8
0
10
227.4152262
20
-180.8835847
11
227.8864113
21
-162.8897528
0
LINE
8
0
10
248.1725252
20
-168.4701004
11
265.9748108
21
-171.1306698
0
LINE
8
0
10
265.9748108
20
-171.1306698
11
263.3142414
21
-188.9329554
0
LINE
8
0
10
263.3142414
20
-188.9329554
11
245.5119558
21
-186.272386
0
LINE
8
0
10
245.5119558
20
-186.272386
11
248.1725252
21
-168.4701004
0
LINE
8
0
10
267.9939781
20
-171.55566
11
285.6326228
21
-175.1442829
0
LINE
8
0
10
285.6326228
20
-175.1442829
11
282.0439999
21
-192.7829276
0
LINE
8
0
10
282.0439999
20
-192.7829276
11
264.4053552
21
-189.1943047
0
LINE
8
0
10
264.4053552
20
-189.1943047
11
267.9939781
21
-171.55566
0
ENDSEC
0
EOF